<?xml version="1.0" standalone="no"?>
<!DOCTYPE svg PUBLIC "-//W3C//DTD SVG 1.1//EN" "http://www.w3.org/Graphics/SVG/1.1/DTD/svg11.dtd" >
<svg xmlns="http://www.w3.org/2000/svg" xmlns:xlink="http://www.w3.org/1999/xlink" version="1.1">
<metadata>
Created by FontForge 20170731 at Sun Sep 20 01:24:56 2009
 By ,,,
Copyright 2007-2009 by &#60;INDE&#62;, Andreas Kalpakidis. All rights reserved.
</metadata>
<defs>
<font id="advent-Bd1" horiz-adv-x="200" >
  <font-face 
    font-family="advent"
    font-weight="700"
    font-stretch="normal"
    units-per-em="1000"
    panose-1="2 0 5 6 4 0 0 2 0 4"
    ascent="714"
    descent="-286"
    x-height="501"
    cap-height="700"
    bbox="-61 -219 1873 963"
    underline-thickness="50"
    underline-position="-200"
    unicode-range="U+0020-FB04"
  />
<missing-glyph horiz-adv-x="500" 
d="M500 0h-500v700h500v-700zM450 50v600h-400v-600h400zM425 133l-39 -32l-136 204l-137 -205l-40 29l147 221l-147 221l40 29l137 -205l136 204l39 -32l-145 -217z" />
    <glyph glyph-name="f_f" unicode="ff" horiz-adv-x="482" 
d="M370 0h-72v548q0 32 9 61q-39 23 -76.5 22t-65.5 -25.5t-28 -61.5v-43h106l-24 -68h-82v-433h-73v543q0 103 84 143.5t200 -15.5q33 26 78 29t79 -15l-23 -64q-40 22 -76 0.5t-36 -77.5v-43h106l-24 -68h-82v-433z" />
    <glyph glyph-name="f_i" unicode="fi" horiz-adv-x="428" 
d="M364 0h-72v501h72v-501zM137 0h-73v548q0 54 27 93.5t67.5 56t91 8t94.5 -43.5l-52 -49q-56 37 -105.5 16.5t-49.5 -80.5v-48h106l-24 -68h-82v-433z" />
    <glyph glyph-name="f_l" unicode="fl" horiz-adv-x="428" 
d="M364 0h-73v614q-57 35 -105.5 14t-48.5 -79v-48h106l-24 -68h-82v-433h-73v548q0 69 42 112t108.5 45.5t149.5 -39.5v-666z" />
    <glyph glyph-name="f_f_l" unicode="ffl" horiz-adv-x="658" 
d="M594 0h-72v618q-57 29 -104.5 6t-47.5 -74v-49h106q-4 -11 -12 -33.5t-12 -34.5h-82v-433h-72v548q0 32 9 61q-39 23 -76.5 22t-65.5 -25.5t-28 -61.5v-43h106q-4 -11 -12 -33.5t-12 -34.5h-82v-433h-73v494q0 44 1 66q3 62 44 101.5t102.5 42.5t136.5 -33q34 28 84 33
t90.5 -5t71.5 -27v-672z" />
    <glyph glyph-name="w_w_w" unicode="www" horiz-adv-x="1881" 
d="M1716 0h-86q-17 67 -48.5 191t-43.5 173q-31 -122 -93 -364h-86q-41 130 -121 390q-20 -65 -60.5 -195t-61.5 -195h-86q-17 67 -48.5 191t-43.5 173q-31 -122 -93 -364h-86q-20 64 -59 191t-59 190q-80 -254 -119 -381h-86q-17 67 -48.5 191t-43.5 173q-31 -122 -93 -364
h-86l-156 501h77q20 -67 60.5 -204.5t60.5 -204.5q20 77 56.5 223l46.5 186h71q18 -67 52 -204.5t51 -204.5q12 41 46 161.5t53 183.5q6 22 18 64h80q20 -67 60 -204.5t60 -204.5q17 67 51.5 204.5t52.5 204.5h71q17 -67 51 -204.5t51 -204.5q19 67 58.5 204.5t59.5 204.5
h84q20 -67 60.5 -204.5t60.5 -204.5q20 77 56.5 223l46.5 186h71l100 -406l121 406h77q-53 -167 -157 -501z" />
    <glyph glyph-name="f_t" unicode="ft" horiz-adv-x="484" 
d="M432 43l-21 -56q-64 12 -92 48t-28 97v482q-57 35 -105.5 14t-48.5 -79v-48h106l-24 -68h-82v-433h-73v548q0 69 42 112t108.5 45.5t149.5 -39.5v-165h112l-24 -68h-88v-301q0 -71 68 -89z" />
    <glyph glyph-name="t_t" unicode="tt" horiz-adv-x="488" 
d="M296 132v302q-1 0 -1 -1h-161v-301q0 -70 68 -89q-3 -9 -10 -28t-11 -28q-64 12 -92 48t-28 97v568h73v-199h162v199h72v-199h113q-4 -11 -12 -33.5t-12 -34.5h-89v-301q0 -71 69 -89q-4 -9 -11.5 -28t-10.5 -28q-64 12 -91.5 48t-27.5 97z" />
    <glyph glyph-name=".notdef" horiz-adv-x="500" 
d="M500 0h-500v700h500v-700zM450 50v600h-400v-600h400zM425 133l-39 -32l-136 204l-137 -205l-40 29l147 221l-147 221l40 29l137 -205l136 204l39 -32l-145 -217z" />
    <glyph glyph-name=".null" horiz-adv-x="0" 
 />
    <glyph glyph-name="nonmarkingreturn" horiz-adv-x="333" 
 />
    <glyph glyph-name="space" unicode=" " horiz-adv-x="245" 
 />
    <glyph glyph-name="exclam" unicode="!" horiz-adv-x="254" 
d="M155 120h-56l-12 543q0 47 40 47q41 0 41 -46zM165 38q0 -16 -11.5 -27t-27.5 -11q-15 0 -26.5 11t-11.5 27t11.5 27t26.5 11q16 0 27.5 -11t11.5 -27z" />
    <glyph glyph-name="quotedbl" unicode="&#x22;" horiz-adv-x="325" 
d="M114 512h-47l-14 186q0 23 18.5 33t37.5 0.5t19 -33.5zM258 512h-47l-14 186q0 23 18.5 33t37.5 0.5t19 -33.5z" />
    <glyph glyph-name="numbersign" unicode="#" horiz-adv-x="670" 
d="M609 183h-183l-43 -183h-72l42 183h-119l-42 -183h-70l42 183h-103v69h120l34 144h-154v73h171l54 231h70l-54 -231h119l54 231h73l-54 -231h115v-73h-133l-34 -144h167v-69zM369 252l35 144h-119l-34 -144h118z" />
    <glyph glyph-name="dollar" unicode="$" horiz-adv-x="560" 
d="M316 -114h-72v105q-93 10 -146 65t-55 122l75 5q4 -43 38 -77.5t88 -42.5v290q-42 15 -69 28t-56 34.5t-43.5 52t-14.5 70.5q0 61 47 109.5t136 59.5v110h72v-108q62 -4 116 -29q0 -2 -22 -68q-45 21 -94 24v-233q45 -17 74.5 -32t62 -40t49 -59.5t16.5 -78.5
q0 -85 -49.5 -139t-152.5 -63v-105zM316 323v-261q56 9 90 40t34 84q0 51 -32 81t-92 56zM244 432v202q-51 -8 -79.5 -34t-27.5 -67q1 -36 28.5 -59t78.5 -42z" />
    <glyph glyph-name="percent" unicode="%" horiz-adv-x="707" 
d="M99 0l-49 49l556 692l55 -48zM512 -11q-60 0 -102 42t-42 102t42 102t102 42t102 -42t42 -102t-42 -102t-102 -42zM588 133q0 30 -21 53t-55 23t-55 -23t-21 -53t21 -53t55 -23t55 23t21 53zM201 439q-60 0 -102 42t-42 102t42 102t102 42t102 -42t42 -102t-42 -102
t-102 -42zM278 583q0 30 -21.5 53t-55.5 23t-55 -23t-21 -53t21 -53t55 -23t55.5 23t21.5 53z" />
    <glyph glyph-name="ampersand" unicode="&#x26;" horiz-adv-x="580" 
d="M513 45l-16 -56q-84 19 -108 84q-51 -84 -161 -84q-90 0 -137.5 63.5t-39.5 151.5q5 49 25.5 89t53.5 66t58.5 40.5t58.5 28.5q-33 8 -57 41.5t-27 78.5q-3 44 16 80.5t52.5 56t77 25.5t87.5 -11l-41 -61q-48 16 -84.5 -10t-34.5 -71q1 -50 39.5 -73.5t76.5 -15.5l22 4
v133l73 4v-125l73 16l16 -70l-89 -19v-257q0 -87 66 -109zM374 220v175q-36 -8 -64 -16.5t-63.5 -25t-60 -36t-43 -50t-21.5 -66.5q-6 -62 24 -101.5t89 -39.5q63 0 101 49t38 111z" />
    <glyph glyph-name="quotesingle" unicode="'" horiz-adv-x="173" 
d="M110 589h-47l-14 109q0 23 18.5 33t37.5 0.5t19 -33.5z" />
    <glyph glyph-name="parenleft" unicode="(" horiz-adv-x="249" 
d="M215 -68l-30 -50q-58 34 -83.5 73t-25.5 116v556q0 77 25.5 116.5t83.5 73.5l29 -52q-66 -40 -66 -138v-556q0 -59 17 -87.5t50 -51.5z" />
    <glyph glyph-name="parenright" unicode=")" horiz-adv-x="249" 
d="M63 -118l-29 50q33 23 50 51.5t17 87.5v556q0 97 -67 138l29 52q58 -34 84 -73.5t26 -116.5v-556q0 -77 -25.5 -116t-84.5 -73z" />
    <glyph glyph-name="asterisk" unicode="*" horiz-adv-x="376" 
d="M306 454l-60 -42l-59 103l-57 -103l-61 43l73 86l-109 30l24 64l103 -48l-10 113h73l-10 -113l103 49l28 -66l-113 -29z" />
    <glyph glyph-name="plus" unicode="+" horiz-adv-x="410" 
d="M241 216h-72v127h-124v70h124v132h72v-132h124v-70h-124v-127z" />
    <glyph glyph-name="comma" unicode="," horiz-adv-x="205" 
d="M78 -84l-49 28q21 12 37.5 25t22.5 21l6 7l-11 3q-22 13 -22 40q1 16 13 26.5t29 9.5q16 -1 27.5 -15t11.5 -29q0 -60 -65 -116z" />
    <glyph glyph-name="hyphen" unicode="-" horiz-adv-x="482" 
d="M401 343h-320v70h320v-70z" />
    <glyph glyph-name="period" unicode="." 
d="M100 0q-16 0 -27 11t-11 27t11 27t27 11t27 -11t11 -27t-11 -27t-27 -11z" />
    <glyph glyph-name="slash" unicode="/" horiz-adv-x="457" 
d="M105 -114h-77l324 931h76z" />
    <glyph glyph-name="zero" unicode="0" horiz-adv-x="548" 
d="M484 506v-321q0 -101 -61.5 -148.5t-147.5 -47.5t-148.5 47.5t-62.5 148.5v322q0 103 56.5 156t155.5 53t153.5 -56t54.5 -154zM412 193v309q0 69 -35.5 105t-102.5 36q-138 0 -138 -141v-311q0 -64 38 -97.5t100 -33.5t100 33.5t38 99.5z" />
    <glyph glyph-name="one" unicode="1" horiz-adv-x="300" 
d="M199 0h-73v608q-14 -12 -36.5 -21t-37.5 -13l-15 -3l-18 66q7 0 18.5 2.5t40 18.5t48.5 42h73v-700z" />
    <glyph glyph-name="two" unicode="2" horiz-adv-x="443" 
d="M394 0h-358v67l246 371q39 62 35 106.5t-33 70t-69 25.5q-35 0 -62 -22.5t-38 -57.5l-65 30q19 52 62 86t106 34q73 0 121 -43t52 -110t-44 -147l-227 -343h274v-67z" />
    <glyph glyph-name="three" unicode="3" horiz-adv-x="456" 
d="M30 83l53 44q19 -31 52 -49.5t71 -18.5q61 0 101 41.5t40 100.5q0 60 -42.5 99.5t-106.5 42.5h-110l192 285h-205v72h288v-67l-147 -220h3q83 -4 142 -64.5t59 -147.5q0 -89 -62 -151t-151 -62q-54 0 -101 25.5t-76 69.5z" />
    <glyph glyph-name="four" unicode="4" horiz-adv-x="502" 
d="M401 0h-72v343h-315l193 357h75l-148 -287h195v287h72v-287h72l-19 -70h-53v-343z" />
    <glyph glyph-name="five" unicode="5" horiz-adv-x="463" 
d="M37 83l53 45q47 -68 124 -68q62 0 101 41t39 100q0 61 -44 101.5t-109 40.5h-134l38 357h266v-72h-200l-23 -215h66q89 0 151 -62t62 -150q0 -89 -62.5 -151t-150.5 -62q-54 0 -101 25.5t-76 69.5z" />
    <glyph glyph-name="six" unicode="6" horiz-adv-x="514" 
d="M61 201v260q0 40 12 78.5t38.5 76t76.5 61t117 23.5h35v-72h-35q-72 0 -122.5 -42.5t-50.5 -135.5v-102q20 30 59 47.5t82 17.5q89 0 151 -62t62 -150q0 -89 -62 -151t-151 -62q-88 0 -150 62t-62 151zM132 206v-5q0 -59 41 -100.5t100 -41.5t100 41.5t41 100.5t-41 99.5
t-100 40.5q-58 0 -99 -39t-42 -96z" />
    <glyph glyph-name="seven" unicode="7" horiz-adv-x="444" 
d="M119 0h-79l309 628h-313v72h394v-72z" />
    <glyph glyph-name="eight" unicode="8" horiz-adv-x="511" 
d="M255 60q58 0 99 41t41 100t-40.5 99.5t-105.5 41.5q-57 -1 -96 -42t-39 -99q0 -59 41 -100t100 -41zM355 388q51 -28 82 -77.5t31 -109.5q0 -89 -62 -151t-151 -62t-151 62t-62 151q0 61 31 111t83 77q-75 51 -75 144q0 73 51 124.5t124 51.5q74 0 125 -51.5t51 -124.5
q0 -94 -77 -145zM251 429q46 0 78 30t32 74t-31 75t-74 31q-44 0 -75.5 -31t-31.5 -75q0 -43 29.5 -72.5t72.5 -31.5z" />
    <glyph glyph-name="nine" unicode="9" horiz-adv-x="514" 
d="M209 0h-35v69h39q71 0 119.5 47.5t48.5 134.5v91q-55 -57 -140 -57q-89 0 -151 62t-62 150q0 89 62 151t151 62q88 0 150 -62t62 -151v-258q0 -40 -12 -78.5t-38.5 -76t-76.5 -61t-117 -23.5zM241 356q58 0 99 41t41 105q0 57 -41.5 97t-98.5 40q-59 0 -100.5 -41.5
t-41.5 -100.5t41.5 -100t100.5 -41z" />
    <glyph glyph-name="colon" unicode=":" horiz-adv-x="251" 
d="M126 339q-16 0 -28 11.5t-12 28.5q0 16 12 27.5t28 11.5t27.5 -11.5t11.5 -27.5t-11.5 -28t-27.5 -12zM165 150q0 -16 -12 -27.5t-28 -11.5t-27.5 11.5t-11.5 27.5t11.5 28t27.5 12q17 0 28.5 -12t11.5 -28z" />
    <glyph glyph-name="semicolon" unicode=";" horiz-adv-x="247" 
d="M124 230q-16 0 -27.5 11t-11.5 27t11.5 27.5t27.5 11.5t27 -11.5t11 -27.5t-11 -27t-27 -11zM98 -84l-48 28q21 12 37.5 25t22.5 21l5 7l-10 3q-22 13 -22 40q1 16 13 26.5t28 9.5q17 -1 28 -15t11 -29q1 -58 -65 -116z" />
    <glyph glyph-name="less" unicode="&#x3c;" horiz-adv-x="486" 
d="M394 126l-49 -46l-278 278v1l278 278l49 -48l-232 -231z" />
    <glyph glyph-name="equal" unicode="=" horiz-adv-x="486" 
d="M403 358h-320v70h320v-70zM403 238h-320v70h320v-70z" />
    <glyph glyph-name="greater" unicode="&#x3e;" horiz-adv-x="486" 
d="M141 80l-49 46l232 232l-232 231l49 48l278 -278v-1z" />
    <glyph glyph-name="question" unicode="?" horiz-adv-x="429" 
d="M233 119h-69v93q0 46 14 84t30 58t42 48.5t37 44.5q33 52 29 94.5t-33.5 70.5t-68.5 28q-48 0 -78.5 -28t-30.5 -80h-72q0 75 46.5 126t131.5 51q52 0 94.5 -27t65 -67.5t20 -93.5t-35.5 -101q-19 -27 -45.5 -54.5t-40 -43t-24.5 -51t-12 -89.5v-63zM236 38
q0 -16 -11 -27t-27 -11t-27 11t-11 27t11 27t27 11t27 -11t11 -27z" />
    <glyph glyph-name="at" unicode="@" horiz-adv-x="787" 
d="M639 162v179q0 26 0.5 34.5t2 30t7 31t14.5 23.5t24.5 22t36.5 14l21 -54q-37 -15 -37 -72l1 -197q0 -68 -32.5 -118.5t-85.5 -76.5t-107.5 -38.5t-111.5 -13.5q-132 -2 -221.5 64.5t-89.5 192.5v159q0 56 18.5 99.5t49 70t61 41.5t64.5 22q51 14 107.5 10.5t104 -18.5
t79 -58.5t31.5 -109.5l37 -16v-66l-37 16v-242q-48 -13 -86 -21.5t-84 -14t-80.5 0.5t-65 21t-48.5 47t-21 80v101q0 111 88 144q95 35 223 -25q-6 50 -44 73.5t-91 23.5q-48 0 -88.5 -9t-75 -29t-54 -57t-19.5 -88v-148q0 -70 36.5 -116t88 -63t116.5 -17q71 0 130 17
t98.5 56.5t39.5 94.5zM504 143v213q-35 18 -74 28t-78.5 10t-65 -23.5t-25.5 -70.5v-85q0 -67 58.5 -88.5t184.5 16.5z" />
    <glyph glyph-name="A" unicode="A" horiz-adv-x="525" 
d="M515 0h-81l-69 226h-208l-66 -226h-78l206 700h83zM347 300l-87 284l-84 -284h171z" />
    <glyph glyph-name="B" unicode="B" horiz-adv-x="561" 
d="M308 0h-227v700h216q82 0 131.5 -43t49.5 -129q0 -92 -66 -137q-1 -1 -1 -2v-1q44 -20 73.5 -64.5t29.5 -115.5q0 -30 -6 -58t-20.5 -56t-37 -48.5t-59.5 -33t-83 -12.5zM153 413h129q117 0 117 110q0 107 -119 107h-127v-217zM153 67h139q67 0 104.5 31t37.5 113
q0 66 -37.5 99t-90.5 33h-153v-276z" />
    <glyph glyph-name="C" unicode="C" horiz-adv-x="455" 
d="M412 87l14 -64q-49 -19 -98 -27.5t-97 -4t-84.5 24t-59 62t-22.5 105.5v321q0 76 21.5 115t65.5 66q50 28 120 25t129 -33l-21 -57q-54 20 -105 20q-33 0 -61.5 -8.5t-52.5 -39t-24 -79.5v-328q0 -92 75.5 -116.5t199.5 18.5z" />
    <glyph glyph-name="D" unicode="D" horiz-adv-x="564" 
d="M289 0h-208v701h188q113 0 172.5 -62t59.5 -165v-274q0 -200 -212 -200zM429 190v294q0 75 -43.5 111.5t-106.5 36.5h-126v-567h120q30 0 53.5 4t49 16t39.5 38.5t14 66.5z" />
    <glyph glyph-name="E" unicode="E" horiz-adv-x="462" 
d="M413 0h-332v700h334v-69h-262v-218h175l-23 -70h-152v-278h260v-65z" />
    <glyph glyph-name="F" unicode="F" horiz-adv-x="431" 
d="M153 0h-72v700h334v-70h-262v-217h162l-27 -70h-135v-343z" />
    <glyph glyph-name="G" unicode="G" horiz-adv-x="522" 
d="M475 0h-60l-12 31q-48 -41 -128 -41q-88 0 -149.5 50t-61.5 149v314q0 128 87 181q50 28 120 25t129 -33l-21 -56q-54 20 -103 20q-140 0 -140 -128v-325q0 -61 38 -93.5t100 -32.5q58 0 94.5 33t36.5 92v44h-63l-24 70h157v-300z" />
    <glyph glyph-name="H" unicode="H" horiz-adv-x="592" 
d="M511 0h-72v343h-286v-343h-72v700h72v-287h286v287h72v-700z" />
    <glyph glyph-name="I" unicode="I" horiz-adv-x="254" 
d="M173 0h-72v632l-66 2v66h138v-700z" />
    <glyph glyph-name="J" unicode="J" horiz-adv-x="265" 
d="M47 -37l-20 54q35 0 62 24.5t27 85.5v505l-65 2v66h137v-576q0 -160 -141 -161z" />
    <glyph glyph-name="K" unicode="K" horiz-adv-x="500" 
d="M494 0h-88l-215 325l-35 -56v-269h-75v701h75v-306l205 306h85l-210 -310z" />
    <glyph glyph-name="L" unicode="L" horiz-adv-x="453" 
d="M442 0h-361v700h72v-635h289v-65z" />
    <glyph glyph-name="M" unicode="M" horiz-adv-x="698" 
d="M617 0h-72v485l-163 -485h-68l-161 485v-485h-72v700h72l195 -569l197 569h72v-700z" />
    <glyph glyph-name="N" unicode="N" horiz-adv-x="654" 
d="M573 0h-73l-347 560v-560h-72v700h72l347 -559v559h73v-700z" />
    <glyph glyph-name="O" unicode="O" horiz-adv-x="548" 
d="M484 506v-321q0 -101 -61.5 -148.5t-147.5 -47.5t-148.5 47.5t-62.5 148.5v322q0 103 56.5 156t155.5 53t153.5 -56t54.5 -154zM412 193v309q0 69 -35.5 105t-102.5 36q-138 0 -138 -141v-311q0 -64 38 -97.5t100 -33.5t100 33.5t38 99.5z" />
    <glyph glyph-name="P" unicode="P" horiz-adv-x="550" 
d="M153 300h167q36 0 61 14t36.5 30t18 46t7 45t0.5 43q0 152 -127 152h-163v-330zM153 0h-72v700h241q98 0 145.5 -61t47.5 -160q0 -35 -2 -60.5t-12.5 -64t-28.5 -63t-55 -43t-88 -18.5h-176v-230z" />
    <glyph glyph-name="Q" unicode="Q" horiz-adv-x="550" 
d="M431 -35l-4 -66q-126 -1 -168 91q-36 2 -68.5 12.5t-61.5 32.5t-46.5 60.5t-17.5 89.5v322q0 103 56.5 156t155.5 53t153.5 -56t54.5 -154v-321q0 -86 -44 -132.5t-109 -57.5q25 -30 99 -30zM413 187v326q0 61 -36 96t-102 35t-102 -34t-36 -97v-327q0 -51 28.5 -86.5
t75.5 -39.5q-3 18 -3 57v57h72v-56q0 -40 2 -57q47 5 74 39t27 87z" />
    <glyph glyph-name="R" unicode="R" horiz-adv-x="571" 
d="M516 0h-74l-79 232q-18 -2 -32 -2h-178v-230h-72v700h243q96 0 143.5 -61t47.5 -160q0 -34 -2 -58.5t-9.5 -58.5t-26 -61.5t-47.5 -45.5zM153 300h169q29 0 50.5 8.5t34 25.5t20 32t10.5 40t3.5 37.5t0.5 35.5q0 151 -128 151h-160v-330z" />
    <glyph glyph-name="S" unicode="S" horiz-adv-x="547" 
d="M42 178l75 5q5 -50 48.5 -87t111.5 -37q71 0 116.5 32.5t45.5 94.5q0 46 -28 78.5t-70 49.5t-91.5 37t-91.5 39t-70 57t-28 91q0 70 58 121t167 51q83 0 146 -30q0 -2 -22 -68q-62 27 -122 27q-71 0 -111.5 -28.5t-39.5 -77.5q1 -30 22 -52.5t55 -37.5t74.5 -29.5
t80.5 -32.5t73.5 -41t54.5 -60.5t21 -86.5q0 -92 -58.5 -148t-180.5 -56q-109 0 -171.5 57.5t-64.5 131.5z" />
    <glyph glyph-name="T" unicode="T" horiz-adv-x="431" 
d="M251 0h-72v632h-162v68h402v-68h-168v-632z" />
    <glyph glyph-name="U" unicode="U" horiz-adv-x="575" 
d="M426 194v507h72v-515q0 -53 -18.5 -92t-50 -60t-66.5 -31t-75 -10t-75.5 10t-67 31t-50 60t-18.5 92v515h72v-507q0 -62 37.5 -98t100.5 -36q64 0 101.5 36t37.5 98z" />
    <glyph glyph-name="V" unicode="V" horiz-adv-x="504" 
d="M299 0h-93l-193 700h79l160 -587l159 587h80z" />
    <glyph glyph-name="W" unicode="W" horiz-adv-x="737" 
d="M562 0h-97l-96 525l-95 -525h-98l-156 700h78l125 -576l107 576h78l107 -576l121 576h80z" />
    <glyph glyph-name="X" unicode="X" horiz-adv-x="564" 
d="M546 0h-91l-174 279l-174 -279h-89l220 351l-203 349h83l164 -275l164 275h84l-204 -346z" />
    <glyph glyph-name="Y" unicode="Y" horiz-adv-x="565" 
d="M370 -11l-20 51q29 9 47 33.5t18 82.5v116q-49 -42 -142 -42q-105 0 -167 54.5t-62 156.5v259h73v-263q0 -67 42 -101.5t114 -34.5q55 0 93.5 21.5t48.5 60.5v317h73v-544q0 -152 -118 -167z" />
    <glyph glyph-name="Z" unicode="Z" horiz-adv-x="567" 
d="M525 0h-487v65l390 566h-377v69h468v-68l-390 -565h396v-67z" />
    <glyph glyph-name="bracketleft" unicode="[" horiz-adv-x="267" 
d="M238 -114h-161v931h161v-63l-89 -10v-785l89 -10v-63z" />
    <glyph glyph-name="backslash" unicode="\" horiz-adv-x="457" 
d="M429 -114h-77l-323 931h76z" />
    <glyph glyph-name="bracketright" unicode="]" horiz-adv-x="267" 
d="M190 -114h-161v63l89 10v785l-89 10v63h161v-931z" />
    <glyph glyph-name="asciicircum" unicode="^" horiz-adv-x="512" 
d="M401 758l-47 -39l-96 98l-101 -98l-46 39l148 141z" />
    <glyph glyph-name="underscore" unicode="_" horiz-adv-x="378" 
d="M349 -61h-320v61h320v-61z" />
    <glyph glyph-name="grave" unicode="`" horiz-adv-x="511" 
d="M311 590h-53l-63 83q-11 15 -6.5 32t21.5 24q14 5 29 -1t22 -23z" />
    <glyph glyph-name="a" unicode="a" horiz-adv-x="478" 
d="M422 298v-298q-152 -14 -213 -8q-164 18 -172 163v14v83q0 99 69 133q56 24 127.5 12.5t116.5 -44.5q0 103 -141 103l5 53q38 0 68.5 -4.5t51.5 -15t37 -21.5t25 -29t15 -31.5t8 -36.5t2.5 -36t0.5 -37zM350 61v227q-33 17 -69.5 28t-77.5 15.5t-67.5 -17t-26.5 -68.5
v-78q0 -141 241 -107z" />
    <glyph glyph-name="b" unicode="b" horiz-adv-x="482" 
d="M433 346v-189q0 -99 -78 -139q-59 -30 -132 -30t-159 12v700h72v-218q41 24 101 27t111 -19q85 -39 85 -144zM362 156v179q0 48 -25.5 74.5t-62.5 30t-74 -4t-64 -23.5v-350q54 -7 104 -6.5t86 26.5t36 74z" />
    <glyph glyph-name="c" unicode="c" horiz-adv-x="401" 
d="M352 70l17 -64q-120 -32 -210 -4q-59 20 -85.5 61.5t-26.5 116.5v128q0 71 28 119t74 67t103 15t115 -31l-20 -57q-61 22 -112 21.5t-83.5 -34t-32.5 -94.5v-145q0 -44 22 -70.5t58.5 -34.5t74.5 -6t78 12z" />
    <glyph glyph-name="d" unicode="d" horiz-adv-x="482" 
d="M49 157v189q0 105 85 144q51 22 113 18.5t99 -27.5v219h72v-700q-86 -12 -159 -12t-132 30q-78 40 -78 139zM346 63v349q-31 17 -68.5 24t-73.5 2.5t-60 -32t-24 -74.5v-178q0 -46 33.5 -71.5t83.5 -27t109 7.5z" />
    <glyph glyph-name="e" unicode="e" horiz-adv-x="451" 
d="M358 94l27 -59q-74 -45 -165 -47q-78 -2 -124 34.5t-46 111.5v205q0 81 50.5 126t133.5 45t129.5 -44.5t46.5 -123.5v-137l-288 -15v-52q0 -71 72.5 -82.5t163.5 38.5zM337 269v77q0 53 -33 75.5t-71 22.5q-50 0 -80.5 -27t-30.5 -79v-80z" />
    <glyph glyph-name="f" unicode="f" horiz-adv-x="249" 
d="M137 0h-73v549q0 52 18 88.5t46 51t61.5 20.5t64.5 -2l-11 -64q-49 8 -77.5 -14.5t-28.5 -79.5v-48h106l-24 -68h-82v-433z" />
    <glyph glyph-name="g" unicode="g" horiz-adv-x="489" 
d="M303 -210l-18 56q68 19 68 96v103q-34 -57 -119 -57q-88 0 -137 48t-49 140v149q0 88 51.5 136.5t138.5 48.5q84 0 118 -53l3 44h66v-565q0 -63 -28.5 -98t-93.5 -48zM353 190v140q0 55 -33.5 83.5t-85.5 28.5q-49 0 -81.5 -30.5t-32.5 -91.5v-146q0 -57 30 -87.5
t84 -30.5t86.5 34.5t32.5 99.5z" />
    <glyph glyph-name="h" unicode="h" horiz-adv-x="492" 
d="M433 0h-72v332q0 50 -25 78t-62 31.5t-73.5 -4t-64.5 -23.5v-414h-72v700h72v-219q37 24 100 28t112 -18q85 -39 85 -145v-346z" />
    <glyph glyph-name="i" unicode="i" 
d="M102 628q-17 0 -29.5 12.5t-12.5 28.5t12.5 28.5t29.5 12.5q16 0 28 -12t12 -29t-12 -29t-28 -12zM136 0h-72v501h72v-501z" />
    <glyph glyph-name="j" unicode="j" horiz-adv-x="219" 
d="M83 -50v482l-47 5l-22 64h141v-576q-2 -57 -39.5 -95.5t-92.5 -38.5l-14 56q3 0 8 1t18 7.5t22.5 16.5t17.5 30.5t8 47.5zM121 628q-17 0 -29.5 12t-12.5 29t12.5 29t29.5 12t28.5 -12t11.5 -29t-12 -29t-28 -12z" />
    <glyph glyph-name="k" unicode="k" horiz-adv-x="447" 
d="M445 0h-89l-179 298l-41 -36v-262h-72v700h72v-351l185 171l52 -50l-143 -124q73 -121 215 -346z" />
    <glyph glyph-name="l" unicode="l" 
d="M136 0h-72v700h72v-700z" />
    <glyph glyph-name="m" unicode="m" horiz-adv-x="747" 
d="M688 0h-72v331q0 43 -15 69.5t-41 35t-56 6.5t-64 -15l-31 -15q13 -28 13 -63v-349h-72v330q0 47 -21.5 75t-54 34t-69 -1t-69.5 -26v-412h-72v501h68l1 -25q63 36 129.5 32t108.5 -47q14 8 42 22q72 30 133.5 26t101.5 -48t40 -115v-346z" />
    <glyph glyph-name="n" unicode="n" horiz-adv-x="492" 
d="M433 0h-72v335q0 59 -39 85.5t-90 22t-96 -29.5v-413h-72v501h68l1 -26q39 29 103 33.5t112 -17.5q85 -39 85 -145v-346z" />
    <glyph glyph-name="o" unicode="o" horiz-adv-x="465" 
d="M419 316v-132q0 -84 -46 -139t-139 -55t-140.5 55.5t-47.5 138.5v132q0 95 48.5 145.5t139.5 50.5q87 0 136 -52.5t49 -143.5zM347 174v142q0 127 -113 127q-116 0 -116 -127v-142q0 -54 31.5 -85.5t84.5 -31.5t83 31.5t30 85.5z" />
    <glyph glyph-name="p" unicode="p" horiz-adv-x="487" 
d="M136 -188l-72 -22v711h70l-1 -38q44 46 118 46q93 0 141.5 -54t48.5 -140v-139q0 -91 -51 -139.5t-135 -48.5q-77 0 -119 42v-218zM369 177v142q0 63 -32.5 92.5t-81.5 29.5q-50 0 -83.5 -29t-35.5 -88v-151q0 -57 31 -86.5t88 -29.5q52 0 83 30.5t31 89.5z" />
    <glyph glyph-name="q" unicode="q" horiz-adv-x="487" 
d="M423 -210l-72 22v218q-41 -42 -119 -42q-84 0 -135 48.5t-51 139.5v138q0 86 48.5 140.5t141.5 54.5q69 0 119 -48l-2 40h70v-711zM351 174v147q-2 65 -37 92.5t-82 27.5q-45 0 -79.5 -28.5t-34.5 -99.5v-143q0 -55 31.5 -84t82.5 -29q57 0 88 29.5t31 87.5z" />
    <glyph glyph-name="r" unicode="r" horiz-adv-x="326" 
d="M136 0h-72v501h70v-26q67 50 189 25l-18 -68q-35 11 -72.5 11t-67 -19.5t-29.5 -52.5v-371z" />
    <glyph glyph-name="s" unicode="s" horiz-adv-x="424" 
d="M36 127l70 3q4 -37 37 -57.5t78 -20.5q41 0 72.5 19.5t31.5 58.5q0 34 -27 55.5t-66 34t-78.5 26.5t-70 43.5t-35.5 75.5q-6 55 37 101.5t134 46.5q32 0 60 -7.5t40 -14.5l12 -7l-23 -63q-32 25 -89 25q-47 0 -74 -21t-23 -57q3 -26 33 -44t70 -31t79.5 -29t67 -50
t27.5 -84q0 -62 -45 -103.5t-133 -41.5q-85 0 -134 41t-51 101z" />
    <glyph glyph-name="t" unicode="t" horiz-adv-x="254" 
d="M202 43l-21 -56q-64 12 -92 48t-28 97v568h73v-199h112l-24 -68h-88v-301q0 -71 68 -89z" />
    <glyph glyph-name="u" unicode="u" horiz-adv-x="496" 
d="M432 0h-69v37q-43 -48 -116 -48q-188 0 -188 183v329h72v-329q0 -115 116 -115q113 0 113 116v328h72v-501z" />
    <glyph glyph-name="v" unicode="v" horiz-adv-x="415" 
d="M250 0h-86l-155 501h77l121 -402l122 402h77z" />
    <glyph glyph-name="w" unicode="w" horiz-adv-x="688" 
d="M522 0h-86l-92 364l-93 -364h-86l-156 501h77l121 -402l103 402h71l103 -402l118 402h77z" />
    <glyph glyph-name="x" unicode="x" horiz-adv-x="444" 
d="M420 0h-85l-113 180l-112 -180h-87l156 249l-156 252h86l114 -183l115 183h85l-158 -252z" />
    <glyph glyph-name="y" unicode="y" horiz-adv-x="507" 
d="M318 -210l-23 56q67 20 67 93v96q-35 -47 -122 -47q-88 0 -135.5 47.5t-47.5 140.5v325h71v-323q0 -121 112 -121q121 0 121 121v185q0 59 18.5 96.5t71.5 50.5l23 -54q-42 -14 -42 -71v-446q0 -62 -26.5 -98t-87.5 -51z" />
    <glyph glyph-name="z" unicode="z" horiz-adv-x="436" 
d="M403 0h-367v66l255 368h-246v67h340v-65l-257 -369h275v-67z" />
    <glyph glyph-name="braceleft" unicode="{" horiz-adv-x="271" 
d="M242 -60l-22 -56q-48 23 -71.5 49t-34 71.5t-10.5 129.5v113q0 19 -16 43.5t-26.5 34.5t-31.5 29q24 19 48 50t24 58v105q0 123 23.5 174t93.5 81l21 -54q-66 -35 -66 -132v-180q0 -43 -58 -101q60 -60 60 -102v-181q0 -100 66 -132z" />
    <glyph glyph-name="bar" unicode="|" horiz-adv-x="226" 
d="M149 -114h-72v931h72v-931z" />
    <glyph glyph-name="braceright" unicode="}" horiz-adv-x="271" 
d="M51 -116l-22 56q66 32 66 132v181q0 42 60 102q-58 58 -58 101v180q0 97 -66 132l21 54q70 -30 93.5 -81t23.5 -174v-105q0 -27 24 -58t48 -50q-21 -19 -31.5 -29t-26.5 -34.5t-16 -43.5v-113q0 -84 -10.5 -129.5t-34 -71.5t-71.5 -49z" />
    <glyph glyph-name="asciitilde" unicode="~" horiz-adv-x="532" 
d="M440 379l32 -48q-32 -41 -73 -51.5t-80.5 0t-78.5 22.5t-78.5 7t-68.5 -38l-31 48q33 41 75 51.5t82 0.5t79.5 -21t77 -7t64.5 36z" />
    <glyph glyph-name="uni00A0" unicode="&#xa0;" horiz-adv-x="245" 
 />
    <glyph glyph-name="exclamdown" unicode="&#xa1;" horiz-adv-x="245" 
d="M82 47l12 543h56l13 -544q0 -46 -41 -46q-40 0 -40 47zM121 633q-15 0 -26.5 11.5t-11.5 27.5t11.5 27t26.5 11q16 0 27.5 -11t11.5 -27t-11.5 -27.5t-27.5 -11.5z" />
    <glyph glyph-name="cent" unicode="&#xa2;" horiz-adv-x="424" 
d="M281 -114h-71v107q-22 3 -42 9q-59 20 -85.5 61.5t-26.5 116.5v128q0 89 42.5 140t111.5 60v115h71v-116q45 -7 95 -29l-20 -57q-37 14 -75 19v-383q44 3 80 13l17 -64q-53 -13 -97 -16v-104zM210 63v374q-82 -23 -82 -123v-145q0 -85 82 -106z" />
    <glyph glyph-name="sterling" unicode="&#xa3;" horiz-adv-x="471" 
d="M411 0h-360v65q53 18 83.5 61t30.5 99q0 29 -14 78h-77v71h54q-30 92 -30 141q0 87 54.5 140.5t138.5 53.5q69 0 109 -25l-23 -64q-40 22 -86 22q-56 0 -89 -37.5t-33 -91.5q0 -35 34 -139h191v-71h-168q13 -50 12 -82q-6 -97 -71 -152h244v-69z" />
    <glyph glyph-name="currency" unicode="&#xa4;" horiz-adv-x="516" 
d="M391 143l-35 35q-41 -30 -98 -30q-56 0 -98 31l-34 -37l-45 46l33 34q-31 43 -31 101q0 51 30 97l-34 35l48 46l32 -34q42 32 99 32q58 0 98 -30l33 33l48 -48l-34 -32q31 -47 31 -99q0 -50 -32 -102l34 -33zM366 323q0 45 -32 76.5t-76 31.5q-45 0 -76.5 -31.5
t-31.5 -76.5q0 -44 31.5 -75t76.5 -31q44 0 76 31t32 75z" />
    <glyph glyph-name="yen" unicode="&#xa5;" horiz-adv-x="530" 
d="M301 0h-72v238h-123v70h123v24l-14 26h-109v70h71l-148 272h79l148 -272h15l151 272h79l-149 -272h74v-70h-112l-13 -24v-26h125v-70h-125v-238z" />
    <glyph glyph-name="section" unicode="&#xa7;" horiz-adv-x="560" 
d="M42 -8h74q3 -47 46.5 -84t114.5 -37q67 0 115.5 30t48.5 98q0 37 -21.5 64.5t-55.5 44t-75 31t-82 31t-74.5 38t-54 58t-19.5 85.5q0 52 33 94q-32 40 -32 95q0 70 58 121t167 51q83 0 146 -30l-3 -9q-3 -9 -9 -26.5t-11 -32.5q-57 29 -121 29q-74 0 -113.5 -28.5
t-39.5 -77.5q0 -35 28 -60t70 -39t91 -33t91.5 -40t71.5 -61.5t31 -96.5q2 -69 -23 -115q23 -35 23 -86q0 -92 -58.5 -147.5t-180.5 -55.5q-109 0 -171.5 57.5t-64.5 131.5zM436 149q7 26 7 49q0 46 -34.5 79t-78 49t-99.5 36.5t-83 38.5q-15 -23 -15 -59q0 -41 33.5 -70
t77.5 -42.5t101.5 -35t90.5 -45.5z" />
    <glyph glyph-name="dieresis" unicode="&#xa8;" horiz-adv-x="511" 
d="M218 700q0 -15 -11 -25.5t-26 -10.5t-25.5 10.5t-10.5 25.5t10.5 26t25.5 11t26 -11t11 -26zM330 664q-15 0 -25.5 10.5t-10.5 26.5q0 15 10.5 25.5t25.5 10.5t26 -10.5t11 -25.5q0 -16 -11 -26.5t-26 -10.5z" />
    <glyph glyph-name="copyright" unicode="&#xa9;" horiz-adv-x="847" 
d="M425 -127q-156 0 -266 108t-110 268q0 158 109 265t267 107q157 0 265 -107t108 -265q0 -160 -109 -268t-264 -108zM425 -56q126 0 212.5 86t86.5 219q0 126 -87.5 213.5t-211.5 87.5q-127 0 -214 -85t-87 -216q0 -134 87 -219.5t214 -85.5zM546 175h77
q-16 -72 -70 -115.5t-124 -43.5q-99 0 -156.5 65t-57.5 166q0 96 57 163.5t155 67.5q73 0 128 -43t67 -112h-76q-8 34 -41.5 57t-77.5 23q-69 0 -103 -44t-34 -110q0 -69 35.5 -114t102.5 -45q46 0 80 24t38 61z" />
    <glyph glyph-name="ordfeminine" unicode="&#xaa;" horiz-adv-x="372" 
d="M313 555v-164q-48 -8 -82 -10.5t-72 1.5t-61 18t-38.5 44t-15.5 75q0 81 60.5 105t145.5 -27q0 68 -108 64l5 48q99 1 132.5 -35t33.5 -119zM250 443v98q-22 12 -43 20.5t-47.5 13t-42.5 -11t-16 -50.5q0 -36 21 -56t54 -21t74 7z" />
    <glyph glyph-name="guillemotleft" unicode="&#xab;" horiz-adv-x="558" 
d="M275 124l-46 -44l-187 187v1l187 187l48 -48l-141 -140zM495 124l-46 -44l-187 187v1l187 187l48 -48l-141 -140z" />
    <glyph glyph-name="uni00AD" unicode="&#xad;" horiz-adv-x="410" 
d="M365 343h-320v70h320v-70z" />
    <glyph glyph-name="registered" unicode="&#xae;" horiz-adv-x="847" 
d="M601 39h-79l-101 190h-58v-190h-71v437h146q76 0 115 -33.5t39 -91.5q0 -93 -100 -115zM363 291h58q46 0 72.5 12t26.5 49q0 32 -24.5 47t-58.5 15h-74v-123zM425 -127q-156 0 -266 108t-110 268q0 158 109 265t267 107q157 0 265 -107t108 -265q0 -160 -109 -268
t-264 -108zM425 -56q126 0 212.5 86t86.5 219q0 126 -87.5 213.5t-211.5 87.5q-127 0 -214 -85t-87 -216q0 -134 87 -219.5t214 -85.5z" />
    <glyph glyph-name="macron" unicode="&#xaf;" horiz-adv-x="511" 
d="M366 619h-221v68h221v-68z" />
    <glyph glyph-name="degree" unicode="&#xb0;" horiz-adv-x="370" 
d="M185 421q-60 0 -102 42t-42 102t42 102t102 42t102 -42t42 -102t-42 -102t-102 -42zM266 565q0 32 -22.5 56.5t-58.5 24.5t-58.5 -24.5t-22.5 -56.5q0 -33 22 -57t59 -24t59 24t22 57z" />
    <glyph glyph-name="plusminus" unicode="&#xb1;" horiz-adv-x="450" 
d="M385 228h-320v68h126v59h-126v65h126v125h69v-125h125v-65h-125v-59h125v-68z" />
    <glyph glyph-name="acute" unicode="&#xb4;" horiz-adv-x="511" 
d="M252 588h-53l49 115q8 17 23 23t29 1q17 -7 21.5 -24t-6.5 -32z" />
    <glyph glyph-name="mu" unicode="&#xb5;" horiz-adv-x="523" 
d="M473 27l-49 -33q-19 0 -35 26q-36 -38 -124 -31q-25 3 -48.5 9.5t-36 11.5t-26.5 12t-15 8v-240l-73 9v702h73v-394q6 -6 21.5 -16t48.5 -22t64 -13q42 -2 71 21t29 89v332l73 12v-441q3 -28 27 -42z" />
    <glyph glyph-name="paragraph" unicode="&#xb6;" horiz-adv-x="683" 
d="M609 -199h-70v878l-68 1v-878h-71v444h-186q-32 0 -58 6.5t-44 20t-31.5 28t-21 38.5t-12.5 42t-7 48t-2.5 47t-0.5 48q0 100 46 163t140 63h386v-949z" />
    <glyph glyph-name="cedilla" unicode="&#xb8;" horiz-adv-x="510" 
d="M143 -197l27 59q37 -25 78 -25q24 0 43 10t19 31q0 22 -20.5 31t-56.5 -5l-37 -17l-22 35l61 78h50l-36 -49q14 7 36 7q34 0 58 -21t24 -59q0 -50 -39 -72.5t-90 -22.5q-40 0 -95 20z" />
    <glyph glyph-name="guillemotright" unicode="&#xbb;" horiz-adv-x="558" 
d="M329 80l-46 44l139 143l-141 140l48 48l187 -187v-1zM109 80l-46 44l139 143l-141 140l48 48l187 -187v-1z" />
    <glyph glyph-name="questiondown" unicode="&#xbf;" horiz-adv-x="450" 
d="M336 177h72q0 -75 -46.5 -126t-131.5 -51q-52 0 -94.5 27t-65 67.5t-20 93.5t35.5 101q19 27 45.5 54.5t40 43t24.5 51t12 89.5v63h69v-93q0 -46 -14 -84t-30 -58t-41.5 -48.5t-37.5 -45.5q-33 -51 -28.5 -93.5t33.5 -70.5t68 -28q48 0 78.5 28t30.5 80zM243 632
q-16 0 -27 11.5t-11 27.5t11 27t27 11t27.5 -11t11.5 -27t-11.5 -27.5t-27.5 -11.5z" />
    <glyph glyph-name="Agrave" unicode="&#xc0;" horiz-adv-x="525" 
d="M515 0h-81l-69 226h-208l-66 -226h-78l206 700h83zM347 300l-87 284l-84 -284h171zM276 733h-53l-63 83q-11 15 -6.5 32t21.5 24q14 5 29 -1t22 -23z" />
    <glyph glyph-name="Aacute" unicode="&#xc1;" horiz-adv-x="525" 
d="M515 0h-81l-69 226h-208l-66 -226h-78l206 700h83zM347 300l-87 284l-84 -284h171zM289 731h-53l49 115q8 17 23 23t29 1q17 -7 21.5 -24t-6.5 -32z" />
    <glyph glyph-name="Acircumflex" unicode="&#xc2;" horiz-adv-x="525" 
d="M515 0h-81l-69 226h-208l-66 -226h-78l206 700h83zM347 300l-87 284l-84 -284h171zM407 771l-47 -39l-96 98l-101 -98l-46 39l148 141z" />
    <glyph glyph-name="Atilde" unicode="&#xc3;" horiz-adv-x="525" 
d="M515 0h-81l-69 226h-208l-66 -226h-78l206 700h83zM347 300l-87 284l-84 -284h171zM403 828l30 -47q-34 -40 -68 -49t-62.5 3t-56.5 25t-60.5 9.5t-62.5 -35.5l-29 47q35 39 70 48.5t64 -2t57.5 -24t59 -9.5t58.5 34z" />
    <glyph glyph-name="Adieresis" unicode="&#xc4;" horiz-adv-x="525" 
d="M515 0h-81l-69 226h-208l-66 -226h-78l206 700h83zM347 300l-87 284l-84 -284h171zM222 767q0 -15 -11 -25.5t-26 -10.5t-25.5 10.5t-10.5 25.5t10.5 26t25.5 11t26 -11t11 -26zM334 731q-15 0 -25.5 10.5t-10.5 26.5q0 15 10.5 25.5t25.5 10.5t26 -10.5t11 -25.5
q0 -16 -11 -26.5t-26 -10.5z" />
    <glyph glyph-name="Aring" unicode="&#xc5;" horiz-adv-x="521" 
d="M513 0h-81l-69 226h-208l-66 -226h-78l197 671q-27 14 -43.5 40.5t-16.5 58.5q0 46 32.5 78.5t78.5 32.5t78.5 -32.5t32.5 -78.5q0 -32 -17 -58.5t-44 -40.5zM345 300l-87 284l-84 -284h171zM259 713q24 0 40 16.5t16 40.5t-16 40t-40 16t-40.5 -16t-16.5 -40t16.5 -40.5
t40.5 -16.5z" />
    <glyph glyph-name="AE" unicode="&#xc6;" horiz-adv-x="744" 
d="M695 0h-333l1 230h-167l-120 -230h-80l366 700h335v-69h-262v-218h179l-23 -70h-156v-278h260v-65zM363 300v252l-131 -252h131z" />
    <glyph glyph-name="Ccedilla" unicode="&#xc7;" horiz-adv-x="455" 
d="M131 -197l27 59q37 -25 78 -25q24 0 43 10t19 31q0 22 -20.5 31t-56.5 -5l-37 -17l-22 35l55 71q-70 10 -111 56t-41 134v321q0 76 21.5 115t65.5 66q50 28 120 25t129 -33l-21 -57q-54 20 -105 20q-33 0 -61.5 -8.5t-52.5 -39t-24 -79.5v-328q0 -92 75.5 -116.5
t199.5 18.5l14 -64q-82 -32 -161 -33l-28 -39q14 7 36 7q34 0 58 -21t24 -59q0 -50 -39 -72.5t-90 -22.5q-40 0 -95 20z" />
    <glyph glyph-name="Egrave" unicode="&#xc8;" horiz-adv-x="462" 
d="M413 0h-332v700h334v-69h-262v-218h175l-23 -70h-152v-278h260v-65zM275 732h-53l-63 83q-11 15 -6.5 32t21.5 24q14 5 29 -1t22 -23z" />
    <glyph glyph-name="Eacute" unicode="&#xc9;" horiz-adv-x="462" 
d="M413 0h-332v700h334v-69h-262v-218h175l-23 -70h-152v-278h260v-65zM293 730h-53l49 115q8 17 23 23t29 1q17 -7 21.5 -24t-6.5 -32z" />
    <glyph glyph-name="Ecircumflex" unicode="&#xca;" horiz-adv-x="462" 
d="M413 0h-332v700h334v-69h-262v-218h175l-23 -70h-152v-278h260v-65zM394 771l-47 -39l-96 98l-101 -98l-46 39l148 141z" />
    <glyph glyph-name="Edieresis" unicode="&#xcb;" horiz-adv-x="462" 
d="M413 0h-332v700h334v-69h-262v-218h175l-23 -70h-152v-278h260v-65zM207 767q0 -15 -11 -25.5t-26 -10.5t-25.5 10.5t-10.5 25.5t10.5 26t25.5 11t26 -11t11 -26zM319 731q-15 0 -25.5 10.5t-10.5 26.5q0 15 10.5 25.5t25.5 10.5t26 -10.5t11 -25.5q0 -16 -11 -26.5
t-26 -10.5z" />
    <glyph glyph-name="Igrave" unicode="&#xcc;" horiz-adv-x="254" 
d="M173 0h-72v632l-66 2v66h138v-700zM163 732h-53l-63 83q-11 15 -6.5 32t21.5 24q14 5 29 -1t22 -23z" />
    <glyph glyph-name="Iacute" unicode="&#xcd;" horiz-adv-x="254" 
d="M173 0h-72v632l-66 2v66h138v-700zM167 730h-53l49 115q8 17 23 23t29 1q17 -7 21.5 -24t-6.5 -32z" />
    <glyph glyph-name="Icircumflex" unicode="&#xce;" horiz-adv-x="254" 
d="M173 0h-72v632l-66 2v66h138v-700zM273 771l-47 -39l-96 98l-101 -98l-46 39l148 141z" />
    <glyph glyph-name="Idieresis" unicode="&#xcf;" horiz-adv-x="254" 
d="M173 0h-72v632l-66 2v66h138v-700zM87 765q0 -15 -11 -25.5t-26 -10.5t-25.5 10.5t-10.5 25.5t10.5 26t25.5 11t26 -11t11 -26zM199 729q-15 0 -25.5 10.5t-10.5 26.5q0 15 10.5 25.5t25.5 10.5t26 -10.5t11 -25.5q0 -16 -11 -26.5t-26 -10.5z" />
    <glyph glyph-name="Eth" unicode="&#xd0;" horiz-adv-x="604" 
d="M302 0h-208v457h-49v70h49v174h188q97 0 155 -47t72 -127h63v-70h-58v-257q0 -200 -212 -200zM442 190v267h-276v-392h120q30 0 53.5 4t49 16t39.5 38.5t14 66.5zM292 632h-126v-105h271q-13 53 -53 79t-92 26z" />
    <glyph glyph-name="Ntilde" unicode="&#xd1;" horiz-adv-x="654" 
d="M573 0h-73l-347 560v-560h-72v700h72l347 -559v559h73v-700zM470 827l30 -47q-34 -40 -68 -49t-62.5 3t-56.5 25t-60.5 9.5t-62.5 -35.5l-29 47q35 39 70 48.5t64 -2t57.5 -24t59 -9.5t58.5 34z" />
    <glyph glyph-name="Ograve" unicode="&#xd2;" horiz-adv-x="548" 
d="M484 506v-321q0 -101 -61.5 -148.5t-147.5 -47.5t-148.5 47.5t-62.5 148.5v322q0 103 56.5 156t155.5 53t153.5 -56t54.5 -154zM412 193v309q0 69 -35.5 105t-102.5 36q-138 0 -138 -141v-311q0 -64 38 -97.5t100 -33.5t100 33.5t38 99.5zM295 732h-53l-63 83
q-11 15 -6.5 32t21.5 24q14 5 29 -1t22 -23z" />
    <glyph glyph-name="Oacute" unicode="&#xd3;" horiz-adv-x="548" 
d="M484 506v-321q0 -101 -61.5 -148.5t-147.5 -47.5t-148.5 47.5t-62.5 148.5v322q0 103 56.5 156t155.5 53t153.5 -56t54.5 -154zM412 193v309q0 69 -35.5 105t-102.5 36q-138 0 -138 -141v-311q0 -64 38 -97.5t100 -33.5t100 33.5t38 99.5zM311 730h-53l49 115q8 17 23 23
t29 1q17 -7 21.5 -24t-6.5 -32z" />
    <glyph glyph-name="Ocircumflex" unicode="&#xd4;" horiz-adv-x="548" 
d="M484 506v-321q0 -101 -61.5 -148.5t-147.5 -47.5t-148.5 47.5t-62.5 148.5v322q0 103 56.5 156t155.5 53t153.5 -56t54.5 -154zM412 193v309q0 69 -35.5 105t-102.5 36q-138 0 -138 -141v-311q0 -64 38 -97.5t100 -33.5t100 33.5t38 99.5zM422 771l-47 -39l-96 98
l-101 -98l-46 39l148 141z" />
    <glyph glyph-name="Otilde" unicode="&#xd5;" horiz-adv-x="548" 
d="M484 506v-321q0 -101 -61.5 -148.5t-147.5 -47.5t-148.5 47.5t-62.5 148.5v322q0 103 56.5 156t155.5 53t153.5 -56t54.5 -154zM412 193v309q0 69 -35.5 105t-102.5 36q-138 0 -138 -141v-311q0 -64 38 -97.5t100 -33.5t100 33.5t38 99.5zM421 828l30 -47
q-34 -40 -68 -49t-62.5 3t-56.5 25t-60.5 9.5t-62.5 -35.5l-29 47q35 39 70 48.5t64 -2t57.5 -24t59 -9.5t58.5 34z" />
    <glyph glyph-name="Odieresis" unicode="&#xd6;" horiz-adv-x="548" 
d="M484 506v-321q0 -101 -61.5 -148.5t-147.5 -47.5t-148.5 47.5t-62.5 148.5v322q0 103 56.5 156t155.5 53t153.5 -56t54.5 -154zM412 193v309q0 69 -35.5 105t-102.5 36q-138 0 -138 -141v-311q0 -64 38 -97.5t100 -33.5t100 33.5t38 99.5zM234 767q0 -15 -11 -25.5
t-26 -10.5t-25.5 10.5t-10.5 25.5t10.5 26t25.5 11t26 -11t11 -26zM346 731q-15 0 -25.5 10.5t-10.5 26.5q0 15 10.5 25.5t25.5 10.5t26 -10.5t11 -25.5q0 -16 -11 -26.5t-26 -10.5z" />
    <glyph glyph-name="multiply" unicode="&#xd7;" horiz-adv-x="454" 
d="M372 209l-50 -44l-97 116l-95 -117l-50 45l102 124l-103 125l50 42l96 -116l97 117l50 -42l-104 -126z" />
    <glyph glyph-name="Oslash" unicode="&#xd8;" horiz-adv-x="554" 
d="M160 -114h-77l51 148q-65 52 -65 151v322q0 103 56.5 156t155.5 53q47 0 86 -14l40 115h76l-53 -153q59 -56 59 -158v-321q0 -101 -61.5 -148.5t-147.5 -47.5q-40 0 -81 11zM162 113l180 519q-28 11 -63 11q-138 0 -138 -141v-311q0 -48 21 -78zM417 193v309q0 44 -16 78
l-178 -512q27 -8 56 -8q62 0 100 33.5t38 99.5z" />
    <glyph glyph-name="Ugrave" unicode="&#xd9;" horiz-adv-x="575" 
d="M426 194v507h72v-515q0 -53 -18.5 -92t-50 -60t-66.5 -31t-75 -10t-75.5 10t-67 31t-50 60t-18.5 92v515h72v-507q0 -62 37.5 -98t100.5 -36q64 0 101.5 36t37.5 98zM314 732h-53l-63 83q-11 15 -6.5 32t21.5 24q14 5 29 -1t22 -23z" />
    <glyph glyph-name="Uacute" unicode="&#xda;" horiz-adv-x="575" 
d="M426 194v507h72v-515q0 -53 -18.5 -92t-50 -60t-66.5 -31t-75 -10t-75.5 10t-67 31t-50 60t-18.5 92v515h72v-507q0 -62 37.5 -98t100.5 -36q64 0 101.5 36t37.5 98zM314 731h-53l49 115q8 17 23 23t29 1q17 -7 21.5 -24t-6.5 -32z" />
    <glyph glyph-name="Ucircumflex" unicode="&#xdb;" horiz-adv-x="575" 
d="M426 194v507h72v-515q0 -53 -18.5 -92t-50 -60t-66.5 -31t-75 -10t-75.5 10t-67 31t-50 60t-18.5 92v515h72v-507q0 -62 37.5 -98t100.5 -36q64 0 101.5 36t37.5 98zM433 771l-47 -39l-96 98l-101 -98l-46 39l148 141z" />
    <glyph glyph-name="Udieresis" unicode="&#xdc;" horiz-adv-x="575" 
d="M426 194v507h72v-515q0 -53 -18.5 -92t-50 -60t-66.5 -31t-75 -10t-75.5 10t-67 31t-50 60t-18.5 92v515h72v-507q0 -62 37.5 -98t100.5 -36q64 0 101.5 36t37.5 98zM248 767q0 -15 -11 -25.5t-26 -10.5t-25.5 10.5t-10.5 25.5t10.5 26t25.5 11t26 -11t11 -26zM360 731
q-15 0 -25.5 10.5t-10.5 26.5q0 15 10.5 25.5t25.5 10.5t26 -10.5t11 -25.5q0 -16 -11 -26.5t-26 -10.5z" />
    <glyph glyph-name="Yacute" unicode="&#xdd;" horiz-adv-x="565" 
d="M370 -11l-20 51q29 9 47 33.5t18 82.5v116q-49 -42 -142 -42q-105 0 -167 54.5t-62 156.5v259h73v-263q0 -67 42 -101.5t114 -34.5q55 0 93.5 21.5t48.5 60.5v317h73v-544q0 -152 -118 -167zM295 731h-53l49 115q8 17 23 23t29 1q17 -7 21.5 -24t-6.5 -32z" />
    <glyph glyph-name="Thorn" unicode="&#xde;" horiz-adv-x="487" 
d="M153 0h-72v700h72v-234q46 43 115 43q93 0 141.5 -54t48.5 -140q0 -94 -51.5 -146.5t-134.5 -52.5q-32 0 -66 14t-53 41v-171zM272 185q48 0 81 32t33 101q0 60 -33 92t-81 32q-47 0 -82.5 -30t-36.5 -90q0 -70 33 -103.5t86 -33.5z" />
    <glyph glyph-name="germandbls" unicode="&#xdf;" horiz-adv-x="501" 
d="M137 0h-73v537q0 76 37 120t109 44q65 0 101.5 -43t34.5 -96.5t-37 -84.5h-27q-8 -14 -9 -27.5t5.5 -27t16 -25.5t25 -26.5t30 -27t33 -29.5t32.5 -32q96 -102 46 -210q-23 -51 -79 -71t-115 -8.5t-98 44.5l34 64q44 -42 105 -42t81 41q38 68 -35 143q-15 16 -41.5 39.5
t-44 39.5t-36.5 39t-26.5 43.5t-6 47.5t17.5 55q38 0 51.5 31t-3 62.5t-52.5 31.5q-76 0 -76 -102v-530z" />
    <glyph glyph-name="agrave" unicode="&#xe0;" horiz-adv-x="478" 
d="M422 298v-298q-152 -14 -213 -8q-164 18 -172 163v14v83q0 99 69 133q56 24 127.5 12.5t116.5 -44.5q0 103 -141 103l5 53q38 0 68.5 -4.5t51.5 -15t37 -21.5t25 -29t15 -31.5t8 -36.5t2.5 -36t0.5 -37zM350 61v227q-33 17 -69.5 28t-77.5 15.5t-67.5 -17t-26.5 -68.5
v-78q0 -141 241 -107zM253 540h-53l-63 83q-11 15 -6.5 32t21.5 24q14 5 29 -1t22 -23z" />
    <glyph glyph-name="aacute" unicode="&#xe1;" horiz-adv-x="478" 
d="M422 298v-298q-152 -14 -213 -8q-164 18 -172 163v14v83q0 99 69 133q56 24 127.5 12.5t116.5 -44.5q0 103 -141 103l5 53q38 0 68.5 -4.5t51.5 -15t37 -21.5t25 -29t15 -31.5t8 -36.5t2.5 -36t0.5 -37zM350 61v227q-33 17 -69.5 28t-77.5 15.5t-67.5 -17t-26.5 -68.5
v-78q0 -141 241 -107zM270 538h-53l49 115q8 17 23 23t29 1q17 -7 21.5 -24t-6.5 -32z" />
    <glyph glyph-name="acircumflex" unicode="&#xe2;" horiz-adv-x="478" 
d="M422 298v-298q-152 -14 -213 -8q-164 18 -172 163v14v83q0 99 69 133q56 24 127.5 12.5t116.5 -44.5q0 103 -141 103l5 53q38 0 68.5 -4.5t51.5 -15t37 -21.5t25 -29t15 -31.5t8 -36.5t2.5 -36t0.5 -37zM350 61v227q-33 17 -69.5 28t-77.5 15.5t-67.5 -17t-26.5 -68.5
v-78q0 -141 241 -107zM384 578l-47 -39l-96 98l-101 -98l-46 39l148 141z" />
    <glyph glyph-name="atilde" unicode="&#xe3;" horiz-adv-x="478" 
d="M422 298v-298q-152 -14 -213 -8q-164 18 -172 163v14v83q0 99 69 133q56 24 127.5 12.5t116.5 -44.5q0 103 -141 103l5 53q38 0 68.5 -4.5t51.5 -15t37 -21.5t25 -29t15 -31.5t8 -36.5t2.5 -36t0.5 -37zM350 61v227q-33 17 -69.5 28t-77.5 15.5t-67.5 -17t-26.5 -68.5
v-78q0 -141 241 -107zM371 639l30 -47q-34 -40 -68 -49t-62.5 3t-56.5 25t-60.5 9.5t-62.5 -35.5l-29 47q35 39 70 48.5t64 -2t57.5 -24t59 -9.5t58.5 34z" />
    <glyph glyph-name="adieresis" unicode="&#xe4;" horiz-adv-x="478" 
d="M422 298v-298q-152 -14 -213 -8q-164 18 -172 163v14v83q0 99 69 133q56 24 127.5 12.5t116.5 -44.5q0 103 -141 103l5 53q38 0 68.5 -4.5t51.5 -15t37 -21.5t25 -29t15 -31.5t8 -36.5t2.5 -36t0.5 -37zM350 61v227q-33 17 -69.5 28t-77.5 15.5t-67.5 -17t-26.5 -68.5
v-78q0 -141 241 -107zM202 575q0 -15 -11 -25.5t-26 -10.5t-25.5 10.5t-10.5 25.5t10.5 26t25.5 11t26 -11t11 -26zM314 539q-15 0 -25.5 10.5t-10.5 26.5q0 15 10.5 25.5t25.5 10.5t26 -10.5t11 -25.5q0 -16 -11 -26.5t-26 -10.5z" />
    <glyph glyph-name="aring" unicode="&#xe5;" horiz-adv-x="479" 
d="M423 298v-298q-152 -14 -213 -8q-164 18 -172 163v14v83q0 99 69 133q56 24 127.5 12.5t116.5 -44.5q0 103 -141 103q-42 5 -71 36.5t-29 74.5q0 46 32.5 78.5t78.5 32.5t78.5 -32.5t32.5 -78.5q0 -39 -24 -69q28 -7 48.5 -19t32.5 -29.5t19.5 -32.5t10.5 -39.5t3.5 -39
t0.5 -40.5zM351 61v227q-33 17 -69.5 28t-77.5 15.5t-67.5 -17t-26.5 -68.5v-78q0 -141 241 -107zM221 510q24 0 40 16.5t16 40.5t-16 40t-40 16t-40.5 -16t-16.5 -40t16.5 -40.5t40.5 -16.5z" />
    <glyph glyph-name="ae" unicode="&#xe6;" horiz-adv-x="751" 
d="M658 94l27 -59q-74 -45 -165 -47q-56 -1 -98 17v-5q-152 -14 -213 -8q-164 18 -172 163v14v83q0 99 69 133q56 24 127.5 12.5t116.5 -44.5q0 103 -141 103l5 53q127 0 173 -58q51 59 147 59q83 0 129.5 -44.5t46.5 -123.5v-137l-288 -15v-59q4 -67 76 -76.5t160 39.5z
M350 61v227q-33 17 -69.5 28t-77.5 15.5t-67.5 -17t-26.5 -68.5v-78q0 -141 241 -107zM637 269v77q0 53 -33 75.5t-71 22.5q-50 0 -80.5 -27t-30.5 -79v-80z" />
    <glyph glyph-name="ccedilla" unicode="&#xe7;" horiz-adv-x="401" 
d="M95 -197l27 59q37 -25 78 -25q24 0 43 10t19 31q0 22 -20.5 31t-56.5 -5l-37 -17l-22 35l57 74l-24 6q-59 20 -85.5 61.5t-26.5 116.5v128q0 71 28 119t74 67t103 15t115 -31l-20 -57q-61 22 -112 21.5t-83.5 -34t-32.5 -94.5v-145q0 -44 22 -70.5t58.5 -34.5t74.5 -6
t78 12l17 -64q-73 -19 -139 -16l-29 -39q14 7 36 7q34 0 58 -21t24 -59q0 -50 -39 -72.5t-90 -22.5q-40 0 -95 20z" />
    <glyph glyph-name="egrave" unicode="&#xe8;" horiz-adv-x="451" 
d="M358 94l27 -59q-74 -45 -165 -47q-78 -2 -124 34.5t-46 111.5v205q0 81 50.5 126t133.5 45t129.5 -44.5t46.5 -123.5v-137l-288 -15v-52q0 -71 72.5 -82.5t163.5 38.5zM337 269v77q0 53 -33 75.5t-71 22.5q-50 0 -80.5 -27t-30.5 -79v-80zM258 540h-53l-63 83
q-11 15 -6.5 32t21.5 24q14 5 29 -1t22 -23z" />
    <glyph glyph-name="eacute" unicode="&#xe9;" horiz-adv-x="451" 
d="M358 94l27 -59q-74 -45 -165 -47q-78 -2 -124 34.5t-46 111.5v205q0 81 50.5 126t133.5 45t129.5 -44.5t46.5 -123.5v-137l-288 -15v-52q0 -71 72.5 -82.5t163.5 38.5zM337 269v77q0 53 -33 75.5t-71 22.5q-50 0 -80.5 -27t-30.5 -79v-80zM265 538h-53l49 115q8 17 23 23
t29 1q17 -7 21.5 -24t-6.5 -32z" />
    <glyph glyph-name="ecircumflex" unicode="&#xea;" horiz-adv-x="451" 
d="M358 94l27 -59q-74 -45 -165 -47q-78 -2 -124 34.5t-46 111.5v205q0 81 50.5 126t133.5 45t129.5 -44.5t46.5 -123.5v-137l-288 -15v-52q0 -71 72.5 -82.5t163.5 38.5zM337 269v77q0 53 -33 75.5t-71 22.5q-50 0 -80.5 -27t-30.5 -79v-80zM391 578l-47 -39l-96 98
l-101 -98l-46 39l148 141z" />
    <glyph glyph-name="edieresis" unicode="&#xeb;" horiz-adv-x="451" 
d="M358 94l27 -59q-74 -45 -165 -47q-78 -2 -124 34.5t-46 111.5v205q0 81 50.5 126t133.5 45t129.5 -44.5t46.5 -123.5v-137l-288 -15v-52q0 -71 72.5 -82.5t163.5 38.5zM337 269v77q0 53 -33 75.5t-71 22.5q-50 0 -80.5 -27t-30.5 -79v-80zM193 575q0 -15 -11 -25.5
t-26 -10.5t-25.5 10.5t-10.5 25.5t10.5 26t25.5 11t26 -11t11 -26zM305 539q-15 0 -25.5 10.5t-10.5 26.5q0 15 10.5 25.5t25.5 10.5t26 -10.5t11 -25.5q0 -16 -11 -26.5t-26 -10.5z" />
    <glyph glyph-name="igrave" unicode="&#xec;" 
d="M119 540h-53l-63 83q-11 15 -6.5 32t21.5 24q14 5 29 -1t22 -23zM136 0h-72v501h72v-501z" />
    <glyph glyph-name="iacute" unicode="&#xed;" 
d="M129 538h-53l49 115q8 17 23 23t29 1q17 -7 21.5 -24t-6.5 -32zM136 0h-72v501h72v-501z" />
    <glyph glyph-name="icircumflex" unicode="&#xee;" 
d="M243 578l-47 -39l-96 98l-101 -98l-46 39l148 141zM136 0h-72v501h72v-501z" />
    <glyph glyph-name="idieresis" unicode="&#xef;" 
d="M62 575q0 -15 -11 -25.5t-26 -10.5t-25.5 10.5t-10.5 25.5t10.5 26t25.5 11t26 -11t11 -26zM174 539q-15 0 -25.5 10.5t-10.5 26.5q0 15 10.5 25.5t25.5 10.5t26 -10.5t11 -25.5q0 -16 -11 -26.5t-26 -10.5zM136 0h-72v501h72v-501z" />
    <glyph glyph-name="eth" unicode="&#xf0;" horiz-adv-x="245" 
 />
    <glyph glyph-name="ntilde" unicode="&#xf1;" horiz-adv-x="492" 
d="M433 0h-72v335q0 59 -39 85.5t-90 22t-96 -29.5v-413h-72v501h68l1 -26q39 29 103 33.5t112 -17.5q85 -39 85 -145v-346zM387 640l30 -47q-34 -40 -68 -49t-62.5 3t-56.5 25t-60.5 9.5t-62.5 -35.5l-29 47q35 39 70 48.5t64 -2t57.5 -24t59 -9.5t58.5 34z" />
    <glyph glyph-name="ograve" unicode="&#xf2;" horiz-adv-x="465" 
d="M419 316v-132q0 -84 -46 -139t-139 -55t-140.5 55.5t-47.5 138.5v132q0 95 48.5 145.5t139.5 50.5q87 0 136 -52.5t49 -143.5zM347 174v142q0 127 -113 127q-116 0 -116 -127v-142q0 -54 31.5 -85.5t84.5 -31.5t83 31.5t30 85.5zM253 540h-53l-63 83q-11 15 -6.5 32
t21.5 24q14 5 29 -1t22 -23z" />
    <glyph glyph-name="oacute" unicode="&#xf3;" horiz-adv-x="465" 
d="M419 316v-132q0 -84 -46 -139t-139 -55t-140.5 55.5t-47.5 138.5v132q0 95 48.5 145.5t139.5 50.5q87 0 136 -52.5t49 -143.5zM347 174v142q0 127 -113 127q-116 0 -116 -127v-142q0 -54 31.5 -85.5t84.5 -31.5t83 31.5t30 85.5zM260 538h-53l49 115q8 17 23 23t29 1
q17 -7 21.5 -24t-6.5 -32z" />
    <glyph glyph-name="ocircumflex" unicode="&#xf4;" horiz-adv-x="465" 
d="M419 316v-132q0 -84 -46 -139t-139 -55t-140.5 55.5t-47.5 138.5v132q0 95 48.5 145.5t139.5 50.5q87 0 136 -52.5t49 -143.5zM347 174v142q0 127 -113 127q-116 0 -116 -127v-142q0 -54 31.5 -85.5t84.5 -31.5t83 31.5t30 85.5zM382 578l-47 -39l-96 98l-101 -98l-46 39
l148 141z" />
    <glyph glyph-name="otilde" unicode="&#xf5;" horiz-adv-x="465" 
d="M419 316v-132q0 -84 -46 -139t-139 -55t-140.5 55.5t-47.5 138.5v132q0 95 48.5 145.5t139.5 50.5q87 0 136 -52.5t49 -143.5zM347 174v142q0 127 -113 127q-116 0 -116 -127v-142q0 -54 31.5 -85.5t84.5 -31.5t83 31.5t30 85.5zM378 632l30 -47q-34 -40 -68 -49t-62.5 3
t-56.5 25t-60.5 9.5t-62.5 -35.5l-29 47q35 39 70 48.5t64 -2t57.5 -24t59 -9.5t58.5 34z" />
    <glyph glyph-name="odieresis" unicode="&#xf6;" horiz-adv-x="465" 
d="M419 316v-132q0 -84 -46 -139t-139 -55t-140.5 55.5t-47.5 138.5v132q0 95 48.5 145.5t139.5 50.5q87 0 136 -52.5t49 -143.5zM347 174v142q0 127 -113 127q-116 0 -116 -127v-142q0 -54 31.5 -85.5t84.5 -31.5t83 31.5t30 85.5zM200 575q0 -15 -11 -25.5t-26 -10.5
t-25.5 10.5t-10.5 25.5t10.5 26t25.5 11t26 -11t11 -26zM312 539q-15 0 -25.5 10.5t-10.5 26.5q0 15 10.5 25.5t25.5 10.5t26 -10.5t11 -25.5q0 -16 -11 -26.5t-26 -10.5z" />
    <glyph glyph-name="divide" unicode="&#xf7;" horiz-adv-x="436" 
d="M378 352h-320v65h320v-65zM220 469q-16 0 -27.5 12t-11.5 28t11.5 27.5t27.5 11.5t28 -11.5t12 -27.5q0 -17 -12 -28.5t-28 -11.5zM260 257q0 -16 -12 -27.5t-28 -11.5t-27.5 11.5t-11.5 27.5t11.5 27.5t27.5 11.5t28 -11.5t12 -27.5z" />
    <glyph glyph-name="oslash" unicode="&#xf8;" horiz-adv-x="471" 
d="M134 -67h-71l44 102q-58 54 -58 149v132q0 95 48.5 145.5t139.5 50.5q37 0 70 -11l37 87h73l-53 -121q58 -53 58 -151v-132q0 -84 -46 -139t-139 -55q-41 0 -74 11zM350 174v142q0 46 -17 78l-143 -330q20 -7 47 -7q53 0 83 31.5t30 85.5zM138 107l141 330q-19 6 -42 6
q-116 0 -116 -127v-142q0 -39 17 -67z" />
    <glyph glyph-name="ugrave" unicode="&#xf9;" horiz-adv-x="496" 
d="M432 0h-69v37q-43 -48 -116 -48q-188 0 -188 183v329h72v-329q0 -115 116 -115q113 0 113 116v328h72v-501zM273 540h-53l-63 83q-11 15 -6.5 32t21.5 24q14 5 29 -1t22 -23z" />
    <glyph glyph-name="uacute" unicode="&#xfa;" horiz-adv-x="496" 
d="M432 0h-69v37q-43 -48 -116 -48q-188 0 -188 183v329h72v-329q0 -115 116 -115q113 0 113 116v328h72v-501zM273 538h-53l49 115q8 17 23 23t29 1q17 -7 21.5 -24t-6.5 -32z" />
    <glyph glyph-name="ucircumflex" unicode="&#xfb;" horiz-adv-x="496" 
d="M432 0h-69v37q-43 -48 -116 -48q-188 0 -188 183v329h72v-329q0 -115 116 -115q113 0 113 116v328h72v-501zM392 578l-47 -39l-96 98l-101 -98l-46 39l148 141z" />
    <glyph glyph-name="udieresis" unicode="&#xfc;" horiz-adv-x="496" 
d="M432 0h-69v37q-43 -48 -116 -48q-188 0 -188 183v329h72v-329q0 -115 116 -115q113 0 113 116v328h72v-501zM208 575q0 -15 -11 -25.5t-26 -10.5t-25.5 10.5t-10.5 25.5t10.5 26t25.5 11t26 -11t11 -26zM320 539q-15 0 -25.5 10.5t-10.5 26.5q0 15 10.5 25.5t25.5 10.5
t26 -10.5t11 -25.5q0 -16 -11 -26.5t-26 -10.5z" />
    <glyph glyph-name="yacute" unicode="&#xfd;" horiz-adv-x="507" 
d="M318 -210l-23 56q67 20 67 93v96q-35 -47 -122 -47q-88 0 -135.5 47.5t-47.5 140.5v325h71v-323q0 -121 112 -121q121 0 121 121v185q0 59 18.5 96.5t71.5 50.5l23 -54q-42 -14 -42 -71v-446q0 -62 -26.5 -98t-87.5 -51zM268 538h-53l49 115q8 17 23 23t29 1
q17 -7 21.5 -24t-6.5 -32z" />
    <glyph glyph-name="thorn" unicode="&#xfe;" horiz-adv-x="470" 
d="M136 0h-72v588h72v-122q46 43 115 43q93 0 141.5 -54t48.5 -140q0 -94 -51.5 -146.5t-134.5 -52.5q-32 0 -66 14t-53 41v-171zM136 322q0 -70 33 -103.5t86 -33.5q48 0 81 32t33 101q0 60 -33 92t-81 32q-47 0 -82.5 -30t-36.5 -90z" />
    <glyph glyph-name="ydieresis" unicode="&#xff;" horiz-adv-x="507" 
d="M318 -210l-23 56q67 20 67 93v96q-35 -47 -122 -47q-88 0 -135.5 47.5t-47.5 140.5v325h71v-323q0 -121 112 -121q121 0 121 121v185q0 59 18.5 96.5t71.5 50.5l23 -54q-42 -14 -42 -71v-446q0 -62 -26.5 -98t-87.5 -51zM324 539q-15 0 -25.5 10.5t-10.5 26.5
q0 15 10.5 25.5t25.5 10.5t26 -10.5t11 -25.5q0 -16 -11 -26.5t-26 -10.5zM212 575q0 -15 -11 -25.5t-26 -10.5t-25.5 10.5t-10.5 25.5t10.5 26t25.5 11t26 -11t11 -26z" />
    <glyph glyph-name="Amacron" unicode="&#x100;" horiz-adv-x="525" 
d="M515 0h-81l-69 226h-208l-66 -226h-78l206 700h83zM347 300l-87 284l-84 -284h171zM366 730h-217v68h217v-68z" />
    <glyph glyph-name="amacron" unicode="&#x101;" horiz-adv-x="478" 
d="M422 298v-298q-152 -14 -213 -8q-164 18 -172 163v14v83q0 99 69 133q56 24 127.5 12.5t116.5 -44.5q0 103 -141 103l5 53q38 0 68.5 -4.5t51.5 -15t37 -21.5t25 -29t15 -31.5t8 -36.5t2.5 -36t0.5 -37zM350 61v227q-33 17 -69.5 28t-77.5 15.5t-67.5 -17t-26.5 -68.5
v-78q0 -141 241 -107zM345 538h-217v68h217v-68z" />
    <glyph glyph-name="Abreve" unicode="&#x102;" horiz-adv-x="525" 
d="M515 0h-81l-69 226h-208l-66 -226h-78l206 700h83zM347 300l-87 284l-84 -284h171zM376 848v-5q0 -47 -33 -80t-80 -33t-80 33t-33 80v5h56v-5q0 -25 16.5 -41.5t40.5 -16.5t40.5 16.5t16.5 41.5v5h56z" />
    <glyph glyph-name="abreve" unicode="&#x103;" horiz-adv-x="478" 
d="M422 298v-298q-152 -14 -213 -8q-164 18 -172 163v14v83q0 99 69 133q56 24 127.5 12.5t116.5 -44.5q0 103 -141 103l5 53q38 0 68.5 -4.5t51.5 -15t37 -21.5t25 -29t15 -31.5t8 -36.5t2.5 -36t0.5 -37zM350 61v227q-33 17 -69.5 28t-77.5 15.5t-67.5 -17t-26.5 -68.5
v-78q0 -141 241 -107zM381 656v-5q0 -47 -33.5 -80t-79.5 -33t-79.5 33t-33.5 80v5h56v-5q0 -25 16.5 -41.5t40.5 -16.5t40.5 16.5t16.5 41.5v5h56z" />
    <glyph glyph-name="Aogonek" unicode="&#x104;" horiz-adv-x="525" 
d="M508 -121l41 -42q-32 -50 -101 -50q-30 0 -60.5 19.5t-29.5 66.5q0 66 95 127h-19l-69 226h-208l-66 -226h-78l206 700h83l213 -700h-1q-99 -82 -100 -121q-1 -18 9.5 -28.5t27.5 -10.5q35 0 57 39zM347 300l-87 284l-84 -284h171z" />
    <glyph glyph-name="aogonek" unicode="&#x105;" horiz-adv-x="478" 
d="M415 -121l41 -42q-32 -50 -101 -50q-30 0 -60.5 19.5t-29.5 66.5q0 62 85 120q-56 -8 -111.5 -3.5t-100.5 18.5t-73 55t-28 106v83q0 99 69 133q56 24 127.5 12.5t116.5 -44.5q0 103 -141 103l5 53q38 0 68.5 -4.5t51.5 -15t37 -21.5t25 -29t15 -31.5t8 -36.5t2.5 -36
t0.5 -37v-298h-1q-99 -82 -100 -121q-1 -18 9.5 -28.5t27.5 -10.5q35 0 57 39zM350 61v227q-33 17 -69.5 28t-77.5 15.5t-67.5 -17t-26.5 -68.5v-78q0 -141 241 -107z" />
    <glyph glyph-name="Cacute" unicode="&#x106;" horiz-adv-x="455" 
d="M412 87l14 -64q-49 -19 -98 -27.5t-97 -4t-84.5 24t-59 62t-22.5 105.5v321q0 76 21.5 115t65.5 66q50 28 120 25t129 -33l-21 -57q-54 20 -105 20q-33 0 -61.5 -8.5t-52.5 -39t-24 -79.5v-328q0 -92 75.5 -116.5t199.5 18.5zM283 734h-53l49 115q8 17 23 23t29 1
q17 -7 21.5 -24t-6.5 -32z" />
    <glyph glyph-name="cacute" unicode="&#x107;" horiz-adv-x="401" 
d="M352 70l17 -64q-120 -32 -210 -4q-59 20 -85.5 61.5t-26.5 116.5v128q0 71 28 119t74 67t103 15t115 -31l-20 -57q-61 22 -112 21.5t-83.5 -34t-32.5 -94.5v-145q0 -44 22 -70.5t58.5 -34.5t74.5 -6t78 12zM231 538h-53l49 115q8 17 23 23t29 1q17 -7 21.5 -24t-6.5 -32z
" />
    <glyph glyph-name="Ccircumflex" unicode="&#x108;" horiz-adv-x="455" 
d="M411 771l-47 -39l-96 98l-101 -98l-46 39l148 141zM412 87l14 -64q-49 -19 -98 -27.5t-97 -4t-84.5 24t-59 62t-22.5 105.5v321q0 76 21.5 115t65.5 66q50 28 120 25t129 -33l-21 -57q-54 20 -105 20q-33 0 -61.5 -8.5t-52.5 -39t-24 -79.5v-328q0 -92 75.5 -116.5
t199.5 18.5z" />
    <glyph glyph-name="ccircumflex" unicode="&#x109;" horiz-adv-x="401" 
d="M352 70l17 -64q-120 -32 -210 -4q-59 20 -85.5 61.5t-26.5 116.5v128q0 71 28 119t74 67t103 15t115 -31l-20 -57q-61 22 -112 21.5t-83.5 -34t-32.5 -94.5v-145q0 -44 22 -70.5t58.5 -34.5t74.5 -6t78 12zM371 579l-47 -39l-96 98l-101 -98l-46 39l148 141z" />
    <glyph glyph-name="Cdotaccent" unicode="&#x10a;" horiz-adv-x="455" 
d="M412 87l14 -64q-49 -19 -98 -27.5t-97 -4t-84.5 24t-59 62t-22.5 105.5v321q0 76 21.5 115t65.5 66q50 28 120 25t129 -33l-21 -57q-54 20 -105 20q-33 0 -61.5 -8.5t-52.5 -39t-24 -79.5v-328q0 -92 75.5 -116.5t199.5 18.5zM265 730q-17 0 -29.5 13t-12.5 29t12.5 28
t29.5 12t28.5 -12t11.5 -28q0 -17 -12 -29.5t-28 -12.5z" />
    <glyph glyph-name="cdotaccent" unicode="&#x10b;" horiz-adv-x="401" 
d="M352 70l17 -64q-120 -32 -210 -4q-59 20 -85.5 61.5t-26.5 116.5v128q0 71 28 119t74 67t103 15t115 -31l-20 -57q-61 22 -112 21.5t-83.5 -34t-32.5 -94.5v-145q0 -44 22 -70.5t58.5 -34.5t74.5 -6t78 12zM234 538q-16 0 -29 13t-13 29t12.5 28t29.5 12q16 0 28 -12
t12 -28q0 -17 -12 -29.5t-28 -12.5z" />
    <glyph glyph-name="Ccaron" unicode="&#x10c;" horiz-adv-x="455" 
d="M412 87l14 -64q-49 -19 -98 -27.5t-97 -4t-84.5 24t-59 62t-22.5 105.5v321q0 76 21.5 115t65.5 66q50 28 120 25t129 -33l-21 -57q-54 20 -105 20q-33 0 -61.5 -8.5t-52.5 -39t-24 -79.5v-328q0 -92 75.5 -116.5t199.5 18.5zM397 874l-142 -141l-148 141l46 39l101 -97
l96 97z" />
    <glyph glyph-name="ccaron" unicode="&#x10d;" horiz-adv-x="401" 
d="M352 70l17 -64q-120 -32 -210 -4q-59 20 -85.5 61.5t-26.5 116.5v128q0 71 28 119t74 67t103 15t115 -31l-20 -57q-61 22 -112 21.5t-83.5 -34t-32.5 -94.5v-145q0 -44 22 -70.5t58.5 -34.5t74.5 -6t78 12zM370 684l-142 -141l-148 141l46 39l101 -97l96 97z" />
    <glyph glyph-name="Dcaron" unicode="&#x10e;" horiz-adv-x="564" 
d="M289 0h-208v701h188q113 0 172.5 -62t59.5 -165v-274q0 -200 -212 -200zM429 190v294q0 75 -43.5 111.5t-106.5 36.5h-126v-567h120q30 0 53.5 4t49 16t39.5 38.5t14 66.5zM419 875l-142 -141l-148 141l46 39l101 -97l96 97z" />
    <glyph glyph-name="dcaron" unicode="&#x10f;" horiz-adv-x="512" 
d="M49 157v189q0 105 85 144q51 22 113 18.5t99 -27.5v219h72v-700q-86 -12 -159 -12t-132 30q-78 40 -78 139zM346 63v349q-31 17 -68.5 24t-73.5 2.5t-60 -32t-24 -74.5v-178q0 -46 33.5 -71.5t83.5 -27t109 7.5zM493 549l-49 28q21 12 37.5 25.5t22.5 20.5l6 7l-11 3
q-22 13 -22 40q1 16 13 26.5t29 9.5q16 -1 27.5 -15t11.5 -29q0 -60 -65 -116z" />
    <glyph glyph-name="Dcroat" unicode="&#x110;" horiz-adv-x="564" 
d="M289 0h-208v701h188q113 0 172.5 -62t59.5 -165v-274q0 -200 -212 -200zM429 190v294q0 75 -43.5 111.5t-106.5 36.5h-126v-567h120q30 0 53.5 4t49 16t39.5 38.5t14 66.5zM395 730h-217v68h217v-68z" />
    <glyph glyph-name="dcroat" unicode="&#x111;" horiz-adv-x="482" 
d="M480 554h-62v-554q-86 -12 -159 -12t-132 30q-78 40 -78 139v189q0 105 85 144q51 22 113 18.5t99 -27.5v73h-100v70h100v76h72v-76h62v-70zM346 63v349q-31 17 -68.5 24t-73.5 2.5t-60 -32t-24 -74.5v-178q0 -46 33.5 -71.5t83.5 -27t109 7.5z" />
    <glyph glyph-name="Emacron" unicode="&#x112;" horiz-adv-x="462" 
d="M413 0h-332v700h334v-69h-262v-218h175l-23 -70h-152v-278h260v-65zM355 730h-217v68h217v-68z" />
    <glyph glyph-name="emacron" unicode="&#x113;" horiz-adv-x="451" 
d="M358 94l27 -59q-74 -45 -165 -47q-78 -2 -124 34.5t-46 111.5v205q0 81 50.5 126t133.5 45t129.5 -44.5t46.5 -123.5v-137l-288 -15v-52q0 -71 72.5 -82.5t163.5 38.5zM337 269v77q0 53 -33 75.5t-71 22.5q-50 0 -80.5 -27t-30.5 -79v-80zM341 538h-217v68h217v-68z" />
    <glyph glyph-name="Edotaccent" unicode="&#x116;" horiz-adv-x="462" 
d="M413 0h-332v700h334v-69h-262v-218h175l-23 -70h-152v-278h260v-65zM259 730q-17 0 -29.5 13t-12.5 29t12.5 28t29.5 12t28.5 -12t11.5 -28q0 -17 -12 -29.5t-28 -12.5z" />
    <glyph glyph-name="edotaccent" unicode="&#x117;" horiz-adv-x="451" 
d="M358 94l27 -59q-74 -45 -165 -47q-78 -2 -124 34.5t-46 111.5v205q0 81 50.5 126t133.5 45t129.5 -44.5t46.5 -123.5v-137l-288 -15v-52q0 -71 72.5 -82.5t163.5 38.5zM337 269v77q0 53 -33 75.5t-71 22.5q-50 0 -80.5 -27t-30.5 -79v-80zM240 538q-16 0 -29 13t-13 29
t12.5 28t29.5 12q16 0 28 -12t12 -28q0 -17 -12 -29.5t-28 -12.5z" />
    <glyph glyph-name="Eogonek" unicode="&#x118;" horiz-adv-x="462" 
d="M406 -121l41 -42q-32 -50 -101 -50q-30 0 -60.5 19.5t-29.5 66.5q0 66 95 127h-270v700h334v-69h-262v-218h175l-23 -70h-152v-278h260v-65h-1q-99 -82 -100 -121q-1 -18 9.5 -28.5t27.5 -10.5q35 0 57 39z" />
    <glyph glyph-name="eogonek" unicode="&#x119;" horiz-adv-x="451" 
d="M281 -121l41 -42q-32 -50 -101 -50q-30 0 -60.5 19.5t-29.5 66.5q0 60 77 115q-73 1 -115.5 37.5t-42.5 108.5v205q0 81 50.5 126t133.5 45t129.5 -44.5t46.5 -123.5v-137l-288 -15v-52q0 -71 72.5 -82.5t163.5 38.5l27 -59q-48 -30 -105 -40q-92 -77 -93 -116
q-1 -18 9.5 -28.5t27.5 -10.5q35 0 57 39zM337 269v77q0 53 -33 75.5t-71 22.5q-50 0 -80.5 -27t-30.5 -79v-80z" />
    <glyph glyph-name="Ecaron" unicode="&#x11a;" horiz-adv-x="462" 
d="M413 0h-332v700h334v-69h-262v-218h175l-23 -70h-152v-278h260v-65zM395 875l-142 -141l-148 141l46 39l101 -97l96 97z" />
    <glyph glyph-name="ecaron" unicode="&#x11b;" horiz-adv-x="451" 
d="M358 94l27 -59q-74 -45 -165 -47q-78 -2 -124 34.5t-46 111.5v205q0 81 50.5 126t133.5 45t129.5 -44.5t46.5 -123.5v-137l-288 -15v-52q0 -71 72.5 -82.5t163.5 38.5zM337 269v77q0 53 -33 75.5t-71 22.5q-50 0 -80.5 -27t-30.5 -79v-80zM379 683l-142 -141l-148 141
l46 39l101 -97l96 97z" />
    <glyph glyph-name="Gcircumflex" unicode="&#x11c;" horiz-adv-x="522" 
d="M475 0h-60l-12 31q-48 -41 -128 -41q-88 0 -149.5 50t-61.5 149v314q0 128 87 181q50 28 120 25t129 -33l-21 -56q-54 20 -103 20q-140 0 -140 -128v-325q0 -61 38 -93.5t100 -32.5q58 0 94.5 33t36.5 92v44h-63l-24 70h157v-300zM425 771l-47 -39l-96 98l-101 -98
l-46 39l148 141z" />
    <glyph glyph-name="gcircumflex" unicode="&#x11d;" horiz-adv-x="489" 
d="M417 579l-47 -39l-96 98l-101 -98l-46 39l148 141zM303 -210l-18 56q68 19 68 96v103q-34 -57 -119 -57q-88 0 -137 48t-49 140v149q0 88 51.5 136.5t138.5 48.5q84 0 118 -53l3 44h66v-565q0 -63 -28.5 -98t-93.5 -48zM353 190v140q0 55 -33.5 83.5t-85.5 28.5
q-49 0 -81.5 -30.5t-32.5 -91.5v-146q0 -57 30 -87.5t84 -30.5t86.5 34.5t32.5 99.5z" />
    <glyph glyph-name="Gbreve" unicode="&#x11e;" horiz-adv-x="522" 
d="M475 0h-60l-12 31q-48 -41 -128 -41q-88 0 -149.5 50t-61.5 149v314q0 128 87 181q50 28 120 25t129 -33l-21 -56q-54 20 -103 20q-140 0 -140 -128v-325q0 -61 38 -93.5t100 -32.5q58 0 94.5 33t36.5 92v44h-63l-24 70h157v-300zM388 846v-5q0 -47 -33 -80t-80 -33
t-80 33t-33 80v5h56v-5q0 -25 16.5 -41.5t40.5 -16.5t40.5 16.5t16.5 41.5v5h56z" />
    <glyph glyph-name="gbreve" unicode="&#x11f;" horiz-adv-x="489" 
d="M365 650v-5q0 -47 -33.5 -80t-79.5 -33t-79.5 33t-33.5 80v5h56v-5q0 -25 16.5 -41.5t40.5 -16.5t40.5 16.5t16.5 41.5v5h56zM303 -210l-18 56q68 19 68 96v103q-34 -57 -119 -57q-88 0 -137 48t-49 140v149q0 88 51.5 136.5t138.5 48.5q84 0 118 -53l3 44h66v-565
q0 -63 -28.5 -98t-93.5 -48zM353 190v140q0 55 -33.5 83.5t-85.5 28.5q-49 0 -81.5 -30.5t-32.5 -91.5v-146q0 -57 30 -87.5t84 -30.5t86.5 34.5t32.5 99.5z" />
    <glyph glyph-name="Gdotaccent" unicode="&#x120;" horiz-adv-x="522" 
d="M272 729q-16 0 -29 12.5t-13 29.5q0 16 12.5 28t29.5 12q16 0 28 -11.5t12 -28.5t-12 -29.5t-28 -12.5zM475 0h-60l-12 31q-48 -41 -128 -41q-88 0 -149.5 50t-61.5 149v314q0 128 87 181q50 28 120 25t129 -33l-21 -56q-54 20 -103 20q-140 0 -140 -128v-325
q0 -61 38 -93.5t100 -32.5q58 0 94.5 33t36.5 92v44h-63l-24 70h157v-300z" />
    <glyph glyph-name="gdotaccent" unicode="&#x121;" horiz-adv-x="489" 
d="M250 537q-16 0 -29 12.5t-13 29.5q0 16 12.5 28t29.5 12q16 0 28 -11.5t12 -28.5t-12 -29.5t-28 -12.5zM303 -210l-18 56q68 19 68 96v103q-34 -57 -119 -57q-88 0 -137 48t-49 140v149q0 88 51.5 136.5t138.5 48.5q84 0 118 -53l3 44h66v-565q0 -63 -28.5 -98t-93.5 -48
zM353 190v140q0 55 -33.5 83.5t-85.5 28.5q-49 0 -81.5 -30.5t-32.5 -91.5v-146q0 -57 30 -87.5t84 -30.5t86.5 34.5t32.5 99.5z" />
    <glyph glyph-name="Gcommaaccent" unicode="&#x122;" horiz-adv-x="522" 
d="M475 0h-60l-12 31q-48 -41 -128 -41q-88 0 -149.5 50t-61.5 149v314q0 128 87 181q50 28 120 25t129 -33l-21 -56q-54 20 -103 20q-140 0 -140 -128v-325q0 -61 38 -93.5t100 -32.5q58 0 94.5 33t36.5 92v44h-63l-24 70h157v-300zM246 -194l-49 28q21 12 37.5 25t22.5 21
l6 7l-11 3q-22 13 -22 40q1 16 13 26.5t29 9.5q16 -1 27.5 -15t11.5 -29q0 -60 -65 -116z" />
    <glyph glyph-name="gcommaaccent" unicode="&#x123;" horiz-adv-x="489" 
d="M303 -210l-18 56q68 19 68 96v103q-34 -57 -119 -57q-88 0 -137 48t-49 140v149q0 88 51.5 136.5t138.5 48.5q84 0 118 -53l3 44h66v-565q0 -63 -28.5 -98t-93.5 -48zM353 190v140q0 55 -33.5 83.5t-85.5 28.5q-49 0 -81.5 -30.5t-32.5 -91.5v-146q0 -57 30 -87.5
t84 -30.5t86.5 34.5t32.5 99.5zM243 621l11 -3q22 -13 22 -40q-1 -16 -13 -26.5t-29 -9.5q-16 1 -27.5 15t-11.5 29q0 60 65 116l49 -28q-21 -12 -37.5 -25.5t-22.5 -20.5z" />
    <glyph glyph-name="Hcircumflex" unicode="&#x124;" horiz-adv-x="592" 
d="M511 0h-72v343h-286v-343h-72v700h72v-287h286v287h72v-700zM463 771l-47 -39l-96 98l-101 -98l-46 39l148 141z" />
    <glyph glyph-name="hcircumflex" unicode="&#x125;" horiz-adv-x="492" 
d="M245 771l-47 -39l-96 98l-101 -98l-46 39l148 141zM433 0h-72v332q0 50 -25 78t-62 31.5t-73.5 -4t-64.5 -23.5v-414h-72v700h72v-219q37 24 100 28t112 -18q85 -39 85 -145v-346z" />
    <glyph glyph-name="Hbar" unicode="&#x126;" horiz-adv-x="619" 
d="M525 0h-72v343h-286v-343h-72v480h-49v70h49v150h72v-150h286v150h72v-150h48v-70h-48v-480zM453 413v67h-286v-67h286z" />
    <glyph glyph-name="hbar" unicode="&#x127;" horiz-adv-x="492" 
d="M433 0h-72v332q0 50 -25 78t-62 31.5t-73.5 -4t-64.5 -23.5v-414h-72v554h-62v70h62v76h72v-76h100v-70h-100v-73q37 24 100 28t112 -18q85 -39 85 -145v-346z" />
    <glyph glyph-name="Itilde" unicode="&#x128;" horiz-adv-x="254" 
d="M173 0h-72v632l-66 2v66h138v-700zM265 821l30 -47q-34 -40 -68 -49t-62.5 3t-56.5 25t-60.5 9.5t-62.5 -35.5l-29 47q35 39 70 48.5t64 -2t57.5 -24t59 -9.5t58.5 34z" />
    <glyph glyph-name="itilde" unicode="&#x129;" 
d="M248 622l30 -47q-34 -40 -68 -49t-62.5 3t-56.5 25t-60.5 9.5t-62.5 -35.5l-29 47q35 39 70 48.5t64 -2t57.5 -24t59 -9.5t58.5 34zM136 0h-72v501h72v-501z" />
    <glyph glyph-name="Imacron" unicode="&#x12a;" horiz-adv-x="254" 
d="M173 0h-72v632l-66 2v66h138v-700zM220 730h-216v68h216v-68z" />
    <glyph glyph-name="imacron" unicode="&#x12b;" 
d="M205 538h-217v68h217v-68zM136 0h-72v501h72v-501z" />
    <glyph glyph-name="Iogonek" unicode="&#x12e;" horiz-adv-x="254" 
d="M167 -121l41 -42q-32 -50 -101 -50q-30 0 -60.5 19.5t-29.5 66.5q0 66 95 127h-11v632l-66 2v66h138v-700q-99 -82 -100 -121q-1 -18 9.5 -28.5t27.5 -10.5q35 0 57 39z" />
    <glyph glyph-name="iogonek" unicode="&#x12f;" 
d="M128 -121l41 -42q-32 -50 -101 -50q-30 0 -60.5 19.5t-29.5 66.5q0 66 95 127h-9v501h72v-501h-2q-99 -82 -100 -121q-1 -18 9.5 -28.5t27.5 -10.5q35 0 57 39zM102 628q-17 0 -29.5 12.5t-12.5 28.5t12.5 28.5t29.5 12.5q16 0 28 -12t12 -29t-12 -29t-28 -12z" />
    <glyph glyph-name="Idotaccent" unicode="&#x130;" horiz-adv-x="254" 
d="M173 0h-72v632l-66 2v66h138v-700zM140 730q-16 0 -29 13t-13 29t12.5 28t29.5 12q16 0 28 -12t12 -28q0 -17 -12 -29.5t-28 -12.5z" />
    <glyph glyph-name="dotlessi" unicode="&#x131;" 
d="M136 0h-72v501h72v-501z" />
    <glyph glyph-name="Jcircumflex" unicode="&#x134;" horiz-adv-x="265" 
d="M47 -37l-20 54q35 0 62 24.5t27 85.5v505l-65 2v66h137v-576q0 -160 -141 -161zM257 846v-5q0 -47 -33.5 -80t-79.5 -33t-79.5 33t-33.5 80v5h56v-5q0 -25 16.5 -41.5t40.5 -16.5t40.5 16.5t16.5 41.5v5h56z" />
    <glyph glyph-name="jcircumflex" unicode="&#x135;" horiz-adv-x="220" 
d="M259 579l-47 -39l-96 98l-101 -98l-46 39l148 141zM83 -50v482l-46 5l-23 64h142v-576q-2 -57 -40 -95.5t-93 -38.5l-13 56q3 0 8 1t17.5 7.5t22 16.5t17.5 30.5t8 47.5z" />
    <glyph glyph-name="Kcommaaccent" unicode="&#x136;" horiz-adv-x="500" 
d="M494 0h-88l-215 325l-35 -56v-269h-75v701h75v-306l205 306h85l-210 -310zM240 -194l-49 28q21 12 37.5 25t22.5 21l6 7l-11 3q-22 13 -22 40q1 16 13 26.5t29 9.5q16 -1 27.5 -15t11.5 -29q0 -60 -65 -116z" />
    <glyph glyph-name="kcommaaccent" unicode="&#x137;" horiz-adv-x="447" 
d="M445 0h-89l-179 298l-41 -36v-262h-72v700h72v-351l185 171l52 -50l-143 -124q73 -121 215 -346zM212 -195l-49 28q21 12 37.5 25t22.5 20l6 8l-11 3q-22 13 -22 40q1 16 13 26.5t29 9.5q16 -1 27.5 -15t11.5 -29q0 -60 -65 -116z" />
    <glyph glyph-name="kgreenlandic" unicode="&#x138;" horiz-adv-x="457" 
d="M442 62l-8 -63q-35 0 -65 18.5t-45.5 36.5t-43.5 56l-97 133l-47 -46v-197h-72v512l72 -13v-207l192 209h93l-187 -204l119 -167q49 -66 89 -68z" />
    <glyph glyph-name="Lacute" unicode="&#x139;" horiz-adv-x="453" 
d="M442 0h-361v700h72v-635h289v-65zM186 730h-53l49 115q8 17 23 23t29 1q17 -7 21.5 -24t-6.5 -32z" />
    <glyph glyph-name="lacute" unicode="&#x13a;" 
d="M136 0h-72v700h72v-700zM131 734h-53l49 115q8 17 23 23t29 1q17 -7 21.5 -24t-6.5 -32z" />
    <glyph glyph-name="Lcommaaccent" unicode="&#x13b;" horiz-adv-x="453" 
d="M442 0h-361v700h72v-635h289v-65zM247 -195l-49 28q21 12 37.5 25t22.5 20l6 8l-11 3q-22 13 -22 40q1 16 13 26.5t29 9.5q16 -1 27.5 -15t11.5 -29q0 -60 -65 -116z" />
    <glyph glyph-name="lcommaaccent" unicode="&#x13c;" 
d="M136 0h-72v700h72v-700zM76 -195l-49 28q21 12 37.5 25t22.5 20l6 8l-11 3q-22 13 -22 40q1 16 13 26.5t29 9.5q16 -1 27.5 -15t11.5 -29q0 -60 -65 -116z" />
    <glyph glyph-name="Lcaron" unicode="&#x13d;" horiz-adv-x="453" 
d="M442 0h-361v700h72v-635h289v-65zM263 875l-142 -141l-148 141l46 39l101 -97l96 97z" />
    <glyph glyph-name="lcaron" unicode="&#x13e;" horiz-adv-x="230" 
d="M136 0h-72v700h72v-700zM246 875l-142 -141l-148 141l46 39l101 -97l96 97z" />
    <glyph glyph-name="Lslash" unicode="&#x141;" horiz-adv-x="509" 
d="M494 0h-361v340l-92 -41l-26 59l118 53v289h72v-257l101 46l27 -59l-128 -58v-307h289v-65z" />
    <glyph glyph-name="lslash" unicode="&#x142;" horiz-adv-x="341" 
d="M213 0h-72v345l-103 -46l-26 59l129 58v216l-66 2v66h138v-252l90 41l27 -59l-117 -53v-377z" />
    <glyph glyph-name="Nacute" unicode="&#x143;" horiz-adv-x="654" 
d="M573 0h-73l-347 560v-560h-72v700h72l347 -559v559h73v-700zM334 730h-53l49 115q8 17 23 23t29 1q17 -7 21.5 -24t-6.5 -32z" />
    <glyph glyph-name="nacute" unicode="&#x144;" horiz-adv-x="492" 
d="M433 0h-72v335q0 59 -39 85.5t-90 22t-96 -29.5v-413h-72v501h68l1 -26q39 29 103 33.5t112 -17.5q85 -39 85 -145v-346zM270 538h-53l49 115q8 17 23 23t29 1q17 -7 21.5 -24t-6.5 -32z" />
    <glyph glyph-name="Ncommaaccent" unicode="&#x145;" horiz-adv-x="654" 
d="M573 0h-73l-347 560v-560h-72v700h72l347 -559v559h73v-700zM317 -193l-49 28q21 12 37.5 25t22.5 20l6 8l-11 3q-22 13 -22 40q1 16 13 26.5t29 9.5q16 -1 27.5 -15t11.5 -29q0 -60 -65 -116z" />
    <glyph glyph-name="ncommaaccent" unicode="&#x146;" horiz-adv-x="492" 
d="M433 0h-72v335q0 59 -39 85.5t-90 22t-96 -29.5v-413h-72v501h68l1 -26q39 29 103 33.5t112 -17.5q85 -39 85 -145v-346zM222 -195l-49 28q21 12 37.5 25t22.5 20l6 8l-11 3q-22 13 -22 40q1 16 13 26.5t29 9.5q16 -1 27.5 -15t11.5 -29q0 -60 -65 -116z" />
    <glyph glyph-name="Ncaron" unicode="&#x147;" horiz-adv-x="654" 
d="M573 0h-73l-347 560v-560h-72v700h72l347 -559v559h73v-700zM477 875l-142 -141l-148 141l46 39l101 -97l96 97z" />
    <glyph glyph-name="ncaron" unicode="&#x148;" horiz-adv-x="492" 
d="M433 0h-72v335q0 59 -39 85.5t-90 22t-96 -29.5v-413h-72v501h68l1 -26q39 29 103 33.5t112 -17.5q85 -39 85 -145v-346zM407 732l-142 -141l-148 141l46 39l101 -97l96 97z" />
    <glyph glyph-name="Eng" unicode="&#x14a;" horiz-adv-x="651" 
d="M474 44l-321 516v-560h-72v700h72q282 -441 347 -558v490l-64 2v66h138v-569q0 -82 -39.5 -125t-102.5 -43q-6 18 -20 54q39 0 62 27z" />
    <glyph glyph-name="eng" unicode="&#x14b;" horiz-adv-x="492" 
d="M362 -51v389q0 47 -25 73.5t-61.5 29.5t-73.5 -4.5t-66 -23.5v-413h-72v501h69v-25q35 28 100.5 33t114.5 -18q85 -39 85 -145v-420q-1 -59 -41 -97t-96 -38l-13 56q3 0 8.5 1t19 7t24 16t19 30.5t8.5 47.5z" />
    <glyph glyph-name="Omacron" unicode="&#x14c;" horiz-adv-x="548" 
d="M484 506v-321q0 -101 -61.5 -148.5t-147.5 -47.5t-148.5 47.5t-62.5 148.5v322q0 103 56.5 156t155.5 53t153.5 -56t54.5 -154zM412 193v309q0 69 -35.5 105t-102.5 36q-138 0 -138 -141v-311q0 -64 38 -97.5t100 -33.5t100 33.5t38 99.5zM378 730h-217v68h217v-68z" />
    <glyph glyph-name="omacron" unicode="&#x14d;" horiz-adv-x="465" 
d="M419 316v-132q0 -84 -46 -139t-139 -55t-140.5 55.5t-47.5 138.5v132q0 95 48.5 145.5t139.5 50.5q87 0 136 -52.5t49 -143.5zM347 174v142q0 127 -113 127q-116 0 -116 -127v-142q0 -54 31.5 -85.5t84.5 -31.5t83 31.5t30 85.5zM340 538h-216v68h216v-68z" />
    <glyph glyph-name="Ohungarumlaut" unicode="&#x150;" horiz-adv-x="548" 
d="M484 506v-321q0 -101 -61.5 -148.5t-147.5 -47.5t-148.5 47.5t-62.5 148.5v322q0 103 56.5 156t155.5 53t153.5 -56t54.5 -154zM412 193v309q0 69 -35.5 105t-102.5 36q-138 0 -138 -141v-311q0 -64 38 -97.5t100 -33.5t100 33.5t38 99.5zM350 732h-53l49 115q8 17 23 23
t29 1q17 -7 21.5 -24t-6.5 -32zM230 732h-53l49 115q8 17 23 23t29 1q17 -7 21.5 -24t-6.5 -32z" />
    <glyph glyph-name="ohungarumlaut" unicode="&#x151;" horiz-adv-x="465" 
d="M419 316v-132q0 -84 -46 -139t-139 -55t-140.5 55.5t-47.5 138.5v132q0 95 48.5 145.5t139.5 50.5q87 0 136 -52.5t49 -143.5zM347 174v142q0 127 -113 127q-116 0 -116 -127v-142q0 -54 31.5 -85.5t84.5 -31.5t83 31.5t30 85.5zM308 543h-53l49 115q8 17 23 23t29 1
q17 -7 21.5 -24t-6.5 -32zM188 543h-53l49 115q8 17 23 23t29 1q17 -7 21.5 -24t-6.5 -32z" />
    <glyph glyph-name="OE" unicode="&#x152;" horiz-adv-x="792" 
d="M743 0h-332v28q-54 -39 -136 -39q-86 0 -148.5 47.5t-62.5 148.5v322q0 103 56.5 156t155.5 53q81 0 135 -40v24h334v-69h-262v-97q1 -9 1 -28v-93h174l-23 -70h-151v-158q0 -4 -0.5 -11.5t-0.5 -10.5v-98h260v-65zM411 173v349q-11 121 -137 121q-138 0 -138 -141v-311
q0 -64 38 -97.5t100 -33.5q57 0 94 28.5t43 84.5z" />
    <glyph glyph-name="oe" unicode="&#x153;" horiz-adv-x="760" 
d="M672 91l27 -56q-74 -45 -165 -47q-112 -3 -158 66q-48 -64 -142 -64q-93 0 -140.5 55.5t-47.5 138.5v132q0 95 48.5 145.5t139.5 50.5q101 0 150 -74q54 72 159 72q81 0 127.5 -47t46.5 -126v-133l-297 -18v-45q0 -48 38.5 -70.5t96.5 -16t117 36.5zM347 174v142
q0 129 -113 129q-116 0 -116 -129v-142q0 -57 32.5 -88.5t83.5 -31.5q50 0 81.5 31t31.5 89zM645 267v72q0 58 -33.5 82.5t-73.5 24.5q-53 0 -85.5 -29.5t-32.5 -88.5v-72z" />
    <glyph glyph-name="Racute" unicode="&#x154;" horiz-adv-x="571" 
d="M516 0h-74l-79 232q-18 -2 -32 -2h-178v-230h-72v700h243q96 0 143.5 -61t47.5 -160q0 -34 -2 -58.5t-9.5 -58.5t-26 -61.5t-47.5 -45.5zM153 300h169q29 0 50.5 8.5t34 25.5t20 32t10.5 40t3.5 37.5t0.5 35.5q0 151 -128 151h-160v-330zM283 730h-53l49 115q8 17 23 23
t29 1q17 -7 21.5 -24t-6.5 -32z" />
    <glyph glyph-name="racute" unicode="&#x155;" horiz-adv-x="326" 
d="M136 0h-72v501h70v-26q67 50 189 25l-18 -68q-35 11 -72.5 11t-67 -19.5t-29.5 -52.5v-371zM177 538h-53l49 115q8 17 23 23t29 1q17 -7 21.5 -24t-6.5 -32z" />
    <glyph glyph-name="Rcommaaccent" unicode="&#x156;" horiz-adv-x="571" 
d="M516 0h-74l-79 232q-18 -2 -32 -2h-178v-230h-72v700h243q96 0 143.5 -61t47.5 -160q0 -34 -2 -58.5t-9.5 -58.5t-26 -61.5t-47.5 -45.5zM153 300h169q29 0 50.5 8.5t34 25.5t20 32t10.5 40t3.5 37.5t0.5 35.5q0 151 -128 151h-160v-330zM260 -195l-49 28q21 12 37.5 25
t22.5 20l6 8l-11 3q-22 13 -22 40q1 16 13 26.5t29 9.5q16 -1 27.5 -15t11.5 -29q0 -60 -65 -116z" />
    <glyph glyph-name="rcommaaccent" unicode="&#x157;" horiz-adv-x="326" 
d="M136 0h-72v501h70v-26q67 50 189 25l-18 -68q-35 11 -72.5 11t-67 -19.5t-29.5 -52.5v-371zM112 -195l-49 28q21 12 37.5 25t22.5 20l6 8l-11 3q-22 13 -22 40q1 16 13 26.5t29 9.5q16 -1 27.5 -15t11.5 -29q0 -60 -65 -116z" />
    <glyph glyph-name="Rcaron" unicode="&#x158;" horiz-adv-x="571" 
d="M516 0h-74l-79 232q-18 -2 -32 -2h-178v-230h-72v700h243q96 0 143.5 -61t47.5 -160q0 -34 -2 -58.5t-9.5 -58.5t-26 -61.5t-47.5 -45.5zM153 300h169q29 0 50.5 8.5t34 25.5t20 32t10.5 40t3.5 37.5t0.5 35.5q0 151 -128 151h-160v-330zM430 875l-142 -141l-148 141
l46 39l101 -97l96 97z" />
    <glyph glyph-name="rcaron" unicode="&#x159;" horiz-adv-x="326" 
d="M136 0h-72v501h70v-26q67 50 189 25l-18 -68q-35 11 -72.5 11t-67 -19.5t-29.5 -52.5v-371zM353 732l-142 -141l-148 141l46 39l101 -97l96 97z" />
    <glyph glyph-name="Sacute" unicode="&#x15a;" horiz-adv-x="547" 
d="M42 178l75 5q5 -50 48.5 -87t111.5 -37q71 0 116.5 32.5t45.5 94.5q0 46 -28 78.5t-70 49.5t-91.5 37t-91.5 39t-70 57t-28 91q0 70 58 121t167 51q83 0 146 -30q0 -2 -22 -68q-62 27 -122 27q-71 0 -111.5 -28.5t-39.5 -77.5q1 -30 22 -52.5t55 -37.5t74.5 -29.5
t80.5 -32.5t73.5 -41t54.5 -60.5t21 -86.5q0 -92 -58.5 -148t-180.5 -56q-109 0 -171.5 57.5t-64.5 131.5zM298 735h-53l49 115q8 17 23 23t29 1q17 -7 21.5 -24t-6.5 -32z" />
    <glyph glyph-name="sacute" unicode="&#x15b;" horiz-adv-x="424" 
d="M36 127l70 3q4 -37 37 -57.5t78 -20.5q41 0 72.5 19.5t31.5 58.5q0 34 -27 55.5t-66 34t-78.5 26.5t-70 43.5t-35.5 75.5q-6 55 37 101.5t134 46.5q32 0 60 -7.5t40 -14.5l12 -7l-23 -63q-32 25 -89 25q-47 0 -74 -21t-23 -57q3 -26 33 -44t70 -31t79.5 -29t67 -50
t27.5 -84q0 -62 -45 -103.5t-133 -41.5q-85 0 -134 41t-51 101zM235 538h-53l49 115q8 17 23 23t29 1q17 -7 21.5 -24t-6.5 -32z" />
    <glyph glyph-name="Scircumflex" unicode="&#x15c;" horiz-adv-x="547" 
d="M42 178l75 5q5 -50 48.5 -87t111.5 -37q71 0 116.5 32.5t45.5 94.5q0 46 -28 78.5t-70 49.5t-91.5 37t-91.5 39t-70 57t-28 91q0 70 58 121t167 51q83 0 146 -30q0 -2 -22 -68q-62 27 -122 27q-71 0 -111.5 -28.5t-39.5 -77.5q1 -30 22 -52.5t55 -37.5t74.5 -29.5
t80.5 -32.5t73.5 -41t54.5 -60.5t21 -86.5q0 -92 -58.5 -148t-180.5 -56q-109 0 -171.5 57.5t-64.5 131.5zM420 771l-47 -39l-96 98l-101 -98l-46 39l148 141z" />
    <glyph glyph-name="scircumflex" unicode="&#x15d;" horiz-adv-x="424" 
d="M367 579l-47 -39l-96 98l-101 -98l-46 39l148 141zM36 127l70 3q4 -37 37 -57.5t78 -20.5q41 0 72.5 19.5t31.5 58.5q0 34 -27 55.5t-66 34t-78.5 26.5t-70 43.5t-35.5 75.5q-6 55 37 101.5t134 46.5q32 0 60 -7.5t40 -14.5l12 -7l-23 -63q-32 25 -89 25q-47 0 -74 -21
t-23 -57q3 -26 33 -44t70 -31t79.5 -29t67 -50t27.5 -84q0 -62 -45 -103.5t-133 -41.5q-85 0 -134 41t-51 101z" />
    <glyph glyph-name="scedilla" unicode="&#x15f;" horiz-adv-x="424" 
d="M107 -197l27 59q37 -25 78 -25q24 0 43 10t19 31q0 22 -20.5 31t-56.5 -5l-37 -17l-22 35l50 65q-71 8 -110.5 47t-41.5 93l70 3q4 -37 37 -57.5t78 -20.5q41 0 72.5 19.5t31.5 58.5q0 34 -27 55.5t-66 34t-78.5 26.5t-70 43.5t-35.5 75.5q-6 55 37 101.5t134 46.5
q32 0 60 -7.5t40 -14.5l12 -7l-23 -63q-32 25 -89 25q-47 0 -74 -21t-23 -57q3 -26 33 -44t70 -31t79.5 -29t67 -50t27.5 -84q0 -59 -40.5 -99.5t-120.5 -44.5l-25 -35q14 7 36 7q34 0 58 -21t24 -59q0 -50 -39 -72.5t-90 -22.5q-40 0 -95 20z" />
    <glyph glyph-name="Scaron" unicode="&#x160;" horiz-adv-x="547" 
d="M42 178l75 5q5 -50 48.5 -87t111.5 -37q71 0 116.5 32.5t45.5 94.5q0 46 -28 78.5t-70 49.5t-91.5 37t-91.5 39t-70 57t-28 91q0 70 58 121t167 51q83 0 146 -30q0 -2 -22 -68q-62 27 -122 27q-71 0 -111.5 -28.5t-39.5 -77.5q1 -30 22 -52.5t55 -37.5t74.5 -29.5
t80.5 -32.5t73.5 -41t54.5 -60.5t21 -86.5q0 -92 -58.5 -148t-180.5 -56q-109 0 -171.5 57.5t-64.5 131.5zM449 924l-142 -141l-148 141l46 39l101 -97l96 97z" />
    <glyph glyph-name="scaron" unicode="&#x161;" horiz-adv-x="424" 
d="M36 127l70 3q4 -37 37 -57.5t78 -20.5q41 0 72.5 19.5t31.5 58.5q0 34 -27 55.5t-66 34t-78.5 26.5t-70 43.5t-35.5 75.5q-6 55 37 101.5t134 46.5q32 0 60 -7.5t40 -14.5l12 -7l-23 -63q-32 25 -89 25q-47 0 -74 -21t-23 -57q3 -26 33 -44t70 -31t79.5 -29t67 -50
t27.5 -84q0 -62 -45 -103.5t-133 -41.5q-85 0 -134 41t-51 101zM363 731l-142 -141l-148 141l46 39l101 -97l96 97z" />
    <glyph glyph-name="Tcommaaccent" unicode="&#x162;" horiz-adv-x="431" 
d="M251 0h-72v632h-162v68h402v-68h-168v-632zM192 -194l-49 28q21 12 37.5 25t22.5 21l6 7l-11 3q-22 13 -22 40q1 16 13 26.5t29 9.5q16 -1 27.5 -15t11.5 -29q0 -60 -65 -116z" />
    <glyph glyph-name="tcommaaccent" unicode="&#x163;" horiz-adv-x="254" 
d="M202 43l-21 -56q-64 12 -92 48t-28 97v568h73v-199h112l-24 -68h-88v-301q0 -71 68 -89zM95 -194l-49 28q21 12 37.5 25t22.5 21l6 7l-11 3q-22 13 -22 40q1 16 13 26.5t29 9.5q16 -1 27.5 -15t11.5 -29q0 -60 -65 -116z" />
    <glyph glyph-name="Tcaron" unicode="&#x164;" horiz-adv-x="431" 
d="M251 0h-72v632h-162v68h402v-68h-168v-632zM361 875l-142 -141l-148 141l46 39l101 -97l96 97z" />
    <glyph glyph-name="tcaron" unicode="&#x165;" horiz-adv-x="254" 
d="M202 43l-21 -56q-64 12 -92 48t-28 97v568h73v-199h112l-24 -68h-88v-301q0 -71 68 -89zM284 875l-142 -141l-148 141l46 39l101 -97l96 97z" />
    <glyph glyph-name="Tbar" unicode="&#x166;" horiz-adv-x="431" 
d="M251 0h-72v632h-162v68h402v-68h-168v-632zM324 730h-217v68h217v-68z" />
    <glyph glyph-name="tbar" unicode="&#x167;" horiz-adv-x="302" 
d="M236 43l-21 -56q-64 12 -92 48t-28 97v156h-70v70h70v342h73v-199h112l-24 -68h-88v-75h91v-70h-91v-156q0 -71 68 -89z" />
    <glyph glyph-name="Utilde" unicode="&#x168;" horiz-adv-x="575" 
d="M426 194v507h72v-515q0 -53 -18.5 -92t-50 -60t-66.5 -31t-75 -10t-75.5 10t-67 31t-50 60t-18.5 92v515h72v-507q0 -62 37.5 -98t100.5 -36q64 0 101.5 36t37.5 98zM432 829l30 -47q-34 -40 -68 -49t-62.5 3t-56.5 25t-60.5 9.5t-62.5 -35.5l-29 47q35 39 70 48.5t64 -2
t57.5 -24t59 -9.5t58.5 34z" />
    <glyph glyph-name="utilde" unicode="&#x169;" horiz-adv-x="496" 
d="M432 0h-69v37q-43 -48 -116 -48q-188 0 -188 183v329h72v-329q0 -115 116 -115q113 0 113 116v328h72v-501zM387 632l30 -47q-34 -40 -68 -49t-62.5 3t-56.5 25t-60.5 9.5t-62.5 -35.5l-29 47q35 39 70 48.5t64 -2t57.5 -24t59 -9.5t58.5 34z" />
    <glyph glyph-name="Umacron" unicode="&#x16a;" horiz-adv-x="575" 
d="M426 194v507h72v-515q0 -53 -18.5 -92t-50 -60t-66.5 -31t-75 -10t-75.5 10t-67 31t-50 60t-18.5 92v515h72v-507q0 -62 37.5 -98t100.5 -36q64 0 101.5 36t37.5 98zM394 730h-217v68h217v-68z" />
    <glyph glyph-name="umacron" unicode="&#x16b;" horiz-adv-x="496" 
d="M432 0h-69v37q-43 -48 -116 -48q-188 0 -188 183v329h72v-329q0 -115 116 -115q113 0 113 116v328h72v-501zM349 538h-217v68h217v-68z" />
    <glyph glyph-name="Ubreve" unicode="&#x16c;" horiz-adv-x="575" 
d="M426 194v507h72v-515q0 -53 -18.5 -92t-50 -60t-66.5 -31t-75 -10t-75.5 10t-67 31t-50 60t-18.5 92v515h72v-507q0 -62 37.5 -98t100.5 -36q64 0 101.5 36t37.5 98zM400 842v-5q0 -47 -33 -80t-80 -33t-80 33t-33 80v5h56v-5q0 -25 16.5 -41.5t40.5 -16.5t40.5 16.5
t16.5 41.5v5h56z" />
    <glyph glyph-name="ubreve" unicode="&#x16d;" horiz-adv-x="496" 
d="M364 653v-5q0 -46 -33 -79.5t-80 -33.5t-80 33.5t-33 79.5v5h56v-5q0 -25 16.5 -41.5t40.5 -16.5t40.5 16.5t16.5 41.5v5h56zM432 0h-69v37q-43 -48 -116 -48q-188 0 -188 183v329h72v-329q0 -115 116 -115q113 0 113 116v328h72v-501z" />
    <glyph glyph-name="Uring" unicode="&#x16e;" horiz-adv-x="575" 
d="M426 194v507h72v-515q0 -53 -18.5 -92t-50 -60t-66.5 -31t-75 -10t-75.5 10t-67 31t-50 60t-18.5 92v515h72v-507q0 -62 37.5 -98t100.5 -36q64 0 101.5 36t37.5 98zM287 713q24 0 40 16.5t16 40.5t-16 40t-40 16t-40.5 -16t-16.5 -40t16.5 -40.5t40.5 -16.5zM287 659
q-46 0 -78.5 32.5t-32.5 78.5t32.5 78.5t78.5 32.5t78.5 -32.5t32.5 -78.5t-32.5 -78.5t-78.5 -32.5z" />
    <glyph glyph-name="uring" unicode="&#x16f;" horiz-adv-x="496" 
d="M432 0h-69v37q-43 -48 -116 -48q-188 0 -188 183v329h72v-329q0 -115 116 -115q113 0 113 116v328h72v-501zM251 531q24 0 40 16.5t16 40.5t-16 40t-40 16t-40.5 -16t-16.5 -40t16.5 -40.5t40.5 -16.5zM251 477q-46 0 -78.5 32.5t-32.5 78.5t32.5 78.5t78.5 32.5
t78.5 -32.5t32.5 -78.5t-32.5 -78.5t-78.5 -32.5z" />
    <glyph glyph-name="Uhungarumlaut" unicode="&#x170;" horiz-adv-x="575" 
d="M426 194v507h72v-515q0 -53 -18.5 -92t-50 -60t-66.5 -31t-75 -10t-75.5 10t-67 31t-50 60t-18.5 92v515h72v-507q0 -62 37.5 -98t100.5 -36q64 0 101.5 36t37.5 98zM370 732h-53l49 115q8 17 23 23t29 1q17 -7 21.5 -24t-6.5 -32zM249 732h-53l49 115q8 17 23 23t29 1
q17 -7 21.5 -24t-6.5 -32z" />
    <glyph glyph-name="uhungarumlaut" unicode="&#x171;" horiz-adv-x="496" 
d="M432 0h-69v37q-43 -48 -116 -48q-188 0 -188 183v329h72v-329q0 -115 116 -115q113 0 113 116v328h72v-501zM321 543h-53l49 115q8 17 23 23t29 1q17 -7 21.5 -24t-6.5 -32zM201 543h-53l49 115q8 17 23 23t29 1q17 -7 21.5 -24t-6.5 -32z" />
    <glyph glyph-name="Uogonek" unicode="&#x172;" horiz-adv-x="575" 
d="M326 -121l41 -42q-32 -50 -101 -50q-30 0 -60.5 19.5t-29.5 66.5q0 63 86 121q-79 6 -132 52t-53 140v515h72v-507q0 -62 37.5 -98t100.5 -36q64 0 101.5 36t37.5 98v507h72v-515q0 -89 -49 -135.5t-123 -54.5q-93 -77 -94 -117q-1 -18 9.5 -28.5t27.5 -10.5q35 0 57 39z
" />
    <glyph glyph-name="uogonek" unicode="&#x173;" horiz-adv-x="496" 
d="M425 -121l41 -42q-32 -50 -101 -50q-30 0 -60.5 19.5t-29.5 66.5q0 66 95 127h-7v37q-43 -48 -116 -48q-188 0 -188 183v329h72v-329q0 -115 116 -115q113 0 113 116v328h72v-501h-1q-99 -82 -100 -121q-1 -18 9.5 -28.5t27.5 -10.5q35 0 57 39z" />
    <glyph glyph-name="Ydieresis" unicode="&#x178;" horiz-adv-x="565" 
d="M370 -11l-20 51q29 9 47 33.5t18 82.5v116q-49 -42 -142 -42q-105 0 -167 54.5t-62 156.5v259h73v-263q0 -67 42 -101.5t114 -34.5q55 0 93.5 21.5t48.5 60.5v317h73v-544q0 -152 -118 -167zM228 767q0 -15 -11 -25.5t-26 -10.5t-25.5 10.5t-10.5 25.5t10.5 26t25.5 11
t26 -11t11 -26zM340 731q-15 0 -25.5 10.5t-10.5 26.5q0 15 10.5 25.5t25.5 10.5t26 -10.5t11 -25.5q0 -16 -11 -26.5t-26 -10.5z" />
    <glyph glyph-name="Zacute" unicode="&#x179;" horiz-adv-x="567" 
d="M525 0h-487v65l390 566h-377v69h468v-68l-390 -565h396v-67zM264 785h-53l49 115q8 17 23 23t29 1q17 -7 21.5 -24t-6.5 -32z" />
    <glyph glyph-name="zacute" unicode="&#x17a;" horiz-adv-x="436" 
d="M403 0h-367v66l255 368h-246v67h340v-65l-257 -369h275v-67zM235 538h-53l49 115q8 17 23 23t29 1q17 -7 21.5 -24t-6.5 -32z" />
    <glyph glyph-name="Zdotaccent" unicode="&#x17b;" horiz-adv-x="567" 
d="M525 0h-487v65l390 566h-377v69h468v-68l-390 -565h396v-67zM295 726q-17 0 -29.5 13t-12.5 29t12.5 28t29.5 12t28.5 -12t11.5 -28q0 -17 -12 -29.5t-28 -12.5z" />
    <glyph glyph-name="zdotaccent" unicode="&#x17c;" horiz-adv-x="436" 
d="M403 0h-367v66l255 368h-246v67h340v-65l-257 -369h275v-67zM219 535q-17 0 -29.5 12.5t-12.5 29.5q0 16 12.5 28t29.5 12t28.5 -11.5t11.5 -28.5t-12 -29.5t-28 -12.5z" />
    <glyph glyph-name="Zcaron" unicode="&#x17d;" horiz-adv-x="567" 
d="M525 0h-487v65l390 566h-377v69h468v-68l-390 -565h396v-67zM451 924l-142 -141l-148 141l46 39l101 -97l96 97z" />
    <glyph glyph-name="zcaron" unicode="&#x17e;" horiz-adv-x="436" 
d="M403 0h-367v66l255 368h-246v67h340v-65l-257 -369h275v-67zM390 731l-142 -141l-148 141l46 39l101 -97l96 97z" />
    <glyph glyph-name="florin" unicode="&#x192;" horiz-adv-x="245" 
 />
    <glyph glyph-name="Scommaaccent" unicode="&#x218;" horiz-adv-x="547" 
d="M42 178l75 5q5 -50 48.5 -87t111.5 -37q71 0 116.5 32.5t45.5 94.5q0 46 -28 78.5t-70 49.5t-91.5 37t-91.5 39t-70 57t-28 91q0 70 58 121t167 51q83 0 146 -30q0 -2 -22 -68q-62 27 -122 27q-71 0 -111.5 -28.5t-39.5 -77.5q1 -30 22 -52.5t55 -37.5t74.5 -29.5
t80.5 -32.5t73.5 -41t54.5 -60.5t21 -86.5q0 -92 -58.5 -148t-180.5 -56q-109 0 -171.5 57.5t-64.5 131.5zM255 -194l-49 28q21 12 37.5 25t22.5 21l6 7l-11 3q-22 13 -22 40q1 16 13 26.5t29 9.5q16 -1 27.5 -15t11.5 -29q0 -60 -65 -116z" />
    <glyph glyph-name="scommaaccent" unicode="&#x219;" horiz-adv-x="424" 
d="M36 127l70 3q4 -37 37 -57.5t78 -20.5q41 0 72.5 19.5t31.5 58.5q0 34 -27 55.5t-66 34t-78.5 26.5t-70 43.5t-35.5 75.5q-6 55 37 101.5t134 46.5q32 0 60 -7.5t40 -14.5l12 -7l-23 -63q-32 25 -89 25q-47 0 -74 -21t-23 -57q3 -26 33 -44t70 -31t79.5 -29t67 -50
t27.5 -84q0 -62 -45 -103.5t-133 -41.5q-85 0 -134 41t-51 101zM191 -195l-49 28q21 12 37.5 25t22.5 20l6 8l-11 3q-22 13 -22 40q1 16 13 26.5t29 9.5q16 -1 27.5 -15t11.5 -29q0 -60 -65 -116z" />
    <glyph glyph-name="circumflex" unicode="&#x2c6;" horiz-adv-x="510" 
d="M400 629l-47 -39l-96 98l-101 -98l-46 39l148 141z" />
    <glyph glyph-name="caron" unicode="&#x2c7;" horiz-adv-x="510" 
d="M399 731l-142 -141l-148 141l46 39l101 -97l96 97z" />
    <glyph glyph-name="breve" unicode="&#x2d8;" horiz-adv-x="510" 
d="M368 700v-5q0 -47 -33 -80t-80 -33t-80 33t-33 80v5h56v-5q0 -25 16.5 -41.5t40.5 -16.5t40.5 16.5t16.5 41.5v5h56z" />
    <glyph glyph-name="dotaccent" unicode="&#x2d9;" horiz-adv-x="510" 
d="M256 643q-16 0 -29 12.5t-13 29.5q0 16 12.5 28t29.5 12q16 0 28 -11.5t12 -28.5t-12 -29.5t-28 -12.5z" />
    <glyph glyph-name="ring" unicode="&#x2da;" horiz-adv-x="510" 
d="M255 605q24 0 40 16.5t16 40.5t-16 40t-40 16t-40.5 -16t-16.5 -40t16.5 -40.5t40.5 -16.5zM255 551q-46 0 -78.5 32.5t-32.5 78.5t32.5 78.5t78.5 32.5t78.5 -32.5t32.5 -78.5t-32.5 -78.5t-78.5 -32.5z" />
    <glyph glyph-name="ogonek" unicode="&#x2db;" horiz-adv-x="511" 
d="M310 -118l41 -42q-32 -50 -101 -50q-30 0 -60.5 19.5t-29.5 66.5q0 66 95 127h61q-99 -82 -100 -121q-1 -18 9.5 -28.5t27.5 -10.5q35 0 57 39z" />
    <glyph glyph-name="tilde" unicode="&#x2dc;" horiz-adv-x="510" 
d="M395 697l30 -47q-34 -40 -68 -49t-62.5 3t-56.5 25t-60.5 9.5t-62.5 -35.5l-29 47q35 39 70 48.5t64 -2t57.5 -24t59 -9.5t58.5 34z" />
    <glyph glyph-name="hungarumlaut" unicode="&#x2dd;" horiz-adv-x="510" 
d="M311 569h-53l49 115q8 17 23 23t29 1q17 -7 21.5 -24t-6.5 -32zM190 568h-53l49 115q8 17 23 23t29 1q17 -7 21.5 -24t-6.5 -32z" />
    <glyph glyph-name="dieresistonos" unicode="&#x385;" horiz-adv-x="510" 
d="M177 664q-13 0 -23 10t-10 23t10 23t23 10t23 -10t10 -23t-10 -23t-23 -10zM333 664q-13 0 -23 10t-10 23t10 23t23 10t23 -10t10 -23t-10 -23t-23 -10zM280 731h-53l49 115q8 17 23 23t29 1q17 -7 21.5 -24t-6.5 -32z" />
    <glyph glyph-name="Alphatonos" unicode="&#x386;" horiz-adv-x="555" 
d="M545 0h-81l-69 226h-208l-66 -226h-78l206 700h83zM377 300l-87 284l-84 -284h171zM96 568h-53l49 115q8 17 23 23t29 1q17 -7 21.5 -24t-6.5 -32z" />
    <glyph glyph-name="Epsilontonos" unicode="&#x388;" horiz-adv-x="561" 
d="M66 568h-53l49 115q8 17 23 23t29 1q17 -7 21.5 -24t-6.5 -32zM512 0h-332v700h334v-69h-262v-218h175l-23 -70h-152v-278h260v-65z" />
    <glyph glyph-name="Etatonos" unicode="&#x389;" horiz-adv-x="693" 
d="M66 568h-53l49 115q8 17 23 23t29 1q17 -7 21.5 -24t-6.5 -32zM612 0h-72v343h-286v-343h-72v700h72v-287h286v287h72v-700z" />
    <glyph glyph-name="Iotatonos" unicode="&#x38a;" horiz-adv-x="386" 
d="M305 0h-72v632l-66 2v66h138v-700zM64 568h-53l49 115q8 17 23 23t29 1q17 -7 21.5 -24t-6.5 -32z" />
    <glyph glyph-name="Omicrontonos" unicode="&#x38c;" horiz-adv-x="617" 
d="M553 506v-321q0 -101 -61.5 -148.5t-147.5 -47.5t-148.5 47.5t-62.5 148.5v322q0 103 56.5 156t155.5 53t153.5 -56t54.5 -154zM481 193v309q0 69 -35.5 105t-102.5 36q-138 0 -138 -141v-311q0 -64 38 -97.5t100 -33.5t100 33.5t38 99.5zM69 568h-53l49 115q8 17 23 23
t29 1q17 -7 21.5 -24t-6.5 -32z" />
    <glyph glyph-name="Upsilontonos" unicode="&#x38e;" horiz-adv-x="688" 
d="M61 568h-53l49 115q8 17 23 23t29 1q17 -7 21.5 -24t-6.5 -32zM493 -11l-20 51q29 9 47 33.5t18 82.5v116q-50 -42 -142 -42q-105 0 -167 54.5t-62 156.5v259h73v-263q0 -67 42 -101.5t114 -34.5q55 0 93.5 21.5t48.5 60.5v317h73v-544q0 -152 -118 -167z" />
    <glyph glyph-name="Omegatonos" unicode="&#x38f;" horiz-adv-x="685" 
d="M627 0h-228v66q2 0 18.5 2.5t21.5 4t20.5 5t22 7.5t18.5 11t17.5 16t12.5 21t9.5 28t2.5 35v304q0 64 -33 100t-88 36h-101q-57 0 -89.5 -34.5t-32.5 -101.5v-304q0 -19 2.5 -35t9.5 -28t12.5 -21t17.5 -16t18.5 -11t22 -7.5t20.5 -5t21.5 -4t18.5 -2.5v-66h-228l17 66
h51q-55 40 -55 130v307q0 92 47 148t141 56h112q94 0 141 -56t47 -148v-307q0 -52 -15.5 -80.5t-42.5 -49.5h54zM72 568h-53l49 115q8 17 23 23t29 1q17 -7 21.5 -24t-6.5 -32z" />
    <glyph glyph-name="iotadieresistonos" unicode="&#x390;" 
d="M136 0h-72v501h72v-501zM125 577h-52l49 115q8 17 23 23t29 1q17 -6 21.5 -23t-7.5 -32zM188 541q-15 0 -25.5 11t-10.5 26t10.5 25.5t25.5 10.5q16 0 26.5 -10.5t10.5 -25.5t-10.5 -26t-26.5 -11zM13 541q-15 0 -25.5 11t-10.5 26t10.5 25.5t25.5 10.5t26 -10.5
t11 -25.5t-11 -26t-26 -11z" />
    <glyph glyph-name="Alpha" unicode="&#x391;" horiz-adv-x="525" 
d="M515 0h-81l-69 226h-208l-66 -226h-78l206 700h83zM347 300l-87 284l-84 -284h171z" />
    <glyph glyph-name="Beta" unicode="&#x392;" horiz-adv-x="561" 
d="M308 0h-227v700h216q82 0 131.5 -43t49.5 -129q0 -92 -66 -137q-1 -1 -1 -2v-1q44 -20 73.5 -64.5t29.5 -115.5q0 -30 -6 -58t-20.5 -56t-37 -48.5t-59.5 -33t-83 -12.5zM153 413h129q117 0 117 110q0 107 -119 107h-127v-217zM153 67h139q67 0 104.5 31t37.5 113
q0 66 -37.5 99t-90.5 33h-153v-276z" />
    <glyph glyph-name="Gamma" unicode="&#x393;" horiz-adv-x="426" 
d="M153 0h-72v700h334v-70h-262v-630z" />
    <glyph glyph-name="uni0394" unicode="&#x394;" horiz-adv-x="527" 
d="M517 0h-505l214 700h70zM419 65l-157 509l-154 -509h311z" />
    <glyph glyph-name="Epsilon" unicode="&#x395;" horiz-adv-x="462" 
d="M413 0h-332v700h334v-69h-262v-218h175l-23 -70h-152v-278h260v-65z" />
    <glyph glyph-name="Zeta" unicode="&#x396;" horiz-adv-x="567" 
d="M525 0h-487v65l390 566h-377v69h468v-68l-390 -565h396v-67z" />
    <glyph glyph-name="Eta" unicode="&#x397;" horiz-adv-x="592" 
d="M511 0h-72v343h-286v-343h-72v700h72v-287h286v287h72v-700z" />
    <glyph glyph-name="Theta" unicode="&#x398;" horiz-adv-x="548" 
d="M484 506v-321q0 -101 -61.5 -148.5t-147.5 -47.5t-148.5 47.5t-62.5 148.5v322q0 103 56.5 156t155.5 53t153.5 -56t54.5 -154zM412 374v128q0 69 -35.5 105t-102.5 36q-138 0 -138 -141v-128h276zM412 193v110h-276v-112q0 -64 38 -97.5t100 -33.5t100 33.5t38 99.5z
" />
    <glyph glyph-name="Iota" unicode="&#x399;" horiz-adv-x="254" 
d="M173 0h-72v632l-66 2v66h138v-700z" />
    <glyph glyph-name="Kappa" unicode="&#x39a;" horiz-adv-x="497" 
d="M494 0h-88l-215 325l-35 -56v-269h-75v701h75v-306l205 306h85l-210 -310z" />
    <glyph glyph-name="Lambda" unicode="&#x39b;" horiz-adv-x="525" 
d="M516 0h-80l-175 565l-172 -565h-78l216 700h68z" />
    <glyph glyph-name="Mu" unicode="&#x39c;" horiz-adv-x="698" 
d="M617 0h-72v485l-163 -485h-68l-161 485v-485h-72v700h72l195 -569l197 569h72v-700z" />
    <glyph glyph-name="Nu" unicode="&#x39d;" horiz-adv-x="654" 
d="M573 0h-73l-347 560v-560h-72v700h72l347 -559v559h73v-700z" />
    <glyph glyph-name="Xi" unicode="&#x39e;" horiz-adv-x="587" 
d="M430 343h-264v70h264v-70zM488 631h-298q-77 0 -98 -62l-53 26q16 56 51 81t94 25h325zM403 0h-325l24 67h289q77 0 99 65l58 -26q-16 -56 -51 -81t-94 -25z" />
    <glyph glyph-name="Omicron" unicode="&#x39f;" horiz-adv-x="548" 
d="M484 506v-321q0 -101 -61.5 -148.5t-147.5 -47.5t-148.5 47.5t-62.5 148.5v322q0 103 56.5 156t155.5 53t153.5 -56t54.5 -154zM412 193v309q0 69 -35.5 105t-102.5 36q-138 0 -138 -141v-311q0 -64 38 -97.5t100 -33.5t100 33.5t38 99.5z" />
    <glyph glyph-name="Pi" unicode="&#x3a0;" horiz-adv-x="592" 
d="M511 0h-72v628h-286v-628h-72v700h430v-700z" />
    <glyph glyph-name="Rho" unicode="&#x3a1;" horiz-adv-x="550" 
d="M153 300h167q36 0 61 14t36.5 30t18 46t7 45t0.5 43q0 152 -127 152h-163v-330zM153 0h-72v700h241q98 0 145.5 -61t47.5 -160q0 -35 -2 -60.5t-12.5 -64t-28.5 -63t-55 -43t-88 -18.5h-176v-230z" />
    <glyph glyph-name="Sigma" unicode="&#x3a3;" horiz-adv-x="514" 
d="M341 0h-323l226 384l-210 318h428l-23 -71h-273l164 -244l-191 -321h190q77 0 99 66l58 -26q-16 -56 -51 -81t-94 -25z" />
    <glyph glyph-name="Tau" unicode="&#x3a4;" horiz-adv-x="431" 
d="M251 0h-72v632h-162v68h402v-68h-168v-632z" />
    <glyph glyph-name="Upsilon" unicode="&#x3a5;" horiz-adv-x="565" 
d="M370 -11l-20 51q29 9 47 33.5t18 82.5v116q-49 -42 -142 -42q-105 0 -167 54.5t-62 156.5v259h73v-263q0 -67 42 -101.5t114 -34.5q55 0 93.5 21.5t48.5 60.5v317h73v-544q0 -152 -118 -167z" />
    <glyph glyph-name="Phi" unicode="&#x3a6;" horiz-adv-x="658" 
d="M364 -35l-74 13v48h-36q-188 0 -188 199v292q0 152 116 189l38 -57q-40 -11 -61 -41.5t-21 -90.5v-291q0 -139 116 -139h36v518q3 50 35.5 78t80.5 28q87 0 137 -54.5t50 -145.5v-286q0 -199 -188 -199h-41v-61zM520 226v275q0 70 -30 105t-72 35q-54 0 -54 -60v-494h41
q115 0 115 139z" />
    <glyph glyph-name="Chi" unicode="&#x3a7;" horiz-adv-x="564" 
d="M546 0h-91l-174 279l-174 -279h-89l220 351l-203 349h83l164 -275l164 275h84l-204 -346z" />
    <glyph glyph-name="Psi" unicode="&#x3a8;" horiz-adv-x="622" 
d="M347 0h-73l-1 212h-36q-95 0 -141.5 51.5t-46.5 142.5v294h72v-291q0 -133 116 -133h36v424h74v-424h41q116 0 116 134v154q0 40 -7.5 65.5t-13.5 31.5t-25 24l62 24q27 -17 40 -46.5t14.5 -50.5t1.5 -63v-143q0 -91 -46.5 -142.5t-141.5 -51.5h-41v-212z" />
    <glyph glyph-name="uni03A9" unicode="&#x3a9;" horiz-adv-x="639" 
d="M576 0h-228v66q2 0 18.5 2.5t21.5 4t20.5 5t22 7.5t18.5 11t17.5 16t12.5 21t9.5 28t2.5 35v304q0 64 -33 100t-88 36h-101q-57 0 -89.5 -34.5t-32.5 -101.5v-304q0 -19 2.5 -35t9.5 -28t12.5 -21t17.5 -16t18.5 -11t22 -7.5t20.5 -5t21.5 -4t18.5 -2.5v-66h-228l17 66
h51q-55 40 -55 130v307q0 92 47 148t141 56h112q94 0 141 -56t47 -148v-307q0 -52 -15.5 -80.5t-42.5 -49.5h54z" />
    <glyph glyph-name="Iotadieresis" unicode="&#x3aa;" horiz-adv-x="254" 
d="M99 767q0 -15 -11 -25.5t-26 -10.5t-25.5 10.5t-10.5 25.5t10.5 26t25.5 11t26 -11t11 -26zM211 731q-15 0 -25.5 10.5t-10.5 26.5q0 15 10.5 25.5t25.5 10.5t26 -10.5t11 -25.5q0 -16 -11 -26.5t-26 -10.5zM173 0h-72v632l-66 2v66h138v-700z" />
    <glyph glyph-name="Upsilondieresis.alt" unicode="&#x3ab;" horiz-adv-x="474" 
d="M193 765q0 -15 -11 -25.5t-26 -10.5t-25.5 10.5t-10.5 25.5t10.5 26t25.5 11t26 -11t11 -26zM305 729q-15 0 -25.5 10.5t-10.5 26.5q0 15 10.5 25.5t25.5 10.5t26 -10.5t11 -25.5q0 -16 -11 -26.5t-26 -10.5zM273 0h-72v332l-200 368h79l156 -286l158 286h79l-200 -366
v-334z" />
    <glyph glyph-name="alphatonos" unicode="&#x3ac;" horiz-adv-x="480" 
d="M445 35l-52 -34q-4 0 -15.5 2.5t-16.5 1.5q-48 -8 -85 -11t-82 2.5t-74 22.5t-49.5 55t-20.5 95v185q0 69 31.5 107.5t79.5 43.5t95 -4t89 -28l16 36l61 -23q-7 -65 -7 -97v-312q6 -28 30 -42zM342 71v335q-221 89 -221 -55v-174q0 -79 52.5 -103.5t168.5 -2.5zM262 538
h-53l49 115q8 17 23 23t29 1q17 -7 21.5 -24t-6.5 -32z" />
    <glyph glyph-name="epsilontonos" unicode="&#x3ad;" horiz-adv-x="403" 
d="M240 538h-53l49 115q8 17 23 23t29 1q17 -7 21.5 -24t-6.5 -32zM364 90l21 -67q-78 -34 -170 -34q-77 0 -123 41t-51 102q-8 110 71 146q-23 13 -40 49.5t-11 76.5q8 52 52 80t97 27t105 -15l1 -65q-28 9 -57.5 12.5t-58.5 1t-48 -19.5t-19 -46q-1 -31 21.5 -54.5
t60.5 -23.5h99l-23 -70h-83q-46 0 -71 -21.5t-25 -58.5q0 -44 29 -68t85 -24q34 0 68.5 8t51.5 15z" />
    <glyph glyph-name="etatonos" unicode="&#x3ae;" horiz-adv-x="492" 
d="M288 538h-53l49 115q8 17 23 23t29 1q17 -7 21.5 -24t-6.5 -32zM433 -210l-71 24v529q0 57 -39.5 82t-90.5 19t-96 -31v-413h-72v501h69v-25q37 28 102.5 32.5t112.5 -17.5q85 -39 85 -145v-556z" />
    <glyph glyph-name="iotatonos" unicode="&#x3af;" 
d="M131 538h-53l49 115q8 17 23 23t29 1q17 -7 21.5 -24t-6.5 -32zM136 0h-72v501h72v-501z" />
    <glyph glyph-name="upsilondieresistonos" unicode="&#x3b0;" horiz-adv-x="496" 
d="M158 541q-15 0 -25.5 11t-10.5 26t10.5 25.5t25.5 10.5t25.5 -10.5t10.5 -25.5t-10.5 -26t-25.5 -11zM333 541q-15 0 -26 11t-11 26t11 25.5t26 10.5t26 -10.5t11 -25.5t-11 -26t-26 -11zM270 577h-53l50 115q7 17 22.5 23t28.5 1q17 -6 21.5 -23t-6.5 -32zM366 184v317
h72v-329q0 -182 -192 -182q-188 0 -188 182v329h72v-318q0 -66 29 -95.5t87 -29.5q61 0 90.5 30t29.5 96z" />
    <glyph glyph-name="alpha" unicode="&#x3b1;" horiz-adv-x="480" 
d="M445 35l-52 -34q-4 0 -15.5 2.5t-16.5 1.5q-48 -8 -85 -11t-82 2.5t-74 22.5t-49.5 55t-20.5 95v185q0 69 31.5 107.5t79.5 43.5t95 -4t89 -28l16 36l61 -23q-7 -65 -7 -97v-312q6 -28 30 -42zM342 71v335q-221 89 -221 -55v-174q0 -79 52.5 -103.5t168.5 -2.5z" />
    <glyph glyph-name="beta" unicode="&#x3b2;" horiz-adv-x="483" 
d="M136 -161h-72v698q0 76 37 120t108 44q44 0 77 -23.5t46.5 -56t8 -69t-31.5 -61.5q54 -12 89.5 -53.5t35.5 -107.5v-184q0 -196 -298 -158v-149zM363 159v159q0 48 -23.5 76t-59 33t-73 -2t-71.5 -23v-344q62 -8 112.5 -8.5t82.5 26.5t32 83zM136 536v-66q44 22 93 37
q31 9 38.5 39.5t-10 57t-49.5 26.5q-72 0 -72 -94z" />
    <glyph glyph-name="gamma" unicode="&#x3b3;" horiz-adv-x="484" 
d="M266 -168l-55 -30q-23 21 -28.5 56.5t7.5 71.5l23 73q-2 1 -10 7.5t-10 8t-9 7.5t-9.5 10t-8.5 11.5t-9.5 14.5t-9 17.5t-10 22.5t-9.5 27l-108 372h75l91 -323q7 -28 12.5 -43.5t15 -32t22.5 -24.5l95 314q16 53 40.5 82t70.5 40l47 -42q-2 -1 -11.5 -4.5t-12.5 -5
t-11.5 -6t-12.5 -9t-11 -12t-12 -16.5t-11 -22.5t-11 -29.5l-123 -411q-19 -55 -19.5 -82t12.5 -42z" />
    <glyph glyph-name="delta" unicode="&#x3b4;" horiz-adv-x="466" 
d="M421 288v-104q0 -194 -185 -194q-95 0 -141.5 51.5t-46.5 142.5v126q0 78 32.5 126.5t89.5 62.5q-26 25 -34 60.5t1.5 67.5t42.5 55t83 23h48l-21 -70h-36q-23 0 -37 -18t-6.5 -45t38.5 -48q46 -31 68.5 -48.5t51 -47.5t40.5 -63.5t12 -76.5zM349 175v112q0 22 -7.5 47
t-34.5 58t-71 55q-116 -10 -116 -144v-128q0 -58 32.5 -88t83.5 -30t82 28t31 90z" />
    <glyph glyph-name="epsilon" unicode="&#x3b5;" horiz-adv-x="403" 
d="M364 90l21 -67q-78 -34 -170 -34q-77 0 -123 41t-51 102q-8 110 71 146q-23 13 -40 49.5t-11 76.5q8 52 52 80t97 27t105 -15l1 -65q-28 9 -57.5 12.5t-58.5 1t-48 -19.5t-19 -46q-1 -31 21.5 -54.5t60.5 -23.5h99l-23 -70h-83q-46 0 -71 -21.5t-25 -58.5q0 -44 29 -68
t85 -24q34 0 68.5 8t51.5 15z" />
    <glyph glyph-name="zeta" unicode="&#x3b6;" horiz-adv-x="392" 
d="M361 -183l-72 -26v215q-104 -21 -172.5 18t-81.5 114q-7 44 2.5 99t30.5 99q71 147 224 298h-192v66h272l25 -64q-58 -46 -124.5 -123t-114.5 -164q-26 -46 -40 -92.5t-9.5 -90.5t31.5 -69q60 -53 221 -11v-269z" />
    <glyph glyph-name="eta" unicode="&#x3b7;" horiz-adv-x="492" 
d="M433 -210l-71 24v529q0 57 -39.5 82t-90.5 19t-96 -31v-413h-72v501h69v-25q37 28 102.5 32.5t112.5 -17.5q85 -39 85 -145v-556z" />
    <glyph glyph-name="theta" unicode="&#x3b8;" horiz-adv-x="484" 
d="M428 505v-314q0 -89 -49.5 -143t-140.5 -54q-92 1 -141 54.5t-49 142.5v150q2 64 53 97q-36 70 -34 130.5t48 101t121 40.5q95 -2 143.5 -56t48.5 -149zM356 188v248q-77 3 -156.5 -28t-79.5 -76v-147q0 -45 24.5 -76t59 -38t69 0.5t59 39t24.5 77.5zM166 470
q92 42 190 36q0 71 -33.5 103t-84.5 32q-73 0 -91.5 -54.5t19.5 -116.5z" />
    <glyph glyph-name="iota" unicode="&#x3b9;" 
d="M136 0h-72v501h72v-501z" />
    <glyph glyph-name="kappa" unicode="&#x3ba;" horiz-adv-x="457" 
d="M442 62l-8 -63q-35 0 -65 18.5t-45.5 36.5t-43.5 56l-97 133l-47 -46v-197h-72v512l72 -13v-207l192 209h93l-187 -204l119 -167q49 -66 89 -68z" />
    <glyph glyph-name="lambda" unicode="&#x3bb;" horiz-adv-x="485" 
d="M490 28l-46 -41q-46 11 -71 40.5t-41 81.5l-94 313q-19 -11 -29.5 -34t-21.5 -65l-91 -323h-75l108 372q5 15 9.5 27t10 22.5t9 17.5t9.5 14.5t8.5 11.5t9.5 10t9 7.5t10 8t10 7.5l-23 71q-13 38 -33.5 55.5t-55.5 19.5l9 56q61 1 94 -23.5t53 -83.5l139 -459
q5 -16 11 -29.5t10.5 -22.5t12.5 -17t11 -12t12.5 -9t11.5 -6t12.5 -5.5t11.5 -4.5z" />
    <glyph glyph-name="uni03BC" unicode="&#x3bc;" horiz-adv-x="509" 
d="M471 27l-49 -33q-19 0 -35 26q-36 -38 -124 -31q-25 3 -48.5 9.5t-36 11.5t-26.5 12t-15 8v-240l-73 9v702h73v-394q6 -6 21.5 -16t48.5 -22t64 -13q42 -2 71 21t29 89v332l73 12v-441q3 -28 27 -42z" />
    <glyph glyph-name="nu" unicode="&#x3bd;" horiz-adv-x="415" 
d="M250 0h-86l-155 501h77l121 -402l122 402h77z" />
    <glyph glyph-name="xi" unicode="&#x3be;" horiz-adv-x="384" 
d="M352 -192l-71 -26v219q-41 -8 -82 -1.5t-74 22.5t-54 53t-21 89v184q0 69 40 112t91 51q-33 30 -35 77t32 83.5t94 36.5h45l-21 -71h-29q-27 0 -40 -20t-5 -47.5t36 -45.5q21 -13 72 -30l-21 -60q-47 11 -88.5 11.5t-70.5 -27.5t-29 -81v-167q0 -43 20 -68.5t54 -32.5
t73 -3t84 18v-276z" />
    <glyph glyph-name="omicron" unicode="&#x3bf;" horiz-adv-x="465" 
d="M419 316v-132q0 -84 -46 -139t-139 -55t-140.5 55.5t-47.5 138.5v132q0 95 48.5 145.5t139.5 50.5q87 0 136 -52.5t49 -143.5zM347 174v142q0 127 -113 127q-116 0 -116 -127v-142q0 -54 31.5 -85.5t84.5 -31.5t83 31.5t30 85.5z" />
    <glyph glyph-name="pi" unicode="&#x3c0;" horiz-adv-x="509" 
d="M472 37l-38 -46q-3 1 -7 2.5t-15 8t-19.5 15.5t-15.5 26t-7 38l1 356h-235v-437h-72v501h379v-422q5 -28 29 -42z" />
    <glyph glyph-name="rho" unicode="&#x3c1;" horiz-adv-x="478" 
d="M128 -195l-71 -16v526q0 89 49 140.5t138 51.5q96 0 141 -53.5t45 -146.5v-135q0 -88 -47 -135t-138 -47q-79 0 -117 42v-227zM357 173v135q0 132 -114 132t-114 -131v-136q0 -116 116 -116q112 0 112 116z" />
    <glyph glyph-name="sigma1" unicode="&#x3c2;" horiz-adv-x="353" 
d="M322 -149l-55 33q17 20 10.5 54.5t-39.5 55.5q-6 4 -32 20t-33 21t-28.5 20t-29 23t-23.5 23t-22 27t-14.5 28.5t-11.5 34t-3 36.5v140q0 53 41.5 95.5t130.5 42.5q32 0 60 -6.5t40 -13.5l12 -7l-21 -61q-33 24 -90 24q-46 0 -73.5 -24t-27.5 -65v-103q0 -66 30.5 -102.5
t131.5 -99.5q38 -24 55.5 -61.5t13.5 -72.5t-22 -62z" />
    <glyph glyph-name="sigma" unicode="&#x3c3;" horiz-adv-x="491" 
d="M422 310v-135q0 -194 -185 -194q-95 0 -141.5 51.5t-46.5 142.5v179q0 48 18.5 81.5t48.5 48.5t67 21.5t74 -0.5q58 -9 97 -2t75 40l52 -30q-33 -61 -96 -77q37 -31 37 -126zM349 175v130q0 39 -10.5 71t-20 44.5t-12.5 12.5q-52 8 -93 8.5t-66.5 -23.5t-25.5 -75v-168
q0 -62 31 -93t85 -31q112 0 112 124z" />
    <glyph glyph-name="tau" unicode="&#x3c4;" horiz-adv-x="337" 
d="M264 38l-25 -53q-112 31 -112 147v300h-112v68h301v-68h-117v-296q0 -76 65 -98z" />
    <glyph glyph-name="upsilon" unicode="&#x3c5;" horiz-adv-x="496" 
d="M366 184v317h72v-329q0 -182 -192 -182q-188 0 -188 182v329h72v-318q0 -66 29 -95.5t87 -29.5q61 0 90.5 30t29.5 96z" />
    <glyph glyph-name="phi" unicode="&#x3c6;" horiz-adv-x="621" 
d="M346 -216l-73 13l-1 198h-36q-95 0 -141.5 51.5t-46.5 142.5v125q0 152 116 189l39 -56q-83 -22 -83 -133v-117q0 -135 116 -135h36v339q3 50 35.5 78t80.5 28q87 0 137 -54.5t50 -145.5v-118q0 -91 -46.5 -142.5t-141.5 -51.5h-41v-211zM503 196v119q0 66 -31.5 97.5
t-71.5 31.5q-28 0 -41 -17t-13 -39v-326h41q116 0 116 134z" />
    <glyph glyph-name="chi" unicode="&#x3c7;" horiz-adv-x="429" 
d="M479 -162l-35 -50q-82 -1 -132 96l-102 208l-151 -296l-66 27l178 348l-162 330h80l122 -253l130 253h81l-173 -332l123 -254q14 -31 34 -48.5t31.5 -21t36.5 -6.5q3 -1 5 -1z" />
    <glyph glyph-name="psi" unicode="&#x3c8;" horiz-adv-x="637" 
d="M354 -219l-73 13v201h-36q-95 0 -141.5 51.5t-46.5 142.5v311h72v-303q0 -135 116 -135h36v438h73v-438h42q116 0 116 135v164q0 40 -8 66t-14.5 33t-24.5 24l63 22q27 -17 40 -46.5t14.5 -50.5t1.5 -63v-157q0 -91 -46.5 -142.5t-141.5 -51.5h-42v-214z" />
    <glyph glyph-name="omega" unicode="&#x3c9;" horiz-adv-x="628" 
d="M508 183v144q0 96 -75 124l40 49q107 -40 107 -183v-129q0 -200 -161 -200q-70 0 -105 53q-37 -53 -105 -53q-161 0 -161 200v129q0 143 107 183l41 -49q-76 -26 -76 -124v-144q0 -64 24.5 -94t61.5 -30t53 26t18 84v130h73v-130q1 -58 17 -84t55 -26q38 0 62 30.5
t24 93.5z" />
    <glyph glyph-name="iotadieresis" unicode="&#x3ca;" 
d="M136 0h-72v501h72v-501zM61 575q0 -15 -11 -25.5t-26 -10.5t-25.5 10.5t-10.5 25.5t10.5 26t25.5 11t26 -11t11 -26zM173 539q-15 0 -25.5 10.5t-10.5 26.5q0 15 10.5 25.5t25.5 10.5t26 -10.5t11 -25.5q0 -16 -11 -26.5t-26 -10.5z" />
    <glyph glyph-name="upsilondieresis" unicode="&#x3cb;" horiz-adv-x="496" 
d="M212 575q0 -15 -11 -25.5t-26 -10.5t-25.5 10.5t-10.5 25.5t10.5 26t25.5 11t26 -11t11 -26zM324 539q-15 0 -25.5 10.5t-10.5 26.5q0 15 10.5 25.5t25.5 10.5t26 -10.5t11 -25.5q0 -16 -11 -26.5t-26 -10.5zM366 184v317h72v-329q0 -182 -192 -182q-188 0 -188 182v329
h72v-318q0 -66 29 -95.5t87 -29.5q61 0 90.5 30t29.5 96z" />
    <glyph glyph-name="omicrontonos" unicode="&#x3cc;" horiz-adv-x="465" 
d="M260 538h-53l49 115q8 17 23 23t29 1q17 -7 21.5 -24t-6.5 -32zM419 316v-132q0 -84 -46 -139t-139 -55t-140.5 55.5t-47.5 138.5v132q0 95 48.5 145.5t139.5 50.5q87 0 136 -52.5t49 -143.5zM347 174v142q0 127 -113 127q-116 0 -116 -127v-142q0 -54 31.5 -85.5
t84.5 -31.5t83 31.5t30 85.5z" />
    <glyph glyph-name="upsilontonos" unicode="&#x3cd;" horiz-adv-x="496" 
d="M282 538h-53l49 115q8 17 23 23t29 1q17 -7 21.5 -24t-6.5 -32zM366 184v317h72v-329q0 -182 -192 -182q-188 0 -188 182v329h72v-318q0 -66 29 -95.5t87 -29.5q61 0 90.5 30t29.5 96z" />
    <glyph glyph-name="omegatonos" unicode="&#x3ce;" horiz-adv-x="628" 
d="M346 538h-53l49 115q8 17 23 23t29 1q17 -7 21.5 -24t-6.5 -32zM508 183v144q0 96 -75 124l40 49q107 -40 107 -183v-129q0 -200 -161 -200q-70 0 -105 53q-37 -53 -105 -53q-161 0 -161 200v129q0 143 107 183l41 -49q-76 -26 -76 -124v-144q0 -64 24.5 -94t61.5 -30
t53 26t18 84v130h73v-130q1 -58 17 -84t55 -26q38 0 62 30.5t24 93.5z" />
    <glyph glyph-name="quoteleft" unicode="&#x2018;" horiz-adv-x="191" 
d="M95 632l11 -3q22 -13 22 -40q-1 -16 -13 -26.5t-29 -9.5q-16 1 -27.5 15t-11.5 29q0 60 65 116l49 -28q-21 -12 -37.5 -25.5t-22.5 -20.5z" />
    <glyph glyph-name="quoteright" unicode="&#x2019;" horiz-adv-x="194" 
d="M87 549l-49 28q21 12 37.5 25.5t22.5 20.5l6 7l-11 3q-22 13 -22 40q1 16 13 26.5t29 9.5q16 -1 27.5 -15t11.5 -29q0 -60 -65 -116z" />
    <glyph glyph-name="quotesinglbase" unicode="&#x201a;" horiz-adv-x="205" 
d="M78 -84l-49 28q21 12 37.5 25t22.5 21l6 7l-11 3q-22 13 -22 40q1 16 13 26.5t29 9.5q16 -1 27.5 -15t11.5 -29q0 -60 -65 -116z" />
    <glyph glyph-name="quotedblleft" unicode="&#x201c;" horiz-adv-x="307" 
d="M95 636l11 -3q22 -13 22 -40q-1 -16 -13 -26.5t-29 -9.5q-16 1 -27.5 15t-11.5 29q0 60 65 116l49 -28q-21 -12 -37.5 -25.5t-22.5 -20.5zM209 636l11 -3q22 -13 22 -40q-1 -16 -13 -26.5t-29 -9.5q-16 1 -27.5 15t-11.5 29q0 60 65 116l49 -28q-21 -12 -37.5 -25.5
t-22.5 -20.5z" />
    <glyph glyph-name="quotedblright" unicode="&#x201d;" horiz-adv-x="310" 
d="M87 549l-49 28q21 12 37.5 25.5t22.5 20.5l6 7l-11 3q-22 13 -22 40q1 16 13 26.5t29 9.5q16 -1 27.5 -15t11.5 -29q0 -60 -65 -116zM203 549l-49 28q21 12 37.5 25.5t22.5 20.5l6 7l-11 3q-22 13 -22 40q1 16 13 26.5t29 9.5q16 -1 27.5 -15t11.5 -29q0 -60 -65 -116z
" />
    <glyph glyph-name="quotedblbase" unicode="&#x201e;" horiz-adv-x="266" 
d="M140 -83l-38 22q-15 -15 -23 -22l-49 28q21 12 37.5 25t22.5 20l6 8l-11 3q-22 13 -22 40q1 16 13 26.5t29 9.5q16 -1 27 -14q12 16 34 14q16 -1 27.5 -15t11.5 -29q0 -60 -65 -116zM157 -2l-11 3q-4 2 -6 4q-5 -21 -17 -39q11 8 19.5 16t11.5 12z" />
    <glyph glyph-name="bullet" unicode="&#x2022;" horiz-adv-x="479" 
d="M239 158q-74 0 -126 52.5t-52 126.5t52 126t126 52t126.5 -52t52.5 -126t-52.5 -126.5t-126.5 -52.5z" />
    <glyph glyph-name="ellipsis" unicode="&#x2026;" horiz-adv-x="558" 
d="M100 0q-16 0 -27 11t-11 27t11 27t27 11t27 -11t11 -27t-11 -27t-27 -11zM278 0q-16 0 -27 11t-11 27t11 27t27 11t27 -11t11 -27t-11 -27t-27 -11zM458 0q-16 0 -27 11t-11 27t11 27t27 11t27 -11t11 -27t-11 -27t-27 -11z" />
    <glyph glyph-name="perthousand" unicode="&#x2030;" horiz-adv-x="1029" 
d="M841 -11q-60 0 -102 42t-42 102t42 102t102 42t102 -42t42 -102t-42 -102t-102 -42zM916 133q0 30 -20.5 52.5t-54.5 22.5t-54.5 -22.5t-20.5 -52.5t20.5 -52.5t54.5 -22.5t54.5 22.5t20.5 52.5zM99 0l-49 49l556 692l55 -48zM512 -11q-60 0 -102 42t-42 102t42 102
t102 42t102 -42t42 -102t-42 -102t-102 -42zM588 133q0 30 -21 53t-55 23t-55 -23t-21 -53t21 -53t55 -23t55 23t21 53zM201 439q-60 0 -102 42t-42 102t42 102t102 42t102 -42t42 -102t-42 -102t-102 -42zM278 583q0 30 -21.5 53t-55.5 23t-55 -23t-21 -53t21 -53t55 -23
t55.5 23t21.5 53z" />
    <glyph glyph-name="guilsinglleft" unicode="&#x2039;" horiz-adv-x="338" 
d="M275 124l-46 -44l-187 187v1l187 187l48 -48l-141 -140z" />
    <glyph glyph-name="guilsinglright" unicode="&#x203a;" horiz-adv-x="338" 
d="M109 80l-46 44l139 143l-141 140l48 48l187 -187v-1z" />
    <glyph glyph-name="fraction" unicode="&#x2044;" horiz-adv-x="455" 
d="M106 -114h-78l324 931h74z" />
    <glyph glyph-name="Euro" unicode="&#x20ac;" horiz-adv-x="486" 
d="M444 85l14 -64q-49 -19 -98 -27.5t-97 -4t-84.5 24t-59 62t-22.5 105.5v55h-57v70h57v50h-57v70h57v76q0 76 21.5 115t65.5 66q50 28 120 25t129 -33l-21 -57q-54 20 -105 20q-33 0 -61.5 -8.5t-52.5 -39t-24 -79.5v-85h191v-70h-191v-50h191v-70h-191v-53
q0 -92 75.5 -116.5t199.5 18.5z" />
    <glyph glyph-name="trademark" unicode="&#x2122;" horiz-adv-x="467" 
d="M407 512h-46v120l-40 -120h-31l-40 120v-120h-48v142h-56v-142h-48v142h-63v46h231l39 -108l38 108h64v-188z" />
    <glyph glyph-name="Omega" unicode="&#x2126;" horiz-adv-x="631" 
d="M573 0h-228v66q2 0 18.5 2.5t21.5 4t20.5 5t22 7.5t18.5 11t17.5 16t12.5 21t9.5 28t2.5 35v304q0 64 -33 100t-88 36h-101q-57 0 -89.5 -34.5t-32.5 -101.5v-304q0 -19 2.5 -35t9.5 -28t12.5 -21t17.5 -16t18.5 -11t22 -7.5t20.5 -5t21.5 -4t18.5 -2.5v-66h-228l17 66
h51q-55 40 -55 130v307q0 92 47 148t141 56h112q94 0 141 -56t47 -148v-307q0 -52 -15.5 -80.5t-42.5 -49.5h54z" />
    <glyph glyph-name="Delta" unicode="&#x2206;" horiz-adv-x="618" 
d="M583 0h-505l214 700h70zM485 65l-157 509l-154 -509h311z" />
    <glyph glyph-name="CR" horiz-adv-x="278" 
 />
    <glyph glyph-name="uni03BC.001" horiz-adv-x="556" 
 />
    <glyph glyph-name="Upsilondieresis" horiz-adv-x="565" 
d="M370 -11l-20 51q29 9 47 33.5t18 82.5v116q-49 -42 -142 -42q-105 0 -167 54.5t-62 156.5v259h73v-263q0 -67 42 -101.5t114 -34.5q55 0 93.5 21.5t48.5 60.5v317h73v-544q0 -152 -118 -167zM229 767q0 -15 -11 -25.5t-26 -10.5t-25.5 10.5t-10.5 25.5t10.5 26t25.5 11
t26 -11t11 -26zM341 731q-15 0 -25.5 10.5t-10.5 26.5q0 15 10.5 25.5t25.5 10.5t26 -10.5t11 -25.5q0 -16 -11 -26.5t-26 -10.5z" />
    <glyph glyph-name="_210" horiz-adv-x="500" 
 />
    <glyph glyph-name="_196" horiz-adv-x="618" 
d="M583 0h-505l214 700h70zM485 65l-157 509l-154 -509h311z" />
    <glyph glyph-name="Y.alt" horiz-adv-x="464" 
d="M268 0h-72v332l-200 368h79l156 -286l158 286h79l-200 -366v-334z" />
    <glyph glyph-name="y.alt" horiz-adv-x="484" 
d="M187 -198h-78l89 212l-195 487h80l154 -395l165 395h80z" />
    <glyph glyph-name="Ydieresis.alt" horiz-adv-x="464" 
d="M268 0h-72v332l-200 368h79l156 -286l158 286h79l-200 -366v-334zM193 767q0 -15 -11 -25.5t-26 -10.5t-25.5 10.5t-10.5 25.5t10.5 26t25.5 11t26 -11t11 -26zM305 731q-15 0 -25.5 10.5t-10.5 26.5q0 15 10.5 25.5t25.5 10.5t26 -10.5t11 -25.5q0 -16 -11 -26.5
t-26 -10.5z" />
    <glyph glyph-name="Yacute.alt" horiz-adv-x="464" 
d="M259 731h-53l49 115q8 17 23 23t29 1q17 -7 21.5 -24t-6.5 -32zM268 0h-72v332l-200 368h79l156 -286l158 286h79l-200 -366v-334z" />
    <glyph glyph-name="yacute.alt" horiz-adv-x="484" 
d="M187 -198h-78l89 212l-195 487h80l154 -395l165 395h80zM261 543h-53l49 115q8 17 23 23t29 1q17 -7 21.5 -24t-6.5 -32z" />
    <glyph glyph-name="ydieresis.alt" horiz-adv-x="484" 
d="M205 575q0 -15 -11 -25.5t-26 -10.5t-25.5 10.5t-10.5 25.5t10.5 26t25.5 11t26 -11t11 -26zM317 539q-15 0 -25.5 10.5t-10.5 26.5q0 15 10.5 25.5t25.5 10.5t26 -10.5t11 -25.5q0 -16 -11 -26.5t-26 -10.5zM187 -198h-78l89 212l-195 487h80l154 -395l165 395h80z" />
    <glyph glyph-name="Upsilon.alt" horiz-adv-x="474" 
d="M273 0h-72v332l-200 368h79l156 -286l158 286h79l-200 -366v-334z" />
    <glyph glyph-name="dotlessj" horiz-adv-x="220" 
d="M83 -50v482l-46 5l-23 64h142v-576q-2 -57 -40 -95.5t-93 -38.5l-13 56q3 0 8 1t17.5 7.5t22 16.5t17.5 30.5t8 47.5z" />
    <glyph glyph-name="sigma_chi" horiz-adv-x="888" 
d="M938 -162l-35 -50q-82 -1 -132 96l-102 208l-151 -296l-66 27l178 348l-71 146q-19 39 -24 72.5t3.5 60t19 43.5t28.5 37l47 -42q-55 -54 -1 -162l38 -78l130 253h81l-173 -332l123 -254q14 -31 34 -48.5t31.5 -21t36.5 -6.5q3 -1 5 -1zM422 310v-135q0 -194 -185 -194
q-95 0 -141.5 51.5t-46.5 142.5v179q0 48 18.5 81.5t48.5 48.5t67 21.5t74 -0.5q58 -9 97 -2t75 40l52 -30q-33 -61 -96 -77q37 -31 37 -126zM349 175v130q0 39 -10.5 71t-20 44.5t-12.5 12.5q-52 8 -93 8.5t-66.5 -23.5t-25.5 -75v-168q0 -62 31 -93t85 -31q112 0 112 124z
" />
    <glyph glyph-name="sigma_tau" horiz-adv-x="789" 
d="M579 132v300h-94l-45 28q-20 -16 -55 -24q37 -33 37 -126v-135q0 -194 -185 -194q-95 0 -141.5 51.5t-46.5 142.5v179q0 48 18.5 81.5t48.5 48.5t67 21.5t74 -0.5q58 -9 97 -2t75 40l6 -6t6 -6.5t5.5 -6l6 -6t5.5 -4.5t6.5 -4.5t6 -3.5t6.5 -3t6.5 -2t6.5 -1h278v-68
h-117v-296q0 -76 65 -98q-4 -8 -8 -17t-9 -19.5t-8 -16.5q-112 31 -112 147zM349 175v130q0 39 -10.5 71t-20 44.5t-12.5 12.5q-52 8 -93 8.5t-66.5 -23.5t-25.5 -75v-168q0 -62 31 -93t85 -31q112 0 112 124z" />
    <glyph glyph-name="lambda_lambda" horiz-adv-x="880" 
d="M590 349l-89 -317q-18 -17 -58 -47q-45 11 -70 41.5t-41 82.5q-17 58 -49 164t-45 149q-27 -14 -44 -73q-9 -29 -98 -349h-75l108 372q5 15 9.5 27t10 22.5t9 17.5t9.5 14.5t8.5 11.5t9.5 10t9 7.5t10 8t10 7.5q-29 88 -41 106q-22 37 -71 40q2 10 5 28t4 28
q61 1 94 -23.5t53 -83.5l147 -476q4 -13 11.5 -25.5t13.5 -17.5l5 -6q15 51 44.5 152t44.5 152q5 15 9.5 27t10 22.5t9 17.5t9.5 14.5t8.5 11.5t9.5 10t9 7.5t10 8t10 7.5q-29 88 -41 106q-22 37 -71 40q1 10 4.5 28t5.5 28q61 1 94 -23.5t53 -83.5q23 -77 69.5 -230
t69.5 -229q5 -16 11 -29.5t10.5 -22.5t12.5 -17t11 -12t12.5 -9t11.5 -6t12.5 -5.5t11.5 -4.5q-9 -8 -27 -23.5t-20 -17.5q-46 11 -71 40.5t-40 81.5q-12 38 -44.5 146t-50.5 167q-28 -15 -43 -73z" />
    <glyph glyph-name="gamma_gamma" horiz-adv-x="871" 
d="M128 129l-108 372h75q12 -42 35.5 -125.5t34.5 -125.5q3 -12 10 -39.5t11.5 -43.5t12 -36.5t17 -33t20.5 -19.5q16 52 47.5 157t47.5 157q16 53 40.5 82t70.5 40l49 -42q11 -39 31 -112t28 -103q2 -8 10 -40.5t12.5 -46.5t13 -37t18 -35.5t20.5 -19.5q15 52 46.5 156.5
t47.5 157.5q16 52 41 81.5t71 40.5q14 -12 46 -42q-2 -1 -11.5 -4.5t-12.5 -5t-11.5 -6t-12.5 -9t-11 -12t-12 -16.5t-11 -22.5t-11 -29.5q-28 -95 -123 -411q-19 -55 -19.5 -82t12.5 -42q-9 -5 -27.5 -15t-27.5 -15q-48 44 -21 128q4 12 11.5 36.5t11.5 36.5q-2 1 -10 7.5
t-10 8t-9 7.5t-9.5 10t-8.5 11.5t-9.5 14.5t-9 17.5t-10 22.5t-9.5 27q-12 41 -42 143t-46 158q-17 -22 -31 -63q-14 -46 -39 -130t-45.5 -152.5t-38.5 -128.5q-19 -55 -19.5 -82t12.5 -42q-9 -5 -27.5 -15t-27.5 -15q-48 44 -21 128q4 12 11.5 36.5t11.5 36.5q-2 1 -10 7.5
t-10 8t-9 7.5t-9.5 10t-8.5 11.5t-9.5 14.5t-9 17.5t-10 22.5t-9.5 27z" />
    <glyph glyph-name="gamma_kappa" horiz-adv-x="850" 
d="M836 62l-9 -63q-35 0 -65 18.5t-45.5 36.5t-43.5 56q-16 22 -48.5 66.5t-48.5 66.5q-7 -7 -23 -22.5t-24 -23.5v-197h-72v459q-38 -22 -61 -92q-14 -46 -39 -130t-45.5 -152.5t-38.5 -128.5q-19 -55 -19.5 -82t12.5 -42q-9 -5 -27.5 -15t-27.5 -15q-48 44 -21 128
q4 12 11.5 36.5t11.5 36.5q-2 1 -10 7.5t-10 8t-9 7.5t-9.5 10t-8.5 11.5t-9.5 14.5t-9 17.5t-10 22.5t-9.5 27l-108 372h75q12 -42 35.5 -125.5t34.5 -125.5q3 -11 10 -39.5t12 -43.5t12.5 -36t17 -33.5t20.5 -19.5q15 52 47 156.5t47 157.5q16 52 41 81.5t71 40.5l86 -15
v-207q21 23 88.5 96t103.5 113h93l-186 -204q78 -112 118 -167q48 -66 90 -68z" />
    <glyph glyph-name="Upsilontonos.alt" horiz-adv-x="653" 
d="M73 568h-53l49 115q8 17 23 23t29 1q17 -7 21.5 -24t-6.5 -32zM452 0h-72v332l-200 368h79l156 -286l158 286h79l-200 -366v-334z" />
    </font>
</defs>
</svg>
