<?xml version="1.0" standalone="no"?>
<!DOCTYPE svg PUBLIC "-//W3C//DTD SVG 1.1//EN" "http://www.w3.org/Graphics/SVG/1.1/DTD/svg11.dtd" >
<svg xmlns="http://www.w3.org/2000/svg" xmlns:xlink="http://www.w3.org/1999/xlink" version="1.1">
<metadata>
Created by FontForge 20170731 at Sun Sep 20 01:25:17 2009
 By ,,,
Copyright 2007-2009 by &#60;INDE&#62;, Andreas Kalpakidis. All rights reserved.
</metadata>
<defs>
<font id="advent-Bd2" horiz-adv-x="215" >
  <font-face 
    font-family="advent"
    font-weight="800"
    font-stretch="normal"
    units-per-em="1000"
    panose-1="2 0 5 6 4 0 0 2 0 4"
    ascent="714"
    descent="-286"
    x-height="501"
    cap-height="700"
    bbox="-53 -224 1845 963"
    underline-thickness="50"
    underline-position="-200"
    unicode-range="U+0020-FB04"
  />
<missing-glyph horiz-adv-x="500" 
d="M500 0h-500v700h500v-700zM450 50v600h-400v-600h400zM425 133l-39 -32l-136 204l-137 -205l-40 29l147 221l-147 221l40 29l137 -205l136 204l39 -32l-145 -217z" />
    <glyph glyph-name="f_f" unicode="ff" horiz-adv-x="494" 
d="M389 0h-93v532q0 34 8 64q-28 17 -61 18t-61 -20t-28 -55v-38h97l-24 -86h-73v-415h-92v522q0 108 80.5 156.5t216.5 -0.5q63 43 152 10l-25 -83q-32 18 -64.5 1.5t-32.5 -67.5v-38h96l-24 -86h-72v-415z" />
    <glyph glyph-name="f_i" unicode="fi" horiz-adv-x="442" 
d="M380 0h-90v501h90v-501zM154 0h-92v532q0 46 17 83.5t47 59.5t67.5 30.5t81 -1.5t84.5 -39l-69 -63q-23 20 -55 21.5t-56.5 -18.5t-24.5 -56v-48h97l-24 -86h-73v-415z" />
    <glyph glyph-name="f_l" unicode="fl" horiz-adv-x="442" 
d="M380 0h-92v603q-24 19 -55.5 20t-55 -19t-23.5 -55v-48h97l-24 -86h-73v-415h-92v532q0 111 83.5 154.5t234.5 -10.5v-676z" />
    <glyph glyph-name="f_f_l" unicode="ffl" horiz-adv-x="674" 
d="M612 0h-93v604q-41 22 -85.5 4t-44.5 -66v-41h96q-8 -28 -24 -86h-72v-415h-93v532q0 34 8 64q-28 17 -61 18t-61 -20t-28 -55v-38h97q-8 -28 -24 -86h-73v-415h-92v497q0 33 3 61q12 92 89.5 127.5t204.5 -7.5q34 23 85 26.5t90.5 -4.5t77.5 -21v-679z" />
    <glyph glyph-name="w_w_w" unicode="www" horiz-adv-x="1852" 
d="M1686 0h-95q-14 53 -41.5 158t-41.5 157q-27 -105 -83 -315h-96q-19 60 -57 180.5t-57 180.5q-19 -60 -57 -180.5t-58 -180.5h-95q-54 210 -82 315q-14 -53 -42 -158t-41 -157h-97q-55 178 -109 348q-16 -52 -34.5 -110t-41.5 -128.5t-35 -109.5h-95q-14 52 -41.5 157
t-40.5 158q-56 -210 -83 -315h-97q-27 83 -79 250t-79 251h99q20 -67 56.5 -197t48.5 -172q15 59 46 184.5t47 184.5h87q16 -59 47 -184.5t46 -184.5q15 53 45 167.5t45 167.5q2 7 5.5 19.5t3.5 14.5h100q17 -59 52.5 -184.5t53.5 -184.5q12 45 43.5 174t48.5 195h87
q16 -59 47 -184.5t46 -184.5q17 59 50.5 184.5t50.5 184.5h106q17 -59 53 -184.5t53 -184.5q15 59 45.5 184.5t46.5 184.5h88l88 -362l105 362h97z" />
    <glyph glyph-name="f_t" unicode="ft" horiz-adv-x="497" 
d="M451 59l-27 -72q-136 12 -136 145v471q-24 19 -55.5 20t-55 -19t-23.5 -55v-48h97l-24 -86h-73v-415h-92v532q0 111 83.5 154.5t234.5 -10.5v-175h104l-24 -86h-80v-283q0 -63 71 -73z" />
    <glyph glyph-name="t_t" unicode="tt" horiz-adv-x="503" 
d="M456 59l-27 -72q-136 12 -136 145v283h-142v-283q0 -63 71 -73l-27 -72q-136 12 -136 145v568h92v-199h142v199h93v-199h103q-8 -28 -24 -86h-79v-283q0 -63 70 -73z" />
    <glyph glyph-name=".notdef" horiz-adv-x="500" 
d="M500 0h-500v700h500v-700zM450 50v600h-400v-600h400zM425 133l-39 -32l-136 204l-137 -205l-40 29l147 221l-147 221l40 29l137 -205l136 204l39 -32l-145 -217z" />
    <glyph glyph-name=".null" horiz-adv-x="0" 
 />
    <glyph glyph-name="nonmarkingreturn" horiz-adv-x="333" 
 />
    <glyph glyph-name="space" unicode=" " horiz-adv-x="241" 
 />
    <glyph glyph-name="exclam" unicode="!" horiz-adv-x="258" 
d="M162 120h-66l-16 532q0 58 48 58q51 0 51 -57zM174 44q0 -18 -13 -31t-32 -13q-18 0 -31 13t-13 31q0 19 13 32t31 13q19 0 32 -13t13 -32z" />
    <glyph glyph-name="quotedbl" unicode="&#x22;" horiz-adv-x="328" 
d="M119 512h-54l-14 185q0 24 20.5 34.5t41 0.5t20.5 -35zM263 512h-54l-14 185q0 24 20.5 34.5t41 0.5t20.5 -35z" />
    <glyph glyph-name="numbersign" unicode="#" horiz-adv-x="668" 
d="M607 175h-165l-41 -175h-92l39 175h-118l-40 -175h-88l41 175h-84v86h104l28 116h-132v92h154l53 231h88l-54 -231h119l54 231h93l-54 -231h95v-92h-117l-27 -116h144v-86zM369 261l28 116h-119l-27 -116h118z" />
    <glyph glyph-name="dollar" unicode="$" horiz-adv-x="556" 
d="M323 -114h-91v107q-89 11 -139 65.5t-52 119.5l97 11q3 -37 28 -66t66 -38v267q-41 16 -66 29t-53 34.5t-41.5 52t-13.5 69.5q0 60 45 108t129 61v111h91v-109q55 -4 107 -28l-4 -14q-5 -13 -12.5 -35t-12.5 -37q-39 15 -78 21v-202q42 -18 71 -34.5t59.5 -42t46.5 -62
t16 -81.5q0 -81 -47.5 -135.5t-145.5 -65.5v-106zM323 310v-226q43 10 68 37t25 64q0 44 -24.5 73t-68.5 52zM232 453v159q-79 -19 -76 -82q1 -44 76 -77z" />
    <glyph glyph-name="percent" unicode="%" horiz-adv-x="706" 
d="M113 0l-66 59l544 684l71 -57zM511 -11q-60 0 -102 42t-42 102t42 102t102 42t102 -42t42 -102t-42 -102t-102 -42zM566 133q0 22 -15 38.5t-40 16.5t-40 -16.5t-15 -38.5t15 -38.5t40 -16.5t40 16.5t15 38.5zM200 439q-60 0 -102 42t-42 102t42 102t102 42t102 -42
t42 -102t-42 -102t-102 -42zM256 583q0 22 -15.5 39t-40.5 17q-24 0 -39.5 -17t-15.5 -39t15.5 -39t39.5 -17q25 0 40.5 17t15.5 39z" />
    <glyph glyph-name="ampersand" unicode="&#x26;" horiz-adv-x="580" 
d="M511 61l-16 -72q-83 9 -120 69q-45 -69 -149 -69q-90 0 -137.5 63.5t-39.5 151.5q4 40 20 74.5t35.5 57t45.5 41.5t44 28t37 16q-33 11 -56 47t-24 81q-3 90 74.5 135.5t168.5 14.5l-52 -79q-32 12 -63.5 -6.5t-33.5 -54.5q-4 -47 29.5 -70.5t62.5 -18.5l17 2v128l91 9
v-125l73 16l20 -91l-93 -19v-222q0 -85 66 -107zM354 222v148q-39 -9 -69 -19.5t-64.5 -29.5t-56 -48.5t-26.5 -67.5q-7 -52 19 -88t78 -36q55 0 87 43t32 98z" />
    <glyph glyph-name="quotesingle" unicode="'" horiz-adv-x="176" 
d="M115 589h-54l-14 108q0 24 20.5 34.5t41 0.5t20.5 -35z" />
    <glyph glyph-name="parenleft" unicode="(" horiz-adv-x="262" 
d="M230 -51l-42 -66q-61 35 -88 73.5t-27 114.5v556q0 76 27 116t87 74l42 -70q-66 -28 -66 -130v-535q0 -34 4.5 -57.5t16.5 -38t20 -20.5t26 -17z" />
    <glyph glyph-name="parenright" unicode=")" horiz-adv-x="262" 
d="M74 -117l-42 66q24 14 34.5 23t21 37t10.5 73v535q0 102 -65 130l42 70q60 -34 87 -74t27 -116v-556q0 -76 -27 -114.5t-88 -73.5z" />
    <glyph glyph-name="asterisk" unicode="*" horiz-adv-x="380" 
d="M317 460l-81 -56l-48 111l-48 -111l-80 57l83 80l-113 20l31 84l100 -58l-21 113h96l-22 -113l99 59l36 -86l-117 -20z" />
    <glyph glyph-name="plus" unicode="+" horiz-adv-x="408" 
d="M250 205h-92v120h-114v88h114v132h92v-132h114v-88h-114v-120z" />
    <glyph glyph-name="comma" unicode="," horiz-adv-x="211" 
d="M86 -84l-59 29q21 12 38.5 25t24.5 20l6 7l-11 3q-26 15 -26 44q1 20 14.5 33t34.5 12t32.5 -18.5t11.5 -35.5q1 -60 -66 -119z" />
    <glyph glyph-name="hyphen" unicode="-" horiz-adv-x="474" 
d="M397 325h-320v88h320v-88z" />
    <glyph glyph-name="period" unicode="." horiz-adv-x="207" 
d="M104 0q-18 0 -31.5 13t-13.5 31q0 19 13.5 32t31.5 13t31 -13t13 -32q0 -18 -13 -31t-31 -13z" />
    <glyph glyph-name="slash" unicode="/" horiz-adv-x="475" 
d="M123 -114h-97l324 931h98z" />
    <glyph glyph-name="zero" unicode="0" horiz-adv-x="544" 
d="M482 506v-321q0 -101 -61.5 -148.5t-147.5 -47.5t-148.5 47.5t-62.5 148.5v322q0 103 56.5 156t155.5 53t153.5 -56t54.5 -154zM391 199v287q0 66 -27.5 100t-91.5 34t-91.5 -33.5t-27.5 -99.5v-289q0 -56 31.5 -87t87.5 -31q54 0 86.5 31.5t32.5 87.5z" />
    <glyph glyph-name="one" unicode="1" horiz-adv-x="318" 
d="M219 0h-92l1 577q-13 -8 -34.5 -14.5t-36.5 -8.5l-15 -2l-25 81q7 1 19 3.5t41.5 19t50.5 44.5h91v-700z" />
    <glyph glyph-name="two" unicode="2" horiz-adv-x="451" 
d="M402 0h-366v84l238 354q49 82 27 132.5t-83 50.5q-31 0 -55 -21t-30 -51l-82 41q18 52 64 86t109 34q74 0 122.5 -44.5t52.5 -112t-44 -147.5l-213 -322h260v-84z" />
    <glyph glyph-name="three" unicode="3" horiz-adv-x="454" 
d="M30 83l60 61q17 -30 48.5 -48.5t67.5 -18.5q55 0 89 36.5t34 87.5q0 56 -41 88.5t-106 35.5h-110l189 284h-187v91h288v-89l-132 -198l4 -1q75 -9 130.5 -67.5t55.5 -143.5q0 -89 -62 -151t-151 -62q-54 0 -101 25.5t-76 69.5z" />
    <glyph glyph-name="four" unicode="4" horiz-adv-x="517" 
d="M417 0h-91v325h-315l193 375h93l-137 -287h166v287h91v-287h70l-19 -88h-51v-325z" />
    <glyph glyph-name="five" unicode="5" horiz-adv-x="460" 
d="M36 83l60 62q48 -67 117 -67q58 0 90 36t32 87q0 56 -41.5 90t-107.5 34h-122l40 375h266v-91h-182l-20 -196h45q89 0 151 -62t62 -150q0 -89 -62 -151t-151 -62q-54 0 -101 25.5t-76 69.5z" />
    <glyph glyph-name="six" unicode="6" horiz-adv-x="510" 
d="M59 201v260q0 40 12 78.5t38.5 76t76.5 61t117 23.5h35v-91h-31q-157 0 -157 -164v-77q18 19 53 32t68 13q89 0 151 -62t62 -150q0 -89 -62 -151t-151 -62q-88 0 -150 62t-62 151zM149 206v-5q0 -51 35.5 -87t86.5 -36t86.5 36t35.5 87t-35.5 86t-86.5 35
q-50 0 -85.5 -33.5t-36.5 -82.5z" />
    <glyph glyph-name="seven" unicode="7" horiz-adv-x="451" 
d="M134 0h-101l300 609h-292v91h394v-91z" />
    <glyph glyph-name="eight" unicode="8" horiz-adv-x="507" 
d="M375 201q0 51 -35 86.5t-91 36.5q-49 -1 -83.5 -37t-34.5 -86q0 -51 35.5 -86.5t86.5 -35.5t86.5 35.5t35.5 86.5zM353 388q51 -28 82 -77.5t31 -109.5q0 -89 -62 -151t-151 -62t-151 62t-62 151q0 61 31 111t83 77q-75 51 -75 144q0 73 51 124.5t124 51.5
q74 0 125 -51.5t51 -124.5q0 -94 -77 -145zM250 449q38 0 63.5 24.5t25.5 59.5q0 36 -25 61.5t-60 25.5q-36 0 -61.5 -25.5t-25.5 -61.5q0 -35 24.5 -59.5t58.5 -24.5z" />
    <glyph glyph-name="nine" unicode="9" horiz-adv-x="510" 
d="M207 0h-35v85h39q68 0 109 46t41 126v72q-51 -44 -122 -44q-89 0 -151 62t-62 150q0 89 62 151t151 62q88 0 150 -62t62 -151v-258q0 -40 -12 -78.5t-38.5 -76t-76.5 -61t-117 -23.5zM239 376q50 0 86 35.5t36 90.5q0 48 -36.5 83t-85.5 35q-50 0 -86 -36.5t-36 -86.5
t36 -85.5t86 -35.5z" />
    <glyph glyph-name="colon" unicode=":" horiz-adv-x="251" 
d="M126 325q-19 0 -33 13.5t-14 32.5t14 33t33 14t32.5 -14t13.5 -33t-13.5 -32.5t-32.5 -13.5zM125 110q-19 0 -33 14t-14 34t14 34t33 14q20 0 34 -14t14 -34t-14 -34t-34 -14z" />
    <glyph glyph-name="semicolon" unicode=";" horiz-adv-x="245" 
d="M122 216q-19 0 -32 13.5t-13 32.5t13 32t32 13t32.5 -13t13.5 -32t-13.5 -32.5t-32.5 -13.5zM103 -84l-59 29q21 12 38.5 25t23.5 20l7 7l-12 3q-25 14 -25 44q0 20 14 33t34 12q22 -1 33.5 -18.5t11.5 -35.5q0 -59 -66 -119z" />
    <glyph glyph-name="less" unicode="&#x3c;" horiz-adv-x="498" 
d="M403 136l-60 -56l-278 278v1l278 278l62 -59l-222 -220z" />
    <glyph glyph-name="equal" unicode="=" horiz-adv-x="476" 
d="M398 357h-320v88h320v-88zM398 221h-320v88h320v-88z" />
    <glyph glyph-name="greater" unicode="&#x3e;" horiz-adv-x="498" 
d="M155 80l-60 56l220 222l-222 220l62 59l278 -278v-1z" />
    <glyph glyph-name="question" unicode="?" horiz-adv-x="430" 
d="M241 119h-88v93q0 46 14 85t30.5 61t42.5 52t37 46q29 46 24.5 83t-29.5 60t-56 23q-43 0 -68 -24t-25 -66h-92q0 75 46.5 126t131.5 51q41 0 78.5 -17t62 -46.5t37.5 -66t6.5 -78.5t-33.5 -81q-18 -27 -44.5 -54.5t-39.5 -43t-23.5 -51t-11.5 -89.5v-63zM241 44
q0 -18 -13.5 -31t-31.5 -13t-31 13t-13 31q0 19 13 32t31 13t31.5 -13t13.5 -32z" />
    <glyph glyph-name="at" unicode="@" horiz-adv-x="811" 
d="M646 162l-1 175q0 28 0.5 42t5.5 37.5t15 37t30 27t49 19.5l27 -71q-25 -10 -32.5 -28.5t-7.5 -47.5l1 -177q0 -59 -23.5 -106t-60 -74.5t-85.5 -46t-94 -25.5t-91 -7q-138 -1 -229.5 69t-91.5 197v159q0 56 18.5 101t50 73t65.5 45t71 24q43 7 87.5 9t86 -10.5
t74.5 -33.5t52.5 -60.5t19.5 -90.5l37 -15v-86l-37 16v-223q-58 -17 -104.5 -26.5t-99.5 -11.5t-89.5 11t-62 48t-29.5 92v101q0 111 88 144q33 14 76.5 11t73.5 -10.5t55 -18.5q-5 42 -40 61.5t-78 20.5q-100 2 -165 -41.5t-65 -137.5v-144q0 -70 37.5 -114.5t88 -60
t112.5 -15.5q105 0 185 41t80 121zM492 155v189q-30 15 -64.5 24t-68 8.5t-55 -20t-21.5 -58.5v-70q0 -20 5.5 -37t20 -31.5t37 -21t60 -3t86.5 19.5z" />
    <glyph glyph-name="A" unicode="A" horiz-adv-x="524" 
d="M514 0h-106l-55 205h-184l-53 -205h-101l185 700h119zM331 300l-72 250l-68 -250h140z" />
    <glyph glyph-name="B" unicode="B" horiz-adv-x="556" 
d="M302 0h-223v700h210q82 0 134.5 -45t52.5 -130q0 -93 -66 -138q-1 -1 -1 -2v-1q44 -20 73.5 -64.5t29.5 -113.5q0 -38 -10.5 -72.5t-33.5 -65.5t-65.5 -49.5t-100.5 -18.5zM170 413h88q114 0 114 101q0 54 -28 75t-81 21h-93v-197zM170 84h100q68 0 103.5 25.5t35.5 99.5
q0 62 -36 89t-91 27h-112v-241z" />
    <glyph glyph-name="C" unicode="C" horiz-adv-x="452" 
d="M409 107l15 -84q-49 -19 -98 -27.5t-97 -4t-84.5 24t-59 62t-22.5 105.5v321q0 76 21.5 115t65.5 66q50 28 120 25t129 -33l-26 -78q-48 18 -103 18q-48 0 -82 -25.5t-34 -78.5v-328q0 -45 22 -70t60 -30t80.5 1t92.5 21z" />
    <glyph glyph-name="D" unicode="D" horiz-adv-x="560" 
d="M287 0h-208v701h188q113 0 172.5 -62t59.5 -165v-274q0 -200 -212 -200zM408 190v294q0 65 -35.5 96t-95.5 31h-107v-528h101q22 0 38 1.5t36 8t32.5 17.5t21.5 31.5t9 48.5z" />
    <glyph glyph-name="E" unicode="E" horiz-adv-x="460" 
d="M411 0h-332v700h334v-90h-243v-197h156l-27 -88h-129v-243h241v-82z" />
    <glyph glyph-name="F" unicode="F" horiz-adv-x="429" 
d="M170 0h-91v700h334v-90h-243v-197h151l-32 -88h-119v-325z" />
    <glyph glyph-name="G" unicode="G" horiz-adv-x="518" 
d="M473 0h-82l-9 20q-44 -30 -109 -30q-88 0 -149.5 50t-61.5 149v314q0 128 87 181q50 28 120 25t129 -33l-27 -78q-51 19 -97 19q-121 0 -121 -105v-325q0 -106 119 -106q48 0 79.5 26t31.5 79v26h-60l-30 88h180v-300z" />
    <glyph glyph-name="H" unicode="H" horiz-adv-x="588" 
d="M509 0h-90v325h-249v-325h-91v700h91v-287h249v287h90v-700z" />
    <glyph glyph-name="I" unicode="I" horiz-adv-x="271" 
d="M192 0h-92v612l-63 2v86h155v-700z" />
    <glyph glyph-name="J" unicode="J" horiz-adv-x="286" 
d="M52 -37l-28 74q23 0 42.5 6t37 31t17.5 67v471l-62 2v86h152v-568q0 -88 -36.5 -128t-122.5 -41z" />
    <glyph glyph-name="K" unicode="K" horiz-adv-x="515" 
d="M511 0h-112l-202 301l-22 -33v-268h-96v701h96v-274l184 274h109l-217 -317z" />
    <glyph glyph-name="L" unicode="L" horiz-adv-x="452" 
d="M440 0h-361v700h91v-617h270v-83z" />
    <glyph glyph-name="M" unicode="M" horiz-adv-x="694" 
d="M615 0h-91v428l-140 -428h-76l-138 427v-427h-91v700h91l176 -516l178 516h91v-700z" />
    <glyph glyph-name="N" unicode="N" horiz-adv-x="650" 
d="M571 0h-92l-309 516v-516h-91v700h91l309 -514v514h92v-700z" />
    <glyph glyph-name="O" unicode="O" horiz-adv-x="544" 
d="M482 506v-321q0 -101 -61.5 -148.5t-147.5 -47.5t-148.5 47.5t-62.5 148.5v322q0 103 56.5 156t155.5 53t153.5 -56t54.5 -154zM391 199v287q0 66 -27.5 100t-91.5 34t-91.5 -33.5t-27.5 -99.5v-289q0 -56 31.5 -87t87.5 -31q54 0 86.5 31.5t32.5 87.5z" />
    <glyph glyph-name="P" unicode="P" horiz-adv-x="547" 
d="M170 300h130q26 0 46 7t33 15.5t21.5 26t13 28.5t6.5 33t2 30.5v29.5q0 78 -32 109t-94 31h-126v-310zM170 0h-91v700h234q101 0 150.5 -64t49.5 -165q0 -259 -191 -259h-152v-212z" />
    <glyph glyph-name="Q" unicode="Q" horiz-adv-x="545" 
d="M430 -28l-9 -80q-132 -3 -175 99q-33 2 -62.5 13t-58 32t-45.5 59.5t-17 89.5v322q0 103 56.5 156t155.5 53t153.5 -56t54.5 -154v-321q0 -85 -43 -130.5t-101 -56.5q13 -16 33.5 -21.5t57.5 -4.5zM392 187v322q0 48 -28.5 80t-90.5 32q-119 0 -119 -112v-323
q0 -36 18.5 -70t55.5 -35q-2 12 -2 56v37h92v-36q0 -48 1 -56q38 2 55.5 33t17.5 72z" />
    <glyph glyph-name="R" unicode="R" horiz-adv-x="567" 
d="M514 0h-93l-73 214q-8 -2 -23 -2h-155v-212h-91v700h240q96 0 145 -65t49 -165q0 -35 -1.5 -57.5t-8.5 -57t-25 -62.5t-46 -49zM170 300h135q27 0 47.5 7.5t32 23.5t19 30.5t10.5 38t3.5 36t0.5 34.5q0 78 -32.5 108.5t-94.5 30.5h-121v-309z" />
    <glyph glyph-name="S" unicode="S" horiz-adv-x="545" 
d="M41 178l97 11q5 -47 42 -79t96 -32q66 0 103 30t37 77q0 40 -19.5 69t-51.5 47t-70 33t-76 31.5t-70 37t-51.5 54.5t-19.5 80q0 70 58.5 121.5t167.5 51.5q83 0 146 -30l-4 -14q-5 -13 -12.5 -35t-12.5 -37q-59 24 -116 24q-64 0 -97.5 -24t-31.5 -64q2 -33 40 -58
t90.5 -45.5t104.5 -46t88.5 -73.5t36.5 -114q0 -90 -59 -147t-180 -57q-109 0 -171.5 57.5t-64.5 131.5z" />
    <glyph glyph-name="T" unicode="T" horiz-adv-x="434" 
d="M262 0h-91v610h-153v90h402v-90h-158v-610z" />
    <glyph glyph-name="U" unicode="U" horiz-adv-x="571" 
d="M405 212v489h91v-515q0 -53 -18.5 -92t-50 -60t-66.5 -31t-75 -10t-75.5 10t-67 31t-50 60t-18.5 92v515h91v-489q0 -131 119 -131q120 0 120 131z" />
    <glyph glyph-name="V" unicode="V" horiz-adv-x="502" 
d="M307 0h-111l-184 700h102l137 -535l135 535h104z" />
    <glyph glyph-name="W" unicode="W" horiz-adv-x="736" 
d="M572 0h-111l-92 439l-91 -439h-113l-145 700h100l103 -512l107 512h78l107 -512l98 512h103z" />
    <glyph glyph-name="X" unicode="X" horiz-adv-x="585" 
d="M569 0h-115l-164 261l-160 -261h-113l219 351l-205 349h107l156 -254l152 254h107l-204 -343z" />
    <glyph glyph-name="Y" unicode="Y" horiz-adv-x="564" 
d="M354 -15l-27 68q70 13 70 107v86q-49 -34 -124 -34q-104 0 -166.5 57t-62.5 158v273h91v-270q0 -64 36 -96t102 -32q51 0 82.5 17.5t41.5 43.5v337h91v-544q0 -156 -134 -171z" />
    <glyph glyph-name="Z" unicode="Z" horiz-adv-x="569" 
d="M526 0h-487v83l366 528h-353v89h468v-89l-367 -526h373v-85z" />
    <glyph glyph-name="bracketleft" unicode="[" horiz-adv-x="275" 
d="M236 -114h-161v931h161v-84l-70 -10v-743l70 -10v-84z" />
    <glyph glyph-name="backslash" unicode="\" horiz-adv-x="475" 
d="M449 -114h-97l-325 931h98z" />
    <glyph glyph-name="bracketright" unicode="]" horiz-adv-x="275" 
d="M200 -114h-161v84l70 10v743l-70 10v84h161v-931z" />
    <glyph glyph-name="asciicircum" unicode="^" horiz-adv-x="508" 
d="M399 758l-57 -39l-86 90l-91 -90l-56 39l148 141z" />
    <glyph glyph-name="underscore" unicode="_" horiz-adv-x="374" 
d="M347 -68h-320v68h320v-68z" />
    <glyph glyph-name="grave" unicode="`" horiz-adv-x="506" 
d="M313 590h-63l-56 73q-15 21 -10.5 39t22.5 26q14 6 32.5 -0.5t26.5 -26.5z" />
    <glyph glyph-name="a" unicode="a" horiz-adv-x="474" 
d="M420 298v-298q-152 -14 -213 -8q-164 18 -172 163v14v83q0 99 69 133q36 17 80 16t82 -12.5t63 -27.5q0 84 -124 84l7 64q38 0 68.5 -4.5t51.5 -15t37 -21.5t25 -29t15 -31.5t8 -36.5t2.5 -36t0.5 -37zM329 79v191q-24 14 -55.5 24.5t-66 14.5t-58 -12t-23.5 -55v-66
q0 -129 203 -97z" />
    <glyph glyph-name="b" unicode="b" horiz-adv-x="478" 
d="M431 346v-189q0 -99 -78 -139q-59 -30 -132 -30t-159 12v700h91v-209q40 17 89.5 18.5t103.5 -19.5q85 -39 85 -144zM341 155v170q0 43 -22.5 66.5t-54.5 26.5t-62 -3t-49 -18v-318q28 -6 59 -6t60.5 6.5t49 26t19.5 49.5z" />
    <glyph glyph-name="c" unicode="c" horiz-adv-x="397" 
d="M343 92l24 -86q-120 -32 -210 -4q-59 20 -85.5 61.5t-26.5 116.5v128q0 71 28 119t74 67t103 15t115 -31l-25 -76q-89 35 -146.5 10t-57.5 -98v-145q0 -39 22.5 -61t57 -26.5t67 -1.5t60.5 12z" />
    <glyph glyph-name="d" unicode="d" horiz-adv-x="478" 
d="M47 157v189q0 105 85 144q53 21 106.5 19.5t87.5 -19.5v210h90v-700q-86 -12 -159 -12t-132 30q-78 40 -78 139zM326 80v317q-38 20 -80.5 23t-75.5 -21.5t-33 -79.5v-167q0 -51 56 -70t133 -2z" />
    <glyph glyph-name="e" unicode="e" horiz-adv-x="448" 
d="M349 112l34 -77q-74 -45 -165 -47q-78 -2 -124 34.5t-46 111.5v205q0 81 50.5 126t133.5 45t129.5 -44.5t46.5 -123.5v-144l-268 -15v-39q0 -40 27 -58.5t74.5 -12t107.5 38.5zM316 278v65q0 41 -26 60.5t-59 19.5q-43 0 -67 -23.5t-24 -61.5v-70z" />
    <glyph glyph-name="f" unicode="f" horiz-adv-x="259" 
d="M154 0h-92v549q0 44 12.5 76.5t33.5 49t47 27t53.5 9.5t52.5 -4l-15 -82q-36 8 -64 -8.5t-28 -67.5v-48h97l-24 -86h-73v-415z" />
    <glyph glyph-name="g" unicode="g" horiz-adv-x="485" 
d="M283 -210l-22 71q71 9 71 87v79q-25 -39 -100 -39q-88 0 -137 48t-49 140v149q0 88 51.5 136.5t138.5 48.5q74 0 98 -36l12 27h77v-565q0 -135 -140 -146zM332 211v111q0 48 -26 73.5t-74 25.5q-45 0 -70 -27t-25 -74v-137q0 -50 23.5 -79t71.5 -29q100 0 100 136z" />
    <glyph glyph-name="h" unicode="h" horiz-adv-x="488" 
d="M431 0h-91v320q0 48 -21.5 74t-53 29.5t-61.5 -2.5t-51 -19v-402h-91v700h91v-211q32 18 87 20.5t106 -18.5q85 -39 85 -145v-346z" />
    <glyph glyph-name="i" unicode="i" 
d="M110 610q-20 0 -35.5 15.5t-15.5 35.5q0 19 15.5 34t35.5 15t34.5 -15t14.5 -34q0 -20 -15 -35.5t-34 -15.5zM153 0h-91v501h91v-501z" />
    <glyph glyph-name="j" unicode="j" horiz-adv-x="238" 
d="M85 -42v457l-49 8l-23 78h163v-576q-2 -56 -44 -95t-98 -39l-22 70q3 0 8 1t17.5 7t22 15.5t17.5 29t8 44.5zM132 610q-20 0 -35.5 15.5t-15.5 35.5t15.5 34.5t35.5 14.5t34.5 -14.5t14.5 -34.5t-14.5 -35.5t-34.5 -15.5z" />
    <glyph glyph-name="k" unicode="k" horiz-adv-x="459" 
d="M458 0h-113l-165 276l-27 -25v-251h-91v700h91v-334l167 154l67 -64l-137 -117q132 -219 208 -339z" />
    <glyph glyph-name="l" unicode="l" 
d="M153 0h-91v700h91v-700z" />
    <glyph glyph-name="m" unicode="m" horiz-adv-x="743" 
d="M686 0h-91v318q0 147 -150 91l-24 -10q9 -20 9 -47v-352h-91v316q0 55 -29 82.5t-71 26t-86 -26.5v-398h-91v501h83l6 -16q49 28 113.5 23t104.5 -47q14 8 42 22q72 30 133.5 26t101.5 -48t40 -115v-346z" />
    <glyph glyph-name="n" unicode="n" horiz-adv-x="488" 
d="M431 0h-91v325q0 48 -29.5 73t-72.5 24.5t-86 -22.5v-400h-90v501h83l7 -16q37 20 90 23.5t104 -17.5q85 -39 85 -145v-346z" />
    <glyph glyph-name="o" unicode="o" horiz-adv-x="461" 
d="M417 316v-132q0 -84 -46 -139t-139 -55t-140.5 55.5t-47.5 138.5v132q0 95 48.5 145.5t139.5 50.5q87 0 136 -52.5t49 -143.5zM327 174v142q0 106 -95 106q-97 0 -97 -106v-142q0 -47 27 -71.5t70 -24.5t69 25t26 71z" />
    <glyph glyph-name="p" unicode="p" horiz-adv-x="483" 
d="M153 -188l-91 -22v711h87l2 -22q35 30 98 30q93 0 141.5 -54t48.5 -140v-139q0 -91 -51 -139.5t-135 -48.5q-61 0 -100 28v-204zM348 189v130q0 51 -25 76.5t-70 25.5t-72 -25t-28 -72v-144q0 -103 100 -103q95 0 95 112z" />
    <glyph glyph-name="q" unicode="q" horiz-adv-x="483" 
d="M421 -210l-90 22v205q-35 -29 -101 -29q-84 0 -135 48.5t-51 139.5v138q0 86 48.5 140.5t141.5 54.5q54 0 98 -33l3 25h86v-711zM331 184v133q-1 31 -11 53t-26.5 32.5t-31.5 14.5t-32 4q-15 0 -28.5 -4t-30.5 -14.5t-27 -35t-10 -59.5v-134q0 -47 25 -72t71 -25
q101 0 101 107z" />
    <glyph glyph-name="r" unicode="r" horiz-adv-x="334" 
d="M153 0h-91v501h86l4 -15q31 16 66 20.5t56 1.5t57 -10l-22 -87q-49 24 -102.5 4.5t-53.5 -69.5v-346z" />
    <glyph glyph-name="s" unicode="s" horiz-adv-x="423" 
d="M34 127l90 7q2 -27 28 -45.5t67 -18.5q37 0 61.5 18.5t24.5 47.5q0 31 -25 51t-61.5 31.5t-73.5 25.5t-65.5 44t-33.5 77q-5 56 37.5 102t133.5 46q32 0 60 -7.5t40 -14.5l12 -7l-27 -82q-28 24 -85 24q-43 0 -60 -17.5t-14 -43.5q3 -21 31 -36t65 -27.5t73.5 -29.5
t62 -52t25.5 -85q0 -63 -45.5 -106.5t-135.5 -43.5q-85 0 -134 41t-51 101z" />
    <glyph glyph-name="t" unicode="t" horiz-adv-x="268" 
d="M222 59l-27 -72q-136 12 -136 145v568h92v-199h104l-24 -86h-80v-283q0 -63 71 -73z" />
    <glyph glyph-name="u" unicode="u" horiz-adv-x="492" 
d="M430 0h-86l-3 22q-40 -33 -96 -33q-188 0 -188 183v329h91v-321q0 -103 97 -103q94 0 94 106v318h91v-501z" />
    <glyph glyph-name="v" unicode="v" horiz-adv-x="424" 
d="M260 0h-95l-158 501h99l107 -354l106 354h98z" />
    <glyph glyph-name="w" unicode="w" horiz-adv-x="689" 
d="M522 0h-95l-82 315l-83 -315h-97l-158 501h99l105 -354l93 354h87l93 -354l100 354h98z" />
    <glyph glyph-name="x" unicode="x" horiz-adv-x="464" 
d="M441 0h-108l-100 160l-100 -160h-112l156 249l-156 252h112l100 -163l103 163h110l-158 -251z" />
    <glyph glyph-name="y" unicode="y" horiz-adv-x="509" 
d="M306 -210l-33 72q67 11 67 80v76q-32 -30 -102 -30q-88 0 -135.5 47.5t-47.5 140.5v325h90v-309q0 -63 23 -89t70 -26q50 0 76 25.5t26 89.5v171q0 55 27.5 96.5t81.5 50.5l32 -72q-51 -14 -51 -72v-427q0 -64 -28 -100.5t-96 -48.5z" />
    <glyph glyph-name="z" unicode="z" horiz-adv-x="439" 
d="M404 0h-367v85l232 331h-223v85h344v-83l-233 -333h247v-85z" />
    <glyph glyph-name="braceleft" unicode="{" horiz-adv-x="289" 
d="M257 -39l-26 -77q-52 19 -78 43t-38.5 70.5t-12.5 129.5v120q0 19 -16 43.5t-26.5 34.5t-31.5 29q24 19 48 50t24 58v105q0 125 27 179.5t103 75.5l25 -73q-64 -17 -64 -118v-175q0 -43 -58 -101q60 -60 60 -102v-174q0 -101 64 -118z" />
    <glyph glyph-name="bar" unicode="|" horiz-adv-x="241" 
d="M166 -114h-91v931h91v-931z" />
    <glyph glyph-name="braceright" unicode="}" horiz-adv-x="289" 
d="M58 -116l-26 77q64 17 64 118v174q0 42 60 102q-58 58 -58 101v175q0 101 -64 118l25 73q76 -21 103 -75.5t27 -179.5v-105q0 -27 24 -58t48 -50q-21 -19 -31.5 -29t-26.5 -34.5t-16 -43.5v-120q0 -83 -12.5 -129.5t-38.5 -70.5t-78 -43z" />
    <glyph glyph-name="asciitilde" unicode="~" horiz-adv-x="528" 
d="M435 379l38 -59q-32 -41 -73 -51.5t-81 0t-79 22.5t-78.5 7t-68.5 -38l-36 59q33 41 75 51.5t82 0.5t79.5 -21t77 -7t64.5 36z" />
    <glyph glyph-name="uni00A0" unicode="&#xa0;" horiz-adv-x="241" 
 />
    <glyph glyph-name="exclamdown" unicode="&#xa1;" horiz-adv-x="253" 
d="M77 58l16 532h66l17 -533q0 -57 -51 -57q-48 0 -48 58zM126 621q-18 0 -31 13t-13 32q0 18 13 31t31 13q19 0 32 -13t13 -31q0 -19 -13 -32t-32 -13z" />
    <glyph glyph-name="cent" unicode="&#xa2;" horiz-adv-x="421" 
d="M292 -114h-90v108q-15 2 -36 8q-59 20 -85.5 61.5t-26.5 116.5v128q0 87 40.5 137.5t107.5 61.5v116h90v-119q38 -7 82 -26l-25 -76q-28 11 -57 16v-338q28 3 60 12l24 -86q-45 -11 -84 -14v-106zM202 87v325q-57 -25 -57 -98v-145q0 -61 57 -82z" />
    <glyph glyph-name="sterling" unicode="&#xa3;" horiz-adv-x="469" 
d="M410 0h-360v83q54 9 84 47t30 95q0 29 -14 78h-77v90h48q-24 72 -24 122q0 87 54.5 140.5t138.5 53.5q69 0 109 -25l-28 -82q-38 21 -81 21q-53 0 -78 -35t-25 -75q0 -36 27 -120h179v-90h-150q14 -54 12 -82q-3 -43 -14.5 -73.5t-37.5 -62.5h207v-85z" />
    <glyph glyph-name="currency" unicode="&#xa4;" horiz-adv-x="506" 
d="M377 134l-37 38q-39 -24 -87 -24q-52 0 -88 24l-35 -39l-60 62l34 33q-26 36 -26 95q0 47 24 88l-37 36l66 62l32 -35q37 25 90 25q57 0 87 -25l36 36l63 -63l-36 -32q26 -52 26 -92q0 -38 -27 -94l34 -33zM343 323q0 37 -26.5 64t-63.5 27q-38 0 -65 -26.5t-27 -64.5
q0 -37 27 -63t65 -26q37 0 63.5 26t26.5 63z" />
    <glyph glyph-name="yen" unicode="&#xa5;" horiz-adv-x="526" 
d="M309 0h-92v221h-112v88h112v15l-17 33h-95v88h51l-129 255h97l127 -255h21l129 255h98l-129 -255h55v-88h-100l-16 -33v-15h116v-88h-116v-221z" />
    <glyph glyph-name="section" unicode="&#xa7;" horiz-adv-x="558" 
d="M41 -8h94q2 -39 39 -72t102 -33q58 0 102 25t44 84q0 35 -20.5 60t-53.5 40t-73 29t-79.5 31t-71.5 39.5t-51 62t-17 92.5q3 55 35 95q-32 40 -32 95q0 70 58 121t167 51q83 0 146 -30l-5 -14q-5 -13 -12.5 -35t-12.5 -37q-57 29 -114 29q-133 0 -133 -88q0 -35 36 -59
t87.5 -40.5t104 -38.5t92 -67t43.5 -111q5 -76 -23 -129q23 -35 23 -86q0 -92 -58.5 -147.5t-180.5 -55.5q-109 0 -171.5 57.5t-64.5 131.5zM418 160q7 26 7 49q0 41 -33.5 73t-74 47.5t-89 33t-65.5 29.5q-14 -22 -14 -58q0 -39 30 -66.5t68 -39.5t90 -30.5t81 -37.5z" />
    <glyph glyph-name="dieresis" unicode="&#xa8;" horiz-adv-x="506" 
d="M223 704q0 -17 -12 -28.5t-29 -11.5q-16 0 -28 12t-12 28q0 17 11.5 29t28.5 12t29 -12t12 -29zM323 664q-17 0 -29 12t-12 29t12 29t29 12t29 -12t12 -29t-12 -29t-29 -12z" />
    <glyph glyph-name="copyright" unicode="&#xa9;" horiz-adv-x="843" 
d="M423 -127q-156 0 -266 108t-110 268q0 158 109 265t267 107q157 0 265 -107t108 -265q0 -160 -109 -268t-264 -108zM423 -38q118 0 199.5 81t81.5 206q0 118 -82 200.5t-199 82.5q-119 0 -201 -80t-82 -203q0 -126 81.5 -206.5t201.5 -80.5zM529 175h92
q-16 -72 -70 -115.5t-124 -43.5q-99 0 -156.5 65t-57.5 166q0 96 57 163.5t155 67.5q73 0 128 -43t67 -112h-91q-6 25 -36 43.5t-69 18.5q-62 0 -91.5 -39.5t-29.5 -97.5q0 -60 31.5 -100t90.5 -40q41 0 71.5 19t32.5 48z" />
    <glyph glyph-name="ordfeminine" unicode="&#xaa;" horiz-adv-x="368" 
d="M310 555v-164q-48 -8 -82 -10.5t-72 1.5t-61 18t-38.5 44t-15.5 75q0 79 59 104.5t135 -19.5q0 28 -18.5 41.5t-80.5 8.5l8 55q100 4 133 -31.5t33 -122.5zM235 452v86q-20 11 -39 18t-39.5 9.5t-33 -10.5t-12.5 -42q0 -46 35.5 -59t88.5 -2z" />
    <glyph glyph-name="guillemotleft" unicode="&#xab;" horiz-adv-x="565" 
d="M286 136l-59 -56l-187 187v1l187 187l60 -60l-130 -128zM506 136l-59 -56l-187 187v1l187 187l60 -60l-130 -128z" />
    <glyph glyph-name="uni00AD" unicode="&#xad;" horiz-adv-x="410" 
d="M365 325h-320v88h320v-88z" />
    <glyph glyph-name="registered" unicode="&#xae;" horiz-adv-x="843" 
d="M588 39h-93l-80 190h-33v-190h-87v437h130q77 0 115.5 -32.5t38.5 -92.5q0 -84 -81 -112zM382 302h40q68 0 68 49q0 23 -16.5 37t-38.5 14h-53v-100zM423 -127q-156 0 -266 108t-110 268q0 158 109 265t267 107q157 0 265 -107t108 -265q0 -160 -109 -268t-264 -108z
M423 -38q118 0 199.5 81t81.5 206q0 118 -82 200.5t-199 82.5q-119 0 -201 -80t-82 -203q0 -126 81.5 -206.5t201.5 -80.5z" />
    <glyph glyph-name="macron" unicode="&#xaf;" horiz-adv-x="507" 
d="M364 619h-221v79h221v-79z" />
    <glyph glyph-name="degree" unicode="&#xb0;" horiz-adv-x="366" 
d="M183 421q-60 0 -102 42t-42 102t42 102t102 42t102 -42t42 -102t-42 -102t-102 -42zM249 565q0 26 -18.5 46t-47.5 20t-47.5 -20t-18.5 -46t18.5 -46t47.5 -20t47.5 20t18.5 46z" />
    <glyph glyph-name="plusminus" unicode="&#xb1;" horiz-adv-x="448" 
d="M384 218h-320v83h117v50h-117v78h117v116h85v-116h118v-78h-118v-50h118v-83z" />
    <glyph glyph-name="acute" unicode="&#xb4;" horiz-adv-x="507" 
d="M256 588h-63l48 111q8 20 26.5 26.5t32.5 0.5q18 -8 22.5 -26t-10.5 -39z" />
    <glyph glyph-name="mu" unicode="&#xb5;" horiz-adv-x="517" 
d="M470 27l-74 -33q-3 -1 -10.5 4.5t-13.5 14.5q-34 -30 -110 -24q-47 6 -108 32v-231l-91 9v702h91v-392q8 -8 44.5 -21.5t71.5 -13.5q81 0 81 106v317l92 13v-441q3 -28 27 -42z" />
    <glyph glyph-name="paragraph" unicode="&#xb6;" horiz-adv-x="696" 
d="M624 -199h-87v857l-68 1v-857l-88 -1v445h-169q-32 0 -58 6.5t-44 20t-31.5 28t-21 38.5t-12.5 42t-7 48t-2.5 47t-0.5 48q0 100 46 163t140 63h403v-949z" />
    <glyph glyph-name="cedilla" unicode="&#xb8;" horiz-adv-x="507" 
d="M137 -204l31 66q37 -25 78 -25q24 0 42 10t18 31q0 22 -20 29t-55 -8l-41 -19l-29 42l61 78h61l-32 -44q16 7 35 7q34 0 59 -22.5t25 -62.5q0 -53 -41.5 -77.5t-92.5 -24.5q-44 0 -99 20z" />
    <glyph glyph-name="guillemotright" unicode="&#xbb;" horiz-adv-x="565" 
d="M338 80l-59 56l130 131l-131 128l60 60l187 -187v-1zM118 80l-59 56l130 131l-131 128l60 60l187 -187v-1z" />
    <glyph glyph-name="questiondown" unicode="&#xbf;" horiz-adv-x="450" 
d="M318 177h93q0 -75 -46.5 -126t-131.5 -51q-41 0 -78.5 17t-62 46.5t-37.5 66t-6.5 78.5t33.5 81q18 26 44.5 54t39 43.5t23 50.5t11.5 90v63h89v-93q0 -46 -14 -85t-31 -61t-42.5 -51.5t-36.5 -46.5q-29 -46 -24.5 -83t29.5 -60t56 -23q43 0 67.5 24t24.5 66zM246 620
q-19 0 -32 13t-13 32q0 18 13 31t32 13q18 0 31 -13t13 -31q0 -19 -13 -32t-31 -13z" />
    <glyph glyph-name="Agrave" unicode="&#xc0;" horiz-adv-x="524" 
d="M514 0h-106l-55 205h-184l-53 -205h-101l185 700h119zM331 300l-72 250l-68 -250h140zM279 733h-63l-56 73q-15 21 -10.5 39t22.5 26q14 6 32.5 -0.5t26.5 -26.5z" />
    <glyph glyph-name="Aacute" unicode="&#xc1;" horiz-adv-x="524" 
d="M514 0h-106l-55 205h-184l-53 -205h-101l185 700h119zM331 300l-72 250l-68 -250h140zM294 731h-63l48 111q8 20 26.5 26.5t32.5 0.5q18 -8 22.5 -26t-10.5 -39z" />
    <glyph glyph-name="Acircumflex" unicode="&#xc2;" horiz-adv-x="524" 
d="M514 0h-106l-55 205h-184l-53 -205h-101l185 700h119zM331 300l-72 250l-68 -250h140zM406 771l-57 -39l-86 90l-91 -90l-56 39l148 141z" />
    <glyph glyph-name="Atilde" unicode="&#xc3;" horiz-adv-x="524" 
d="M514 0h-106l-55 205h-184l-53 -205h-101l185 700h119zM331 300l-72 250l-68 -250h140zM402 837l36 -56q-34 -40 -68 -49t-63 3t-57 25t-60.5 9.5t-62.5 -35.5l-34 56q35 39 70 48.5t64 -2t57.5 -24t59 -9.5t58.5 34z" />
    <glyph glyph-name="Adieresis" unicode="&#xc4;" horiz-adv-x="524" 
d="M514 0h-106l-55 205h-184l-53 -205h-101l185 700h119zM331 300l-72 250l-68 -250h140zM229 771q0 -17 -12 -28.5t-29 -11.5q-16 0 -28 11.5t-12 28.5t11.5 29t28.5 12t29 -12t12 -29zM329 731q-17 0 -29 12t-12 29q0 16 12 28.5t29 12.5t29 -12t12 -29t-12 -29t-29 -12z
" />
    <glyph glyph-name="Aring" unicode="&#xc5;" horiz-adv-x="524" 
d="M515 0h-106l-55 205h-184l-53 -205h-101l180 682q-44 33 -44 88q0 45 32 77t77 32t77 -32t32 -77q0 -56 -45 -89zM332 300l-72 250l-68 -250h140zM304 770q0 18 -12.5 30.5t-30.5 12.5t-30.5 -12.5t-12.5 -30.5t12.5 -30.5t30.5 -12.5t30.5 12.5t12.5 30.5z" />
    <glyph glyph-name="AE" unicode="&#xc6;" horiz-adv-x="742" 
d="M693 0h-333l1 212h-152l-110 -212h-105l366 700h335v-90h-243v-197h166l-29 -88h-137v-242h241v-83zM361 300v207l-107 -207h107z" />
    <glyph glyph-name="Ccedilla" unicode="&#xc7;" horiz-adv-x="452" 
d="M125 -204l31 66q37 -25 78 -25q24 0 42 10t18 31q0 22 -20 29t-55 -8l-41 -19l-29 42l56 72q-65 12 -103.5 58t-38.5 131v321q0 76 21.5 115t65.5 66q50 28 120 25t129 -33l-26 -78q-48 18 -103 18q-48 0 -82 -25.5t-34 -78.5v-328q0 -45 22 -70t60 -30t80.5 1t92.5 21
l15 -84q-82 -32 -161 -33l-24 -34q16 7 35 7q34 0 59 -22.5t25 -62.5q0 -53 -41.5 -77.5t-92.5 -24.5q-44 0 -99 20z" />
    <glyph glyph-name="Egrave" unicode="&#xc8;" horiz-adv-x="460" 
d="M411 0h-332v700h334v-90h-243v-197h156l-27 -88h-129v-243h241v-82zM277 732h-63l-56 73q-15 21 -10.5 39t22.5 26q14 6 32.5 -0.5t26.5 -26.5z" />
    <glyph glyph-name="Eacute" unicode="&#xc9;" horiz-adv-x="460" 
d="M411 0h-332v700h334v-90h-243v-197h156l-27 -88h-129v-243h241v-82zM301 730h-63l48 111q8 20 26.5 26.5t32.5 0.5q18 -8 22.5 -26t-10.5 -39z" />
    <glyph glyph-name="Ecircumflex" unicode="&#xca;" horiz-adv-x="460" 
d="M411 0h-332v700h334v-90h-243v-197h156l-27 -88h-129v-243h241v-82zM393 771l-57 -39l-86 90l-91 -90l-56 39l148 141z" />
    <glyph glyph-name="Edieresis" unicode="&#xcb;" horiz-adv-x="460" 
d="M411 0h-332v700h334v-90h-243v-197h156l-27 -88h-129v-243h241v-82zM213 771q0 -17 -12 -28.5t-29 -11.5q-16 0 -28 11.5t-12 28.5t11.5 29t28.5 12t29 -12t12 -29zM313 731q-17 0 -29 12t-12 29q0 16 12 28.5t29 12.5t29 -12t12 -29t-12 -29t-29 -12z" />
    <glyph glyph-name="Igrave" unicode="&#xcc;" horiz-adv-x="271" 
d="M192 0h-92v612l-63 2v86h155v-700zM186 732h-63l-56 73q-15 21 -10.5 39t22.5 26q14 6 32.5 -0.5t26.5 -26.5z" />
    <glyph glyph-name="Iacute" unicode="&#xcd;" horiz-adv-x="271" 
d="M192 0h-92v612l-63 2v86h155v-700zM182 730h-63l48 111q8 20 26.5 26.5t32.5 0.5q18 -8 22.5 -26t-10.5 -39z" />
    <glyph glyph-name="Icircumflex" unicode="&#xce;" horiz-adv-x="271" 
d="M192 0h-92v612l-63 2v86h155v-700zM286 771l-57 -39l-86 90l-91 -90l-56 39l148 141z" />
    <glyph glyph-name="Idieresis" unicode="&#xcf;" horiz-adv-x="271" 
d="M192 0h-92v612l-63 2v86h155v-700zM101 769q0 -17 -12 -28.5t-29 -11.5q-16 0 -28 11.5t-12 28.5t11.5 29t28.5 12t29 -12t12 -29zM201 729q-17 0 -29 12t-12 29q0 16 12 28.5t29 12.5t29 -12t12 -29t-12 -29t-29 -12z" />
    <glyph glyph-name="Eth" unicode="&#xd0;" horiz-adv-x="604" 
d="M302 0h-208v425h-49v88h49v188h188q101 0 159.5 -51t69.5 -137h61v-88h-58v-225q0 -200 -212 -200zM423 190v235h-238v-342h101q22 0 38 1.5t36 8t32.5 17.5t21.5 31.5t9 48.5zM292 611h-107v-98h236q-16 98 -129 98z" />
    <glyph glyph-name="Ntilde" unicode="&#xd1;" horiz-adv-x="650" 
d="M571 0h-92l-309 516v-516h-91v700h91l309 -514v514h92v-700zM468 836l36 -56q-34 -40 -68 -49t-63 3t-57 25t-60.5 9.5t-62.5 -35.5l-34 56q35 39 70 48.5t64 -2t57.5 -24t59 -9.5t58.5 34z" />
    <glyph glyph-name="Ograve" unicode="&#xd2;" horiz-adv-x="544" 
d="M482 506v-321q0 -101 -61.5 -148.5t-147.5 -47.5t-148.5 47.5t-62.5 148.5v322q0 103 56.5 156t155.5 53t153.5 -56t54.5 -154zM391 199v287q0 66 -27.5 100t-91.5 34t-91.5 -33.5t-27.5 -99.5v-289q0 -56 31.5 -87t87.5 -31q54 0 86.5 31.5t32.5 87.5zM297 732h-63
l-56 73q-15 21 -10.5 39t22.5 26q14 6 32.5 -0.5t26.5 -26.5z" />
    <glyph glyph-name="Oacute" unicode="&#xd3;" horiz-adv-x="544" 
d="M482 506v-321q0 -101 -61.5 -148.5t-147.5 -47.5t-148.5 47.5t-62.5 148.5v322q0 103 56.5 156t155.5 53t153.5 -56t54.5 -154zM391 199v287q0 66 -27.5 100t-91.5 34t-91.5 -33.5t-27.5 -99.5v-289q0 -56 31.5 -87t87.5 -31q54 0 86.5 31.5t32.5 87.5zM319 730h-63
l48 111q8 20 26.5 26.5t32.5 0.5q18 -8 22.5 -26t-10.5 -39z" />
    <glyph glyph-name="Ocircumflex" unicode="&#xd4;" horiz-adv-x="544" 
d="M482 506v-321q0 -101 -61.5 -148.5t-147.5 -47.5t-148.5 47.5t-62.5 148.5v322q0 103 56.5 156t155.5 53t153.5 -56t54.5 -154zM391 199v287q0 66 -27.5 100t-91.5 34t-91.5 -33.5t-27.5 -99.5v-289q0 -56 31.5 -87t87.5 -31q54 0 86.5 31.5t32.5 87.5zM420 771l-57 -39
l-86 90l-91 -90l-56 39l148 141z" />
    <glyph glyph-name="Otilde" unicode="&#xd5;" horiz-adv-x="544" 
d="M482 506v-321q0 -101 -61.5 -148.5t-147.5 -47.5t-148.5 47.5t-62.5 148.5v322q0 103 56.5 156t155.5 53t153.5 -56t54.5 -154zM391 199v287q0 66 -27.5 100t-91.5 34t-91.5 -33.5t-27.5 -99.5v-289q0 -56 31.5 -87t87.5 -31q54 0 86.5 31.5t32.5 87.5zM419 838l36 -56
q-34 -40 -68 -49t-63 3t-57 25t-60.5 9.5t-62.5 -35.5l-34 56q35 39 70 48.5t64 -2t57.5 -24t59 -9.5t58.5 34z" />
    <glyph glyph-name="Odieresis" unicode="&#xd6;" horiz-adv-x="544" 
d="M482 506v-321q0 -101 -61.5 -148.5t-147.5 -47.5t-148.5 47.5t-62.5 148.5v322q0 103 56.5 156t155.5 53t153.5 -56t54.5 -154zM391 199v287q0 66 -27.5 100t-91.5 34t-91.5 -33.5t-27.5 -99.5v-289q0 -56 31.5 -87t87.5 -31q54 0 86.5 31.5t32.5 87.5zM240 771
q0 -17 -12 -28.5t-29 -11.5t-28.5 11.5t-11.5 28.5t11.5 29t28.5 12t29 -12t12 -29zM340 731q-17 0 -29 12t-12 29q0 16 12.5 28.5t28.5 12.5q17 0 29 -12t12 -29t-12 -29t-29 -12z" />
    <glyph glyph-name="multiply" unicode="&#xd7;" horiz-adv-x="444" 
d="M371 213l-60 -52l-91 109l-91 -110l-59 53l98 120l-100 120l60 51l92 -110l91 111l61 -50l-101 -122z" />
    <glyph glyph-name="Oslash" unicode="&#xd8;" horiz-adv-x="553" 
d="M168 -114h-97l54 155q-57 50 -57 144v322q0 103 56.5 156t155.5 53q40 0 76 -11l39 112h98l-56 -160q51 -57 51 -151v-321q0 -101 -61.5 -148.5t-147.5 -47.5q-37 0 -72 9zM165 155l159 459q-19 6 -46 6q-64 0 -91.5 -33.5t-27.5 -99.5v-289q0 -24 6 -43zM397 199v287
q0 17 -4 45l-156 -446q16 -5 41 -5q54 0 86.5 31.5t32.5 87.5z" />
    <glyph glyph-name="Ugrave" unicode="&#xd9;" horiz-adv-x="571" 
d="M405 212v489h91v-515q0 -53 -18.5 -92t-50 -60t-66.5 -31t-75 -10t-75.5 10t-67 31t-50 60t-18.5 92v515h91v-489q0 -131 119 -131q120 0 120 131zM317 732h-63l-56 73q-15 21 -10.5 39t22.5 26q14 6 32.5 -0.5t26.5 -26.5z" />
    <glyph glyph-name="Uacute" unicode="&#xda;" horiz-adv-x="571" 
d="M405 212v489h91v-515q0 -53 -18.5 -92t-50 -60t-66.5 -31t-75 -10t-75.5 10t-67 31t-50 60t-18.5 92v515h91v-489q0 -131 119 -131q120 0 120 131zM317 731h-63l48 111q8 20 26.5 26.5t32.5 0.5q18 -8 22.5 -26t-10.5 -39z" />
    <glyph glyph-name="Ucircumflex" unicode="&#xdb;" horiz-adv-x="571" 
d="M405 212v489h91v-515q0 -53 -18.5 -92t-50 -60t-66.5 -31t-75 -10t-75.5 10t-67 31t-50 60t-18.5 92v515h91v-489q0 -131 119 -131q120 0 120 131zM431 771l-57 -39l-86 90l-91 -90l-56 39l148 141z" />
    <glyph glyph-name="Udieresis" unicode="&#xdc;" horiz-adv-x="571" 
d="M405 212v489h91v-515q0 -53 -18.5 -92t-50 -60t-66.5 -31t-75 -10t-75.5 10t-67 31t-50 60t-18.5 92v515h91v-489q0 -131 119 -131q120 0 120 131zM254 771q0 -17 -12 -28.5t-29 -11.5t-28.5 11.5t-11.5 28.5t11.5 29t28.5 12t29 -12t12 -29zM354 731q-17 0 -29 12
t-12 29q0 16 12.5 28.5t28.5 12.5q17 0 29 -12t12 -29t-12 -29t-29 -12z" />
    <glyph glyph-name="Yacute" unicode="&#xdd;" horiz-adv-x="564" 
d="M354 -15l-27 68q70 13 70 107v86q-49 -34 -124 -34q-104 0 -166.5 57t-62.5 158v273h91v-270q0 -64 36 -96t102 -32q51 0 82.5 17.5t41.5 43.5v337h91v-544q0 -156 -134 -171zM299 731h-63l48 111q8 20 26.5 26.5t32.5 0.5q18 -8 22.5 -26t-10.5 -39z" />
    <glyph glyph-name="Thorn" unicode="&#xde;" horiz-adv-x="484" 
d="M169 0h-90v700h90v-221q40 30 97 30q93 0 141.5 -54t48.5 -140q0 -94 -51.5 -146.5t-134.5 -52.5q-63 0 -101 39v-155zM270 202q39 0 67.5 27.5t28.5 87.5q0 46 -26 76t-70 30q-39 0 -69.5 -27t-31.5 -76q0 -61 29 -89.5t72 -28.5z" />
    <glyph glyph-name="germandbls" unicode="&#xdf;" horiz-adv-x="514" 
d="M153 0h-91v537q0 75 41 119.5t113 44.5t111 -43.5t36.5 -97t-37.5 -84.5l-23 1q-8 -14 -9.5 -27.5t5 -26.5t15.5 -25t24 -26t29.5 -26.5t32.5 -29t32 -31.5q27 -28 42 -59.5t18 -72.5t-18 -82q-25 -52 -82 -71.5t-115.5 -7.5t-97.5 45l42 82q28 -27 62 -37t61 -3t39 27
q39 63 -34 137q-15 16 -49 46.5t-51 49t-34.5 47t-16.5 58t20 63.5q34 0 48 26.5t0.5 53.5t-45.5 27q-68 0 -68 -96v-518z" />
    <glyph glyph-name="agrave" unicode="&#xe0;" horiz-adv-x="474" 
d="M420 298v-298q-152 -14 -213 -8q-164 18 -172 163v14v83q0 99 69 133q36 17 80 16t82 -12.5t63 -27.5q0 84 -124 84l7 64q38 0 68.5 -4.5t51.5 -15t37 -21.5t25 -29t15 -31.5t8 -36.5t2.5 -36t0.5 -37zM329 79v191q-24 14 -55.5 24.5t-66 14.5t-58 -12t-23.5 -55v-66
q0 -129 203 -97zM255 540h-63l-56 73q-15 21 -10.5 39t22.5 26q14 6 32.5 -0.5t26.5 -26.5z" />
    <glyph glyph-name="aacute" unicode="&#xe1;" horiz-adv-x="474" 
d="M420 298v-298q-152 -14 -213 -8q-164 18 -172 163v14v83q0 99 69 133q36 17 80 16t82 -12.5t63 -27.5q0 84 -124 84l7 64q38 0 68.5 -4.5t51.5 -15t37 -21.5t25 -29t15 -31.5t8 -36.5t2.5 -36t0.5 -37zM329 79v191q-24 14 -55.5 24.5t-66 14.5t-58 -12t-23.5 -55v-66
q0 -129 203 -97zM278 538h-63l48 111q8 20 26.5 26.5t32.5 0.5q18 -8 22.5 -26t-10.5 -39z" />
    <glyph glyph-name="acircumflex" unicode="&#xe2;" horiz-adv-x="474" 
d="M420 298v-298q-152 -14 -213 -8q-164 18 -172 163v14v83q0 99 69 133q36 17 80 16t82 -12.5t63 -27.5q0 84 -124 84l7 64q38 0 68.5 -4.5t51.5 -15t37 -21.5t25 -29t15 -31.5t8 -36.5t2.5 -36t0.5 -37zM329 79v191q-24 14 -55.5 24.5t-66 14.5t-58 -12t-23.5 -55v-66
q0 -129 203 -97zM382 578l-57 -39l-86 90l-91 -90l-56 39l148 141z" />
    <glyph glyph-name="atilde" unicode="&#xe3;" horiz-adv-x="474" 
d="M420 298v-298q-152 -14 -213 -8q-164 18 -172 163v14v83q0 99 69 133q36 17 80 16t82 -12.5t63 -27.5q0 84 -124 84l7 64q38 0 68.5 -4.5t51.5 -15t37 -21.5t25 -29t15 -31.5t8 -36.5t2.5 -36t0.5 -37zM329 79v191q-24 14 -55.5 24.5t-66 14.5t-58 -12t-23.5 -55v-66
q0 -129 203 -97zM369 648l36 -56q-34 -40 -68 -49t-63 3t-57 25t-60.5 9.5t-62.5 -35.5l-34 56q35 39 70 48.5t64 -2t57.5 -24t59 -9.5t58.5 34z" />
    <glyph glyph-name="adieresis" unicode="&#xe4;" horiz-adv-x="474" 
d="M420 298v-298q-152 -14 -213 -8q-164 18 -172 163v14v83q0 99 69 133q36 17 80 16t82 -12.5t63 -27.5q0 84 -124 84l7 64q38 0 68.5 -4.5t51.5 -15t37 -21.5t25 -29t15 -31.5t8 -36.5t2.5 -36t0.5 -37zM329 79v191q-24 14 -55.5 24.5t-66 14.5t-58 -12t-23.5 -55v-66
q0 -129 203 -97zM208 579q0 -17 -12 -28.5t-29 -11.5t-28.5 11.5t-11.5 28.5t11.5 29t28.5 12t29 -12t12 -29zM308 539q-17 0 -29 12t-12 29q0 16 12.5 28.5t28.5 12.5q17 0 29 -12t12 -29t-12 -29t-29 -12z" />
    <glyph glyph-name="aring" unicode="&#xe5;" horiz-adv-x="475" 
d="M421 298v-298q-152 -14 -213 -8q-164 18 -172 163v14v83q0 99 69 133q36 17 80 16t82 -12.5t63 -27.5q0 84 -124 84v1q-41 5 -68.5 35.5t-27.5 72.5q0 45 32 77t77 32t77 -32t32 -77q0 -31 -16 -57q31 -9 53 -26.5t32.5 -34.5t16 -45t6.5 -45t1 -48zM330 79v191
q-24 14 -55.5 24.5t-66 14.5t-58 -12t-23.5 -55v-66q0 -129 203 -97zM262 554q0 18 -12.5 30.5t-30.5 12.5t-30.5 -12.5t-12.5 -30.5t12.5 -30.5t30.5 -12.5t30.5 12.5t12.5 30.5z" />
    <glyph glyph-name="ae" unicode="&#xe6;" horiz-adv-x="729" 
d="M630 112l34 -77q-74 -45 -165 -47q-48 -2 -84 12q-153 -15 -216 -7q-158 21 -164 164v12v83q0 99 69 133q36 17 80 16t82 -12.5t63 -27.5q0 84 -124 84l7 64q114 0 164 -47q50 48 137 48q83 0 129.5 -44.5t46.5 -123.5v-144l-268 -15v-39q0 -40 27 -58.5t74.5 -12
t107.5 38.5zM329 79v191q-24 14 -55.5 24.5t-66 14.5t-58 -12t-23.5 -55v-66q0 -129 203 -97zM597 278v65q0 41 -26 60.5t-59 19.5q-44 0 -67.5 -23.5t-23.5 -61.5v-70z" />
    <glyph glyph-name="ccedilla" unicode="&#xe7;" horiz-adv-x="397" 
d="M96 -204l31 66q37 -25 78 -25q24 0 42 10t18 31q0 22 -20 29t-55 -8l-41 -19l-29 42l58 75q-7 1 -21 5q-59 20 -85.5 61.5t-26.5 116.5v128q0 71 28 119t74 67t103 15t115 -31l-25 -76q-89 35 -146.5 10t-57.5 -98v-145q0 -39 22.5 -61t57 -26.5t67 -1.5t60.5 12l24 -86
q-75 -19 -133 -16l-24 -34q16 7 35 7q34 0 59 -22.5t25 -62.5q0 -53 -41.5 -77.5t-92.5 -24.5q-44 0 -99 20z" />
    <glyph glyph-name="egrave" unicode="&#xe8;" horiz-adv-x="448" 
d="M349 112l34 -77q-74 -45 -165 -47q-78 -2 -124 34.5t-46 111.5v205q0 81 50.5 126t133.5 45t129.5 -44.5t46.5 -123.5v-144l-268 -15v-39q0 -40 27 -58.5t74.5 -12t107.5 38.5zM316 278v65q0 41 -26 60.5t-59 19.5q-43 0 -67 -23.5t-24 -61.5v-70zM260 540h-63l-56 73
q-15 21 -10.5 39t22.5 26q14 6 32.5 -0.5t26.5 -26.5z" />
    <glyph glyph-name="eacute" unicode="&#xe9;" horiz-adv-x="448" 
d="M349 112l34 -77q-74 -45 -165 -47q-78 -2 -124 34.5t-46 111.5v205q0 81 50.5 126t133.5 45t129.5 -44.5t46.5 -123.5v-144l-268 -15v-39q0 -40 27 -58.5t74.5 -12t107.5 38.5zM316 278v65q0 41 -26 60.5t-59 19.5q-43 0 -67 -23.5t-24 -61.5v-70zM273 538h-63l48 111
q8 20 26.5 26.5t32.5 0.5q18 -8 22.5 -26t-10.5 -39z" />
    <glyph glyph-name="ecircumflex" unicode="&#xea;" horiz-adv-x="448" 
d="M349 112l34 -77q-74 -45 -165 -47q-78 -2 -124 34.5t-46 111.5v205q0 81 50.5 126t133.5 45t129.5 -44.5t46.5 -123.5v-144l-268 -15v-39q0 -40 27 -58.5t74.5 -12t107.5 38.5zM316 278v65q0 41 -26 60.5t-59 19.5q-43 0 -67 -23.5t-24 -61.5v-70zM388 578l-57 -39
l-86 90l-91 -90l-56 39l148 141z" />
    <glyph glyph-name="edieresis" unicode="&#xeb;" horiz-adv-x="448" 
d="M349 112l34 -77q-74 -45 -165 -47q-78 -2 -124 34.5t-46 111.5v205q0 81 50.5 126t133.5 45t129.5 -44.5t46.5 -123.5v-144l-268 -15v-39q0 -40 27 -58.5t74.5 -12t107.5 38.5zM316 278v65q0 41 -26 60.5t-59 19.5q-43 0 -67 -23.5t-24 -61.5v-70zM199 579
q0 -17 -12 -28.5t-29 -11.5q-16 0 -28 11.5t-12 28.5t11.5 29t28.5 12t29 -12t12 -29zM299 539q-17 0 -29 12t-12 29q0 16 12 28.5t29 12.5t29 -12t12 -29t-12 -29t-29 -12z" />
    <glyph glyph-name="igrave" unicode="&#xec;" 
d="M135 540h-63l-56 73q-15 21 -10.5 39t22.5 26q14 6 32.5 -0.5t26.5 -26.5zM153 0h-91v501h91v-501z" />
    <glyph glyph-name="iacute" unicode="&#xed;" 
d="M143 538h-63l48 111q8 20 26.5 26.5t32.5 0.5q18 -8 22.5 -26t-10.5 -39zM153 0h-91v501h91v-501z" />
    <glyph glyph-name="icircumflex" unicode="&#xee;" 
d="M251 578l-57 -39l-86 90l-91 -90l-56 39l148 141zM153 0h-91v501h91v-501z" />
    <glyph glyph-name="idieresis" unicode="&#xef;" 
d="M79 579q0 -17 -12 -28.5t-29 -11.5q-16 0 -28 11.5t-12 28.5t11.5 29t28.5 12t29 -12t12 -29zM179 539q-17 0 -29 12t-12 29q0 16 12 28.5t29 12.5t29 -12t12 -29t-12 -29t-29 -12zM153 0h-91v501h91v-501z" />
    <glyph glyph-name="eth" unicode="&#xf0;" horiz-adv-x="241" 
 />
    <glyph glyph-name="ntilde" unicode="&#xf1;" horiz-adv-x="488" 
d="M431 0h-91v325q0 48 -29.5 73t-72.5 24.5t-86 -22.5v-400h-90v501h83l7 -16q37 20 90 23.5t104 -17.5q85 -39 85 -145v-346zM385 649l36 -56q-34 -40 -68 -49t-63 3t-57 25t-60.5 9.5t-62.5 -35.5l-34 56q35 39 70 48.5t64 -2t57.5 -24t59 -9.5t58.5 34z" />
    <glyph glyph-name="ograve" unicode="&#xf2;" horiz-adv-x="461" 
d="M417 316v-132q0 -84 -46 -139t-139 -55t-140.5 55.5t-47.5 138.5v132q0 95 48.5 145.5t139.5 50.5q87 0 136 -52.5t49 -143.5zM327 174v142q0 106 -95 106q-97 0 -97 -106v-142q0 -47 27 -71.5t70 -24.5t69 25t26 71zM255 540h-63l-56 73q-15 21 -10.5 39t22.5 26
q14 6 32.5 -0.5t26.5 -26.5z" />
    <glyph glyph-name="oacute" unicode="&#xf3;" horiz-adv-x="461" 
d="M417 316v-132q0 -84 -46 -139t-139 -55t-140.5 55.5t-47.5 138.5v132q0 95 48.5 145.5t139.5 50.5q87 0 136 -52.5t49 -143.5zM327 174v142q0 106 -95 106q-97 0 -97 -106v-142q0 -47 27 -71.5t70 -24.5t69 25t26 71zM268 538h-63l48 111q8 20 26.5 26.5t32.5 0.5
q18 -8 22.5 -26t-10.5 -39z" />
    <glyph glyph-name="ocircumflex" unicode="&#xf4;" horiz-adv-x="461" 
d="M417 316v-132q0 -84 -46 -139t-139 -55t-140.5 55.5t-47.5 138.5v132q0 95 48.5 145.5t139.5 50.5q87 0 136 -52.5t49 -143.5zM327 174v142q0 106 -95 106q-97 0 -97 -106v-142q0 -47 27 -71.5t70 -24.5t69 25t26 71zM380 578l-57 -39l-86 90l-91 -90l-56 39l148 141z
" />
    <glyph glyph-name="otilde" unicode="&#xf5;" horiz-adv-x="461" 
d="M417 316v-132q0 -84 -46 -139t-139 -55t-140.5 55.5t-47.5 138.5v132q0 95 48.5 145.5t139.5 50.5q87 0 136 -52.5t49 -143.5zM327 174v142q0 106 -95 106q-97 0 -97 -106v-142q0 -47 27 -71.5t70 -24.5t69 25t26 71zM376 632l36 -56q-34 -40 -68 -49t-63 3t-57 25
t-60.5 9.5t-62.5 -35.5l-34 56q35 39 70 48.5t64 -2t57.5 -24t59 -9.5t58.5 34z" />
    <glyph glyph-name="odieresis" unicode="&#xf6;" horiz-adv-x="461" 
d="M417 316v-132q0 -84 -46 -139t-139 -55t-140.5 55.5t-47.5 138.5v132q0 95 48.5 145.5t139.5 50.5q87 0 136 -52.5t49 -143.5zM327 174v142q0 106 -95 106q-97 0 -97 -106v-142q0 -47 27 -71.5t70 -24.5t69 25t26 71zM206 579q0 -17 -12 -28.5t-29 -11.5t-28.5 11.5
t-11.5 28.5t11.5 29t28.5 12t29 -12t12 -29zM306 539q-17 0 -29 12t-12 29q0 16 12.5 28.5t28.5 12.5q17 0 29 -12t12 -29t-12 -29t-29 -12z" />
    <glyph glyph-name="divide" unicode="&#xf7;" horiz-adv-x="422" 
d="M371 346h-320v77h320v-77zM214 458q-19 0 -33 14t-14 33t14 32.5t33 13.5t32.5 -13.5t13.5 -32.5t-13.5 -33t-32.5 -14zM214 213q-20 0 -33.5 13.5t-13.5 33.5q0 19 14 32.5t33 13.5t32.5 -13.5t13.5 -32.5t-13.5 -33t-32.5 -14z" />
    <glyph glyph-name="oslash" unicode="&#xf8;" horiz-adv-x="469" 
d="M142 -67h-88l46 108q-52 52 -52 143v132q0 95 48.5 145.5t139.5 50.5q34 0 62 -9l37 85h90l-55 -127q51 -53 51 -145v-132q0 -84 -46 -139t-139 -55q-36 0 -66 9zM331 174v142q0 23 -5 43l-120 -278q14 -3 30 -3q43 0 69 25t26 71zM143 141l119 278q-12 3 -26 3
q-97 0 -97 -106v-142q0 -20 4 -33z" />
    <glyph glyph-name="ugrave" unicode="&#xf9;" horiz-adv-x="492" 
d="M430 0h-86l-3 22q-40 -33 -96 -33q-188 0 -188 183v329h91v-321q0 -103 97 -103q94 0 94 106v318h91v-501zM275 540h-63l-56 73q-15 21 -10.5 39t22.5 26q14 6 32.5 -0.5t26.5 -26.5z" />
    <glyph glyph-name="uacute" unicode="&#xfa;" horiz-adv-x="492" 
d="M430 0h-86l-3 22q-40 -33 -96 -33q-188 0 -188 183v329h91v-321q0 -103 97 -103q94 0 94 106v318h91v-501zM281 538h-63l48 111q8 20 26.5 26.5t32.5 0.5q18 -8 22.5 -26t-10.5 -39z" />
    <glyph glyph-name="ucircumflex" unicode="&#xfb;" horiz-adv-x="492" 
d="M430 0h-86l-3 22q-40 -33 -96 -33q-188 0 -188 183v329h91v-321q0 -103 97 -103q94 0 94 106v318h91v-501zM389 578l-57 -39l-86 90l-91 -90l-56 39l148 141z" />
    <glyph glyph-name="udieresis" unicode="&#xfc;" horiz-adv-x="492" 
d="M430 0h-86l-3 22q-40 -33 -96 -33q-188 0 -188 183v329h91v-321q0 -103 97 -103q94 0 94 106v318h91v-501zM214 579q0 -17 -12 -28.5t-29 -11.5t-28.5 11.5t-11.5 28.5t11.5 29t28.5 12t29 -12t12 -29zM314 539q-17 0 -29 12t-12 29q0 16 12.5 28.5t28.5 12.5
q17 0 29 -12t12 -29t-12 -29t-29 -12z" />
    <glyph glyph-name="yacute" unicode="&#xfd;" horiz-adv-x="509" 
d="M306 -210l-33 72q67 11 67 80v76q-32 -30 -102 -30q-88 0 -135.5 47.5t-47.5 140.5v325h90v-309q0 -63 23 -89t70 -26q50 0 76 25.5t26 89.5v171q0 55 27.5 96.5t81.5 50.5l32 -72q-51 -14 -51 -72v-427q0 -64 -28 -100.5t-96 -48.5zM276 538h-63l48 111q8 20 26.5 26.5
t32.5 0.5q18 -8 22.5 -26t-10.5 -39z" />
    <glyph glyph-name="thorn" unicode="&#xfe;" horiz-adv-x="466" 
d="M152 0h-90v588h90v-109q40 30 97 30q93 0 141.5 -54t48.5 -140q0 -94 -51.5 -146.5t-134.5 -52.5q-63 0 -101 39v-155zM152 320q0 -61 29 -89.5t72 -28.5q39 0 67.5 27.5t28.5 87.5q0 46 -26 76t-70 30q-39 0 -69.5 -27t-31.5 -76z" />
    <glyph glyph-name="ydieresis" unicode="&#xff;" horiz-adv-x="509" 
d="M306 -210l-33 72q67 11 67 80v76q-32 -30 -102 -30q-88 0 -135.5 47.5t-47.5 140.5v325h90v-309q0 -63 23 -89t70 -26q50 0 76 25.5t26 89.5v171q0 55 27.5 96.5t81.5 50.5l32 -72q-51 -14 -51 -72v-427q0 -64 -28 -100.5t-96 -48.5zM318 539q-17 0 -29 12t-12 29
q0 16 12.5 28.5t28.5 12.5q17 0 29 -12t12 -29t-12 -29t-29 -12zM218 579q0 -17 -12 -28.5t-29 -11.5t-28.5 11.5t-11.5 28.5t11.5 29t28.5 12t29 -12t12 -29z" />
    <glyph glyph-name="Amacron" unicode="&#x100;" horiz-adv-x="524" 
d="M514 0h-106l-55 205h-184l-53 -205h-101l185 700h119zM331 300l-72 250l-68 -250h140zM365 730h-217v79h217v-79z" />
    <glyph glyph-name="amacron" unicode="&#x101;" horiz-adv-x="474" 
d="M420 298v-298q-152 -14 -213 -8q-164 18 -172 163v14v83q0 99 69 133q36 17 80 16t82 -12.5t63 -27.5q0 84 -124 84l7 64q38 0 68.5 -4.5t51.5 -15t37 -21.5t25 -29t15 -31.5t8 -36.5t2.5 -36t0.5 -37zM329 79v191q-24 14 -55.5 24.5t-66 14.5t-58 -12t-23.5 -55v-66
q0 -129 203 -97zM343 538h-217v79h217v-79z" />
    <glyph glyph-name="Abreve" unicode="&#x102;" horiz-adv-x="524" 
d="M514 0h-106l-55 205h-184l-53 -205h-101l185 700h119zM331 300l-72 250l-68 -250h140zM375 848v-5q0 -47 -33.5 -80t-79.5 -33t-79.5 33t-33.5 80v5h70v-5q0 -22 12 -34.5t31 -12.5t31.5 13t12.5 34v5h69z" />
    <glyph glyph-name="abreve" unicode="&#x103;" horiz-adv-x="474" 
d="M420 298v-298q-152 -14 -213 -8q-164 18 -172 163v14v83q0 99 69 133q36 17 80 16t82 -12.5t63 -27.5q0 84 -124 84l7 64q38 0 68.5 -4.5t51.5 -15t37 -21.5t25 -29t15 -31.5t8 -36.5t2.5 -36t0.5 -37zM329 79v191q-24 14 -55.5 24.5t-66 14.5t-58 -12t-23.5 -55v-66
q0 -129 203 -97zM379 656v-5q0 -47 -33.5 -80t-79.5 -33t-79.5 33t-33.5 80v5h70v-5q0 -22 12 -34.5t31 -12.5t31.5 13t12.5 34v5h69z" />
    <glyph glyph-name="Aogonek" unicode="&#x104;" horiz-adv-x="524" 
d="M503 -115l45 -48q-32 -50 -105 -50q-29 0 -60 22t-29 69q0 63 94 122h-40l-55 205h-184l-53 -205h-101l185 700h119l195 -700h-1q-96 -80 -95 -121q2 -31 35 -31q31 0 50 37zM331 300l-72 250l-68 -250h140z" />
    <glyph glyph-name="aogonek" unicode="&#x105;" horiz-adv-x="474" 
d="M409 -115l45 -48q-32 -50 -105 -50q-29 0 -60 22t-29 69q0 59 82 115q-55 -7 -109.5 -2.5t-98.5 18.5t-71.5 54.5t-27.5 105.5v83q0 99 69 133q36 17 80 16t82 -12.5t63 -27.5q0 84 -124 84l7 64q38 0 68.5 -4.5t51.5 -15t37 -21.5t25 -29t15 -31.5t8 -36.5t2.5 -36
t0.5 -37v-298h-1q-96 -80 -95 -121q2 -31 35 -31q31 0 50 37zM329 79v191q-24 14 -55.5 24.5t-66 14.5t-58 -12t-23.5 -55v-66q0 -129 203 -97z" />
    <glyph glyph-name="Cacute" unicode="&#x106;" horiz-adv-x="452" 
d="M409 107l15 -84q-49 -19 -98 -27.5t-97 -4t-84.5 24t-59 62t-22.5 105.5v321q0 76 21.5 115t65.5 66q50 28 120 25t129 -33l-26 -78q-48 18 -103 18q-48 0 -82 -25.5t-34 -78.5v-328q0 -45 22 -70t60 -30t80.5 1t92.5 21zM287 734h-63l48 111q8 20 26.5 26.5t32.5 0.5
q18 -8 22.5 -26t-10.5 -39z" />
    <glyph glyph-name="cacute" unicode="&#x107;" horiz-adv-x="397" 
d="M343 92l24 -86q-120 -32 -210 -4q-59 20 -85.5 61.5t-26.5 116.5v128q0 71 28 119t74 67t103 15t115 -31l-25 -76q-89 35 -146.5 10t-57.5 -98v-145q0 -39 22.5 -61t57 -26.5t67 -1.5t60.5 12zM239 538h-63l48 111q8 20 26.5 26.5t32.5 0.5q18 -8 22.5 -26t-10.5 -39z
" />
    <glyph glyph-name="Ccircumflex" unicode="&#x108;" horiz-adv-x="452" 
d="M399 771l-57 -39l-86 90l-91 -90l-56 39l148 141zM409 107l15 -84q-49 -19 -98 -27.5t-97 -4t-84.5 24t-59 62t-22.5 105.5v321q0 76 21.5 115t65.5 66q50 28 120 25t129 -33l-26 -78q-48 18 -103 18q-48 0 -82 -25.5t-34 -78.5v-328q0 -45 22 -70t60 -30t80.5 1t92.5 21
z" />
    <glyph glyph-name="ccircumflex" unicode="&#x109;" horiz-adv-x="397" 
d="M343 92l24 -86q-120 -32 -210 -4q-59 20 -85.5 61.5t-26.5 116.5v128q0 71 28 119t74 67t103 15t115 -31l-25 -76q-89 35 -146.5 10t-57.5 -98v-145q0 -39 22.5 -61t57 -26.5t67 -1.5t60.5 12zM369 579l-57 -39l-86 90l-91 -90l-56 39l148 141z" />
    <glyph glyph-name="Cdotaccent" unicode="&#x10a;" horiz-adv-x="452" 
d="M409 107l15 -84q-49 -19 -98 -27.5t-97 -4t-84.5 24t-59 62t-22.5 105.5v321q0 76 21.5 115t65.5 66q50 28 120 25t129 -33l-26 -78q-48 18 -103 18q-48 0 -82 -25.5t-34 -78.5v-328q0 -45 22 -70t60 -30t80.5 1t92.5 21zM263 730q-20 0 -35.5 15.5t-15.5 35.5
q0 19 15.5 34t35.5 15q19 0 34 -15t15 -34q0 -20 -15 -35.5t-34 -15.5z" />
    <glyph glyph-name="cdotaccent" unicode="&#x10b;" horiz-adv-x="397" 
d="M343 92l24 -86q-120 -32 -210 -4q-59 20 -85.5 61.5t-26.5 116.5v128q0 71 28 119t74 67t103 15t115 -31l-25 -76q-89 35 -146.5 10t-57.5 -98v-145q0 -39 22.5 -61t57 -26.5t67 -1.5t60.5 12zM232 538q-20 0 -35.5 15.5t-15.5 35.5q0 19 15.5 34t35.5 15t34.5 -15
t14.5 -34q0 -20 -15 -35.5t-34 -15.5z" />
    <glyph glyph-name="Ccaron" unicode="&#x10c;" horiz-adv-x="452" 
d="M409 107l15 -84q-49 -19 -98 -27.5t-97 -4t-84.5 24t-59 62t-22.5 105.5v321q0 76 21.5 115t65.5 66q50 28 120 25t129 -33l-26 -78q-48 18 -103 18q-48 0 -82 -25.5t-34 -78.5v-328q0 -45 22 -70t60 -30t80.5 1t92.5 21zM395 875l-142 -141l-148 141l56 39l91 -91l86 91
z" />
    <glyph glyph-name="ccaron" unicode="&#x10d;" horiz-adv-x="397" 
d="M343 92l24 -86q-120 -32 -210 -4q-59 20 -85.5 61.5t-26.5 116.5v128q0 71 28 119t74 67t103 15t115 -31l-25 -76q-89 35 -146.5 10t-57.5 -98v-145q0 -39 22.5 -61t57 -26.5t67 -1.5t60.5 12zM368 684l-142 -141l-148 141l56 39l91 -91l86 91z" />
    <glyph glyph-name="Dcaron" unicode="&#x10e;" horiz-adv-x="560" 
d="M287 0h-208v701h188q113 0 172.5 -62t59.5 -165v-274q0 -200 -212 -200zM408 190v294q0 65 -35.5 96t-95.5 31h-107v-528h101q22 0 38 1.5t36 8t32.5 17.5t21.5 31.5t9 48.5zM417 875l-142 -141l-148 141l56 39l91 -91l86 91z" />
    <glyph glyph-name="dcaron" unicode="&#x10f;" horiz-adv-x="508" 
d="M47 157v189q0 105 85 144q53 21 106.5 19.5t87.5 -19.5v210h90v-700q-86 -12 -159 -12t-132 30q-78 40 -78 139zM326 80v317q-38 20 -80.5 23t-75.5 -21.5t-33 -79.5v-167q0 -51 56 -70t133 -2zM501 537l-59 29q21 12 38.5 25t23.5 20l7 7l-11 3q-26 15 -26 44
q1 20 14.5 33t34.5 12t32.5 -18.5t11.5 -35.5q1 -60 -66 -119z" />
    <glyph glyph-name="Dcroat" unicode="&#x110;" horiz-adv-x="560" 
d="M287 0h-208v701h188q113 0 172.5 -62t59.5 -165v-274q0 -200 -212 -200zM408 190v294q0 65 -35.5 96t-95.5 31h-107v-528h101q22 0 38 1.5t36 8t32.5 17.5t21.5 31.5t9 48.5zM393 730h-217v79h217v-79z" />
    <glyph glyph-name="dcroat" unicode="&#x111;" horiz-adv-x="478" 
d="M478 545h-62v-545q-86 -12 -159 -12t-132 30q-78 40 -78 139v189q0 105 85 144q53 21 106.5 19.5t87.5 -19.5v55h-82v88h82v67h90v-67h62v-88zM326 80v317q-38 20 -80.5 23t-75.5 -21.5t-33 -79.5v-167q0 -51 56 -70t133 -2z" />
    <glyph glyph-name="Emacron" unicode="&#x112;" horiz-adv-x="460" 
d="M411 0h-332v700h334v-90h-243v-197h156l-27 -88h-129v-243h241v-82zM353 730h-217v79h217v-79z" />
    <glyph glyph-name="emacron" unicode="&#x113;" horiz-adv-x="448" 
d="M349 112l34 -77q-74 -45 -165 -47q-78 -2 -124 34.5t-46 111.5v205q0 81 50.5 126t133.5 45t129.5 -44.5t46.5 -123.5v-144l-268 -15v-39q0 -40 27 -58.5t74.5 -12t107.5 38.5zM316 278v65q0 41 -26 60.5t-59 19.5q-43 0 -67 -23.5t-24 -61.5v-70zM338 538h-216v79h216
v-79z" />
    <glyph glyph-name="Edotaccent" unicode="&#x116;" horiz-adv-x="460" 
d="M411 0h-332v700h334v-90h-243v-197h156l-27 -88h-129v-243h241v-82zM257 730q-20 0 -35.5 15.5t-15.5 35.5q0 19 15.5 34t35.5 15q19 0 34 -15t15 -34q0 -20 -15 -35.5t-34 -15.5z" />
    <glyph glyph-name="edotaccent" unicode="&#x117;" horiz-adv-x="448" 
d="M349 112l34 -77q-74 -45 -165 -47q-78 -2 -124 34.5t-46 111.5v205q0 81 50.5 126t133.5 45t129.5 -44.5t46.5 -123.5v-144l-268 -15v-39q0 -40 27 -58.5t74.5 -12t107.5 38.5zM316 278v65q0 41 -26 60.5t-59 19.5q-43 0 -67 -23.5t-24 -61.5v-70zM236 538
q-20 0 -35.5 15.5t-15.5 35.5q0 19 15.5 34t35.5 15t34.5 -15t14.5 -34q0 -20 -15 -35.5t-34 -15.5z" />
    <glyph glyph-name="Eogonek" unicode="&#x118;" horiz-adv-x="460" 
d="M400 -115l45 -48q-32 -50 -105 -50q-29 0 -60 22t-29 69q0 63 94 122h-266v700h334v-90h-243v-197h156l-27 -88h-129v-243h241v-82h-1q-96 -80 -95 -121q2 -31 35 -31q32 0 50 37z" />
    <glyph glyph-name="eogonek" unicode="&#x119;" horiz-adv-x="448" 
d="M275 -115l45 -48q-32 -50 -105 -50q-29 0 -60 22t-29 69q0 56 76 110q-71 2 -112.5 38t-41.5 108v205q0 81 50.5 126t133.5 45t129.5 -44.5t46.5 -123.5v-144l-268 -15v-39q0 -40 27 -58.5t74.5 -12t107.5 38.5l34 -77q-48 -30 -105 -40q-89 -76 -88 -116q2 -31 35 -31
q31 0 50 37zM316 278v65q0 41 -26 60.5t-59 19.5q-43 0 -67 -23.5t-24 -61.5v-70z" />
    <glyph glyph-name="Ecaron" unicode="&#x11a;" horiz-adv-x="460" 
d="M411 0h-332v700h334v-90h-243v-197h156l-27 -88h-129v-243h241v-82zM393 875l-142 -141l-148 141l56 39l91 -91l86 91z" />
    <glyph glyph-name="ecaron" unicode="&#x11b;" horiz-adv-x="448" 
d="M349 112l34 -77q-74 -45 -165 -47q-78 -2 -124 34.5t-46 111.5v205q0 81 50.5 126t133.5 45t129.5 -44.5t46.5 -123.5v-144l-268 -15v-39q0 -40 27 -58.5t74.5 -12t107.5 38.5zM316 278v65q0 41 -26 60.5t-59 19.5q-43 0 -67 -23.5t-24 -61.5v-70zM377 684l-142 -141
l-148 141l56 39l91 -91l86 91z" />
    <glyph glyph-name="Gcircumflex" unicode="&#x11c;" horiz-adv-x="518" 
d="M473 0h-82l-9 20q-44 -30 -109 -30q-88 0 -149.5 50t-61.5 149v314q0 128 87 181q50 28 120 25t129 -33l-27 -78q-51 19 -97 19q-121 0 -121 -105v-325q0 -106 119 -106q48 0 79.5 26t31.5 79v26h-60l-30 88h180v-300zM424 771l-57 -39l-86 90l-91 -90l-56 39l148 141z
" />
    <glyph glyph-name="gcircumflex" unicode="&#x11d;" horiz-adv-x="485" 
d="M405 579l-57 -39l-86 90l-91 -90l-56 39l148 141zM283 -210l-22 71q71 9 71 87v79q-25 -39 -100 -39q-88 0 -137 48t-49 140v149q0 88 51.5 136.5t138.5 48.5q74 0 98 -36l12 27h77v-565q0 -135 -140 -146zM332 211v111q0 48 -26 73.5t-74 25.5q-45 0 -70 -27t-25 -74
v-137q0 -50 23.5 -79t71.5 -29q100 0 100 136z" />
    <glyph glyph-name="Gbreve" unicode="&#x11e;" horiz-adv-x="518" 
d="M473 0h-82l-9 20q-44 -30 -109 -30q-88 0 -149.5 50t-61.5 149v314q0 128 87 181q50 28 120 25t129 -33l-27 -78q-51 19 -97 19q-121 0 -121 -105v-325q0 -106 119 -106q48 0 79.5 26t31.5 79v26h-60l-30 88h180v-300zM386 846v-5q0 -47 -33 -80t-80 -33t-80 33t-33 80v5
h70v-5q0 -22 12 -34.5t31 -12.5t31.5 13t12.5 34v5h69z" />
    <glyph glyph-name="gbreve" unicode="&#x11f;" horiz-adv-x="485" 
d="M363 650v-5q0 -47 -33.5 -80t-79.5 -33t-79.5 33t-33.5 80v5h70v-5q0 -22 12 -34.5t31 -12.5t31.5 13t12.5 34v5h69zM283 -210l-22 71q71 9 71 87v79q-25 -39 -100 -39q-88 0 -137 48t-49 140v149q0 88 51.5 136.5t138.5 48.5q74 0 98 -36l12 27h77v-565
q0 -135 -140 -146zM332 211v111q0 48 -26 73.5t-74 25.5q-45 0 -70 -27t-25 -74v-137q0 -50 23.5 -79t71.5 -29q100 0 100 136z" />
    <glyph glyph-name="Gdotaccent" unicode="&#x120;" horiz-adv-x="518" 
d="M270 729q-20 0 -35.5 15.5t-15.5 35.5q0 19 15.5 34t35.5 15t34.5 -14.5t14.5 -34.5t-15 -35.5t-34 -15.5zM473 0h-82l-9 20q-44 -30 -109 -30q-88 0 -149.5 50t-61.5 149v314q0 128 87 181q50 28 120 25t129 -33l-27 -78q-51 19 -97 19q-121 0 -121 -105v-325
q0 -106 119 -106q48 0 79.5 26t31.5 79v26h-60l-30 88h180v-300z" />
    <glyph glyph-name="gdotaccent" unicode="&#x121;" horiz-adv-x="485" 
d="M248 537q-20 0 -35.5 15.5t-15.5 35.5q0 19 15.5 34t35.5 15t34.5 -14.5t14.5 -34.5t-15 -35.5t-34 -15.5zM283 -210l-22 71q71 9 71 87v79q-25 -39 -100 -39q-88 0 -137 48t-49 140v149q0 88 51.5 136.5t138.5 48.5q74 0 98 -36l12 27h77v-565q0 -135 -140 -146z
M332 211v111q0 48 -26 73.5t-74 25.5q-45 0 -70 -27t-25 -74v-137q0 -50 23.5 -79t71.5 -29q100 0 100 136z" />
    <glyph glyph-name="Gcommaaccent" unicode="&#x122;" horiz-adv-x="518" 
d="M473 0h-82l-9 20q-44 -30 -109 -30q-88 0 -149.5 50t-61.5 149v314q0 128 87 181q50 28 120 25t129 -33l-27 -78q-51 19 -97 19q-121 0 -121 -105v-325q0 -106 119 -106q48 0 79.5 26t31.5 79v26h-60l-30 88h180v-300zM250 -206l-59 29q21 12 38.5 25t24.5 20l6 7l-11 3
q-26 15 -26 44q1 20 14.5 33t34.5 12t32.5 -18.5t11.5 -35.5q1 -60 -66 -119z" />
    <glyph glyph-name="gcommaaccent" unicode="&#x123;" horiz-adv-x="485" 
d="M283 -210l-22 71q71 9 71 87v79q-25 -39 -100 -39q-88 0 -137 48t-49 140v149q0 88 51.5 136.5t138.5 48.5q74 0 98 -36l12 27h77v-565q0 -135 -140 -146zM332 211v111q0 48 -26 73.5t-74 25.5q-45 0 -70 -27t-25 -74v-137q0 -50 23.5 -79t71.5 -29q100 0 100 136z
M245 633l11 -3q26 -15 26 -44q-1 -20 -14.5 -33t-34.5 -12t-32.5 18.5t-11.5 35.5q-1 60 66 119l59 -29q-21 -12 -38.5 -25t-23.5 -20z" />
    <glyph glyph-name="Hcircumflex" unicode="&#x124;" horiz-adv-x="588" 
d="M509 0h-90v325h-249v-325h-91v700h91v-287h249v287h90v-700zM451 771l-57 -39l-86 90l-91 -90l-56 39l148 141z" />
    <glyph glyph-name="hcircumflex" unicode="&#x125;" horiz-adv-x="488" 
d="M253 771l-57 -39l-86 90l-91 -90l-56 39l148 141zM431 0h-91v320q0 48 -21.5 74t-53 29.5t-61.5 -2.5t-51 -19v-402h-91v700h91v-211q32 18 87 20.5t106 -18.5q85 -39 85 -145v-346z" />
    <glyph glyph-name="Hbar" unicode="&#x126;" horiz-adv-x="617" 
d="M524 0h-90v325h-249v-325h-91v476h-49v88h49v136h91v-136h249v136h90v-136h48v-88h-48v-476zM434 413v63h-249v-63h249z" />
    <glyph glyph-name="hbar" unicode="&#x127;" horiz-adv-x="488" 
d="M431 0h-91v320q0 48 -21.5 74t-53 29.5t-61.5 -2.5t-51 -19v-402h-91v545h-61v88h61v67h91v-67h82v-88h-82v-56q32 18 87 20.5t106 -18.5q85 -39 85 -145v-346z" />
    <glyph glyph-name="Itilde" unicode="&#x128;" horiz-adv-x="271" 
d="M192 0h-92v612l-63 2v86h155v-700zM272 821l36 -56q-34 -40 -68 -49t-63 3t-57 25t-60.5 9.5t-62.5 -35.5l-34 56q35 39 70 48.5t64 -2t57.5 -24t59 -9.5t58.5 34z" />
    <glyph glyph-name="itilde" unicode="&#x129;" 
d="M256 622l36 -56q-34 -40 -68 -49t-63 3t-57 25t-60.5 9.5t-62.5 -35.5l-34 56q35 39 70 48.5t64 -2t57.5 -24t59 -9.5t58.5 34zM153 0h-91v501h91v-501z" />
    <glyph glyph-name="Imacron" unicode="&#x12a;" horiz-adv-x="271" 
d="M192 0h-92v612l-63 2v86h155v-700zM236 730h-216v79h216v-79z" />
    <glyph glyph-name="imacron" unicode="&#x12b;" 
d="M213 538h-217v79h217v-79zM153 0h-91v501h91v-501z" />
    <glyph glyph-name="Iogonek" unicode="&#x12e;" horiz-adv-x="271" 
d="M182 -115l45 -48q-32 -50 -105 -50q-29 0 -60 22t-29 69q0 63 94 122h-27v612l-63 2v86h155v-700q-96 -80 -95 -121q2 -31 35 -31q32 0 50 37z" />
    <glyph glyph-name="iogonek" unicode="&#x12f;" 
d="M141 -115l45 -48q-32 -50 -105 -50q-29 0 -60 22t-29 69q0 63 94 122h-24v501h91v-501h-2q-96 -80 -95 -121q2 -31 35 -31q31 0 50 37zM110 610q-20 0 -35.5 15.5t-15.5 35.5q0 19 15.5 34t35.5 15t34.5 -15t14.5 -34q0 -20 -15 -35.5t-34 -15.5z" />
    <glyph glyph-name="Idotaccent" unicode="&#x130;" horiz-adv-x="271" 
d="M192 0h-92v612l-63 2v86h155v-700zM150 730q-20 0 -35.5 15.5t-15.5 35.5q0 19 15.5 34t35.5 15t34.5 -15t14.5 -34q0 -20 -15 -35.5t-34 -15.5z" />
    <glyph glyph-name="dotlessi" unicode="&#x131;" 
d="M153 0h-91v501h91v-501z" />
    <glyph glyph-name="Jcircumflex" unicode="&#x134;" horiz-adv-x="286" 
d="M52 -37l-28 74q23 0 42.5 6t37 31t17.5 67v471l-62 2v86h152v-568q0 -88 -36.5 -128t-122.5 -41zM268 846v-5q0 -47 -33 -80t-80 -33t-80 33t-33 80v5h70v-5q0 -22 12 -34.5t31 -12.5t31.5 13t12.5 34v5h69z" />
    <glyph glyph-name="jcircumflex" unicode="&#x135;" horiz-adv-x="238" 
d="M263 579l-57 -39l-86 90l-91 -90l-56 39l148 141zM85 -42v457l-49 8l-23 78h163v-576q-2 -56 -44 -95t-98 -39l-22 70q3 0 8 1t17.5 7t22 15.5t17.5 29t8 44.5z" />
    <glyph glyph-name="Kcommaaccent" unicode="&#x136;" horiz-adv-x="515" 
d="M511 0h-112l-202 301l-22 -33v-268h-96v701h96v-274l184 274h109l-217 -317zM247 -206l-59 29q21 12 38.5 25t23.5 20l7 7l-11 3q-26 15 -26 44q1 20 14.5 33t34.5 12t32.5 -18.5t11.5 -35.5q1 -60 -66 -119z" />
    <glyph glyph-name="kcommaaccent" unicode="&#x137;" horiz-adv-x="459" 
d="M458 0h-113l-165 276l-27 -25v-251h-91v700h91v-334l167 154l67 -64l-137 -117q132 -219 208 -339zM220 -207l-59 29q21 12 38.5 25t24.5 20l6 7l-11 3q-26 15 -26 44q1 20 14.5 33t34.5 12t32.5 -18.5t11.5 -35.5q1 -60 -66 -119z" />
    <glyph glyph-name="kgreenlandic" unicode="&#x138;" horiz-adv-x="469" 
d="M453 79l-21 -80q-35 0 -65 18.5t-45.5 36.5t-43.5 56l-88 121l-37 -35v-196h-91v512l91 -13v-187l173 189h114l-184 -202l109 -154q48 -64 88 -66z" />
    <glyph glyph-name="Lacute" unicode="&#x139;" horiz-adv-x="452" 
d="M440 0h-361v700h91v-617h270v-83zM180 731h-63l48 111q8 20 26.5 26.5t32.5 0.5q18 -8 22.5 -26t-10.5 -39z" />
    <glyph glyph-name="lacute" unicode="&#x13a;" 
d="M153 0h-91v700h91v-700zM144 734h-63l48 111q8 20 26.5 26.5t32.5 0.5q18 -8 22.5 -26t-10.5 -39z" />
    <glyph glyph-name="Lcommaaccent" unicode="&#x13b;" horiz-adv-x="452" 
d="M440 0h-361v700h91v-617h270v-83zM247 -207l-59 29q21 12 38.5 25t23.5 20l7 7l-11 3q-26 15 -26 44q1 20 14.5 33t34.5 12t32.5 -18.5t11.5 -35.5q1 -60 -66 -119z" />
    <glyph glyph-name="lcommaaccent" unicode="&#x13c;" 
d="M153 0h-91v700h91v-700zM88 -207l-59 29q21 12 38.5 25t24.5 20l6 7l-11 3q-26 15 -26 44q1 20 14.5 33t34.5 12t32.5 -18.5t11.5 -35.5q1 -60 -66 -119z" />
    <glyph glyph-name="Lcaron" unicode="&#x13d;" horiz-adv-x="452" 
d="M440 0h-361v700h91v-617h270v-83zM269 875l-142 -141l-148 141l56 39l91 -91l86 91z" />
    <glyph glyph-name="lcaron" unicode="&#x13e;" horiz-adv-x="245" 
d="M153 0h-91v700h91v-700zM253 875l-142 -141l-148 141l56 39l91 -91l86 91z" />
    <glyph glyph-name="Lslash" unicode="&#x141;" horiz-adv-x="502" 
d="M487 0h-361v325l-82 -37l-31 70l113 51v291h91v-250l87 40l32 -71l-119 -54v-282h270v-83z" />
    <glyph glyph-name="lslash" unicode="&#x142;" horiz-adv-x="342" 
d="M223 0h-92v328l-90 -40l-31 70l121 55v199l-63 2v86h155v-246l78 36l32 -71l-110 -50v-369z" />
    <glyph glyph-name="Nacute" unicode="&#x143;" horiz-adv-x="650" 
d="M571 0h-92l-309 516v-516h-91v700h91l309 -514v514h92v-700zM342 730h-63l48 111q8 20 26.5 26.5t32.5 0.5q18 -8 22.5 -26t-10.5 -39z" />
    <glyph glyph-name="nacute" unicode="&#x144;" horiz-adv-x="488" 
d="M431 0h-91v325q0 48 -29.5 73t-72.5 24.5t-86 -22.5v-400h-90v501h83l7 -16q37 20 90 23.5t104 -17.5q85 -39 85 -145v-346zM278 538h-63l48 111q8 20 26.5 26.5t32.5 0.5q18 -8 22.5 -26t-10.5 -39z" />
    <glyph glyph-name="Ncommaaccent" unicode="&#x145;" horiz-adv-x="650" 
d="M571 0h-92l-309 516v-516h-91v700h91l309 -514v514h92v-700zM315 -203l-59 29q21 12 38.5 25t23.5 20l7 7l-11 3q-26 15 -26 44q1 20 14.5 33t34.5 12t32.5 -18.5t11.5 -35.5q1 -60 -66 -119z" />
    <glyph glyph-name="ncommaaccent" unicode="&#x146;" horiz-adv-x="488" 
d="M431 0h-91v325q0 48 -29.5 73t-72.5 24.5t-86 -22.5v-400h-90v501h83l7 -16q37 20 90 23.5t104 -17.5q85 -39 85 -145v-346zM225 -207l-59 29q21 12 38.5 25t23.5 20l7 7l-11 3q-26 15 -26 44q1 20 14.5 33t34.5 12t32.5 -18.5t11.5 -35.5q1 -60 -66 -119z" />
    <glyph glyph-name="Ncaron" unicode="&#x147;" horiz-adv-x="650" 
d="M571 0h-92l-309 516v-516h-91v700h91l309 -514v514h92v-700zM475 875l-142 -141l-148 141l56 39l91 -91l86 91z" />
    <glyph glyph-name="ncaron" unicode="&#x148;" horiz-adv-x="488" 
d="M431 0h-91v325q0 48 -29.5 73t-72.5 24.5t-86 -22.5v-400h-90v501h83l7 -16q37 20 90 23.5t104 -17.5q85 -39 85 -145v-346zM405 732l-142 -141l-148 141l56 39l91 -91l86 91z" />
    <glyph glyph-name="Eng" unicode="&#x14a;" horiz-adv-x="646" 
d="M479 186v426l-61 2v86h153v-553q0 -91 -46 -137t-113 -47q-5 12 -14 37t-14 37q39 0 62 19q-221 368 -276 460v-516h-91v700h91q169 -271 309 -514z" />
    <glyph glyph-name="eng" unicode="&#x14b;" horiz-adv-x="488" 
d="M341 -45v377q0 42 -21 64.5t-52.5 25t-61.5 -3.5t-54 -18v-400h-90v501h83l6 -15q28 19 85 22.5t110 -17.5q85 -39 85 -145v-420q-1 -59 -48 -97t-105 -38l-18 71q3 0 8.5 1t19.5 6t24.5 14t19.5 28t9 44z" />
    <glyph glyph-name="Omacron" unicode="&#x14c;" horiz-adv-x="544" 
d="M482 506v-321q0 -101 -61.5 -148.5t-147.5 -47.5t-148.5 47.5t-62.5 148.5v322q0 103 56.5 156t155.5 53t153.5 -56t54.5 -154zM391 199v287q0 66 -27.5 100t-91.5 34t-91.5 -33.5t-27.5 -99.5v-289q0 -56 31.5 -87t87.5 -31q54 0 86.5 31.5t32.5 87.5zM376 730h-217v79
h217v-79z" />
    <glyph glyph-name="omacron" unicode="&#x14d;" horiz-adv-x="461" 
d="M417 316v-132q0 -84 -46 -139t-139 -55t-140.5 55.5t-47.5 138.5v132q0 95 48.5 145.5t139.5 50.5q87 0 136 -52.5t49 -143.5zM327 174v142q0 106 -95 106q-97 0 -97 -106v-142q0 -47 27 -71.5t70 -24.5t69 25t26 71zM338 538h-216v79h216v-79z" />
    <glyph glyph-name="Ohungarumlaut" unicode="&#x150;" horiz-adv-x="544" 
d="M482 506v-321q0 -101 -61.5 -148.5t-147.5 -47.5t-148.5 47.5t-62.5 148.5v322q0 103 56.5 156t155.5 53t153.5 -56t54.5 -154zM391 199v287q0 66 -27.5 100t-91.5 34t-91.5 -33.5t-27.5 -99.5v-289q0 -56 31.5 -87t87.5 -31q54 0 86.5 31.5t32.5 87.5zM353 733h-63
l48 111q8 20 26.5 26.5t32.5 0.5q18 -8 22.5 -26t-10.5 -39zM222 733h-63l48 111q8 20 26.5 26.5t32.5 0.5q18 -8 22.5 -26t-10.5 -39z" />
    <glyph glyph-name="ohungarumlaut" unicode="&#x151;" horiz-adv-x="461" 
d="M417 316v-132q0 -84 -46 -139t-139 -55t-140.5 55.5t-47.5 138.5v132q0 95 48.5 145.5t139.5 50.5q87 0 136 -52.5t49 -143.5zM327 174v142q0 106 -95 106q-97 0 -97 -106v-142q0 -47 27 -71.5t70 -24.5t69 25t26 71zM316 543h-63l48 111q8 20 26.5 26.5t32.5 0.5
q18 -8 22.5 -26t-10.5 -39zM185 543h-63l48 111q8 20 26.5 26.5t32.5 0.5q18 -8 22.5 -26t-10.5 -39z" />
    <glyph glyph-name="OE" unicode="&#x152;" horiz-adv-x="772" 
d="M723 0h-332v16q-51 -27 -118 -27q-86 0 -148.5 47.5t-62.5 148.5v322q0 103 56.5 156t155.5 53q67 0 117 -28v12h334v-90h-243v-95v-9v-93h156l-27 -88h-129v-140v-11v-92h241v-82zM391 193v305q-2 60 -30 91t-89 31q-64 0 -91.5 -33.5t-27.5 -99.5v-289q0 -56 31.5 -87
t87.5 -31q52 0 84.5 30t34.5 83z" />
    <glyph glyph-name="oe" unicode="&#x153;" horiz-adv-x="749" 
d="M663 105l34 -70q-74 -45 -165 -47q-116 -3 -165 59q-46 -57 -135 -57q-93 0 -140.5 55.5t-47.5 138.5v132q0 95 48.5 145.5t139.5 50.5q96 0 145 -66q33 36 69 50t90 14q77 0 124 -50t47 -129v-137l-289 -19v-25q0 -43 38.5 -63t95 -14.5t111.5 32.5zM327 174v142
q0 111 -95 111q-97 0 -97 -111v-142q0 -54 29 -78.5t68 -24.5q38 0 66.5 24.5t28.5 78.5zM616 272v56q0 51 -27 75.5t-63 24.5q-51 0 -79.5 -28t-28.5 -83v-55z" />
    <glyph glyph-name="Racute" unicode="&#x154;" horiz-adv-x="567" 
d="M514 0h-93l-73 214q-8 -2 -23 -2h-155v-212h-91v700h240q96 0 145 -65t49 -165q0 -35 -1.5 -57.5t-8.5 -57t-25 -62.5t-46 -49zM170 300h135q27 0 47.5 7.5t32 23.5t19 30.5t10.5 38t3.5 36t0.5 34.5q0 78 -32.5 108.5t-94.5 30.5h-121v-309zM291 730h-63l48 111
q8 20 26.5 26.5t32.5 0.5q18 -8 22.5 -26t-10.5 -39z" />
    <glyph glyph-name="racute" unicode="&#x155;" horiz-adv-x="334" 
d="M153 0h-91v501h86l4 -15q31 16 66 20.5t56 1.5t57 -10l-22 -87q-49 24 -102.5 4.5t-53.5 -69.5v-346zM185 538h-63l48 111q8 20 26.5 26.5t32.5 0.5q18 -8 22.5 -26t-10.5 -39z" />
    <glyph glyph-name="Rcommaaccent" unicode="&#x156;" horiz-adv-x="567" 
d="M514 0h-93l-73 214q-8 -2 -23 -2h-155v-212h-91v700h240q96 0 145 -65t49 -165q0 -35 -1.5 -57.5t-8.5 -57t-25 -62.5t-46 -49zM170 300h135q27 0 47.5 7.5t32 23.5t19 30.5t10.5 38t3.5 36t0.5 34.5q0 78 -32.5 108.5t-94.5 30.5h-121v-309zM264 -208l-59 29
q21 12 38.5 25t24.5 20l6 7l-11 3q-26 15 -26 44q1 20 14.5 33t34.5 12t32.5 -18.5t11.5 -35.5q1 -60 -66 -119z" />
    <glyph glyph-name="rcommaaccent" unicode="&#x157;" horiz-adv-x="334" 
d="M153 0h-91v501h86l4 -15q31 16 66 20.5t56 1.5t57 -10l-22 -87q-49 24 -102.5 4.5t-53.5 -69.5v-346zM107 -207l-59 29q21 12 38.5 25t23.5 20l7 7l-11 3q-26 15 -26 44q1 20 14.5 33t34.5 12t32.5 -18.5t11.5 -35.5q1 -60 -66 -119z" />
    <glyph glyph-name="Rcaron" unicode="&#x158;" horiz-adv-x="567" 
d="M514 0h-93l-73 214q-8 -2 -23 -2h-155v-212h-91v700h240q96 0 145 -65t49 -165q0 -35 -1.5 -57.5t-8.5 -57t-25 -62.5t-46 -49zM170 300h135q27 0 47.5 7.5t32 23.5t19 30.5t10.5 38t3.5 36t0.5 34.5q0 78 -32.5 108.5t-94.5 30.5h-121v-309zM427 875l-142 -141l-148 141
l56 39l91 -91l86 91z" />
    <glyph glyph-name="rcaron" unicode="&#x159;" horiz-adv-x="334" 
d="M153 0h-91v501h86l4 -15q31 16 66 20.5t56 1.5t57 -10l-22 -87q-49 24 -102.5 4.5t-53.5 -69.5v-346zM350 732l-142 -141l-148 141l56 39l91 -91l86 91z" />
    <glyph glyph-name="Sacute" unicode="&#x15a;" horiz-adv-x="545" 
d="M41 178l97 11q5 -47 42 -79t96 -32q66 0 103 30t37 77q0 40 -19.5 69t-51.5 47t-70 33t-76 31.5t-70 37t-51.5 54.5t-19.5 80q0 70 58.5 121.5t167.5 51.5q83 0 146 -30l-4 -14q-5 -13 -12.5 -35t-12.5 -37q-59 24 -116 24q-64 0 -97.5 -24t-31.5 -64q2 -33 40 -58
t90.5 -45.5t104.5 -46t88.5 -73.5t36.5 -114q0 -90 -59 -147t-180 -57q-109 0 -171.5 57.5t-64.5 131.5zM306 734h-63l48 111q8 20 26.5 26.5t32.5 0.5q18 -8 22.5 -26t-10.5 -39z" />
    <glyph glyph-name="sacute" unicode="&#x15b;" horiz-adv-x="423" 
d="M34 127l90 7q2 -27 28 -45.5t67 -18.5q37 0 61.5 18.5t24.5 47.5q0 31 -25 51t-61.5 31.5t-73.5 25.5t-65.5 44t-33.5 77q-5 56 37.5 102t133.5 46q32 0 60 -7.5t40 -14.5l12 -7l-27 -82q-28 24 -85 24q-43 0 -60 -17.5t-14 -43.5q3 -21 31 -36t65 -27.5t73.5 -29.5
t62 -52t25.5 -85q0 -63 -45.5 -106.5t-135.5 -43.5q-85 0 -134 41t-51 101zM243 538h-63l48 111q8 20 26.5 26.5t32.5 0.5q18 -8 22.5 -26t-10.5 -39z" />
    <glyph glyph-name="Scircumflex" unicode="&#x15c;" horiz-adv-x="545" 
d="M41 178l97 11q5 -47 42 -79t96 -32q66 0 103 30t37 77q0 40 -19.5 69t-51.5 47t-70 33t-76 31.5t-70 37t-51.5 54.5t-19.5 80q0 70 58.5 121.5t167.5 51.5q83 0 146 -30l-4 -14q-5 -13 -12.5 -35t-12.5 -37q-59 24 -116 24q-64 0 -97.5 -24t-31.5 -64q2 -33 40 -58
t90.5 -45.5t104.5 -46t88.5 -73.5t36.5 -114q0 -90 -59 -147t-180 -57q-109 0 -171.5 57.5t-64.5 131.5zM419 771l-57 -39l-86 90l-91 -90l-56 39l148 141z" />
    <glyph glyph-name="scircumflex" unicode="&#x15d;" horiz-adv-x="423" 
d="M364 579l-57 -39l-86 90l-91 -90l-56 39l148 141zM34 127l90 7q2 -27 28 -45.5t67 -18.5q37 0 61.5 18.5t24.5 47.5q0 31 -25 51t-61.5 31.5t-73.5 25.5t-65.5 44t-33.5 77q-5 56 37.5 102t133.5 46q32 0 60 -7.5t40 -14.5l12 -7l-27 -82q-28 24 -85 24q-43 0 -60 -17.5
t-14 -43.5q3 -21 31 -36t65 -27.5t73.5 -29.5t62 -52t25.5 -85q0 -63 -45.5 -106.5t-135.5 -43.5q-85 0 -134 41t-51 101z" />
    <glyph glyph-name="scedilla" unicode="&#x15f;" horiz-adv-x="423" 
d="M101 -204l31 66q37 -25 78 -25q24 0 42 10t18 31q0 22 -20 29t-55 -8l-41 -19l-29 42l51 66q-66 10 -103 48.5t-39 90.5l90 7q2 -27 28 -45.5t67 -18.5q37 0 61.5 18.5t24.5 47.5q0 31 -25 51t-61.5 31.5t-73.5 25.5t-65.5 44t-33.5 77q-5 56 37.5 102t133.5 46
q32 0 60 -7.5t40 -14.5l12 -7l-27 -82q-28 24 -85 24q-43 0 -60 -17.5t-14 -43.5q3 -21 31 -36t65 -27.5t73.5 -29.5t62 -52t25.5 -85q0 -60 -41.5 -102.5t-122.5 -46.5l-21 -30q16 7 35 7q34 0 59 -22.5t25 -62.5q0 -53 -41.5 -77.5t-92.5 -24.5q-44 0 -99 20z" />
    <glyph glyph-name="Scaron" unicode="&#x160;" horiz-adv-x="545" 
d="M41 178l97 11q5 -47 42 -79t96 -32q66 0 103 30t37 77q0 40 -19.5 69t-51.5 47t-70 33t-76 31.5t-70 37t-51.5 54.5t-19.5 80q0 70 58.5 121.5t167.5 51.5q83 0 146 -30l-4 -14q-5 -13 -12.5 -35t-12.5 -37q-59 24 -116 24q-64 0 -97.5 -24t-31.5 -64q2 -33 40 -58
t90.5 -45.5t104.5 -46t88.5 -73.5t36.5 -114q0 -90 -59 -147t-180 -57q-109 0 -171.5 57.5t-64.5 131.5zM447 924l-142 -141l-148 141l56 39l91 -91l86 91z" />
    <glyph glyph-name="scaron" unicode="&#x161;" horiz-adv-x="423" 
d="M34 127l90 7q2 -27 28 -45.5t67 -18.5q37 0 61.5 18.5t24.5 47.5q0 31 -25 51t-61.5 31.5t-73.5 25.5t-65.5 44t-33.5 77q-5 56 37.5 102t133.5 46q32 0 60 -7.5t40 -14.5l12 -7l-27 -82q-28 24 -85 24q-43 0 -60 -17.5t-14 -43.5q3 -21 31 -36t65 -27.5t73.5 -29.5
t62 -52t25.5 -85q0 -63 -45.5 -106.5t-135.5 -43.5q-85 0 -134 41t-51 101zM360 731l-142 -141l-148 141l56 39l91 -91l86 91z" />
    <glyph glyph-name="Tcommaaccent" unicode="&#x162;" horiz-adv-x="434" 
d="M262 0h-91v610h-153v90h402v-90h-158v-610zM196 -206l-59 29q21 12 38.5 25t24.5 20l6 7l-11 3q-26 15 -26 44q1 20 14.5 33t34.5 12t32.5 -18.5t11.5 -35.5q1 -60 -66 -119z" />
    <glyph glyph-name="tcommaaccent" unicode="&#x163;" horiz-adv-x="268" 
d="M222 59l-27 -72q-136 12 -136 145v568h92v-199h104l-24 -86h-80v-283q0 -63 71 -73zM107 -206l-59 29q21 12 38.5 25t23.5 20l7 7l-11 3q-26 15 -26 44q1 20 14.5 33t34.5 12t32.5 -18.5t11.5 -35.5q1 -60 -66 -119z" />
    <glyph glyph-name="Tcaron" unicode="&#x164;" horiz-adv-x="434" 
d="M262 0h-91v610h-153v90h402v-90h-158v-610zM363 875l-142 -141l-148 141l56 39l91 -91l86 91z" />
    <glyph glyph-name="tcaron" unicode="&#x165;" horiz-adv-x="268" 
d="M222 59l-27 -72q-136 12 -136 145v568h92v-199h104l-24 -86h-80v-283q0 -63 71 -73zM273 875l-142 -141l-148 141l56 39l91 -91l86 91z" />
    <glyph glyph-name="Tbar" unicode="&#x166;" horiz-adv-x="434" 
d="M262 0h-91v610h-153v90h402v-90h-158v-610zM325 730h-217v79h217v-79z" />
    <glyph glyph-name="tbar" unicode="&#x167;" horiz-adv-x="312" 
d="M258 59l-27 -72q-136 12 -136 145v138h-70v88h70v342h92v-199h104l-24 -86h-80v-57h72v-88h-72v-138q0 -63 71 -73z" />
    <glyph glyph-name="Utilde" unicode="&#x168;" horiz-adv-x="571" 
d="M405 212v489h91v-515q0 -53 -18.5 -92t-50 -60t-66.5 -31t-75 -10t-75.5 10t-67 31t-50 60t-18.5 92v515h91v-489q0 -131 119 -131q120 0 120 131zM430 839l36 -56q-34 -40 -68 -49t-63 3t-57 25t-60.5 9.5t-62.5 -35.5l-34 56q35 39 70 48.5t64 -2t57.5 -24t59 -9.5
t58.5 34z" />
    <glyph glyph-name="utilde" unicode="&#x169;" horiz-adv-x="492" 
d="M430 0h-86l-3 22q-40 -33 -96 -33q-188 0 -188 183v329h91v-321q0 -103 97 -103q94 0 94 106v318h91v-501zM385 632l36 -56q-34 -40 -68 -49t-63 3t-57 25t-60.5 9.5t-62.5 -35.5l-34 56q35 39 70 48.5t64 -2t57.5 -24t59 -9.5t58.5 34z" />
    <glyph glyph-name="Umacron" unicode="&#x16a;" horiz-adv-x="571" 
d="M405 212v489h91v-515q0 -53 -18.5 -92t-50 -60t-66.5 -31t-75 -10t-75.5 10t-67 31t-50 60t-18.5 92v515h91v-489q0 -131 119 -131q120 0 120 131zM392 730h-217v79h217v-79z" />
    <glyph glyph-name="umacron" unicode="&#x16b;" horiz-adv-x="492" 
d="M430 0h-86l-3 22q-40 -33 -96 -33q-188 0 -188 183v329h91v-321q0 -103 97 -103q94 0 94 106v318h91v-501zM347 538h-217v79h217v-79z" />
    <glyph glyph-name="Ubreve" unicode="&#x16c;" horiz-adv-x="571" 
d="M405 212v489h91v-515q0 -53 -18.5 -92t-50 -60t-66.5 -31t-75 -10t-75.5 10t-67 31t-50 60t-18.5 92v515h91v-489q0 -131 119 -131q120 0 120 131zM398 842v-5q0 -47 -33 -80t-80 -33t-80 33t-33 80v5h70v-5q0 -22 12 -34.5t31 -12.5t31.5 13t12.5 34v5h69z" />
    <glyph glyph-name="ubreve" unicode="&#x16d;" horiz-adv-x="492" 
d="M362 653v-5q0 -46 -33 -79.5t-80 -33.5t-80 33.5t-33 79.5v5h70v-5q0 -22 12 -34.5t31 -12.5t31.5 13t12.5 34v5h69zM430 0h-86l-3 22q-40 -33 -96 -33q-188 0 -188 183v329h91v-321q0 -103 97 -103q94 0 94 106v318h91v-501z" />
    <glyph glyph-name="Uring" unicode="&#x16e;" horiz-adv-x="571" 
d="M405 212v489h91v-515q0 -53 -18.5 -92t-50 -60t-66.5 -31t-75 -10t-75.5 10t-67 31t-50 60t-18.5 92v515h91v-489q0 -131 119 -131q120 0 120 131zM328 770q0 18 -12.5 30.5t-30.5 12.5t-30.5 -12.5t-12.5 -30.5t12.5 -30.5t30.5 -12.5t30.5 12.5t12.5 30.5zM285 661
q-45 0 -77 32t-32 77t32 77t77 32t77 -32t32 -77t-32 -77t-77 -32z" />
    <glyph glyph-name="uring" unicode="&#x16f;" horiz-adv-x="492" 
d="M430 0h-86l-3 22q-40 -33 -96 -33q-188 0 -188 183v329h91v-321q0 -103 97 -103q94 0 94 106v318h91v-501zM292 589q0 18 -12.5 30.5t-30.5 12.5t-30.5 -12.5t-12.5 -30.5t12.5 -30.5t30.5 -12.5t30.5 12.5t12.5 30.5zM249 480q-45 0 -77 32t-32 77t32 77t77 32t77 -32
t32 -77t-32 -77t-77 -32z" />
    <glyph glyph-name="Uhungarumlaut" unicode="&#x170;" horiz-adv-x="571" 
d="M405 212v489h91v-515q0 -53 -18.5 -92t-50 -60t-66.5 -31t-75 -10t-75.5 10t-67 31t-50 60t-18.5 92v515h91v-489q0 -131 119 -131q120 0 120 131zM380 733h-63l48 111q8 20 26.5 26.5t32.5 0.5q18 -8 22.5 -26t-10.5 -39zM249 733h-63l48 111q8 20 26.5 26.5t32.5 0.5
q18 -8 22.5 -26t-10.5 -39z" />
    <glyph glyph-name="uhungarumlaut" unicode="&#x171;" horiz-adv-x="492" 
d="M430 0h-86l-3 22q-40 -33 -96 -33q-188 0 -188 183v329h91v-321q0 -103 97 -103q94 0 94 106v318h91v-501zM329 543h-63l48 111q8 20 26.5 26.5t32.5 0.5q18 -8 22.5 -26t-10.5 -39zM198 543h-63l48 111q8 20 26.5 26.5t32.5 0.5q18 -8 22.5 -26t-10.5 -39z" />
    <glyph glyph-name="Uogonek" unicode="&#x172;" horiz-adv-x="571" 
d="M320 -115l45 -48q-32 -50 -105 -50q-29 0 -60 22t-29 69q0 60 85 117q-78 7 -129.5 53t-51.5 138v515h91v-489q0 -131 119 -131q120 0 120 131v489h91v-515q0 -89 -48.5 -135.5t-122.5 -54.5q-49 -42 -70 -69t-20 -48q2 -31 35 -31q32 0 50 37z" />
    <glyph glyph-name="uogonek" unicode="&#x173;" horiz-adv-x="492" 
d="M419 -115l45 -48q-32 -50 -105 -50q-29 0 -60 22t-29 69q0 63 94 122h-20l-3 22q-40 -33 -96 -33q-188 0 -188 183v329h91v-321q0 -103 97 -103q94 0 94 106v318h91v-501h-1q-96 -80 -95 -121q2 -31 35 -31q31 0 50 37z" />
    <glyph glyph-name="Ydieresis" unicode="&#x178;" horiz-adv-x="564" 
d="M354 -15l-27 68q70 13 70 107v86q-49 -34 -124 -34q-104 0 -166.5 57t-62.5 158v273h91v-270q0 -64 36 -96t102 -32q51 0 82.5 17.5t41.5 43.5v337h91v-544q0 -156 -134 -171zM236 771q0 -17 -12 -28.5t-29 -11.5t-28.5 11.5t-11.5 28.5t11.5 29t28.5 12t29 -12t12 -29z
M336 731q-17 0 -29 12t-12 29q0 16 12.5 28.5t28.5 12.5q17 0 29 -12t12 -29t-12 -29t-29 -12z" />
    <glyph glyph-name="Zacute" unicode="&#x179;" horiz-adv-x="569" 
d="M526 0h-487v83l366 528h-353v89h468v-89l-367 -526h373v-85zM275 785h-63l48 111q8 20 26.5 26.5t32.5 0.5q18 -8 22.5 -26t-10.5 -39z" />
    <glyph glyph-name="zacute" unicode="&#x17a;" horiz-adv-x="439" 
d="M404 0h-367v85l232 331h-223v85h344v-83l-233 -333h247v-85zM246 538h-63l48 111q8 20 26.5 26.5t32.5 0.5q18 -8 22.5 -26t-10.5 -39z" />
    <glyph glyph-name="Zdotaccent" unicode="&#x17b;" horiz-adv-x="569" 
d="M526 0h-487v83l366 528h-353v89h468v-89l-367 -526h373v-85zM296 726q-20 0 -35.5 15.5t-15.5 35.5q0 19 15.5 34t35.5 15t34.5 -15t14.5 -34q0 -20 -15 -35.5t-34 -15.5z" />
    <glyph glyph-name="zdotaccent" unicode="&#x17c;" horiz-adv-x="439" 
d="M404 0h-367v85l232 331h-223v85h344v-83l-233 -333h247v-85zM220 535q-20 0 -35.5 15.5t-15.5 35.5q0 19 15.5 34t35.5 15t34.5 -14.5t14.5 -34.5t-15 -35.5t-34 -15.5z" />
    <glyph glyph-name="Zcaron" unicode="&#x17d;" horiz-adv-x="569" 
d="M526 0h-487v83l366 528h-353v89h468v-89l-367 -526h373v-85zM451 924l-142 -141l-148 141l56 39l91 -91l86 91z" />
    <glyph glyph-name="zcaron" unicode="&#x17e;" horiz-adv-x="439" 
d="M404 0h-367v85l232 331h-223v85h344v-83l-233 -333h247v-85zM390 731l-142 -141l-148 141l56 39l91 -91l86 91z" />
    <glyph glyph-name="florin" unicode="&#x192;" horiz-adv-x="241" 
 />
    <glyph glyph-name="Scommaaccent" unicode="&#x218;" horiz-adv-x="545" 
d="M41 178l97 11q5 -47 42 -79t96 -32q66 0 103 30t37 77q0 40 -19.5 69t-51.5 47t-70 33t-76 31.5t-70 37t-51.5 54.5t-19.5 80q0 70 58.5 121.5t167.5 51.5q83 0 146 -30l-4 -14q-5 -13 -12.5 -35t-12.5 -37q-59 24 -116 24q-64 0 -97.5 -24t-31.5 -64q2 -33 40 -58
t90.5 -45.5t104.5 -46t88.5 -73.5t36.5 -114q0 -90 -59 -147t-180 -57q-109 0 -171.5 57.5t-64.5 131.5zM260 -206l-59 29q21 12 38.5 25t24.5 20l6 7l-11 3q-26 15 -26 44q1 20 14.5 33t34.5 12t32.5 -18.5t11.5 -35.5q1 -60 -66 -119z" />
    <glyph glyph-name="scommaaccent" unicode="&#x219;" horiz-adv-x="423" 
d="M34 127l90 7q2 -27 28 -45.5t67 -18.5q37 0 61.5 18.5t24.5 47.5q0 31 -25 51t-61.5 31.5t-73.5 25.5t-65.5 44t-33.5 77q-5 56 37.5 102t133.5 46q32 0 60 -7.5t40 -14.5l12 -7l-27 -82q-28 24 -85 24q-43 0 -60 -17.5t-14 -43.5q3 -21 31 -36t65 -27.5t73.5 -29.5
t62 -52t25.5 -85q0 -63 -45.5 -106.5t-135.5 -43.5q-85 0 -134 41t-51 101zM194 -207l-59 29q21 12 38.5 25t24.5 20l6 7l-11 3q-26 15 -26 44q1 20 14.5 33t34.5 12t32.5 -18.5t11.5 -35.5q1 -60 -66 -119z" />
    <glyph glyph-name="circumflex" unicode="&#x2c6;" horiz-adv-x="506" 
d="M398 629l-57 -39l-86 90l-91 -90l-56 39l148 141z" />
    <glyph glyph-name="caron" unicode="&#x2c7;" horiz-adv-x="506" 
d="M397 731l-142 -141l-148 141l56 39l91 -91l86 91z" />
    <glyph glyph-name="breve" unicode="&#x2d8;" horiz-adv-x="506" 
d="M366 700v-5q0 -47 -33 -80t-80 -33t-80 33t-33 80v5h70v-5q0 -22 12 -34.5t31 -12.5t31.5 13t12.5 34v5h69z" />
    <glyph glyph-name="dotaccent" unicode="&#x2d9;" horiz-adv-x="506" 
d="M254 643q-20 0 -35.5 15.5t-15.5 35.5q0 19 15.5 34t35.5 15t34.5 -14.5t14.5 -34.5t-15 -35.5t-34 -15.5z" />
    <glyph glyph-name="ring" unicode="&#x2da;" horiz-adv-x="506" 
d="M296 662q0 18 -12.5 30.5t-30.5 12.5t-30.5 -12.5t-12.5 -30.5t12.5 -30.5t30.5 -12.5t30.5 12.5t12.5 30.5zM253 553q-45 0 -77 32t-32 77t32 77t77 32t77 -32t32 -77t-32 -77t-77 -32z" />
    <glyph glyph-name="ogonek" unicode="&#x2db;" horiz-adv-x="508" 
d="M306 -112l45 -48q-32 -50 -105 -50q-29 0 -60 22t-29 69q0 63 94 122h65q-96 -80 -95 -121q2 -31 35 -31q32 0 50 37z" />
    <glyph glyph-name="tilde" unicode="&#x2dc;" horiz-adv-x="507" 
d="M390 697l36 -56q-34 -40 -68 -49t-63 3t-57 25t-60.5 9.5t-62.5 -35.5l-34 56q35 39 70 48.5t64 -2t57.5 -24t59 -9.5t58.5 34z" />
    <glyph glyph-name="hungarumlaut" unicode="&#x2dd;" horiz-adv-x="506" 
d="M320 569h-63l48 111q8 20 26.5 26.5t32.5 0.5q18 -8 22.5 -26t-10.5 -39zM189 568h-63l48 111q8 20 26.5 26.5t32.5 0.5q18 -8 22.5 -26t-10.5 -39z" />
    <glyph glyph-name="dieresistonos" unicode="&#x385;" horiz-adv-x="506" 
d="M175 664q-13 0 -23 10t-10 23t10 23t23 10t23 -10t10 -23t-10 -23t-23 -10zM331 664q-13 0 -23 10t-10 23t10 23t23 10t23 -10t10 -23t-10 -23t-23 -10zM283 731h-63l48 111q8 20 26.5 26.5t32.5 0.5q18 -8 22.5 -26t-10.5 -39z" />
    <glyph glyph-name="Alphatonos" unicode="&#x386;" horiz-adv-x="555" 
d="M545 0h-106l-55 205h-184l-53 -205h-101l185 700h119zM362 300l-72 250l-68 -250h140zM102 567h-63l48 111q8 20 26.5 26.5t32.5 0.5q18 -8 22.5 -26t-10.5 -39z" />
    <glyph glyph-name="Epsilontonos" unicode="&#x388;" horiz-adv-x="559" 
d="M74 568h-63l48 111q8 20 26.5 26.5t32.5 0.5q18 -8 22.5 -26t-10.5 -39zM510 0h-332v700h334v-90h-243v-197h156l-27 -88h-129v-243h241v-82z" />
    <glyph glyph-name="Etatonos" unicode="&#x389;" horiz-adv-x="689" 
d="M74 568h-63l48 111q8 20 26.5 26.5t32.5 0.5q18 -8 22.5 -26t-10.5 -39zM610 0h-90v325h-249v-325h-91v700h91v-287h249v287h90v-700z" />
    <glyph glyph-name="Iotatonos" unicode="&#x38a;" horiz-adv-x="401" 
d="M322 0h-92v612l-63 2v86h155v-700zM72 568h-63l48 111q8 20 26.5 26.5t32.5 0.5q18 -8 22.5 -26t-10.5 -39z" />
    <glyph glyph-name="Omicrontonos" unicode="&#x38c;" horiz-adv-x="613" 
d="M551 506v-321q0 -101 -61.5 -148.5t-147.5 -47.5t-148.5 47.5t-62.5 148.5v322q0 103 56.5 156t155.5 53t153.5 -56t54.5 -154zM460 199v287q0 66 -27.5 100t-91.5 34t-91.5 -33.5t-27.5 -99.5v-289q0 -56 31.5 -87t87.5 -31q54 0 86.5 31.5t32.5 87.5zM77 568h-63
l48 111q8 20 26.5 26.5t32.5 0.5q18 -8 22.5 -26t-10.5 -39z" />
    <glyph glyph-name="Upsilontonos" unicode="&#x38e;" horiz-adv-x="683" 
d="M67 568h-63l48 111q8 20 26.5 26.5t32.5 0.5q18 -8 22.5 -26t-10.5 -39zM473 -15l-27 68q70 13 70 107v86q-49 -34 -124 -34q-104 0 -166.5 57t-62.5 158v273h91v-270q0 -64 36 -96t102 -32q51 0 82.5 17.5t41.5 43.5v337h91v-544q0 -156 -134 -171z" />
    <glyph glyph-name="Omegatonos" unicode="&#x38f;" horiz-adv-x="683" 
d="M625 0h-228v83q3 0 19 1.5t23.5 3t22.5 6t23 12t17.5 19t14 29.5t4.5 42v288q0 61 -28.5 95t-78.5 34h-89q-111 0 -111 -129v-289q0 -27 7.5 -47.5t16 -31t26 -18t26 -9.5t28.5 -4t21 -2v-83h-228l17 83h34q-38 40 -38 113v307q0 92 47 148t141 56h112q94 0 141 -56
t47 -148v-307q0 -14 -1 -26.5t-4.5 -23t-5 -17t-7 -15.5t-7 -11.5t-8.5 -10.5l-7 -9h36zM80 568h-63l48 111q8 20 26.5 26.5t32.5 0.5q18 -8 22.5 -26t-10.5 -39z" />
    <glyph glyph-name="iotadieresistonos" unicode="&#x390;" 
d="M153 0h-91v501h91v-501zM135 576h-63l48 111q8 20 26.5 26.5t32.5 0.5q19 -8 23 -26t-11 -39zM250 582q0 -16 -12 -28t-29 -12t-29 11.5t-12 28.5t12 29t29 12t29 -12t12 -29zM52 582q0 -17 -12 -28.5t-29 -11.5t-28.5 12t-11.5 28q0 17 12 29t28 12q17 0 29 -12t12 -29z
" />
    <glyph glyph-name="Alpha" unicode="&#x391;" horiz-adv-x="524" 
d="M514 0h-106l-55 205h-184l-53 -205h-101l185 700h119zM331 300l-72 250l-68 -250h140z" />
    <glyph glyph-name="Beta" unicode="&#x392;" horiz-adv-x="556" 
d="M302 0h-223v700h210q82 0 134.5 -45t52.5 -130q0 -93 -66 -138q-1 -1 -1 -2v-1q44 -20 73.5 -64.5t29.5 -113.5q0 -38 -10.5 -72.5t-33.5 -65.5t-65.5 -49.5t-100.5 -18.5zM170 413h88q114 0 114 101q0 54 -28 75t-81 21h-93v-197zM170 84h100q68 0 103.5 25.5t35.5 99.5
q0 62 -36 89t-91 27h-112v-241z" />
    <glyph glyph-name="Gamma" unicode="&#x393;" horiz-adv-x="425" 
d="M171 0h-92v700h334v-90h-242v-610z" />
    <glyph glyph-name="uni0394" unicode="&#x394;" horiz-adv-x="527" 
d="M518 0h-505l202 700h90zM394 83l-131 445l-127 -445h258z" />
    <glyph glyph-name="Epsilon" unicode="&#x395;" horiz-adv-x="460" 
d="M411 0h-332v700h334v-90h-243v-197h156l-27 -88h-129v-243h241v-82z" />
    <glyph glyph-name="Zeta" unicode="&#x396;" horiz-adv-x="569" 
d="M526 0h-487v83l366 528h-353v89h468v-89l-367 -526h373v-85z" />
    <glyph glyph-name="Eta" unicode="&#x397;" horiz-adv-x="588" 
d="M509 0h-90v325h-249v-325h-91v700h91v-287h249v287h90v-700z" />
    <glyph glyph-name="Theta" unicode="&#x398;" horiz-adv-x="544" 
d="M482 506v-321q0 -101 -61.5 -148.5t-147.5 -47.5t-148.5 47.5t-62.5 148.5v322q0 103 56.5 156t155.5 53t153.5 -56t54.5 -154zM391 390v96q0 66 -27.5 100t-91.5 34t-91.5 -33.5t-27.5 -99.5v-97h238zM391 199v107h-238v-108q0 -56 31.5 -87t87.5 -31q54 0 86.5 31.5
t32.5 87.5z" />
    <glyph glyph-name="Iota" unicode="&#x399;" horiz-adv-x="271" 
d="M192 0h-92v612l-63 2v86h155v-700z" />
    <glyph glyph-name="Kappa" unicode="&#x39a;" horiz-adv-x="513" 
d="M511 0h-112l-202 301l-22 -33v-268h-96v701h96v-274l184 274h109l-217 -317z" />
    <glyph glyph-name="Lambda" unicode="&#x39b;" horiz-adv-x="525" 
d="M516 0h-103l-152 510l-149 -510h-101l208 700h85z" />
    <glyph glyph-name="Mu" unicode="&#x39c;" horiz-adv-x="694" 
d="M615 0h-91v428l-140 -428h-76l-138 427v-427h-91v700h91l176 -516l178 516h91v-700z" />
    <glyph glyph-name="Nu" unicode="&#x39d;" horiz-adv-x="650" 
d="M571 0h-92l-309 516v-516h-91v700h91l309 -514v514h92v-700z" />
    <glyph glyph-name="Xi" unicode="&#x39e;" horiz-adv-x="584" 
d="M428 325h-264v88h264v-88zM486 611h-290q-75 0 -94 -54l-65 38q16 56 51 81t94 25h325zM401 0h-325l27 84h272q39 0 61.5 13.5t34.5 47.5l75 -39q-16 -56 -51 -81t-94 -25z" />
    <glyph glyph-name="Omicron" unicode="&#x39f;" horiz-adv-x="544" 
d="M482 506v-321q0 -101 -61.5 -148.5t-147.5 -47.5t-148.5 47.5t-62.5 148.5v322q0 103 56.5 156t155.5 53t153.5 -56t54.5 -154zM391 199v287q0 66 -27.5 100t-91.5 34t-91.5 -33.5t-27.5 -99.5v-289q0 -56 31.5 -87t87.5 -31q54 0 86.5 31.5t32.5 87.5z" />
    <glyph glyph-name="Pi" unicode="&#x3a0;" horiz-adv-x="588" 
d="M509 0h-91v609h-248v-609h-91v700h430v-700z" />
    <glyph glyph-name="Rho" unicode="&#x3a1;" horiz-adv-x="547" 
d="M170 300h130q26 0 46 7t33 15.5t21.5 26t13 28.5t6.5 33t2 30.5v29.5q0 78 -32 109t-94 31h-126v-310zM170 0h-91v700h234q101 0 150.5 -64t49.5 -165q0 -259 -191 -259h-152v-212z" />
    <glyph glyph-name="Sigma" unicode="&#x3a3;" horiz-adv-x="510" 
d="M339 0h-323l226 384l-210 318h428l-28 -91h-233l151 -224l-180 -304h147q38 0 58.5 13.5t32.5 48.5l76 -39q-16 -56 -51 -81t-94 -25z" />
    <glyph glyph-name="Tau" unicode="&#x3a4;" horiz-adv-x="434" 
d="M262 0h-91v610h-153v90h402v-90h-158v-610z" />
    <glyph glyph-name="Upsilon" unicode="&#x3a5;" horiz-adv-x="564" 
d="M354 -15l-27 68q70 13 70 107v86q-49 -34 -124 -34q-104 0 -166.5 57t-62.5 158v273h91v-270q0 -64 36 -96t102 -32q51 0 82.5 17.5t41.5 43.5v337h91v-544q0 -156 -134 -171z" />
    <glyph glyph-name="Phi" unicode="&#x3a6;" horiz-adv-x="654" 
d="M371 -35l-92 13v42h-27q-188 0 -188 205v292q0 152 116 189l48 -70q-38 -13 -55.5 -36.5t-17.5 -82.5v-279q0 -73 21.5 -108.5t75.5 -35.5h27v511q3 49 39.5 77.5t85.5 28.5q87 0 137 -54.5t50 -145.5v-286q0 -205 -188 -205h-32v-55zM371 94h32q54 0 75 35t21 109v239
q0 144 -79 144q-23 0 -34.5 -10.5t-13 -20t-1.5 -27.5v-469z" />
    <glyph glyph-name="Chi" unicode="&#x3a7;" horiz-adv-x="585" 
d="M569 0h-115l-164 261l-160 -261h-113l219 351l-205 349h107l156 -254l152 254h107l-204 -343z" />
    <glyph glyph-name="Psi" unicode="&#x3a8;" horiz-adv-x="618" 
d="M354 0h-90l-1 212h-28q-95 0 -141.5 51.5t-46.5 142.5v294h91v-275q0 -72 21 -102.5t76 -30.5h28v408h91v-408h32q55 0 76.5 31.5t21.5 103.5v137q0 18 -1 32t-4 24.5t-4.5 16.5t-7.5 13t-8 9t-10.5 8.5t-10.5 8.5l80 33q27 -17 40 -46.5t14.5 -50.5t1.5 -63v-143
q0 -91 -46.5 -142.5t-141.5 -51.5h-32v-212z" />
    <glyph glyph-name="uni03A9" unicode="&#x3a9;" horiz-adv-x="633" 
d="M575 0h-228v83q3 0 19 1.5t23.5 3t22.5 6t23 12t17.5 19t14 29.5t4.5 42v288q0 61 -28.5 95t-78.5 34h-89q-111 0 -111 -129v-289q0 -27 7.5 -47.5t16 -31t26 -18t26 -9.5t28.5 -4t21 -2v-83h-228l17 83h34q-38 40 -38 113v307q0 92 47 148t141 56h112q94 0 141 -56
t47 -148v-307q0 -14 -1 -26.5t-4.5 -23t-5 -17t-7 -15.5t-7 -11.5t-8.5 -10.5l-7 -9h36z" />
    <glyph glyph-name="Iotadieresis" unicode="&#x3aa;" horiz-adv-x="271" 
d="M117 771q0 -17 -12 -28.5t-29 -11.5q-16 0 -28 11.5t-12 28.5t11.5 29t28.5 12t29 -12t12 -29zM217 731q-17 0 -29 12t-12 29q0 16 12 28.5t29 12.5t29 -12t12 -29t-12 -29t-29 -12zM192 0h-92v612l-63 2v86h155v-700z" />
    <glyph glyph-name="Upsilondieresis.alt" unicode="&#x3ab;" horiz-adv-x="474" 
d="M201 769q0 -17 -12 -28.5t-29 -11.5q-16 0 -28 11.5t-12 28.5t11.5 29t28.5 12t29 -12t12 -29zM301 729q-17 0 -29 12t-12 29q0 16 12 28.5t29 12.5t29 -12t12 -29t-12 -29t-29 -12zM283 0h-92v324l-190 376h97l138 -276l139 276h98l-190 -376v-324z" />
    <glyph glyph-name="alphatonos" unicode="&#x3ac;" horiz-adv-x="474" 
d="M443 35l-82 -34q-3 -1 -12 2.5t-11 3.5q-37 -10 -73 -14t-76.5 1.5t-70.5 23t-50 56t-20 95.5v185q0 69 31 107t78 43t90 -2t81 -23l12 31l80 -24q-7 -65 -7 -97v-312q6 -28 30 -42zM321 90v305q-27 12 -55 19t-58.5 7.5t-49.5 -17t-19 -53.5v-157q0 -72 39 -101t143 -3z
M270 538h-63l48 111q8 20 26.5 26.5t32.5 0.5q18 -8 22.5 -26t-10.5 -39z" />
    <glyph glyph-name="epsilontonos" unicode="&#x3ad;" horiz-adv-x="399" 
d="M248 538h-63l48 111q8 20 26.5 26.5t32.5 0.5q18 -8 22.5 -26t-10.5 -39zM356 110l27 -87q-78 -34 -170 -34q-77 0 -123 41t-51 102q-7 104 67 145q-21 15 -37 50.5t-10 73.5q7 54 51 82.5t97.5 27.5t105.5 -15l2 -82q-27 9 -54 13t-53.5 2t-43 -17.5t-16.5 -43.5
q-1 -29 23.5 -48t64.5 -19h76l-27 -88h-63q-93 0 -93 -61q0 -35 26.5 -53.5t76.5 -17.5q32 0 63 7.5t46 14.5z" />
    <glyph glyph-name="etatonos" unicode="&#x3ae;" horiz-adv-x="488" 
d="M296 538h-63l48 111q8 20 26.5 26.5t32.5 0.5q18 -8 22.5 -26t-10.5 -39zM431 -210l-90 24v529q0 44 -29.5 66t-73 18.5t-86.5 -27.5v-400h-90v501h85l4 -15q31 20 89 23t106 -18q85 -39 85 -145v-556z" />
    <glyph glyph-name="iotatonos" unicode="&#x3af;" 
d="M143 538h-63l48 111q8 20 26.5 26.5t32.5 0.5q18 -8 22.5 -26t-10.5 -39zM153 0h-91v501h91v-501z" />
    <glyph glyph-name="upsilondieresistonos" unicode="&#x3b0;" horiz-adv-x="492" 
d="M191 582q0 -16 -12 -28t-29 -12q-16 0 -28 12t-12 28q0 17 12 29t28 12t28.5 -12.5t12.5 -28.5zM348 542q-17 0 -29 11.5t-12 28.5t12 29t29 12t28.5 -12t11.5 -29q0 -16 -12 -28t-28 -12zM274 576h-63l48 111q8 20 26.5 26.5t32.5 0.5q19 -8 23 -26t-11 -39zM345 205
v296h91v-329q0 -182 -192 -182q-188 0 -188 182v329h91v-297q0 -69 20.5 -96.5t76.5 -27.5q59 0 80 28t21 97z" />
    <glyph glyph-name="alpha" unicode="&#x3b1;" horiz-adv-x="474" 
d="M443 35l-82 -34q-3 -1 -12 2.5t-11 3.5q-37 -10 -73 -14t-76.5 1.5t-70.5 23t-50 56t-20 95.5v185q0 69 31 107t78 43t90 -2t81 -23l12 31l80 -24q-7 -65 -7 -97v-312q6 -28 30 -42zM321 90v305q-27 12 -55 19t-58.5 7.5t-49.5 -17t-19 -53.5v-157q0 -72 39 -101t143 -3z
" />
    <glyph glyph-name="beta" unicode="&#x3b2;" horiz-adv-x="479" 
d="M152 -161h-90v698q0 75 39 119.5t111 44.5q46 0 81 -23.5t49 -57t9 -70.5t-33 -62q48 -14 81 -53.5t33 -104.5v-184q0 -37 -10.5 -65t-26.5 -45.5t-41.5 -29.5t-48 -17t-54 -6.5t-51.5 -0.5t-48 3v-146zM342 181v126q0 44 -17.5 70t-46 32t-61 0.5t-65.5 -21.5v-308
q56 -8 98 -8.5t67 26t25 83.5zM152 530v-52q30 15 71 27q30 10 37.5 36t-7.5 47.5t-41 21.5q-35 0 -47.5 -20t-12.5 -60z" />
    <glyph glyph-name="gamma" unicode="&#x3b3;" horiz-adv-x="489" 
d="M274 -167l-76 -31q-24 23 -29 62.5t8 75.5l23 72q-1 1 -10.5 8.5t-11.5 10t-10.5 12.5t-13.5 20t-12.5 27t-14.5 39l-108 372h97l72 -278q24 -91 44 -104l84 277q16 53 44.5 82t77.5 40l58 -54q-18 -6 -26 -9.5t-23.5 -14.5t-27.5 -31.5t-22 -51.5l-122 -404
q-13 -37 -15 -61t1 -33t13 -26z" />
    <glyph glyph-name="delta" unicode="&#x3b4;" horiz-adv-x="462" 
d="M419 288v-104q0 -194 -185 -194q-95 0 -141.5 51.5t-46.5 142.5v126q0 76 29.5 122t75.5 60q-36 34 -38.5 84t36.5 89.5t112 39.5h51l-21 -93h-39q-19 0 -31.5 -13t-7 -34.5t33.5 -40.5q40 -28 56 -39.5t44.5 -37t40 -45t21.5 -49.5t10 -65zM329 177v95q0 102 -100 155
q-56 -5 -74.5 -39t-18.5 -93v-118q0 -49 28.5 -74.5t69.5 -25.5q40 0 67.5 23t27.5 77z" />
    <glyph glyph-name="epsilon" unicode="&#x3b5;" horiz-adv-x="399" 
d="M356 110l27 -87q-78 -34 -170 -34q-77 0 -123 41t-51 102q-7 104 67 145q-21 15 -37 50.5t-10 73.5q7 54 51 82.5t97.5 27.5t105.5 -15l2 -82q-27 9 -54 13t-53.5 2t-43 -17.5t-16.5 -43.5q-1 -29 23.5 -48t64.5 -19h76l-27 -88h-63q-93 0 -93 -61q0 -35 26.5 -53.5
t76.5 -17.5q32 0 63 7.5t46 14.5z" />
    <glyph glyph-name="zeta" unicode="&#x3b6;" horiz-adv-x="390" 
d="M359 -183l-91 -26v212q-94 -15 -158.5 23.5t-76.5 111.5q-7 44 2.5 99t30.5 99q64 134 204 276h-172v88h272l36 -82q-129 -102 -230 -277q-25 -44 -38.5 -85.5t-11 -79.5t25.5 -61q51 -53 207 -12v-286z" />
    <glyph glyph-name="eta" unicode="&#x3b7;" horiz-adv-x="488" 
d="M431 -210l-90 24v529q0 44 -29.5 66t-73 18.5t-86.5 -27.5v-400h-90v501h85l4 -15q31 20 89 23t106 -18q85 -39 85 -145v-556z" />
    <glyph glyph-name="theta" unicode="&#x3b8;" horiz-adv-x="480" 
d="M426 505v-314q0 -89 -49.5 -143t-140.5 -54q-92 1 -141 54.5t-49 142.5v150q2 64 53 97q-36 70 -34 130.5t48 101t121 40.5q95 -2 143.5 -56t48.5 -149zM336 191v227q-77 -3 -138.5 -30.5t-61.5 -66.5v-136q0 -37 20.5 -62t50 -30.5t59 0.5t50 32.5t20.5 65.5zM181 477
q81 33 155 29q0 59 -27 87.5t-71 28.5q-60 0 -76.5 -43t19.5 -102z" />
    <glyph glyph-name="iota" unicode="&#x3b9;" 
d="M153 0h-91v501h91v-501z" />
    <glyph glyph-name="kappa" unicode="&#x3ba;" horiz-adv-x="469" 
d="M453 79l-21 -80q-35 0 -65 18.5t-45.5 36.5t-43.5 56l-88 121l-37 -35v-196h-91v512l91 -13v-187l173 189h114l-184 -202l109 -154q48 -64 88 -66z" />
    <glyph glyph-name="lambda" unicode="&#x3bb;" horiz-adv-x="484" 
d="M495 37l-58 -54q-49 11 -77.5 40t-44.5 82l-84 277q-20 -13 -44 -104l-72 -278h-97l108 372q9 26 16.5 44.5t17 31t12.5 17t15 14.5l12 10l-23 71q-13 37 -30.5 52t-52.5 17l20 71q61 1 94 -23.5t53 -83.5l136 -449q10 -31 22 -51.5t27.5 -31.5t23.5 -14.5t26 -9.5z" />
    <glyph glyph-name="uni03BC" unicode="&#x3bc;" horiz-adv-x="505" 
d="M469 27l-74 -33q-3 -1 -10.5 4.5t-13.5 14.5q-34 -30 -110 -24q-47 6 -108 32v-231l-91 9v702h91v-392q8 -8 44.5 -21.5t71.5 -13.5q81 0 81 106v317l92 13v-441q3 -28 27 -42z" />
    <glyph glyph-name="nu" unicode="&#x3bd;" horiz-adv-x="424" 
d="M260 0h-95l-158 501h99l107 -354l106 354h98z" />
    <glyph glyph-name="xi" unicode="&#x3be;" horiz-adv-x="381" 
d="M350 -192l-90 -26v217q-37 -4 -71.5 1.5t-67.5 22.5t-53 53t-20 88v184q0 67 37 109t79 50q-25 25 -29.5 60t9 66t47.5 53t79 22h45l-21 -95h-23q-41 0 -45 -33.5t30 -55.5q17 -12 72 -30l-26 -78q-164 48 -164 -88v-146q0 -43 16.5 -67.5t47.5 -30.5t66.5 -1t81.5 19
v-294z" />
    <glyph glyph-name="omicron" unicode="&#x3bf;" horiz-adv-x="461" 
d="M417 316v-132q0 -84 -46 -139t-139 -55t-140.5 55.5t-47.5 138.5v132q0 95 48.5 145.5t139.5 50.5q87 0 136 -52.5t49 -143.5zM327 174v142q0 106 -95 106q-97 0 -97 -106v-142q0 -47 27 -71.5t70 -24.5t69 25t26 71z" />
    <glyph glyph-name="pi" unicode="&#x3c0;" horiz-adv-x="505" 
d="M470 50l-52 -62l-7.5 2.5t-16.5 9t-21 17t-16.5 27t-7.5 39.5l1 335h-197v-418h-91v501h379v-409q5 -28 29 -42z" />
    <glyph glyph-name="rho" unicode="&#x3c1;" horiz-adv-x="474" 
d="M145 -195l-90 -16v526q0 89 49 140.5t138 51.5q96 0 141 -53.5t45 -146.5v-135q0 -88 -47 -135t-138 -47q-65 0 -98 28v-213zM336 183v120q0 67 -24.5 93t-70.5 26q-95 0 -95 -118v-121q0 -106 97 -106q48 0 70.5 25t22.5 81z" />
    <glyph glyph-name="sigma1" unicode="&#x3c2;" horiz-adv-x="357" 
d="M323 -150l-69 39q17 20 13 54t-36 54q-5 3 -27.5 17t-29 18.5t-25.5 17.5t-26 19.5t-22.5 20t-21.5 22.5t-16 23.5t-13.5 27.5t-7 29.5t-3.5 34.5v140q0 53 41.5 95.5t130.5 42.5q32 0 60 -6.5t40 -13.5l12 -7l-24 -79q-33 24 -90 24q-44 0 -61 -23.5t-17 -67.5v-80
q0 -46 13 -73.5t41 -51t99 -68.5q40 -25 55.5 -66t9 -78t-25.5 -65z" />
    <glyph glyph-name="sigma" unicode="&#x3c3;" horiz-adv-x="497" 
d="M420 310v-135q0 -194 -185 -194q-95 0 -141.5 51.5t-46.5 142.5v179q0 48 18.5 81.5t48.5 48.5t67 21.5t74 -0.5q58 -9 97 -2t75 40l65 -48q-13 -27 -40.5 -48.5t-57.5 -29.5q26 -31 26 -107zM328 186v114q0 35 -7.5 63.5t-14 40t-9.5 11.5q-47 8 -82 8.5t-55.5 -21.5
t-20.5 -68v-148q0 -111 95 -111q49 0 71.5 26t22.5 85z" />
    <glyph glyph-name="tau" unicode="&#x3c4;" horiz-adv-x="341" 
d="M274 47l-36 -65q-119 32 -119 150v283h-102v85h301v-85h-108v-273q0 -73 64 -95z" />
    <glyph glyph-name="upsilon" unicode="&#x3c5;" horiz-adv-x="492" 
d="M345 205v296h91v-329q0 -182 -192 -182q-188 0 -188 182v329h91v-297q0 -69 20.5 -96.5t76.5 -27.5q59 0 80 28t21 97z" />
    <glyph glyph-name="phi" unicode="&#x3c6;" horiz-adv-x="617" 
d="M354 -216l-92 13v198h-28q-95 0 -141.5 51.5t-46.5 142.5v125q0 152 116 189l49 -70q-37 -8 -56 -34t-19 -85v-97q0 -72 21.5 -104t76.5 -32h28v320q3 49 39 77.5t85 28.5q87 0 137 -54.5t50 -145.5v-118q0 -91 -46.5 -142.5t-141.5 -51.5h-31v-211zM354 81h31
q55 0 76 31t21 103v97q0 64 -22.5 92t-56.5 28q-23 0 -36 -14t-13 -34v-303z" />
    <glyph glyph-name="chi" unicode="&#x3c7;" horiz-adv-x="433" 
d="M489 -151l-44 -61q-82 -1 -132 96l-102 208l-151 -296l-81 35l185 358l-155 312h99l105 -217l111 217h103l-168 -314l126 -259q32 -73 104 -79z" />
    <glyph glyph-name="psi" unicode="&#x3c8;" horiz-adv-x="633" 
d="M361 -219l-91 13v201h-27q-95 0 -141.5 51.5t-46.5 142.5v311h90v-281q0 -72 21.5 -105t76.5 -33h27v419h91v-419h33q55 0 76.5 33t21.5 105v142q0 18 -1 32t-5 25t-6 18t-8.5 14.5t-9 10t-11 9t-10.5 8.5l85 28q27 -17 40 -46.5t14.5 -50.5t1.5 -63v-157
q0 -91 -46.5 -142.5t-141.5 -51.5h-33v-214z" />
    <glyph glyph-name="omega" unicode="&#x3c9;" horiz-adv-x="624" 
d="M487 189v138q0 51 -16 77.5t-50 39.5l50 56q107 -40 107 -183v-129q0 -200 -161 -200q-70 0 -105 53q-37 -53 -105 -53q-161 0 -161 200v129q0 143 107 183l51 -56q-67 -25 -67 -117v-138q0 -109 67 -109q33 0 46 22.5t15 79.5v117h92v-117q1 -57 15 -79.5t48 -22.5
q67 0 67 109z" />
    <glyph glyph-name="iotadieresis" unicode="&#x3ca;" 
d="M153 0h-91v501h91v-501zM77 579q0 -17 -12 -28.5t-29 -11.5q-16 0 -28 11.5t-12 28.5t11.5 29t28.5 12t29 -12t12 -29zM177 539q-17 0 -29 12t-12 29q0 16 12 28.5t29 12.5t29 -12t12 -29t-12 -29t-29 -12z" />
    <glyph glyph-name="upsilondieresis" unicode="&#x3cb;" horiz-adv-x="492" 
d="M220 579q0 -17 -12 -28.5t-29 -11.5t-28.5 11.5t-11.5 28.5t11.5 29t28.5 12t29 -12t12 -29zM320 539q-17 0 -29 12t-12 29q0 16 12.5 28.5t28.5 12.5q17 0 29 -12t12 -29t-12 -29t-29 -12zM345 205v296h91v-329q0 -182 -192 -182q-188 0 -188 182v329h91v-297
q0 -69 20.5 -96.5t76.5 -27.5q59 0 80 28t21 97z" />
    <glyph glyph-name="omicrontonos" unicode="&#x3cc;" horiz-adv-x="461" 
d="M268 538h-63l48 111q8 20 26.5 26.5t32.5 0.5q18 -8 22.5 -26t-10.5 -39zM417 316v-132q0 -84 -46 -139t-139 -55t-140.5 55.5t-47.5 138.5v132q0 95 48.5 145.5t139.5 50.5q87 0 136 -52.5t49 -143.5zM327 174v142q0 106 -95 106q-97 0 -97 -106v-142q0 -47 27 -71.5
t70 -24.5t69 25t26 71z" />
    <glyph glyph-name="upsilontonos" unicode="&#x3cd;" horiz-adv-x="492" 
d="M290 538h-63l48 111q8 20 26.5 26.5t32.5 0.5q18 -8 22.5 -26t-10.5 -39zM345 205v296h91v-329q0 -182 -192 -182q-188 0 -188 182v329h91v-297q0 -69 20.5 -96.5t76.5 -27.5q59 0 80 28t21 97z" />
    <glyph glyph-name="omegatonos" unicode="&#x3ce;" horiz-adv-x="624" 
d="M354 538h-63l48 111q8 20 26.5 26.5t32.5 0.5q18 -8 22.5 -26t-10.5 -39zM487 189v138q0 51 -16 77.5t-50 39.5l50 56q107 -40 107 -183v-129q0 -200 -161 -200q-70 0 -105 53q-37 -53 -105 -53q-161 0 -161 200v129q0 143 107 183l51 -56q-67 -25 -67 -117v-138
q0 -109 67 -109q33 0 46 22.5t15 79.5v117h92v-117q1 -57 15 -79.5t48 -22.5q67 0 67 109z" />
    <glyph glyph-name="quoteleft" unicode="&#x2018;" horiz-adv-x="196" 
d="M100 632l11 -3q26 -15 26 -44q-1 -20 -14.5 -33t-34.5 -12t-32.5 18.5t-11.5 35.5q-1 60 66 119l59 -29q-21 -12 -38.5 -25t-24.5 -20z" />
    <glyph glyph-name="quoteright" unicode="&#x2019;" horiz-adv-x="200" 
d="M93 537l-59 29q21 12 38.5 25t23.5 20l7 7l-11 3q-26 15 -26 44q1 20 14.5 33t34.5 12t32.5 -18.5t11.5 -35.5q1 -60 -66 -119z" />
    <glyph glyph-name="quotesinglbase" unicode="&#x201a;" horiz-adv-x="211" 
d="M86 -84l-59 29q21 12 38.5 25t24.5 20l6 7l-11 3q-26 15 -26 44q1 20 14.5 33t34.5 12t32.5 -18.5t11.5 -35.5q1 -60 -66 -119z" />
    <glyph glyph-name="quotedblleft" unicode="&#x201c;" horiz-adv-x="324" 
d="M100 632l11 -3q26 -15 26 -44q-1 -20 -14.5 -33t-34.5 -12t-32.5 18.5t-11.5 35.5q-1 60 66 119l59 -29q-21 -12 -38.5 -25t-24.5 -20zM229 632l11 -3q26 -15 26 -44q-1 -20 -14.5 -33t-34.5 -12t-32.5 18.5t-11.5 35.5q-1 60 66 119l59 -29q-21 -12 -38.5 -25t-23.5 -20
z" />
    <glyph glyph-name="quotedblright" unicode="&#x201d;" horiz-adv-x="331" 
d="M225 539l-59 29q21 12 38.5 25t23.5 20l7 7l-11 3q-26 15 -26 44q1 20 14.5 33t34.5 12t32.5 -18.5t11.5 -35.5q1 -60 -66 -119zM96 539l-59 29q21 12 38.5 25t24.5 20l6 7l-11 3q-26 15 -26 44q1 20 14.5 33t34.5 12t32.5 -18.5t11.5 -35.5q1 -60 -66 -119z" />
    <glyph glyph-name="quotedblbase" unicode="&#x201e;" horiz-adv-x="256" 
d="M131 -83l-29 14q-5 -4 -15 -14l-59 29q21 12 38.5 25t23.5 20l7 7l-11 3q-26 15 -26 44q1 20 14.5 33t34.5 12q11 -2 18 -6q11 6 26 6q21 -1 32.5 -18.5t11.5 -35.5q1 -60 -66 -119z" />
    <glyph glyph-name="bullet" unicode="&#x2022;" horiz-adv-x="475" 
d="M237 158q-74 0 -126 52.5t-52 126.5t52 126t126 52t126.5 -52t52.5 -126t-52.5 -126.5t-126.5 -52.5z" />
    <glyph glyph-name="ellipsis" unicode="&#x2026;" horiz-adv-x="567" 
d="M104 0q-18 0 -31.5 13t-13.5 31q0 19 13.5 32t31.5 13t31 -13t13 -32q0 -18 -13 -31t-31 -13zM284 0q-18 0 -31.5 13t-13.5 31q0 19 13.5 32t31.5 13t31 -13t13 -32q0 -18 -13 -31t-31 -13zM464 0q-18 0 -31.5 13t-13.5 31q0 19 13.5 32t31.5 13t31 -13t13 -32
q0 -18 -13 -31t-31 -13z" />
    <glyph glyph-name="perthousand" unicode="&#x2030;" horiz-adv-x="1023" 
d="M837 -11q-60 0 -102 42t-42 102t42 102t102 42t102 -42t42 -102t-42 -102t-102 -42zM891 133q0 22 -15 38t-39 16t-39 -16t-15 -38t15 -38t39 -16t39 16t15 38zM113 0l-66 59l544 684l71 -57zM511 -11q-60 0 -102 42t-42 102t42 102t102 42t102 -42t42 -102t-42 -102
t-102 -42zM566 133q0 22 -15 38.5t-40 16.5t-40 -16.5t-15 -38.5t15 -38.5t40 -16.5t40 16.5t15 38.5zM200 439q-60 0 -102 42t-42 102t42 102t102 42t102 -42t42 -102t-42 -102t-102 -42zM256 583q0 22 -15.5 39t-40.5 17q-24 0 -39.5 -17t-15.5 -39t15.5 -39t39.5 -17
q25 0 40.5 17t15.5 39z" />
    <glyph glyph-name="guilsinglleft" unicode="&#x2039;" horiz-adv-x="345" 
d="M286 136l-59 -56l-187 187v1l187 187l60 -60l-130 -128z" />
    <glyph glyph-name="guilsinglright" unicode="&#x203a;" horiz-adv-x="345" 
d="M118 80l-59 56l129 131l-130 128l60 60l187 -187v-1z" />
    <glyph glyph-name="fraction" unicode="&#x2044;" horiz-adv-x="470" 
d="M124 -114h-98l324 931h93z" />
    <glyph glyph-name="Euro" unicode="&#x20ac;" horiz-adv-x="488" 
d="M445 103l15 -84q-49 -19 -98 -27.5t-97 -4t-84.5 24t-59 62t-22.5 105.5v38h-59v88h59v48h-59v88h59v59q0 76 21.5 115t65.5 66q50 28 120 25t129 -33l-26 -78q-48 18 -103 18q-48 0 -82 -25.5t-34 -78.5v-68h170v-88h-170v-48h170v-88h-170v-36q0 -45 22 -70t60 -30
t80.5 1t92.5 21z" />
    <glyph glyph-name="trademark" unicode="&#x2122;" horiz-adv-x="463" 
d="M405 512h-46v120l-40 -120h-31l-40 120v-120h-48v142h-56v-142h-48v142h-63v46h231l39 -108l38 108h64v-188z" />
    <glyph glyph-name="Omega" unicode="&#x2126;" horiz-adv-x="631" 
d="M573 0h-228v83q3 0 19 1.5t23.5 3t22.5 6t23 12t17.5 19t14 29.5t4.5 42v288q0 61 -28.5 95t-78.5 34h-89q-111 0 -111 -129v-289q0 -27 7.5 -47.5t16 -31t26 -18t26 -9.5t28.5 -4t21 -2v-83h-228l17 83h34q-38 40 -38 113v307q0 92 47 148t141 56h112q94 0 141 -56
t47 -148v-307q0 -14 -1 -26.5t-4.5 -23t-5 -17t-7 -15.5t-7 -11.5t-8.5 -10.5l-7 -9h36z" />
    <glyph glyph-name="Delta" unicode="&#x2206;" horiz-adv-x="620" 
d="M583 0h-505l203 700h90zM460 83l-131 445l-128 -445h259z" />
    <glyph glyph-name="CR" horiz-adv-x="278" 
 />
    <glyph glyph-name="uni03BC.001" horiz-adv-x="556" 
 />
    <glyph glyph-name="Upsilondieresis" horiz-adv-x="564" 
d="M354 -15l-27 68q70 13 70 107v86q-49 -34 -124 -34q-104 0 -166.5 57t-62.5 158v273h91v-270q0 -64 36 -96t102 -32q51 0 82.5 17.5t41.5 43.5v337h91v-544q0 -156 -134 -171zM237 771q0 -17 -12 -28.5t-29 -11.5q-16 0 -28 11.5t-12 28.5t11.5 29t28.5 12t29 -12t12 -29
zM337 731q-17 0 -29 12t-12 29q0 16 12 28.5t29 12.5t29 -12t12 -29t-12 -29t-29 -12z" />
    <glyph glyph-name="_210" horiz-adv-x="500" 
 />
    <glyph glyph-name="_196" horiz-adv-x="620" 
d="M583 0h-505l203 700h90zM460 83l-131 445l-128 -445h259z" />
    <glyph glyph-name="Y.alt" horiz-adv-x="464" 
d="M278 0h-92v324l-190 376h97l138 -276l139 276h98l-190 -376v-324z" />
    <glyph glyph-name="y.alt" horiz-adv-x="495" 
d="M208 -198h-100l87 205l-193 494h102l142 -374l150 374h99z" />
    <glyph glyph-name="Ydieresis.alt" horiz-adv-x="464" 
d="M278 0h-92v324l-190 376h97l138 -276l139 276h98l-190 -376v-324zM200 771q0 -17 -12 -28.5t-29 -11.5t-28.5 11.5t-11.5 28.5t11.5 29t28.5 12t29 -12t12 -29zM300 731q-17 0 -29 12t-12 29q0 16 12.5 28.5t28.5 12.5q17 0 29 -12t12 -29t-12 -29t-29 -12z" />
    <glyph glyph-name="Yacute.alt" horiz-adv-x="464" 
d="M264 731h-63l48 111q8 20 26.5 26.5t32.5 0.5q18 -8 22.5 -26t-10.5 -39zM278 0h-92v324l-190 376h97l138 -276l139 276h98l-190 -376v-324z" />
    <glyph glyph-name="yacute.alt" horiz-adv-x="495" 
d="M208 -198h-100l87 205l-193 494h102l142 -374l150 374h99zM273 543h-63l48 111q8 20 26.5 26.5t32.5 0.5q18 -8 22.5 -26t-10.5 -39z" />
    <glyph glyph-name="ydieresis.alt" horiz-adv-x="495" 
d="M217 579q0 -17 -12 -28.5t-29 -11.5q-16 0 -28 11.5t-12 28.5t11.5 29t28.5 12t29 -12t12 -29zM317 539q-17 0 -29 12t-12 29q0 16 12 28.5t29 12.5t29 -12t12 -29t-12 -29t-29 -12zM208 -198h-100l87 205l-193 494h102l142 -374l150 374h99z" />
    <glyph glyph-name="Upsilon.alt" horiz-adv-x="474" 
d="M283 0h-92v324l-190 376h97l138 -276l139 276h98l-190 -376v-324z" />
    <glyph glyph-name="dotlessj" horiz-adv-x="238" 
d="M85 -42v457l-49 8l-23 78h163v-576q-2 -56 -44 -95t-98 -39l-22 70q3 0 8 1t17.5 7t22 15.5t17.5 29t8 44.5z" />
    <glyph glyph-name="sigma_chi" horiz-adv-x="888" 
d="M944 -151l-44 -61q-82 -1 -132 96l-102 208l-151 -296l-81 35l185 358l-65 132q-13 27 -19 51.5t-4 44.5t6 36t14 31t16.5 23t17 18t11.5 11l59 -51q-29 -19 -32.5 -61.5t18.5 -86.5l27 -53l112 217h102l-167 -314l125 -259q32 -73 104 -79zM420 310v-135
q0 -194 -185 -194q-95 0 -141.5 51.5t-46.5 142.5v179q0 48 18.5 81.5t48.5 48.5t67 21.5t74 -0.5q58 -9 97 -2t75 40l65 -48q-13 -27 -40.5 -48.5t-57.5 -29.5q26 -31 26 -107zM328 186v114q0 35 -7.5 63.5t-14 40t-9.5 11.5q-47 8 -82 8.5t-55.5 -21.5t-20.5 -68v-148
q0 -111 95 -111q49 0 71.5 26t22.5 85z" />
    <glyph glyph-name="sigma_tau" horiz-adv-x="798" 
d="M577 132v283h-93l-33 29q-18 -16 -57 -27q26 -31 26 -107v-135q0 -194 -185 -194q-95 0 -141.5 51.5t-46.5 142.5v179q0 48 18.5 81.5t48.5 48.5t67 21.5t74 -0.5q58 -9 97 -2t75 40l5.5 -5.5t6 -6.5t5.5 -5.5t5.5 -5.5t5.5 -5l6 -4.5t5.5 -3.5t6.5 -3t6.5 -2.5t6.5 -1.5
h290v-85h-109v-273q0 -73 64 -95q-4 -8 -16.5 -30.5t-18.5 -34.5q-119 32 -119 150zM328 186v114q0 35 -7.5 63.5t-14 40t-9.5 11.5q-47 8 -82 8.5t-55.5 -21.5t-20.5 -68v-148q0 -111 95 -111q49 0 71.5 26t22.5 85z" />
    <glyph glyph-name="lambda_lambda" horiz-adv-x="860" 
d="M580 334l-79 -291q-22 -24 -65 -61q-48 12 -76.5 41t-44.5 82q-14 46 -42 138.5t-42 138.5q-16 -9 -28 -48q-24 -74 -88 -334h-97l108 372q9 26 16.5 44.5t17 31t12.5 17t15 14.5l12 10q-3 10 -9.5 30t-9 27.5t-8 21.5t-8.5 19t-9 14t-11.5 12t-13 7.5t-16.5 6t-21 2.5
q3 12 10 35.5t10 35.5q61 1 94 -23.5t53 -83.5l139 -451l22 -49q39 132 82 279q9 26 17 44.5t16.5 30.5t13 18t14.5 14t12 10q-4 11 -10 30.5t-8.5 27t-8 21.5t-8.5 19t-8.5 14t-11 12t-13.5 7.5t-17 6t-21 2.5q16 54 20 71q61 1 94 -23.5t53 -83.5q25 -85 72.5 -240
t63.5 -209q10 -31 22 -51.5t27.5 -31.5t23.5 -14.5t26 -9.5q-10 -9 -29 -27t-29 -27q-49 11 -77.5 40t-44.5 82q-14 46 -42 138.5t-42 138.5q-16 -9 -28 -48z" />
    <glyph glyph-name="gamma_gamma" horiz-adv-x="861" 
d="M127 129l-108 372h97q15 -60 62 -242q2 -7 6 -24t6.5 -25.5t6.5 -23.5t7.5 -23.5t8 -18.5t9.5 -16t10 -9q14 46 42 138.5t42 138.5q16 53 44.5 82t77.5 40l60 -55q5 -19 23 -90t28 -110q1 -5 6 -24.5t7 -26.5t6.5 -23.5t7.5 -24.5t8 -19t10 -17t10 -9q14 46 42 138.5
t42 138.5q16 53 44.5 82t77.5 40q38 -36 58 -54q-18 -6 -26 -9.5t-23.5 -14.5t-27.5 -31.5t-22 -51.5q-49 -167 -122 -404q-13 -37 -15 -61t1 -33t13 -26q-13 -5 -38 -15.5t-38 -15.5q-24 23 -29 62.5t8 75.5q4 12 11.5 36t11.5 36q-1 1 -10.5 8.5t-11.5 10t-10.5 12.5
t-13.5 20t-12.5 27t-14.5 39q-62 210 -80 275q-13 -17 -22 -47q-21 -67 -61.5 -202t-60.5 -202q-13 -37 -15 -61t1 -33t13 -26q-13 -5 -38 -15.5t-38 -15.5q-24 23 -29 62.5t8 75.5q4 12 11.5 36t11.5 36q-1 1 -10.5 8.5t-11.5 10t-10.5 12.5t-13.5 20t-12.5 27t-14.5 39z
" />
    <glyph glyph-name="gamma_kappa" horiz-adv-x="867" 
d="M552 0h-91v451q-40 -21 -64 -94q-64 -216 -122 -404q-13 -37 -15 -61.5t1 -32.5t13 -26q-13 -5 -38 -15.5t-38 -15.5q-24 23 -29 62.5t8 75.5q4 12 11.5 36t11.5 36q-1 1 -10.5 8.5t-11.5 10t-10.5 12.5t-13.5 20t-12.5 27t-14.5 39l-108 372h97q10 -41 31 -121t31 -121
q2 -7 6 -24t6.5 -25.5t6.5 -23.5t7.5 -23.5t8 -18.5t9.5 -16t10 -9q14 46 42 138.5t42 138.5q16 53 44.5 82t77.5 40l114 -19v-187q28 32 86 95t87 94h114q-178 -196 -184 -202q21 -30 61 -86.5t48 -67.5q48 -64 88 -66q-14 -54 -21 -80q-35 0 -65 18.5t-45.5 36.5t-43.5 56
q-15 20 -44 60.5t-44 60.5q-6 -6 -18.5 -17.5t-18.5 -17.5v-196z" />
    <glyph glyph-name="Upsilontonos.alt" horiz-adv-x="658" 
d="M81 568h-63l48 111q8 20 26.5 26.5t32.5 0.5q18 -8 22.5 -26t-10.5 -39zM467 0h-92v324l-190 376h97l138 -276l139 276h98l-190 -376v-324z" />
    </font>
</defs>
</svg>
