<?xml version="1.0" standalone="no"?>
<!DOCTYPE svg PUBLIC "-//W3C//DTD SVG 1.1//EN" "http://www.w3.org/Graphics/SVG/1.1/DTD/svg11.dtd" >
<svg xmlns="http://www.w3.org/2000/svg" xmlns:xlink="http://www.w3.org/1999/xlink" version="1.1">
<metadata>
Created by FontForge 20170731 at Sun Sep 20 01:24:46 2009
 By ,,,
Copyright 2007-2009 by &#60;INDE&#62;, Andreas Kalpakidis. All rights reserved.
</metadata>
<defs>
<font id="advent-Regular" horiz-adv-x="500" >
  <font-face 
    font-family="advent"
    font-weight="400"
    font-stretch="normal"
    units-per-em="1000"
    panose-1="2 0 5 6 4 0 0 2 0 4"
    ascent="714"
    descent="-286"
    x-height="501"
    cap-height="700"
    bbox="-67 -219 1898 964"
    underline-thickness="50"
    underline-position="-200"
    unicode-range="U+0020-FB04"
  />
<missing-glyph 
d="M500 0h-500v700h500v-700zM450 50v600h-400v-600h400zM425 133l-39 -32l-136 204l-137 -205l-40 29l147 221l-147 221l40 29l137 -205l136 204l39 -32l-145 -217z" />
    <glyph glyph-name="f_f" unicode="ff" horiz-adv-x="474" 
d="M355 0h-56v561q0 31 11 59q-48 29 -89.5 26.5t-70 -30.5t-28.5 -67v-48h114l-24 -53h-90v-448h-56v561q0 49 25.5 85t64.5 50.5t88.5 7t94.5 -39.5q35 31 83.5 35t77.5 -16l-20 -49q-50 24 -87.5 -1t-37.5 -84v-48h114l-24 -53h-90v-448z" />
    <glyph glyph-name="f_i" unicode="fi" horiz-adv-x="416" 
d="M350 0h-56v501h56v-501zM122 0h-56v561q0 68 44.5 109t107.5 38.5t113 -48.5l-36 -37q-74 40 -123.5 15t-49.5 -89v-48h114l-24 -53h-90v-448z" />
    <glyph glyph-name="f_l" unicode="fl" horiz-adv-x="416" 
d="M350 0h-56v623q-74 39 -123 14t-49 -88v-48h114l-24 -53h-90v-448h-56v561q0 68 44.5 108t111.5 37.5t128 -49.5v-657z" />
    <glyph glyph-name="f_f_l" unicode="ffl" horiz-adv-x="646" 
d="M580 0h-56v629q-71 35 -120 8.5t-49 -80.5v-56h114q-4 -9 -12 -26.5t-12 -26.5h-90v-448h-56v561q0 31 11 59q-48 29 -89.5 26.5t-70 -30.5t-28.5 -67v-48h114q-4 -9 -12 -26.5t-12 -26.5h-90v-448h-56v561q0 49 25.5 85t64.5 50.5t88.5 7t94.5 -39.5q34 33 83 39
t89.5 -5.5t68.5 -31.5v-666z" />
    <glyph glyph-name="w_w_w" unicode="www" horiz-adv-x="1908" 
d="M1743 0h-77q-17 68 -50.5 203t-50.5 202l-102 -405h-77q-21 69 -63.5 207.5t-63.5 207.5q-21 -69 -63.5 -207.5t-64.5 -207.5h-77q-17 68 -50.5 203t-50.5 202l-102 -405h-77q-21 69 -62.5 205t-62.5 205q-21 -68 -63.5 -204.5t-63.5 -205.5h-77q-17 68 -50.5 203
t-50.5 202l-102 -405h-77l-153 501h59q22 -74 66.5 -221.5t66.5 -221.5q19 74 56.5 221.5t56.5 221.5h57q19 -74 55.5 -221.5t54.5 -221.5q18 59 53.5 177t53.5 177q5 15 14 44.5t13 44.5h62q22 -74 66.5 -221.5t66.5 -221.5q19 74 56.5 221.5t56.5 221.5h57
q18 -74 54.5 -221.5t55.5 -221.5q22 74 66.5 221.5t67.5 221.5h65q22 -74 66.5 -221.5t66.5 -221.5q19 74 56.5 221.5t56.5 221.5h57l110 -443l134 443h59q-26 -84 -77.5 -251t-77.5 -250z" />
    <glyph glyph-name="f_t" unicode="ft" horiz-adv-x="475" 
d="M416 30l-16 -43q-56 16 -81 51t-25 94v491q-74 39 -123 14t-49 -88v-48h114l-24 -53h-90v-448h-56v561q0 68 44.5 108t111.5 37.5t128 -49.5v-156h120l-24 -53h-96v-316q0 -80 66 -102z" />
    <glyph glyph-name="t_t" unicode="tt" horiz-adv-x="479" 
d="M298 132v318v-1l-1 -1h-178v-316q0 -79 66 -102q-2 -7 -7.5 -21.5t-8.5 -21.5q-56 16 -81 51t-25 94v568h56v-199h179v199h56v-199h120q-4 -9 -12 -26.5t-12 -26.5h-96v-316q0 -79 66 -102q-3 -7 -8.5 -21.5t-7.5 -21.5q-56 16 -81 51t-25 94z" />
    <glyph glyph-name=".notdef" 
d="M500 0h-500v700h500v-700zM450 50v600h-400v-600h400zM425 133l-39 -32l-136 204l-137 -205l-40 29l147 221l-147 221l40 29l137 -205l136 204l39 -32l-145 -217z" />
    <glyph glyph-name=".null" horiz-adv-x="0" 
 />
    <glyph glyph-name="nonmarkingreturn" horiz-adv-x="333" 
 />
    <glyph glyph-name="space" unicode=" " horiz-adv-x="249" 
 />
    <glyph glyph-name="exclam" unicode="!" horiz-adv-x="251" 
d="M149 120h-47l-10 553q0 37 33 37t33 -36zM124 0q-14 0 -23.5 10t-9.5 23t9.5 23t23.5 10t23.5 -10t9.5 -23t-9.5 -23t-23.5 -10z" />
    <glyph glyph-name="quotedbl" unicode="&#x22;" horiz-adv-x="323" 
d="M109 512h-40l-14 188q0 22 17 31t34 0t17 -31zM254 512h-40l-14 188q0 22 17 31t34 0t17 -31z" />
    <glyph glyph-name="numbersign" unicode="#" horiz-adv-x="675" 
d="M611 189h-199l-44 -189h-55l44 189h-119l-44 -189h-55l44 189h-120v56h133l40 168h-173v56h186l54 231h55l-54 -231h119l54 231h55l-54 -231h133v-56h-146l-40 -168h186v-56zM370 245l40 168h-119l-40 -168h119z" />
    <glyph glyph-name="dollar" unicode="$" horiz-adv-x="564" 
d="M310 -114h-56v104q-97 8 -152 63.5t-57 124.5h57q4 -48 45 -87.5t107 -46.5v310q-44 15 -72 28t-58.5 34.5t-45.5 52t-15 69.5q0 63 49 112.5t142 57.5v109h56v-108q68 -2 124 -29q0 -2 -17 -53q-48 25 -107 28v-261q38 -13 62 -23t55.5 -28t49 -37.5t30.5 -48.5t13 -65
q0 -87 -51 -141t-159 -61v-104zM310 334v-290q66 7 108 41.5t42 101.5q0 56 -38.5 88t-111.5 59zM254 413v241q-62 -8 -97.5 -38.5t-35.5 -80.5q0 -45 34.5 -72t98.5 -50z" />
    <glyph glyph-name="percent" unicode="%" horiz-adv-x="709" 
d="M87 1l-35 40l567 699l40 -41zM513 -11q-60 0 -102 42t-42 102t42 102t102 42t102 -42t42 -102t-42 -102t-102 -42zM607 133q0 37 -26 65.5t-68 28.5t-68 -28.5t-26 -65.5t26 -65.5t68 -28.5t68 28.5t26 65.5zM202 439q-60 0 -102 42t-42 102t42 102t102 42t102 -42
t42 -102t-42 -102t-102 -42zM296 583q0 37 -26 65.5t-68 28.5t-68 -28.5t-26 -65.5t26 -65.5t68 -28.5t68 28.5t26 65.5z" />
    <glyph glyph-name="ampersand" unicode="&#x26;" horiz-adv-x="580" 
d="M515 32l-16 -43q-38 11 -64.5 36.5t-33.5 61.5q-58 -98 -171 -98q-90 0 -137.5 63.5t-39.5 151.5q5 50 25 89t54.5 66.5t62 43t67.5 32.5q-33 5 -59 36.5t-30 75.5q-9 90 63 136.5t162 15.5l-31 -46q-62 19 -103.5 -13.5t-35.5 -84.5t48.5 -75t88.5 -13l27 5v137h57v-125
l73 16l12 -53l-85 -19v-287q0 -87 66 -109zM392 219v197q-40 -9 -72 -18.5t-72.5 -27.5t-68 -40t-48 -56.5t-23.5 -76.5q-5 -69 29 -111.5t99 -42.5q69 0 112.5 53.5t43.5 122.5z" />
    <glyph glyph-name="quotesingle" unicode="'" horiz-adv-x="170" 
d="M105 589h-40l-14 111q0 22 17 31t34 0t17 -31z" />
    <glyph glyph-name="parenleft" unicode="(" horiz-adv-x="237" 
d="M201 -82l-18 -37q-57 33 -81 72.5t-24 117.5v556q0 78 24 117.5t81 72.5l18 -37q-67 -50 -67 -144v-574q0 -94 67 -144z" />
    <glyph glyph-name="parenright" unicode=")" horiz-adv-x="237" 
d="M54 -119l-18 37q67 50 67 144v574q0 94 -67 144l18 37q57 -33 81 -72.5t24 -117.5v-556q0 -78 -24 -117.5t-81 -72.5z" />
    <glyph glyph-name="asterisk" unicode="*" horiz-adv-x="374" 
d="M296 450l-41 -31l-69 96l-65 -96l-45 31l65 91l-106 38l18 48l106 -40v113h53v-113l107 40l20 -48l-109 -38z" />
    <glyph glyph-name="plus" unicode="+" horiz-adv-x="412" 
d="M234 225h-55v133h-133v55h133v132h55v-132h132v-55h-132v-133z" />
    <glyph glyph-name="comma" unicode="," horiz-adv-x="204" 
d="M73 -84l-40 28q21 12 37 25t21 21l5 7l-10 3q-18 13 -18 36q1 13 11 22t24 8q13 -1 23.5 -12.5t10.5 -24.5q1 -59 -64 -113z" />
    <glyph glyph-name="hyphen" unicode="-" horiz-adv-x="496" 
d="M408 358h-320v55h320v-55z" />
    <glyph glyph-name="period" unicode="." horiz-adv-x="202" 
d="M101 0q-13 0 -23 10t-10 23t10 23t23 10t23 -10t10 -23t-10 -23t-23 -10z" />
    <glyph glyph-name="slash" unicode="/" horiz-adv-x="442" 
d="M91 -114h-61l324 931h57z" />
    <glyph glyph-name="zero" unicode="0" horiz-adv-x="552" 
d="M486 506v-321q0 -101 -61.5 -148.5t-147.5 -47.5t-148.5 47.5t-62.5 148.5v322q0 103 56.5 156t155.5 53t153.5 -56t54.5 -154zM431 187v329q0 73 -42.5 110t-112.5 37t-112 -37t-42 -110v-330q0 -71 43.5 -107.5t110.5 -36.5q68 0 111.5 35.5t43.5 109.5z" />
    <glyph glyph-name="one" unicode="1" horiz-adv-x="286" 
d="M183 0h-56v634q-16 -15 -39 -26.5t-38 -15.5l-15 -4l-13 53q7 0 18 2t39 17t48 40h56v-700z" />
    <glyph glyph-name="two" unicode="2" horiz-adv-x="439" 
d="M388 0h-351v53l254 385q41 67 35 116t-38 76t-74 27q-38 0 -68 -24t-44 -63l-52 20q19 53 60.5 86.5t103.5 33.5q71 0 119 -42t52.5 -108t-43.5 -147l-240 -361h286v-52z" />
    <glyph glyph-name="three" unicode="3" horiz-adv-x="457" 
d="M30 83l47 30q46 -69 130 -69q65 0 111 46t46 111q0 63 -44 108.5t-107 48.5h-110l193 287h-219v55h287v-49l-159 -238h2q89 0 151 -62t62 -150q0 -89 -62 -151t-151 -62q-54 0 -101 25.5t-76 69.5z" />
    <glyph glyph-name="four" unicode="4" horiz-adv-x="489" 
d="M387 0h-56v358h-316l194 342h58l-156 -287h220v287h56v-287h73l-19 -55h-54v-358z" />
    <glyph glyph-name="five" unicode="5" horiz-adv-x="466" 
d="M39 83l47 30q46 -69 130 -69q65 0 111 46t46 111t-46 111t-111 46h-144l36 342h265v-55h-216l-24 -232h83q89 0 151 -62t62 -150q0 -89 -62.5 -151t-150.5 -62q-54 0 -101 25.5t-76 69.5z" />
    <glyph glyph-name="six" unicode="6" horiz-adv-x="517" 
d="M63 201v260q0 40 12 78.5t38.5 76t76.5 61t117 23.5h35v-55h-39q-75 0 -130 -48.5t-55 -142.5v-122q21 38 63.5 59.5t93.5 21.5q89 0 151 -62t62 -150q0 -89 -62 -151t-151 -62q-88 0 -150 62t-62 151zM118 207v-6q0 -66 45.5 -112t111.5 -46t112 46t46 112t-46 111.5
t-112 45.5q-64 0 -109.5 -43.5t-47.5 -107.5z" />
    <glyph glyph-name="seven" unicode="7" horiz-adv-x="441" 
d="M109 0h-62l317 645h-330v55h394v-55z" />
    <glyph glyph-name="eight" unicode="8" horiz-adv-x="515" 
d="M250 358q-63 -3 -106.5 -48t-43.5 -109q0 -65 46 -111t111 -46t111 46t46 111q0 64 -46 109t-118 48zM357 388q51 -28 82 -77.5t31 -109.5q0 -89 -62 -151t-151 -62t-151 62t-62 151q0 61 31 111t83 77q-75 51 -75 144q0 73 51 124.5t124 51.5q74 0 125 -51.5t51 -124.5
q0 -94 -77 -145zM253 413q54 0 90.5 35t36.5 85q0 51 -36 87t-86 36q-51 0 -87 -36t-36 -87q0 -49 34 -83.5t84 -36.5z" />
    <glyph glyph-name="nine" unicode="9" horiz-adv-x="519" 
d="M211 0h-35v55h39q75 0 130 48.5t55 142.5v107q-63 -68 -157 -68q-89 0 -151 62t-62 150q0 89 62 151t151 62q88 0 150 -62t62 -151v-258q0 -40 -12 -78.5t-38.5 -76t-76.5 -61t-117 -23.5zM243 340q66 0 111.5 45.5t45.5 117.5q0 63 -46 107.5t-111 44.5q-66 0 -112 -46
t-46 -112t46 -111.5t112 -45.5z" />
    <glyph glyph-name="colon" unicode=":" horiz-adv-x="256" 
d="M128 352q-14 0 -23.5 10t-9.5 23t9.5 23t23.5 10t23.5 -10t9.5 -23t-9.5 -23t-23.5 -10zM128 111q-14 0 -23.5 9.5t-9.5 23.5t9.5 23.5t23.5 9.5t23.5 -9.5t9.5 -23.5t-9.5 -23.5t-23.5 -9.5z" />
    <glyph glyph-name="semicolon" unicode=";" horiz-adv-x="254" 
d="M127 241q-13 0 -23 9.5t-10 23.5t10 23.5t23 9.5t23 -9.5t10 -23.5t-10 -23.5t-23 -9.5zM97 -84l-40 28q21 12 37 25t21 21l5 7l-10 3q-18 13 -18 36q1 13 11 22t24 8q13 -1 23.5 -12.5t10.5 -24.5q1 -59 -64 -113z" />
    <glyph glyph-name="less" unicode="&#x3c;" horiz-adv-x="478" 
d="M386 118l-39 -38l-278 278v1l278 278l39 -38l-241 -241z" />
    <glyph glyph-name="equal" unicode="=" horiz-adv-x="498" 
d="M409 358h-320v55h320v-55zM409 253h-320v55h320v-55z" />
    <glyph glyph-name="greater" unicode="&#x3e;" horiz-adv-x="478" 
d="M131 80l-39 38l241 240l-241 241l39 38l278 -278v-1z" />
    <glyph glyph-name="question" unicode="?" horiz-adv-x="433" 
d="M227 119h-51v93q0 46 13.5 82.5t29.5 56t41.5 46t37.5 43.5q36 56 32.5 104t-37 80t-79.5 32q-51 0 -86.5 -31.5t-35.5 -92.5h-56q0 75 46.5 126t131.5 51q52 0 94 -26.5t63.5 -67t18 -93.5t-36.5 -101q-19 -27 -46 -54.5t-41.5 -43.5t-26 -51.5t-12.5 -89.5v-63zM201 0
q-13 0 -23 10t-10 23t10 23t23 10t23 -10t10 -23t-10 -23t-23 -10z" />
    <glyph glyph-name="at" unicode="@" horiz-adv-x="768" 
d="M634 162v183q0 73 10 97q17 35 63 50l15 -38q-34 -15 -34 -70l1 -213q0 -63 -30.5 -111t-80.5 -74t-102.5 -38.5t-108.5 -13.5q-129 -3 -216.5 60.5t-87.5 188.5v159q0 55 18 98t48.5 68t58.5 38.5t59 20.5q53 12 105.5 12t103.5 -14t83 -56.5t32 -109.5l37 -16v-49
l-37 16v-259q-41 -11 -73 -18.5t-72.5 -13t-71.5 -5t-62.5 8.5t-52.5 24.5t-35.5 46t-17.5 70.5v101q0 111 88 144q98 36 238 -31q-6 58 -47.5 84t-103.5 26q-48 0 -88 -8.5t-76.5 -28.5t-57 -58t-20.5 -91v-152q0 -71 35.5 -117.5t88 -65t119.5 -18.5q116 0 194 45t78 128z
M515 133v234q-39 19 -82.5 30.5t-88.5 12t-74 -26.5t-29 -81v-98q1 -75 74 -94t200 23z" />
    <glyph glyph-name="A" unicode="A" horiz-adv-x="527" 
d="M517 0h-60l-80 245h-228l-78 -245h-59l224 700h53zM362 300l-100 313l-97 -313h197z" />
    <glyph glyph-name="B" unicode="B" horiz-adv-x="566" 
d="M313 0h-230v700h221q82 0 129 -42t47 -128q0 -91 -66 -136q-1 -1 -1 -2v-1q44 -20 73.5 -65t29.5 -117q0 -39 -9.5 -73.5t-31 -66t-63 -50.5t-99.5 -19zM139 413h163q56 0 88 30t32 87q0 117 -126 117h-157v-234zM139 53h172q145 0 145 160q0 70 -38 107.5t-90 37.5h-189
v-305z" />
    <glyph glyph-name="C" unicode="C" horiz-adv-x="459" 
d="M416 70l12 -47q-49 -19 -98 -27.5t-97 -4t-84.5 24t-59 62t-22.5 105.5v321q0 76 21.5 115t65.5 66q50 28 120 25t129 -33l-16 -38q-57 21 -108 21q-156 0 -156 -147v-328q0 -64 31 -100.5t96 -43t166 28.5z" />
    <glyph glyph-name="D" unicode="D" horiz-adv-x="568" 
d="M291 0h-208v701h188q113 0 172.5 -62t59.5 -165v-274q0 -200 -212 -200zM447 190v294q0 84 -50 125t-116 41h-142v-600h136q172 0 172 140z" />
    <glyph glyph-name="E" unicode="E" horiz-adv-x="465" 
d="M415 0h-332v700h334v-52h-278v-235h191l-19 -55h-172v-308h276v-50z" />
    <glyph glyph-name="F" unicode="F" horiz-adv-x="433" 
d="M139 0h-56v700h334v-53h-278v-234h171l-23 -55h-148v-358z" />
    <glyph glyph-name="G" unicode="G" horiz-adv-x="526" 
d="M477 0h-41l-14 41q-52 -51 -145 -51q-88 0 -149.5 50t-61.5 149v314q0 128 87 181q50 28 120 25t129 -33l-16 -38q-57 21 -108 21q-156 0 -156 -147v-325q0 -67 43.5 -105t110.5 -38q68 0 108 39t40 103v59h-66l-19 55h138v-300z" />
    <glyph glyph-name="H" unicode="H" horiz-adv-x="596" 
d="M513 0h-56v358h-318v-358h-56v700h56v-287h318v287h56v-700z" />
    <glyph glyph-name="I" unicode="I" horiz-adv-x="240" 
d="M157 0h-56v649l-67 2v49h123v-700z" />
    <glyph glyph-name="J" unicode="J" horiz-adv-x="248" 
d="M43 -37l-13 37q33 0 57.5 27t24.5 87v535l-67 2v49h124v-582q0 -74 -33.5 -114.5t-92.5 -40.5z" />
    <glyph glyph-name="K" unicode="K" horiz-adv-x="487" 
d="M480 0h-67l-226 345l-48 -76v-269h-56v701h56v-334l224 334h65l-205 -303z" />
    <glyph glyph-name="L" unicode="L" horiz-adv-x="455" 
d="M444 0h-361v700h56v-650h305v-50z" />
    <glyph glyph-name="M" unicode="M" horiz-adv-x="702" 
d="M619 0h-56v535l-182 -535h-61l-181 535v-535h-56v700h56l211 -614l213 614h56v-700z" />
    <glyph glyph-name="N" unicode="N" horiz-adv-x="658" 
d="M575 0h-56l-380 597v-597h-56v700h56l380 -597v597h56v-700z" />
    <glyph glyph-name="O" unicode="O" horiz-adv-x="552" 
d="M486 506v-321q0 -101 -61.5 -148.5t-147.5 -47.5t-148.5 47.5t-62.5 148.5v322q0 103 56.5 156t155.5 53t153.5 -56t54.5 -154zM431 187v329q0 73 -42.5 110t-112.5 37t-112 -37t-42 -110v-330q0 -71 43.5 -107.5t110.5 -36.5q68 0 111.5 35.5t43.5 109.5z" />
    <glyph glyph-name="P" unicode="P" horiz-adv-x="554" 
d="M139 300h198q36 0 61 14.5t37 32.5t18.5 48.5t7 46.5t0.5 44q0 81 -34.5 121t-93.5 40h-194v-347zM139 0h-56v700h246q95 0 141.5 -58t46.5 -156q0 -35 -1.5 -59.5t-11.5 -62t-28 -61t-54 -41t-86 -17.5h-197v-245z" />
    <glyph glyph-name="Q" unicode="Q" horiz-adv-x="554" 
d="M432 -40v-54q-120 0 -162 83q-39 1 -73 12t-64.5 33t-48 61t-17.5 90v322q0 103 56.5 156t155.5 53t153.5 -56t54.5 -154v-321q0 -87 -45.5 -133.5t-115.5 -58.5q28 -34 106 -33zM432 187v329q0 73 -42.5 110t-112.5 37t-112 -37t-42 -110v-330q0 -64 35.5 -100.5
t93.5 -42.5q-4 24 -4 58v73h56v-72q0 -41 3 -58q57 7 91 42.5t34 100.5z" />
    <glyph glyph-name="R" unicode="R" horiz-adv-x="575" 
d="M518 0h-57l-85 248q-18 -3 -40 -3h-197v-245h-56v700h246q95 0 141.5 -58t46.5 -156q0 -47 -3.5 -80t-24.5 -76.5t-60 -64.5zM139 300h198q36 0 61 14.5t37 32.5t18.5 48.5t7 46.5t0.5 44q0 81 -34.5 121t-93.5 40h-194v-347z" />
    <glyph glyph-name="S" unicode="S" horiz-adv-x="551" 
d="M44 178h57q5 -53 53.5 -94t124.5 -41q77 0 128.5 34.5t51.5 109.5q0 46 -29.5 78.5t-73.5 49.5t-95.5 36.5t-95.5 38.5t-73.5 57t-29.5 91q0 70 58 121t167 51q83 0 146 -30q0 -2 -17 -53q-57 29 -127 29q-77 0 -123 -32t-46 -89q0 -34 22 -59t57 -41t77.5 -30t85.5 -31
t78 -38.5t57 -58.5t22 -85q0 -92 -58.5 -147.5t-180.5 -55.5q-109 0 -171.5 57.5t-64.5 131.5z" />
    <glyph glyph-name="T" unicode="T" horiz-adv-x="426" 
d="M241 0h-56v650h-170v50h402v-50h-176v-650z" />
    <glyph glyph-name="U" unicode="U" horiz-adv-x="579" 
d="M444 178v523h56v-515q0 -53 -18.5 -92t-50 -60t-66.5 -31t-75 -10t-75.5 10t-67 31t-50 60t-18.5 92v515h56v-523q0 -61 44.5 -98t109.5 -37t110 37t45 98z" />
    <glyph glyph-name="V" unicode="V" horiz-adv-x="504" 
d="M291 0h-77l-201 700h60l179 -631l179 631h60z" />
    <glyph glyph-name="W" unicode="W" horiz-adv-x="737" 
d="M553 0h-85l-99 599l-99 -599h-85l-165 700h60l143 -631l107 631h78l107 -631l141 631h60z" />
    <glyph glyph-name="X" unicode="X" horiz-adv-x="546" 
d="M526 0h-69l-184 294l-185 -294h-69l221 352l-202 348h63l172 -294l174 294h63l-203 -348z" />
    <glyph glyph-name="Y" unicode="Y" horiz-adv-x="569" 
d="M384 -7l-13 37q61 23 61 122v142q-27 -24 -72 -36.5t-86 -12.5q-106 0 -167.5 52.5t-61.5 155.5v247h56v-257q0 -70 48 -106.5t125 -36.5q59 0 103 25t55 75v300h57v-544q0 -73 -27.5 -114.5t-77.5 -48.5z" />
    <glyph glyph-name="Z" unicode="Z" horiz-adv-x="565" 
d="M524 0h-487v50l410 599h-397v51h468v-50l-410 -599h416v-51z" />
    <glyph glyph-name="bracketleft" unicode="[" horiz-adv-x="271" 
d="M240 -114h-161v931h161v-45l-105 -10v-821l105 -10v-45z" />
    <glyph glyph-name="backslash" unicode="\" horiz-adv-x="442" 
d="M412 -114h-61l-320 931h57z" />
    <glyph glyph-name="bracketright" unicode="]" horiz-adv-x="271" 
d="M192 -114h-161v45l105 10v821l-105 10v45h161v-931z" />
    <glyph glyph-name="asciicircum" unicode="^" horiz-adv-x="516" 
d="M365 719l-105 104l-109 -104l-38 39l148 141l142 -141z" />
    <glyph glyph-name="underscore" unicode="_" horiz-adv-x="382" 
d="M351 -55h-320v55h320v-55z" />
    <glyph glyph-name="grave" unicode="`" horiz-adv-x="515" 
d="M308 590h-44l-69 92q-8 10 -3.5 26t20.5 21q31 9 45 -21z" />
    <glyph glyph-name="a" unicode="a" horiz-adv-x="482" 
d="M424 298v-298q-152 -14 -213 -8q-164 18 -172 163v14v83q0 99 69 133q54 25 132 12.5t128 -51.5q0 55 -32 87.5t-123 32.5l3 43q38 0 68.5 -4.5t51.5 -15t37 -21.5t25 -29t15 -31.5t8 -36.5t2.5 -36t0.5 -37zM368 46v257q-40 19 -81.5 31t-88 16t-75.5 -21t-29 -80v-87
q0 -83 72 -108.5t202 -7.5z" />
    <glyph glyph-name="b" unicode="b" horiz-adv-x="486" 
d="M435 346v-189q0 -99 -78 -139q-59 -30 -132 -30t-159 12v700h56v-226q42 30 110.5 34.5t117.5 -18.5q85 -39 85 -144zM380 156v187q0 52 -28 81t-69.5 33.5t-84 -4.5t-76.5 -28v-377q258 -42 258 108z" />
    <glyph glyph-name="c" unicode="c" horiz-adv-x="406" 
d="M359 51l12 -45q-120 -32 -210 -4q-59 20 -85.5 61.5t-26.5 116.5v128q0 71 28 119t74 67t103 15t115 -31l-16 -41q-46 18 -89 21.5t-79 -8t-58 -46.5t-22 -90v-145q0 -49 21.5 -79.5t59 -41.5t80.5 -10t93 13z" />
    <glyph glyph-name="d" unicode="d" horiz-adv-x="486" 
d="M51 157v189q0 105 85 144q49 23 117.5 18.5t110.5 -34.5v226h56v-700q-86 -12 -159 -12t-132 30q-78 40 -78 139zM364 48v377q-34 19 -76.5 28t-84 4.5t-69.5 -33.5t-28 -81v-187q0 -150 258 -108z" />
    <glyph glyph-name="e" unicode="e" horiz-adv-x="455" 
d="M365 78l22 -43q-74 -45 -165 -47q-78 -2 -124 34.5t-46 111.5v205q0 81 50.5 126t133.5 45t129.5 -44.5t46.5 -123.5v-130l-304 -17v-61q0 -54 39 -78t98 -17t120 39zM356 262v87q0 43 -23 70.5t-48 35t-50 7.5q-55 0 -91 -30t-36 -94v-88z" />
    <glyph glyph-name="f" unicode="f" horiz-adv-x="241" 
d="M122 0h-56v549q0 50 17 86t43.5 51.5t59 22t63.5 -1.5l-9 -49q-118 16 -118 -109v-48h114l-24 -53h-90v-448z" />
    <glyph glyph-name="g" unicode="g" horiz-adv-x="493" 
d="M320 -210l-15 43q66 25 66 104v124q-42 -73 -135 -73q-88 0 -137 48t-49 140v149q0 88 51.5 136.5t138.5 48.5q93 0 135 -67l-4 58h56v-565q0 -60 -25 -94t-82 -52zM371 173v163q0 62 -40 92.5t-95 30.5q-53 0 -91.5 -32.5t-38.5 -106.5v-153q0 -63 35.5 -95t94.5 -32
q56 0 95.5 34.5t39.5 98.5z" />
    <glyph glyph-name="h" unicode="h" horiz-adv-x="496" 
d="M435 0h-55v343q0 52 -28 81t-69.5 33.5t-84 -4.5t-76.5 -28v-425h-56v700h56v-226q42 30 111 35t117 -18q85 -39 85 -145v-346z" />
    <glyph glyph-name="i" unicode="i" horiz-adv-x="188" 
d="M95 643q-13 0 -23.5 10.5t-10.5 23.5t10 23t24 10q13 0 23 -10t10 -23q0 -14 -10 -24t-23 -10zM122 0h-56v501h56v-501z" />
    <glyph glyph-name="j" unicode="j" horiz-adv-x="205" 
d="M83 -56v502l-45 3l-23 52h124v-576q-2 -58 -36 -96t-88 -38l-7 43q3 0 8 1.5t18 8t23 17.5t18 32.5t8 50.5zM112 643q-14 0 -24 10.5t-10 23.5t10 23t24 10t23.5 -10t9.5 -23q0 -14 -10 -24t-23 -10z" />
    <glyph glyph-name="k" unicode="k" horiz-adv-x="437" 
d="M433 0h-67l-192 317l-52 -45v-272h-56v700h56v-365l200 185l40 -39l-148 -129q68 -113 219 -352z" />
    <glyph glyph-name="l" unicode="l" horiz-adv-x="188" 
d="M122 0h-56v700h56v-700z" />
    <glyph glyph-name="m" unicode="m" horiz-adv-x="751" 
d="M690 0h-55v343q0 45 -19 73t-49.5 36t-64 5.5t-67.5 -15.5l-37 -18q17 -34 17 -78v-346h-55v343q0 52 -25 81t-62.5 33t-77 -4.5t-73.5 -27.5v-425h-56v501h56l-5 -32q74 42 143.5 39t112.5 -47q14 8 42 22q72 30 133.5 26t101.5 -48t40 -115v-346z" />
    <glyph glyph-name="n" unicode="n" horiz-adv-x="496" 
d="M435 0h-55v343q0 52 -28 81t-69.5 33.5t-84 -4.5t-76.5 -28v-425h-56v501h56l-4 -34q42 35 113.5 41.5t118.5 -17.5q85 -39 85 -145v-346z" />
    <glyph glyph-name="o" unicode="o" horiz-adv-x="469" 
d="M421 316v-132q0 -84 -46 -139t-139 -55t-140.5 55.5t-47.5 138.5v132q0 95 48.5 145.5t139.5 50.5q87 0 136 -52.5t49 -143.5zM365 174v142q0 145 -129 145q-132 0 -132 -145v-142q0 -60 35.5 -97t96.5 -37q62 0 95.5 36.5t33.5 97.5z" />
    <glyph glyph-name="p" unicode="p" horiz-adv-x="491" 
d="M122 -188l-56 -22v711h56l-5 -51q55 59 136 59q93 0 141.5 -54t48.5 -140v-139q0 -91 -51 -139.5t-135 -48.5q-89 0 -135 54v-230zM387 166v153q0 73 -38.5 106t-91.5 33q-54 0 -93 -32.5t-42 -101.5v-158q0 -65 37 -96t98 -31q55 0 92.5 32.5t37.5 94.5z" />
    <glyph glyph-name="q" unicode="q" horiz-adv-x="491" 
d="M425 -210l-56 22v230q-46 -54 -135 -54q-84 0 -135 48.5t-51 139.5v138q0 86 48.5 140.5t141.5 54.5q80 0 136 -61l-5 53h56v-711zM369 166v158q-3 69 -42 101.5t-93 32.5q-53 0 -91.5 -33.5t-38.5 -106.5v-152q0 -62 37.5 -94.5t92.5 -32.5q61 0 98 31t37 96z" />
    <glyph glyph-name="r" unicode="r" horiz-adv-x="319" 
d="M122 0h-56v501h56l-3 -35q67 62 197 35l-15 -51q-34 9 -74 10t-72.5 -17t-32.5 -51v-392z" />
    <glyph glyph-name="s" unicode="s" horiz-adv-x="424" 
d="M38 127h53q6 -45 45 -67.5t87 -22.5q45 0 82 20.5t37 66.5q0 37 -28.5 60t-69.5 36t-83 27.5t-74 43.5t-37 74q-6 55 37 101.5t134 46.5q32 0 60 -7.5t40 -14.5l12 -7l-19 -46q-36 26 -93 26q-51 0 -85.5 -24.5t-30.5 -69.5q3 -31 34.5 -51.5t74 -33t84.5 -28.5t71 -49
t29 -83q0 -60 -44.5 -100t-130.5 -40q-85 0 -134 41t-51 101z" />
    <glyph glyph-name="t" unicode="t" horiz-adv-x="244" 
d="M185 30l-16 -43q-56 16 -81 51t-25 94v568h56v-199h120l-24 -53h-96v-316q0 -80 66 -102z" />
    <glyph glyph-name="u" unicode="u" 
d="M434 0h-55l4 51q-24 -30 -60.5 -46t-73.5 -16q-188 0 -188 183v329h56v-336q0 -64 35.5 -95t96.5 -31q129 0 129 126v336h56v-501z" />
    <glyph glyph-name="v" unicode="v" horiz-adv-x="408" 
d="M242 0h-77l-153 501h59l133 -443l134 443h59z" />
    <glyph glyph-name="w" unicode="w" horiz-adv-x="688" 
d="M522 0h-77l-101 405l-102 -405h-77l-153 501h59l133 -443l113 443h57l110 -443l134 443h59z" />
    <glyph glyph-name="x" unicode="x" horiz-adv-x="428" 
d="M403 0h-66l-123 197l-123 -197h-66l156 249l-156 252h63l126 -200l126 200h63l-157 -252z" />
    <glyph glyph-name="y" unicode="y" horiz-adv-x="508" 
d="M329 -210l-15 43q67 25 67 104v112q-37 -61 -139 -61q-88 0 -135.5 47.5t-47.5 140.5v325h54v-335q0 -64 35 -95.5t94 -31.5q62 0 100 31t38 96v197q0 73 10 97q17 35 63 50l15 -38q-34 -15 -34 -70v-463q0 -61 -24 -96t-81 -53z" />
    <glyph glyph-name="z" unicode="z" horiz-adv-x="434" 
d="M402 0h-367v50l275 400h-266v51h337v-50l-277 -400h298v-51z" />
    <glyph glyph-name="braceleft" unicode="{" horiz-adv-x="261" 
d="M230 -79l-18 -37q-66 38 -86 85.5t-20 170.5v107q0 19 -16 43.5t-26.5 34.5t-31.5 29q24 19 48 50t24 58v105q0 84 9 129.5t30.5 72.5t66.5 53l18 -37q-68 -51 -68 -144v-185q0 -43 -58 -101q60 -60 60 -102v-188q0 -93 68 -144z" />
    <glyph glyph-name="bar" unicode="|" horiz-adv-x="214" 
d="M135 -114h-56v931h56v-931z" />
    <glyph glyph-name="braceright" unicode="}" horiz-adv-x="261" 
d="M49 -116l-18 37q68 51 68 144v188q0 42 60 102q-58 58 -58 101v185q0 93 -68 144l18 37q45 -26 66.5 -53t30.5 -72.5t9 -129.5v-105q0 -27 24 -58t48 -50q-21 -19 -31.5 -29t-26.5 -34.5t-16 -43.5v-107q0 -123 -20 -170.5t-86 -85.5z" />
    <glyph glyph-name="asciitilde" unicode="~" horiz-adv-x="535" 
d="M445 379l27 -38q-32 -41 -73 -51.5t-80.5 0t-78.5 22.5t-78.5 7t-68.5 -38l-26 38q33 41 75 51.5t82 0.5t79.5 -21t77 -7t64.5 36z" />
    <glyph glyph-name="uni00A0" unicode="&#xa0;" horiz-adv-x="249" 
 />
    <glyph glyph-name="exclamdown" unicode="&#xa1;" horiz-adv-x="238" 
d="M86 37l10 553h47l9 -554q0 -36 -33 -36t-33 37zM118 644q-14 0 -23.5 10t-9.5 23t9.5 23t23.5 10t23.5 -10t9.5 -23t-9.5 -23t-23.5 -10z" />
    <glyph glyph-name="cent" unicode="&#xa2;" horiz-adv-x="426" 
d="M273 -114h-55v106q-19 2 -48 10q-59 20 -85.5 61.5t-26.5 116.5v128q0 91 44 141.5t116 58.5v115h55v-115q53 -6 105 -30l-16 -41q-49 18 -89 22v-421q43 0 95 13l12 -45q-57 -15 -107 -16v-104zM218 42v415q-48 -9 -76 -44.5t-28 -98.5v-145q0 -108 104 -127z" />
    <glyph glyph-name="sterling" unicode="&#xa3;" horiz-adv-x="473" 
d="M411 0h-360v50q51 26 82.5 73t31.5 102q0 29 -14 78h-77v55h59q-35 107 -35 157q0 87 54.5 140.5t138.5 53.5q69 0 109 -25l-18 -49q-41 23 -91 23q-60 0 -99 -39.5t-39 -105.5q0 -33 40 -155h201v-55h-184q13 -50 12 -82q-3 -53 -25 -97.5t-61 -68.5h275v-55z" />
    <glyph glyph-name="currency" unicode="&#xa4;" horiz-adv-x="520" 
d="M400 150l-33 33q-48 -35 -107 -35q-62 0 -107 36l-33 -35l-32 33l32 34q-35 48 -35 107q0 58 34 105l-31 33l33 33l31 -32q48 37 108 37t106 -35l32 31l34 -35l-31 -31q35 -48 35 -106q0 -60 -37 -108l33 -33zM382 323q0 51 -36 87t-86 36q-51 0 -87 -36t-36 -87
q0 -50 36 -85t87 -35q50 0 86 35t36 85z" />
    <glyph glyph-name="yen" unicode="&#xa5;" horiz-adv-x="534" 
d="M295 0h-56v253h-131v55h131v32l-11 18h-120v55h88l-165 287h63l168 -287h8l170 287h63l-167 -287h92v-55h-124l-9 -16v-34h133v-55h-133v-253z" />
    <glyph glyph-name="section" unicode="&#xa7;" horiz-adv-x="562" 
d="M43 -8h57q5 -53 53.5 -94t124.5 -41t128 34.5t52 109.5q0 46 -29.5 78.5t-73.5 49.5t-95.5 36.5t-95.5 38.5t-73.5 57t-29.5 91q0 52 32 93q-32 40 -32 95q0 70 58 121t167 51q83 0 146 -30q0 -2 -17 -53q-57 29 -127 29q-77 0 -123 -32t-46 -89q0 -34 22 -59t57 -41
t77.5 -30t85.5 -31t78 -38.5t57 -58.5t22 -85q0 -59 -23 -102q23 -35 23 -86q0 -92 -58.5 -147.5t-180.5 -55.5q-109 0 -171.5 57.5t-64.5 131.5zM451 140q7 26 7 49q0 49 -35.5 83.5t-81 50t-108 39t-97.5 46.5q-17 -26 -17 -59q0 -43 37 -73.5t85 -45t111 -39t99 -51.5z
" />
    <glyph glyph-name="dieresis" unicode="&#xa8;" horiz-adv-x="514" 
d="M179 664q-13 0 -23 10t-10 23t10 23t23 10t23 -10t10 -23t-10 -23t-23 -10zM335 664q-13 0 -23 10t-10 23t10 23t23 10t23 -10t10 -23t-10 -23t-23 -10z" />
    <glyph glyph-name="copyright" unicode="&#xa9;" horiz-adv-x="851" 
d="M427 -127q-156 0 -266 108t-110 268q0 158 109 265t267 107q157 0 265 -107t108 -265q0 -160 -109 -268t-264 -108zM427 -72q132 0 223.5 90.5t91.5 230.5q0 132 -92.5 224.5t-222.5 92.5q-133 0 -225 -89.5t-92 -227.5q0 -141 91.5 -231t225.5 -90zM561 175h64
q-16 -72 -70 -115.5t-124 -43.5q-99 0 -156.5 65t-57.5 166q0 96 57 163.5t155 67.5q73 0 128 -43t67 -112h-63q-8 40 -45 68t-86 28q-76 0 -113.5 -49t-37.5 -121q0 -75 39 -125t113 -50q50 0 86.5 28.5t43.5 72.5z" />
    <glyph glyph-name="ordfeminine" unicode="&#xaa;" horiz-adv-x="376" 
d="M315 555v-164q-48 -8 -82 -10.5t-72 1.5t-61 18t-38.5 44t-15.5 75q0 82 62 105.5t155 -32.5q0 32 -27.5 53t-89.5 21l3 43q98 0 132 -37.5t34 -116.5zM263 435v108q-170 94 -170 -30q0 -60 49.5 -79.5t120.5 1.5z" />
    <glyph glyph-name="guillemotleft" unicode="&#xab;" horiz-adv-x="553" 
d="M266 114l-35 -34l-187 187v1l187 187l37 -38l-150 -150zM486 114l-35 -34l-187 187v1l187 187l37 -38l-150 -150z" />
    <glyph glyph-name="uni00AD" unicode="&#xad;" horiz-adv-x="410" 
d="M365 358h-320v55h320v-55z" />
    <glyph glyph-name="registered" unicode="&#xae;" horiz-adv-x="851" 
d="M613 39h-67l-119 190h-81v-190h-56v437h160q75 0 114 -34t39 -91q0 -52 -31.5 -81.5t-83.5 -35.5zM346 282h74q28 0 46 2t38.5 8t31 21.5t10.5 40.5q0 39 -32 55t-75 16h-93v-143zM427 -127q-156 0 -266 108t-110 268q0 158 109 265t267 107q157 0 265 -107t108 -265
q0 -160 -109 -268t-264 -108zM427 -72q132 0 223.5 90.5t91.5 230.5q0 132 -92.5 224.5t-222.5 92.5q-133 0 -225 -89.5t-92 -227.5q0 -141 91.5 -231t225.5 -90z" />
    <glyph glyph-name="macron" unicode="&#xaf;" horiz-adv-x="515" 
d="M368 619h-221v58h221v-58z" />
    <glyph glyph-name="degree" unicode="&#xb0;" horiz-adv-x="374" 
d="M187 421q-60 0 -102 42t-42 102t42 102t102 42t102 -42t42 -102t-42 -102t-102 -42zM281 565q0 37 -26 65.5t-68 28.5t-68 -28.5t-26 -65.5t26 -65.5t68 -28.5t68 28.5t26 65.5z" />
    <glyph glyph-name="plusminus" unicode="&#xb1;" horiz-adv-x="456" 
d="M388 237h-320v55h133v66h-133v55h133v132h55v-132h132v-55h-132v-66h132v-55z" />
    <glyph glyph-name="acute" unicode="&#xb4;" horiz-adv-x="515" 
d="M249 588h-44l51 118q14 30 45 21q16 -5 20.5 -21t-3.5 -26z" />
    <glyph glyph-name="mu" unicode="&#xb5;" horiz-adv-x="528" 
d="M475 27l-27 -33q-26 0 -44 31q-43 -43 -137 -36q-28 3 -54.5 11t-41.5 14.5t-29.5 14.5t-16.5 9v-248l-57 9v702h57v-396q8 -8 23 -19t52.5 -27.5t75.5 -18.5q115 -7 115 113v345l57 12v-441q3 -28 27 -42z" />
    <glyph glyph-name="paragraph" unicode="&#xb6;" horiz-adv-x="672" 
d="M596 -199h-56v897l-68 1v-897h-56v444h-201q-32 0 -58 6.5t-44 20t-31.5 28t-21 38.5t-12.5 42t-7 48t-2.5 47t-0.5 48q0 100 46 163t140 63h372v-949z" />
    <glyph glyph-name="cedilla" unicode="&#xb8;" horiz-adv-x="515" 
d="M149 -191l24 53q37 -25 78 -25q24 0 43 10.5t19 31.5q0 22 -20.5 32t-56.5 -3l-34 -14l-17 28l61 78h42l-40 -53q9 6 36 6q34 0 57.5 -19.5t23.5 -54.5q0 -48 -37 -68.5t-87 -20.5q-40 0 -92 19z" />
    <glyph glyph-name="guillemotright" unicode="&#xbb;" horiz-adv-x="553" 
d="M322 80l-35 34l148 153l-150 150l37 38l187 -187v-1zM102 80l-35 34l148 153l-150 150l37 38l187 -187v-1z" />
    <glyph glyph-name="questiondown" unicode="&#xbf;" horiz-adv-x="449" 
d="M349 177h56q0 -75 -46.5 -126t-131.5 -51q-52 0 -94 26.5t-63.5 67t-18 93.5t36.5 101q19 27 46 54.5t41.5 43.5t26 51.5t12.5 89.5v63h51v-93q0 -46 -13.5 -82.5t-29.5 -56t-41.5 -46t-37.5 -43.5q-36 -56 -32.5 -104t37 -80t79.5 -32q51 0 86.5 31.5t35.5 92.5z
M240 643q-14 0 -23.5 9.5t-9.5 23.5t9.5 23.5t23.5 9.5t23.5 -9.5t9.5 -23.5t-9.5 -23.5t-23.5 -9.5z" />
    <glyph glyph-name="Agrave" unicode="&#xc0;" horiz-adv-x="527" 
d="M517 0h-60l-80 245h-228l-78 -245h-59l224 700h53zM362 300l-100 313l-97 -313h197zM274 733h-44l-69 92q-8 10 -3.5 26t20.5 21q31 9 45 -21z" />
    <glyph glyph-name="Aacute" unicode="&#xc1;" horiz-adv-x="527" 
d="M517 0h-60l-80 245h-228l-78 -245h-59l224 700h53zM362 300l-100 313l-97 -313h197zM286 731h-44l51 118q14 30 45 21q16 -5 20.5 -21t-3.5 -26z" />
    <glyph glyph-name="Acircumflex" unicode="&#xc2;" horiz-adv-x="527" 
d="M517 0h-60l-80 245h-228l-78 -245h-59l224 700h53zM362 300l-100 313l-97 -313h197zM370 733l-105 104l-109 -104l-38 39l148 141l142 -141z" />
    <glyph glyph-name="Atilde" unicode="&#xc3;" horiz-adv-x="527" 
d="M517 0h-60l-80 245h-228l-78 -245h-59l224 700h53zM362 300l-100 313l-97 -313h197zM405 820l25 -39q-34 -40 -68 -49t-62.5 3t-56.5 25t-60 9.5t-62 -35.5l-25 39q35 39 70 48.5t64 -2t57.5 -24t59 -9.5t58.5 34z" />
    <glyph glyph-name="Adieresis" unicode="&#xc4;" horiz-adv-x="527" 
d="M517 0h-60l-80 245h-228l-78 -245h-59l224 700h53zM362 300l-100 313l-97 -313h197zM184 731q-14 0 -23.5 9.5t-9.5 23.5t9.5 23.5t23.5 9.5t23.5 -9.5t9.5 -23.5t-9.5 -23.5t-23.5 -9.5zM340 731q-14 0 -23.5 9.5t-9.5 23.5t9.5 23.5t23.5 9.5t23.5 -9.5t9.5 -23.5
t-9.5 -23.5t-23.5 -9.5z" />
    <glyph glyph-name="Aring" unicode="&#xc5;" horiz-adv-x="524" 
d="M516 0h-60l-80 245h-228l-78 -245h-59l212 664q-33 12 -53.5 41t-20.5 65q0 46 33.5 79.5t79.5 33.5t79.5 -33.5t33.5 -79.5q0 -36 -21 -65.5t-54 -40.5zM361 300l-100 313l-97 -313h197zM330 770q0 28 -20 48t-48 20t-48 -20t-20 -48t20 -48t48 -20t48 20t20 48z" />
    <glyph glyph-name="AE" unicode="&#xc6;" horiz-adv-x="747" 
d="M697 0h-333l1 245h-180l-128 -245h-59l366 700h335v-52h-278v-235h191l-19 -55h-172v-308h276v-50zM365 300v290l-152 -290h152z" />
    <glyph glyph-name="Ccedilla" unicode="&#xc7;" horiz-adv-x="459" 
d="M416 70l12 -47q-82 -31 -161 -33l-32 -43q9 6 36 6q34 0 57.5 -19.5t23.5 -54.5q0 -48 -37 -68.5t-87 -20.5q-40 0 -92 19l24 53q37 -25 78 -25q24 0 43 10.5t19 31.5q0 22 -20.5 32t-56.5 -3l-34 -14l-17 28l54 70q-72 8 -115.5 54t-43.5 137v321q0 76 21.5 115t65.5 66
q50 28 120 25t129 -33l-16 -38q-57 21 -108 21q-156 0 -156 -147v-328q0 -64 31 -100.5t96 -43t166 28.5z" />
    <glyph glyph-name="Egrave" unicode="&#xc8;" horiz-adv-x="465" 
d="M415 0h-332v700h334v-52h-278v-235h191l-19 -55h-172v-308h276v-50zM273 732h-44l-69 92q-8 10 -3.5 26t20.5 21q31 9 45 -21z" />
    <glyph glyph-name="Eacute" unicode="&#xc9;" horiz-adv-x="465" 
d="M415 0h-332v700h334v-52h-278v-235h191l-19 -55h-172v-308h276v-50zM286 730h-44l51 118q14 30 45 21q16 -5 20.5 -21t-3.5 -26z" />
    <glyph glyph-name="Ecircumflex" unicode="&#xca;" horiz-adv-x="465" 
d="M415 0h-332v700h334v-52h-278v-235h191l-19 -55h-172v-308h276v-50zM358 733l-105 104l-109 -104l-38 39l148 141l142 -141z" />
    <glyph glyph-name="Edieresis" unicode="&#xcb;" horiz-adv-x="465" 
d="M415 0h-332v700h334v-52h-278v-235h191l-19 -55h-172v-308h276v-50zM169 731q-13 0 -23 9.5t-10 23.5t10 23.5t23 9.5t23 -9.5t10 -23.5t-10 -23.5t-23 -9.5zM325 731q-13 0 -23 9.5t-10 23.5t10 23.5t23 9.5t23 -9.5t10 -23.5t-10 -23.5t-23 -9.5z" />
    <glyph glyph-name="Igrave" unicode="&#xcc;" horiz-adv-x="240" 
d="M156 0h-56v649l-67 2v49h123v-700zM142 732h-44l-69 92q-8 10 -3.5 26t20.5 21q31 9 45 -21z" />
    <glyph glyph-name="Iacute" unicode="&#xcd;" horiz-adv-x="240" 
d="M157 0h-56v649l-67 2v49h123v-700zM152 730h-44l51 118q14 30 45 21q16 -5 20.5 -21t-3.5 -26z" />
    <glyph glyph-name="Icircumflex" unicode="&#xce;" horiz-adv-x="240" 
d="M157 0h-56v649l-67 2v49h123v-700zM224 733l-105 104l-109 -104l-38 39l148 141l142 -141z" />
    <glyph glyph-name="Idieresis" unicode="&#xcf;" horiz-adv-x="240" 
d="M157 0h-56v649l-67 2v49h123v-700zM42 729q-14 0 -23.5 9.5t-9.5 23.5t9.5 23.5t23.5 9.5t23.5 -9.5t9.5 -23.5t-9.5 -23.5t-23.5 -9.5zM198 729q-14 0 -23.5 9.5t-9.5 23.5t9.5 23.5t23.5 9.5t23.5 -9.5t9.5 -23.5t-9.5 -23.5t-23.5 -9.5z" />
    <glyph glyph-name="Eth" unicode="&#xd0;" horiz-adv-x="607" 
d="M303 0h-208v483h-49v55h49v163h188q93 0 150.5 -44t74.5 -119h65v-55h-58v-9v-274q0 -200 -212 -200zM459 190v293h-308v-433h136q172 0 172 140zM293 650h-142v-112h301q-16 56 -61.5 84t-97.5 28z" />
    <glyph glyph-name="Ntilde" unicode="&#xd1;" horiz-adv-x="658" 
d="M575 0h-56l-380 597v-597h-56v700h56l380 -597v597h56v-700zM472 820l25 -39q-34 -40 -68 -49t-62.5 3t-56.5 25t-60 9.5t-62 -35.5l-25 39q35 39 70 48.5t64 -2t57.5 -24t59 -9.5t58.5 34z" />
    <glyph glyph-name="Ograve" unicode="&#xd2;" horiz-adv-x="552" 
d="M486 506v-321q0 -101 -61.5 -148.5t-147.5 -47.5t-148.5 47.5t-62.5 148.5v322q0 103 56.5 156t155.5 53t153.5 -56t54.5 -154zM431 187v329q0 73 -42.5 110t-112.5 37t-112 -37t-42 -110v-330q0 -71 43.5 -107.5t110.5 -36.5q68 0 111.5 35.5t43.5 109.5zM293 732h-44
l-69 92q-8 10 -3.5 26t20.5 21q31 9 45 -21z" />
    <glyph glyph-name="Oacute" unicode="&#xd3;" horiz-adv-x="552" 
d="M486 506v-321q0 -101 -61.5 -148.5t-147.5 -47.5t-148.5 47.5t-62.5 148.5v322q0 103 56.5 156t155.5 53t153.5 -56t54.5 -154zM431 187v329q0 73 -42.5 110t-112.5 37t-112 -37t-42 -110v-330q0 -71 43.5 -107.5t110.5 -36.5q68 0 111.5 35.5t43.5 109.5zM304 730h-44
l51 118q14 30 45 21q16 -5 20.5 -21t-3.5 -26z" />
    <glyph glyph-name="Ocircumflex" unicode="&#xd4;" horiz-adv-x="552" 
d="M486 506v-321q0 -101 -61.5 -148.5t-147.5 -47.5t-148.5 47.5t-62.5 148.5v322q0 103 56.5 156t155.5 53t153.5 -56t54.5 -154zM431 187v329q0 73 -42.5 110t-112.5 37t-112 -37t-42 -110v-330q0 -71 43.5 -107.5t110.5 -36.5q68 0 111.5 35.5t43.5 109.5zM387 733
l-105 104l-109 -104l-38 39l148 141l142 -141z" />
    <glyph glyph-name="Otilde" unicode="&#xd5;" horiz-adv-x="552" 
d="M486 506v-321q0 -101 -61.5 -148.5t-147.5 -47.5t-148.5 47.5t-62.5 148.5v322q0 103 56.5 156t155.5 53t153.5 -56t54.5 -154zM431 187v329q0 73 -42.5 110t-112.5 37t-112 -37t-42 -110v-330q0 -71 43.5 -107.5t110.5 -36.5q68 0 111.5 35.5t43.5 109.5zM423 820
l25 -39q-34 -40 -68 -49t-62.5 3t-56.5 25t-60 9.5t-62 -35.5l-25 39q35 39 70 48.5t64 -2t57.5 -24t59 -9.5t58.5 34z" />
    <glyph glyph-name="Odieresis" unicode="&#xd6;" horiz-adv-x="552" 
d="M486 506v-321q0 -101 -61.5 -148.5t-147.5 -47.5t-148.5 47.5t-62.5 148.5v322q0 103 56.5 156t155.5 53t153.5 -56t54.5 -154zM431 187v329q0 73 -42.5 110t-112.5 37t-112 -37t-42 -110v-330q0 -71 43.5 -107.5t110.5 -36.5q68 0 111.5 35.5t43.5 109.5zM196 731
q-14 0 -23.5 9.5t-9.5 23.5t9.5 23.5t23.5 9.5t23.5 -9.5t9.5 -23.5t-9.5 -23.5t-23.5 -9.5zM352 731q-14 0 -23.5 9.5t-9.5 23.5t9.5 23.5t23.5 9.5t23.5 -9.5t9.5 -23.5t-9.5 -23.5t-23.5 -9.5z" />
    <glyph glyph-name="multiply" unicode="&#xd7;" horiz-adv-x="392" 
d="M338 205l-42 -37l-100 122l-100 -122l-42 37l106 128l-106 129l41 35l101 -122l101 122l41 -35l-107 -129z" />
    <glyph glyph-name="Oslash" unicode="&#xd8;" horiz-adv-x="555" 
d="M153 -114h-61l50 143q-72 53 -72 156v322q0 103 56.5 156t155.5 53q50 0 93 -16l41 117h57l-50 -146q67 -55 67 -165v-321q0 -101 -61.5 -148.5t-147.5 -47.5q-49 0 -88 14zM161 86l196 562q-33 15 -77 15q-70 0 -112 -37t-42 -110v-330q0 -63 35 -100zM435 187v329
q0 61 -32 98l-193 -560q32 -12 70 -12q68 0 111.5 35.5t43.5 109.5z" />
    <glyph glyph-name="Ugrave" unicode="&#xd9;" horiz-adv-x="579" 
d="M444 178v523h56v-515q0 -53 -18.5 -92t-50 -60t-66.5 -31t-75 -10t-75.5 10t-67 31t-50 60t-18.5 92v515h56v-523q0 -61 44.5 -98t109.5 -37t110 37t45 98zM311 732h-44l-69 92q-8 10 -3.5 26t20.5 21q31 9 45 -21z" />
    <glyph glyph-name="Uacute" unicode="&#xda;" horiz-adv-x="579" 
d="M444 178v523h56v-515q0 -53 -18.5 -92t-50 -60t-66.5 -31t-75 -10t-75.5 10t-67 31t-50 60t-18.5 92v515h56v-523q0 -61 44.5 -98t109.5 -37t110 37t45 98zM311 731h-44l51 118q14 30 45 21q16 -5 20.5 -21t-3.5 -26z" />
    <glyph glyph-name="Ucircumflex" unicode="&#xdb;" horiz-adv-x="579" 
d="M444 178v523h56v-515q0 -53 -18.5 -92t-50 -60t-66.5 -31t-75 -10t-75.5 10t-67 31t-50 60t-18.5 92v515h56v-523q0 -61 44.5 -98t109.5 -37t110 37t45 98zM398 733l-105 104l-109 -104l-38 39l148 141l142 -141z" />
    <glyph glyph-name="Udieresis" unicode="&#xdc;" horiz-adv-x="579" 
d="M444 178v523h56v-515q0 -53 -18.5 -92t-50 -60t-66.5 -31t-75 -10t-75.5 10t-67 31t-50 60t-18.5 92v515h56v-523q0 -61 44.5 -98t109.5 -37t110 37t45 98zM210 731q-14 0 -23.5 9.5t-9.5 23.5t9.5 23.5t23.5 9.5t23.5 -9.5t9.5 -23.5t-9.5 -23.5t-23.5 -9.5zM366 731
q-14 0 -23.5 9.5t-9.5 23.5t9.5 23.5t23.5 9.5t23.5 -9.5t9.5 -23.5t-9.5 -23.5t-23.5 -9.5z" />
    <glyph glyph-name="Yacute" unicode="&#xdd;" horiz-adv-x="569" 
d="M384 -7l-13 37q61 23 61 122v142q-27 -24 -72 -36.5t-86 -12.5q-106 0 -167.5 52.5t-61.5 155.5v247h56v-257q0 -70 48 -106.5t125 -36.5q59 0 103 25t55 75v300h57v-544q0 -73 -27.5 -114.5t-77.5 -48.5zM291 731h-44l51 118q14 30 45 21q16 -5 20.5 -21t-3.5 -26z" />
    <glyph glyph-name="Thorn" unicode="&#xde;" horiz-adv-x="491" 
d="M139 0h-56v700h56v-245q53 54 131 54q93 0 141.5 -54t48.5 -140q0 -94 -51.5 -146.5t-134.5 -52.5q-37 0 -76 18.5t-59 50.5v-185zM139 324q0 -77 37 -115.5t98 -38.5q57 0 93.5 36t36.5 113q0 73 -38.5 106t-91.5 33q-54 0 -93 -32.5t-42 -101.5z" />
    <glyph glyph-name="germandbls" unicode="&#xdf;" horiz-adv-x="490" 
d="M160 37l29 48q44 -43 113.5 -40.5t92.5 49.5q36 75 -36 149q-16 16 -42 39.5t-45 39.5t-38 39t-27.5 43.5t-7.5 47.5t17 55q41 0 54.5 35t-6 70t-58.5 35q-83 0 -83 -106v-541h-57v537q0 77 34.5 120.5t105.5 43.5q59 0 93 -43t31.5 -96.5t-36.5 -84.5h-30q-8 -14 -9 -28
t6 -27.5t17 -26t26 -27t31 -27.5t33.5 -30t32.5 -32q95 -100 50 -206q-22 -51 -78 -71t-115 -9t-98 44z" />
    <glyph glyph-name="agrave" unicode="&#xe0;" horiz-adv-x="482" 
d="M424 298v-298q-152 -14 -213 -8q-164 18 -172 163v14v83q0 99 69 133q54 25 132 12.5t128 -51.5q0 55 -32 87.5t-123 32.5l3 43q38 0 68.5 -4.5t51.5 -15t37 -21.5t25 -29t15 -31.5t8 -36.5t2.5 -36t0.5 -37zM368 46v257q-40 19 -81.5 31t-88 16t-75.5 -21t-29 -80v-87
q0 -83 72 -108.5t202 -7.5zM251 540h-44l-69 92q-8 10 -3.5 26t20.5 21q31 9 45 -21z" />
    <glyph glyph-name="aacute" unicode="&#xe1;" horiz-adv-x="482" 
d="M424 298v-298q-152 -14 -213 -8q-164 18 -172 163v14v83q0 99 69 133q54 25 132 12.5t128 -51.5q0 55 -32 87.5t-123 32.5l3 43q38 0 68.5 -4.5t51.5 -15t37 -21.5t25 -29t15 -31.5t8 -36.5t2.5 -36t0.5 -37zM368 46v257q-40 19 -81.5 31t-88 16t-75.5 -21t-29 -80v-87
q0 -83 72 -108.5t202 -7.5zM263 538h-44l51 118q14 30 45 21q16 -5 20.5 -21t-3.5 -26z" />
    <glyph glyph-name="acircumflex" unicode="&#xe2;" horiz-adv-x="482" 
d="M424 298v-298q-152 -14 -213 -8q-164 18 -172 163v14v83q0 99 69 133q54 25 132 12.5t128 -51.5q0 55 -32 87.5t-123 32.5l3 43q38 0 68.5 -4.5t51.5 -15t37 -21.5t25 -29t15 -31.5t8 -36.5t2.5 -36t0.5 -37zM368 46v257q-40 19 -81.5 31t-88 16t-75.5 -21t-29 -80v-87
q0 -83 72 -108.5t202 -7.5zM347 540l-105 104l-109 -104l-38 39l148 141l142 -141z" />
    <glyph glyph-name="atilde" unicode="&#xe3;" horiz-adv-x="482" 
d="M424 298v-298q-152 -14 -213 -8q-164 18 -172 163v14v83q0 99 69 133q54 25 132 12.5t128 -51.5q0 55 -32 87.5t-123 32.5l3 43q38 0 68.5 -4.5t51.5 -15t37 -21.5t25 -29t15 -31.5t8 -36.5t2.5 -36t0.5 -37zM368 46v257q-40 19 -81.5 31t-88 16t-75.5 -21t-29 -80v-87
q0 -83 72 -108.5t202 -7.5zM373 632l25 -39q-34 -40 -68 -49t-62.5 3t-56.5 25t-60 9.5t-62 -35.5l-25 39q35 39 70 48.5t64 -2t57.5 -24t59 -9.5t58.5 34z" />
    <glyph glyph-name="adieresis" unicode="&#xe4;" horiz-adv-x="482" 
d="M424 298v-298q-152 -14 -213 -8q-164 18 -172 163v14v83q0 99 69 133q54 25 132 12.5t128 -51.5q0 55 -32 87.5t-123 32.5l3 43q38 0 68.5 -4.5t51.5 -15t37 -21.5t25 -29t15 -31.5t8 -36.5t2.5 -36t0.5 -37zM368 46v257q-40 19 -81.5 31t-88 16t-75.5 -21t-29 -80v-87
q0 -83 72 -108.5t202 -7.5zM164 539q-14 0 -23.5 9.5t-9.5 23.5t9.5 23.5t23.5 9.5t23.5 -9.5t9.5 -23.5t-9.5 -23.5t-23.5 -9.5zM320 539q-14 0 -23.5 9.5t-9.5 23.5t9.5 23.5t23.5 9.5t23.5 -9.5t9.5 -23.5t-9.5 -23.5t-23.5 -9.5z" />
    <glyph glyph-name="aring" unicode="&#xe5;" horiz-adv-x="482" 
d="M424 298v-298q-152 -14 -213 -8q-164 18 -172 163v14v83q0 99 69 133q54 25 132 12.5t128 -51.5q0 53 -30 85.5t-116 34.5h-5h-4q-44 4 -74 36.5t-30 76.5q0 47 33.5 80t79.5 33t79.5 -33t33.5 -80q0 -46 -33 -79q29 -7 51 -18.5t35 -29.5t21 -33t11 -40t3.5 -39.5
t0.5 -41.5zM368 46v257q-40 19 -81.5 31t-88 16t-75.5 -21t-29 -80v-87q0 -83 72 -108.5t202 -7.5zM290 579q0 29 -20 48.5t-48 19.5t-48 -19.5t-20 -48.5t20 -48.5t48 -19.5t48 19.5t20 48.5z" />
    <glyph glyph-name="ae" unicode="&#xe6;" horiz-adv-x="772" 
d="M682 78l22 -43q-74 -45 -165 -47q-71 -2 -115 27v-15q-152 -14 -213 -8q-164 18 -172 163v14v83q0 99 69 133q54 25 132 12.5t128 -51.5q0 55 -32 87.5t-123 32.5l3 43q136 0 181 -69q50 70 156 70q83 0 129.5 -44.5t46.5 -123.5v-130l-304 -17v-61q0 -54 39 -78t98 -17
t120 39zM368 46v257q-40 19 -81.5 31t-88 16t-75.5 -21t-29 -80v-87q0 -83 72 -108.5t202 -7.5zM673 262v87q0 43 -23 70.5t-48 35t-50 7.5q-55 0 -91 -30t-36 -94v-88z" />
    <glyph glyph-name="ccedilla" unicode="&#xe7;" horiz-adv-x="406" 
d="M359 51l12 -45q-79 -20 -143 -16l-33 -43q9 6 36 6q34 0 57.5 -19.5t23.5 -54.5q0 -48 -37 -68.5t-87 -20.5q-40 0 -92 19l24 53q37 -25 78 -25q24 0 43 10.5t19 31.5q0 22 -20.5 32t-56.5 -3l-34 -14l-17 28l57 73q-17 3 -28 7q-59 20 -85.5 61.5t-26.5 116.5v128
q0 71 28 119t74 67t103 15t115 -31l-16 -41q-46 18 -89 21.5t-79 -8t-58 -46.5t-22 -90v-145q0 -49 21.5 -79.5t59 -41.5t80.5 -10t93 13z" />
    <glyph glyph-name="egrave" unicode="&#xe8;" horiz-adv-x="455" 
d="M365 78l22 -43q-74 -45 -165 -47q-78 -2 -124 34.5t-46 111.5v205q0 81 50.5 126t133.5 45t129.5 -44.5t46.5 -123.5v-130l-304 -17v-61q0 -54 39 -78t98 -17t120 39zM356 262v87q0 43 -23 70.5t-48 35t-50 7.5q-55 0 -91 -30t-36 -94v-88zM256 540h-44l-69 92
q-8 10 -3.5 26t20.5 21q31 9 45 -21z" />
    <glyph glyph-name="eacute" unicode="&#xe9;" horiz-adv-x="455" 
d="M365 78l22 -43q-74 -45 -165 -47q-78 -2 -124 34.5t-46 111.5v205q0 81 50.5 126t133.5 45t129.5 -44.5t46.5 -123.5v-130l-304 -17v-61q0 -54 39 -78t98 -17t120 39zM356 262v87q0 43 -23 70.5t-48 35t-50 7.5q-55 0 -91 -30t-36 -94v-88zM258 538h-44l51 118
q14 30 45 21q16 -5 20.5 -21t-3.5 -26z" />
    <glyph glyph-name="ecircumflex" unicode="&#xea;" horiz-adv-x="455" 
d="M365 78l22 -43q-74 -45 -165 -47q-78 -2 -124 34.5t-46 111.5v205q0 81 50.5 126t133.5 45t129.5 -44.5t46.5 -123.5v-130l-304 -17v-61q0 -54 39 -78t98 -17t120 39zM356 262v87q0 43 -23 70.5t-48 35t-50 7.5q-55 0 -91 -30t-36 -94v-88zM355 540l-105 104l-109 -104
l-38 39l148 141l142 -141z" />
    <glyph glyph-name="edieresis" unicode="&#xeb;" horiz-adv-x="455" 
d="M365 78l22 -43q-74 -45 -165 -47q-78 -2 -124 34.5t-46 111.5v205q0 81 50.5 126t133.5 45t129.5 -44.5t46.5 -123.5v-130l-304 -17v-61q0 -54 39 -78t98 -17t120 39zM356 262v87q0 43 -23 70.5t-48 35t-50 7.5q-55 0 -91 -30t-36 -94v-88zM155 539q-13 0 -23 9.5
t-10 23.5t10 23.5t23 9.5t23 -9.5t10 -23.5t-10 -23.5t-23 -9.5zM311 539q-13 0 -23 9.5t-10 23.5t10 23.5t23 9.5t23 -9.5t10 -23.5t-10 -23.5t-23 -9.5z" />
    <glyph glyph-name="igrave" unicode="&#xec;" horiz-adv-x="188" 
d="M105 540h-44l-69 92q-8 10 -3.5 26t20.5 21q31 9 45 -21zM121 0h-56v501h56v-501z" />
    <glyph glyph-name="iacute" unicode="&#xed;" horiz-adv-x="188" 
d="M118 538h-44l51 118q14 30 45 21q16 -5 20.5 -21t-3.5 -26zM122 0h-56v501h56v-501z" />
    <glyph glyph-name="icircumflex" unicode="&#xee;" horiz-adv-x="188" 
d="M199 540l-105 104l-109 -104l-38 39l148 141l142 -141zM122 0h-56v501h56v-501z" />
    <glyph glyph-name="idieresis" unicode="&#xef;" horiz-adv-x="188" 
d="M15 539q-13 0 -23 9.5t-10 23.5t10 23.5t23 9.5t23 -9.5t10 -23.5t-10 -23.5t-23 -9.5zM171 539q-13 0 -23 9.5t-10 23.5t10 23.5t23 9.5t23 -9.5t10 -23.5t-10 -23.5t-23 -9.5zM122 0h-56v501h56v-501z" />
    <glyph glyph-name="eth" unicode="&#xf0;" horiz-adv-x="249" 
 />
    <glyph glyph-name="ntilde" unicode="&#xf1;" horiz-adv-x="496" 
d="M435 0h-55v343q0 52 -28 81t-69.5 33.5t-84 -4.5t-76.5 -28v-425h-56v501h56l-4 -34q42 35 113.5 41.5t118.5 -17.5q85 -39 85 -145v-346zM389 632l25 -39q-34 -40 -68 -49t-62.5 3t-56.5 25t-60 9.5t-62 -35.5l-25 39q35 39 70 48.5t64 -2t57.5 -24t59 -9.5t58.5 34z
" />
    <glyph glyph-name="ograve" unicode="&#xf2;" horiz-adv-x="469" 
d="M421 316v-132q0 -84 -46 -139t-139 -55t-140.5 55.5t-47.5 138.5v132q0 95 48.5 145.5t139.5 50.5q87 0 136 -52.5t49 -143.5zM365 174v142q0 145 -129 145q-132 0 -132 -145v-142q0 -60 35.5 -97t96.5 -37q62 0 95.5 36.5t33.5 97.5zM251 540h-44l-69 92q-8 10 -3.5 26
t20.5 21q31 9 45 -21z" />
    <glyph glyph-name="oacute" unicode="&#xf3;" horiz-adv-x="469" 
d="M421 316v-132q0 -84 -46 -139t-139 -55t-140.5 55.5t-47.5 138.5v132q0 95 48.5 145.5t139.5 50.5q87 0 136 -52.5t49 -143.5zM365 174v142q0 145 -129 145q-132 0 -132 -145v-142q0 -60 35.5 -97t96.5 -37q62 0 95.5 36.5t33.5 97.5zM253 538h-44l51 118q14 30 45 21
q16 -5 20.5 -21t-3.5 -26z" />
    <glyph glyph-name="ocircumflex" unicode="&#xf4;" horiz-adv-x="469" 
d="M421 316v-132q0 -84 -46 -139t-139 -55t-140.5 55.5t-47.5 138.5v132q0 95 48.5 145.5t139.5 50.5q87 0 136 -52.5t49 -143.5zM365 174v142q0 145 -129 145q-132 0 -132 -145v-142q0 -60 35.5 -97t96.5 -37q62 0 95.5 36.5t33.5 97.5zM345 540l-105 104l-109 -104l-38 39
l148 141l142 -141z" />
    <glyph glyph-name="otilde" unicode="&#xf5;" horiz-adv-x="469" 
d="M421 316v-132q0 -84 -46 -139t-139 -55t-140.5 55.5t-47.5 138.5v132q0 95 48.5 145.5t139.5 50.5q87 0 136 -52.5t49 -143.5zM365 174v142q0 145 -129 145q-132 0 -132 -145v-142q0 -60 35.5 -97t96.5 -37q62 0 95.5 36.5t33.5 97.5zM380 632l25 -39q-34 -40 -68 -49
t-62.5 3t-56.5 25t-60 9.5t-62 -35.5l-25 39q35 39 70 48.5t64 -2t57.5 -24t59 -9.5t58.5 34z" />
    <glyph glyph-name="odieresis" unicode="&#xf6;" horiz-adv-x="469" 
d="M421 316v-132q0 -84 -46 -139t-139 -55t-140.5 55.5t-47.5 138.5v132q0 95 48.5 145.5t139.5 50.5q87 0 136 -52.5t49 -143.5zM365 174v142q0 145 -129 145q-132 0 -132 -145v-142q0 -60 35.5 -97t96.5 -37q62 0 95.5 36.5t33.5 97.5zM162 539q-14 0 -23.5 9.5t-9.5 23.5
t9.5 23.5t23.5 9.5t23.5 -9.5t9.5 -23.5t-9.5 -23.5t-23.5 -9.5zM318 539q-14 0 -23.5 9.5t-9.5 23.5t9.5 23.5t23.5 9.5t23.5 -9.5t9.5 -23.5t-9.5 -23.5t-23.5 -9.5z" />
    <glyph glyph-name="divide" unicode="&#xf7;" horiz-adv-x="450" 
d="M385 358h-320v55h320v-55zM227 479q-13 0 -23 9.5t-10 23.5t10 23.5t23 9.5t23 -9.5t10 -23.5t-10 -23.5t-23 -9.5zM227 222q-13 0 -23 10t-10 23t10 23t23 10t23 -10t10 -23t-10 -23t-23 -10z" />
    <glyph glyph-name="oslash" unicode="&#xf8;" horiz-adv-x="474" 
d="M128 -67h-57l42 98q-62 53 -62 153v132q0 95 48.5 145.5t139.5 50.5q39 0 75 -13l38 89h59l-50 -116q63 -54 63 -156v-132q0 -84 -46 -139t-139 -55q-44 0 -80 14zM368 174v142q0 68 -30 104l-159 -369q27 -11 60 -11q62 0 95.5 36.5t33.5 97.5zM136 84l157 368
q-24 9 -54 9q-132 0 -132 -145v-142q0 -55 29 -90z" />
    <glyph glyph-name="ugrave" unicode="&#xf9;" 
d="M434 0h-55l4 51q-24 -30 -60.5 -46t-73.5 -16q-188 0 -188 183v329h56v-336q0 -64 35.5 -95t96.5 -31q129 0 129 126v336h56v-501zM271 540h-44l-69 92q-8 10 -3.5 26t20.5 21q31 9 45 -21z" />
    <glyph glyph-name="uacute" unicode="&#xfa;" 
d="M434 0h-55l4 51q-24 -30 -60.5 -46t-73.5 -16q-188 0 -188 183v329h56v-336q0 -64 35.5 -95t96.5 -31q129 0 129 126v336h56v-501zM266 538h-44l51 118q14 30 45 21q16 -5 20.5 -21t-3.5 -26z" />
    <glyph glyph-name="ucircumflex" unicode="&#xfb;" 
d="M434 0h-55l4 51q-24 -30 -60.5 -46t-73.5 -16q-188 0 -188 183v329h56v-336q0 -64 35.5 -95t96.5 -31q129 0 129 126v336h56v-501zM356 540l-105 104l-109 -104l-38 39l148 141l142 -141z" />
    <glyph glyph-name="udieresis" unicode="&#xfc;" 
d="M434 0h-55l4 51q-24 -30 -60.5 -46t-73.5 -16q-188 0 -188 183v329h56v-336q0 -64 35.5 -95t96.5 -31q129 0 129 126v336h56v-501zM170 539q-14 0 -23.5 9.5t-9.5 23.5t9.5 23.5t23.5 9.5t23.5 -9.5t9.5 -23.5t-9.5 -23.5t-23.5 -9.5zM326 539q-14 0 -23.5 9.5t-9.5 23.5
t9.5 23.5t23.5 9.5t23.5 -9.5t9.5 -23.5t-9.5 -23.5t-23.5 -9.5z" />
    <glyph glyph-name="yacute" unicode="&#xfd;" horiz-adv-x="508" 
d="M329 -210l-15 43q67 25 67 104v112q-37 -61 -139 -61q-88 0 -135.5 47.5t-47.5 140.5v325h54v-335q0 -64 35 -95.5t94 -31.5q62 0 100 31t38 96v197q0 73 10 97q17 35 63 50l15 -38q-34 -15 -34 -70v-463q0 -61 -24 -96t-81 -53zM261 538h-44l51 118q14 30 45 21
q16 -5 20.5 -21t-3.5 -26z" />
    <glyph glyph-name="thorn" unicode="&#xfe;" horiz-adv-x="474" 
d="M122 0h-56v588h56v-133q53 54 131 54q93 0 141.5 -54t48.5 -140q0 -94 -51.5 -146.5t-134.5 -52.5q-37 0 -76 18.5t-59 50.5v-185zM122 324q0 -77 37 -115.5t98 -38.5q57 0 93.5 36t36.5 113q0 73 -38.5 106t-91.5 33q-54 0 -93 -32.5t-42 -101.5z" />
    <glyph glyph-name="ydieresis" unicode="&#xff;" horiz-adv-x="508" 
d="M329 -210l-15 43q67 25 67 104v112q-37 -61 -139 -61q-88 0 -135.5 47.5t-47.5 140.5v325h54v-335q0 -64 35 -95.5t94 -31.5q62 0 100 31t38 96v197q0 73 10 97q17 35 63 50l15 -38q-34 -15 -34 -70v-463q0 -61 -24 -96t-81 -53zM174 539q-14 0 -23.5 9.5t-9.5 23.5
t9.5 23.5t23.5 9.5t23.5 -9.5t9.5 -23.5t-9.5 -23.5t-23.5 -9.5zM330 539q-14 0 -23.5 9.5t-9.5 23.5t9.5 23.5t23.5 9.5t23.5 -9.5t9.5 -23.5t-9.5 -23.5t-23.5 -9.5z" />
    <glyph glyph-name="Amacron" unicode="&#x100;" horiz-adv-x="527" 
d="M517 0h-60l-80 245h-228l-78 -245h-59l224 700h53zM362 300l-100 313l-97 -313h197zM368 730h-217v58h217v-58z" />
    <glyph glyph-name="amacron" unicode="&#x101;" horiz-adv-x="482" 
d="M424 298v-298q-152 -14 -213 -8q-164 18 -172 163v14v83q0 99 69 133q54 25 132 12.5t128 -51.5q0 55 -32 87.5t-123 32.5l3 43q38 0 68.5 -4.5t51.5 -15t37 -21.5t25 -29t15 -31.5t8 -36.5t2.5 -36t0.5 -37zM368 46v257q-40 19 -81.5 31t-88 16t-75.5 -21t-29 -80v-87
q0 -83 72 -108.5t202 -7.5zM347 538h-217v58h217v-58z" />
    <glyph glyph-name="Abreve" unicode="&#x102;" horiz-adv-x="527" 
d="M517 0h-60l-80 245h-228l-78 -245h-59l224 700h53zM362 300l-100 313l-97 -313h197zM378 848v-5q0 -47 -33 -80t-80 -33t-80 33t-33 80v5h45v-5q0 -29 19.5 -48.5t48.5 -19.5t48.5 19.5t19.5 48.5v5h45z" />
    <glyph glyph-name="abreve" unicode="&#x103;" horiz-adv-x="482" 
d="M424 298v-298q-152 -14 -213 -8q-164 18 -172 163v14v83q0 99 69 133q54 25 132 12.5t128 -51.5q0 55 -32 87.5t-123 32.5l3 43q38 0 68.5 -4.5t51.5 -15t37 -21.5t25 -29t15 -31.5t8 -36.5t2.5 -36t0.5 -37zM368 46v257q-40 19 -81.5 31t-88 16t-75.5 -21t-29 -80v-87
q0 -83 72 -108.5t202 -7.5zM383 656v-5q0 -47 -33.5 -80t-79.5 -33t-79.5 33t-33.5 80v5h45v-5q0 -29 20 -48.5t48 -19.5t48 19.5t20 48.5v5h45z" />
    <glyph glyph-name="Aogonek" unicode="&#x104;" horiz-adv-x="527" 
d="M514 -125l37 -38q-32 -50 -97 -50q-17 0 -35 4.5t-37.5 24.5t-19.5 53q0 68 96 131h-1l-80 245h-228l-78 -245h-59l224 700h53l228 -700h-1q-100 -83 -104 -121q-2 -19 8.5 -32t30.5 -13q22 0 35.5 9.5t27.5 31.5zM362 300l-100 313l-97 -313h197z" />
    <glyph glyph-name="aogonek" unicode="&#x105;" horiz-adv-x="482" 
d="M421 -125l37 -38q-32 -50 -97 -50q-17 0 -35 4.5t-37.5 24.5t-19.5 53q0 65 86 125q-45 -2 -89.5 -4t-85.5 7.5t-72.5 27t-50 54.5t-18.5 90v83q0 99 69 133q54 25 132 12.5t128 -51.5q0 55 -32 87.5t-123 32.5l3 43q38 0 68.5 -4.5t51.5 -15t37 -21.5t25 -29t15 -31.5
t8 -36.5t2.5 -36t0.5 -37v-298h-1q-100 -83 -104 -121q-2 -19 8.5 -32t30.5 -13q22 0 35.5 9.5t27.5 31.5zM368 46v257q-40 19 -81.5 31t-88 16t-75.5 -21t-29 -80v-87q0 -83 72 -108.5t202 -7.5z" />
    <glyph glyph-name="Cacute" unicode="&#x106;" horiz-adv-x="459" 
d="M416 70l12 -47q-49 -19 -98 -27.5t-97 -4t-84.5 24t-59 62t-22.5 105.5v321q0 76 21.5 115t65.5 66q50 28 120 25t129 -33l-16 -38q-57 21 -108 21q-156 0 -156 -147v-328q0 -64 31 -100.5t96 -43t166 28.5zM279 734h-44l51 118q14 30 45 21q16 -5 20.5 -21t-3.5 -26z
" />
    <glyph glyph-name="cacute" unicode="&#x107;" horiz-adv-x="406" 
d="M359 51l12 -45q-120 -32 -210 -4q-59 20 -85.5 61.5t-26.5 116.5v128q0 71 28 119t74 67t103 15t115 -31l-16 -41q-46 18 -89 21.5t-79 -8t-58 -46.5t-22 -90v-145q0 -49 21.5 -79.5t59 -41.5t80.5 -10t93 13zM224 538h-44l51 118q14 30 45 21q16 -5 20.5 -21t-3.5 -26z
" />
    <glyph glyph-name="Ccircumflex" unicode="&#x108;" horiz-adv-x="459" 
d="M384 733l-105 104l-109 -104l-38 39l148 141l142 -141zM416 70l12 -47q-49 -19 -98 -27.5t-97 -4t-84.5 24t-59 62t-22.5 105.5v321q0 76 21.5 115t65.5 66q50 28 120 25t129 -33l-16 -38q-57 21 -108 21q-156 0 -156 -147v-328q0 -64 31 -100.5t96 -43t166 28.5z" />
    <glyph glyph-name="ccircumflex" unicode="&#x109;" horiz-adv-x="406" 
d="M359 51l12 -45q-120 -32 -210 -4q-59 20 -85.5 61.5t-26.5 116.5v128q0 71 28 119t74 67t103 15t115 -31l-16 -41q-46 18 -89 21.5t-79 -8t-58 -46.5t-22 -90v-145q0 -49 21.5 -79.5t59 -41.5t80.5 -10t93 13zM334 541l-105 104l-109 -104l-38 39l148 141l142 -141z" />
    <glyph glyph-name="Cdotaccent" unicode="&#x10a;" horiz-adv-x="459" 
d="M416 70l12 -47q-49 -19 -98 -27.5t-97 -4t-84.5 24t-59 62t-22.5 105.5v321q0 76 21.5 115t65.5 66q50 28 120 25t129 -33l-16 -38q-57 21 -108 21q-156 0 -156 -147v-328q0 -64 31 -100.5t96 -43t166 28.5zM267 730q-13 0 -23.5 10t-10.5 24q0 13 10 23t24 10
q13 0 23 -9.5t10 -23.5t-10 -24t-23 -10z" />
    <glyph glyph-name="cdotaccent" unicode="&#x10b;" horiz-adv-x="406" 
d="M359 51l12 -45q-120 -32 -210 -4q-59 20 -85.5 61.5t-26.5 116.5v128q0 71 28 119t74 67t103 15t115 -31l-16 -41q-46 18 -89 21.5t-79 -8t-58 -46.5t-22 -90v-145q0 -49 21.5 -79.5t59 -41.5t80.5 -10t93 13zM236 538q-14 0 -24 10t-10 24q0 13 10 23t24 10t23.5 -9.5
t9.5 -23.5t-10 -24t-23 -10z" />
    <glyph glyph-name="Ccaron" unicode="&#x10c;" horiz-adv-x="459" 
d="M416 70l12 -47q-49 -19 -98 -27.5t-97 -4t-84.5 24t-59 62t-22.5 105.5v321q0 76 21.5 115t65.5 66q50 28 120 25t129 -33l-16 -38q-57 21 -108 21q-156 0 -156 -147v-328q0 -64 31 -100.5t96 -43t166 28.5zM399 874l-142 -141l-148 141l38 39l109 -104l105 104z" />
    <glyph glyph-name="ccaron" unicode="&#x10d;" horiz-adv-x="406" 
d="M359 51l12 -45q-120 -32 -210 -4q-59 20 -85.5 61.5t-26.5 116.5v128q0 71 28 119t74 67t103 15t115 -31l-16 -41q-46 18 -89 21.5t-79 -8t-58 -46.5t-22 -90v-145q0 -49 21.5 -79.5t59 -41.5t80.5 -10t93 13zM372 684l-142 -141l-148 141l38 39l109 -104l105 104z" />
    <glyph glyph-name="Dcaron" unicode="&#x10e;" horiz-adv-x="568" 
d="M291 0h-208v701h188q113 0 172.5 -62t59.5 -165v-274q0 -200 -212 -200zM447 190v294q0 84 -50 125t-116 41h-142v-600h136q172 0 172 140zM421 875l-142 -141l-148 141l38 39l109 -104l105 104z" />
    <glyph glyph-name="dcaron" unicode="&#x10f;" horiz-adv-x="516" 
d="M51 157v189q0 105 85 144q49 23 117.5 18.5t110.5 -34.5v226h56v-700q-86 -12 -159 -12t-132 30q-78 40 -78 139zM364 48v377q-34 19 -76.5 28t-84 4.5t-69.5 -33.5t-28 -81v-187q0 -150 258 -108zM485 560l-40 28q21 12 37 25t21 21l5 7l-10 3q-18 13 -18 36q1 13 11 22
t24 8q13 -1 23.5 -12.5t10.5 -24.5q1 -59 -64 -113z" />
    <glyph glyph-name="Dcroat" unicode="&#x110;" horiz-adv-x="568" 
d="M291 0h-208v701h188q113 0 172.5 -62t59.5 -165v-274q0 -200 -212 -200zM447 190v294q0 84 -50 125t-116 41h-142v-600h136q172 0 172 140zM397 730h-217v58h217v-58z" />
    <glyph glyph-name="dcroat" unicode="&#x111;" horiz-adv-x="486" 
d="M482 562h-62v-562q-86 -12 -159 -12t-132 30q-78 40 -78 139v189q0 105 85 144q49 23 117.5 18.5t110.5 -34.5v88h-116v55h116v83h56v-83h62v-55zM364 48v377q-34 19 -76.5 28t-84 4.5t-69.5 -33.5t-28 -81v-187q0 -150 258 -108z" />
    <glyph glyph-name="Emacron" unicode="&#x112;" horiz-adv-x="465" 
d="M415 0h-332v700h334v-52h-278v-235h191l-19 -55h-172v-308h276v-50zM357 730h-217v58h217v-58z" />
    <glyph glyph-name="emacron" unicode="&#x113;" horiz-adv-x="455" 
d="M365 78l22 -43q-74 -45 -165 -47q-78 -2 -124 34.5t-46 111.5v205q0 81 50.5 126t133.5 45t129.5 -44.5t46.5 -123.5v-130l-304 -17v-61q0 -54 39 -78t98 -17t120 39zM356 262v87q0 43 -23 70.5t-48 35t-50 7.5q-55 0 -91 -30t-36 -94v-88zM343 538h-217v58h217v-58z" />
    <glyph glyph-name="Edotaccent" unicode="&#x116;" horiz-adv-x="465" 
d="M415 0h-332v700h334v-52h-278v-235h191l-19 -55h-172v-308h276v-50zM261 730q-13 0 -23.5 10t-10.5 24q0 13 10 23t24 10q13 0 23 -9.5t10 -23.5t-10 -24t-23 -10z" />
    <glyph glyph-name="edotaccent" unicode="&#x117;" horiz-adv-x="455" 
d="M365 78l22 -43q-74 -45 -165 -47q-78 -2 -124 34.5t-46 111.5v205q0 81 50.5 126t133.5 45t129.5 -44.5t46.5 -123.5v-130l-304 -17v-61q0 -54 39 -78t98 -17t120 39zM356 262v87q0 43 -23 70.5t-48 35t-50 7.5q-55 0 -91 -30t-36 -94v-88zM244 538q-14 0 -24 10t-10 24
q0 13 10 23t24 10t23.5 -9.5t9.5 -23.5t-10 -24t-23 -10z" />
    <glyph glyph-name="Eogonek" unicode="&#x118;" horiz-adv-x="465" 
d="M412 -125l37 -38q-32 -50 -97 -50q-17 0 -35 4.5t-37.5 24.5t-19.5 53q0 68 96 131h-273v700h334v-52h-278v-235h191l-19 -55h-172v-308h276v-50h-1q-100 -83 -104 -121q-2 -19 8.5 -32t30.5 -13q22 0 35.5 9.5t27.5 31.5z" />
    <glyph glyph-name="eogonek" unicode="&#x119;" horiz-adv-x="455" 
d="M287 -125l37 -38q-32 -50 -97 -50q-17 0 -35 4.5t-37.5 24.5t-19.5 53q0 62 78 119q-74 0 -117.5 36.5t-43.5 109.5v205q0 81 50.5 126t133.5 45t129.5 -44.5t46.5 -123.5v-130l-304 -17v-61q0 -54 39 -78t98 -17t120 39l22 -43q-48 -30 -105 -40q-93 -79 -97 -116
q-2 -19 8.5 -32t30.5 -13q22 0 35.5 9.5t27.5 31.5zM356 262v87q0 43 -23 70.5t-48 35t-50 7.5q-55 0 -91 -30t-36 -94v-88z" />
    <glyph glyph-name="Ecaron" unicode="&#x11a;" horiz-adv-x="465" 
d="M415 0h-332v700h334v-52h-278v-235h191l-19 -55h-172v-308h276v-50zM396 875l-142 -141l-148 141l38 39l109 -104l105 104z" />
    <glyph glyph-name="ecaron" unicode="&#x11b;" horiz-adv-x="455" 
d="M365 78l22 -43q-74 -45 -165 -47q-78 -2 -124 34.5t-46 111.5v205q0 81 50.5 126t133.5 45t129.5 -44.5t46.5 -123.5v-130l-304 -17v-61q0 -54 39 -78t98 -17t120 39zM356 262v87q0 43 -23 70.5t-48 35t-50 7.5q-55 0 -91 -30t-36 -94v-88zM381 683l-142 -141l-148 141
l38 39l109 -104l105 104z" />
    <glyph glyph-name="Gcircumflex" unicode="&#x11c;" horiz-adv-x="526" 
d="M477 0h-41l-14 41q-52 -51 -145 -51q-88 0 -149.5 50t-61.5 149v314q0 128 87 181q50 28 120 25t129 -33l-16 -38q-57 21 -108 21q-156 0 -156 -147v-325q0 -67 43.5 -105t110.5 -38q68 0 108 39t40 103v59h-66l-19 55h138v-300zM389 733l-105 104l-109 -104l-38 39
l148 141l142 -141z" />
    <glyph glyph-name="gcircumflex" unicode="&#x11d;" horiz-adv-x="493" 
d="M390 541l-105 104l-109 -104l-38 39l148 141l142 -141zM320 -210l-15 43q66 25 66 104v124q-42 -73 -135 -73q-88 0 -137 48t-49 140v149q0 88 51.5 136.5t138.5 48.5q93 0 135 -67l-4 58h56v-565q0 -60 -25 -94t-82 -52zM371 173v163q0 62 -40 92.5t-95 30.5
q-53 0 -91.5 -32.5t-38.5 -106.5v-153q0 -63 35.5 -95t94.5 -32q56 0 95.5 34.5t39.5 98.5z" />
    <glyph glyph-name="Gbreve" unicode="&#x11e;" horiz-adv-x="526" 
d="M477 0h-41l-14 41q-52 -51 -145 -51q-88 0 -149.5 50t-61.5 149v314q0 128 87 181q50 28 120 25t129 -33l-16 -38q-57 21 -108 21q-156 0 -156 -147v-325q0 -67 43.5 -105t110.5 -38q68 0 108 39t40 103v59h-66l-19 55h138v-300zM390 846v-5q0 -47 -33 -80t-80 -33
t-80 33t-33 80v5h45v-5q0 -29 19.5 -48.5t48.5 -19.5t48.5 19.5t19.5 48.5v5h45z" />
    <glyph glyph-name="gbreve" unicode="&#x11f;" horiz-adv-x="493" 
d="M367 650v-5q0 -47 -33.5 -80t-79.5 -33t-79.5 33t-33.5 80v5h45v-5q0 -29 20 -48.5t48 -19.5t48 19.5t20 48.5v5h45zM320 -210l-15 43q66 25 66 104v124q-42 -73 -135 -73q-88 0 -137 48t-49 140v149q0 88 51.5 136.5t138.5 48.5q93 0 135 -67l-4 58h56v-565
q0 -60 -25 -94t-82 -52zM371 173v163q0 62 -40 92.5t-95 30.5q-53 0 -91.5 -32.5t-38.5 -106.5v-153q0 -63 35.5 -95t94.5 -32q56 0 95.5 34.5t39.5 98.5z" />
    <glyph glyph-name="Gdotaccent" unicode="&#x120;" horiz-adv-x="526" 
d="M274 729q-14 0 -24 10.5t-10 23.5t10 23t24 10t23.5 -10t9.5 -23q0 -14 -10 -24t-23 -10zM477 0h-41l-14 41q-52 -51 -145 -51q-88 0 -149.5 50t-61.5 149v314q0 128 87 181q50 28 120 25t129 -33l-16 -38q-57 21 -108 21q-156 0 -156 -147v-325q0 -67 43.5 -105
t110.5 -38q68 0 108 39t40 103v59h-66l-19 55h138v-300z" />
    <glyph glyph-name="gdotaccent" unicode="&#x121;" horiz-adv-x="493" 
d="M252 537q-14 0 -24 10.5t-10 23.5t10 23t24 10t23.5 -10t9.5 -23q0 -14 -10 -24t-23 -10zM320 -210l-15 43q66 25 66 104v124q-42 -73 -135 -73q-88 0 -137 48t-49 140v149q0 88 51.5 136.5t138.5 48.5q93 0 135 -67l-4 58h56v-565q0 -60 -25 -94t-82 -52zM371 173v163
q0 62 -40 92.5t-95 30.5q-53 0 -91.5 -32.5t-38.5 -106.5v-153q0 -63 35.5 -95t94.5 -32q56 0 95.5 34.5t39.5 98.5z" />
    <glyph glyph-name="Gcommaaccent" unicode="&#x122;" horiz-adv-x="526" 
d="M477 0h-41l-14 41q-52 -51 -145 -51q-88 0 -149.5 50t-61.5 149v314q0 128 87 181q50 28 120 25t129 -33l-16 -38q-57 21 -108 21q-156 0 -156 -147v-325q0 -67 43.5 -105t110.5 -38q68 0 108 39t40 103v59h-66l-19 55h138v-300zM242 -184l-40 28q21 12 37 25t21 21l5 7
l-10 3q-18 13 -18 36q1 13 11 22t24 8q13 -1 23.5 -12.5t10.5 -24.5q1 -59 -64 -113z" />
    <glyph glyph-name="gcommaaccent" unicode="&#x123;" horiz-adv-x="493" 
d="M320 -210l-15 43q66 25 66 104v124q-42 -73 -135 -73q-88 0 -137 48t-49 140v149q0 88 51.5 136.5t138.5 48.5q93 0 135 -67l-4 58h56v-565q0 -60 -25 -94t-82 -52zM371 173v163q0 62 -40 92.5t-95 30.5q-53 0 -91.5 -32.5t-38.5 -106.5v-153q0 -63 35.5 -95t94.5 -32
q56 0 95.5 34.5t39.5 98.5zM242 610l10 -3q18 -13 18 -36q-1 -13 -11 -22t-24 -8q-13 1 -23.5 12.5t-10.5 24.5q-1 59 64 113l40 -28q-21 -12 -37 -25.5t-21 -20.5z" />
    <glyph glyph-name="Hcircumflex" unicode="&#x124;" horiz-adv-x="596" 
d="M513 0h-56v358h-318v-358h-56v700h56v-287h318v287h56v-700zM436 733l-105 104l-109 -104l-38 39l148 141l142 -141z" />
    <glyph glyph-name="hcircumflex" unicode="&#x125;" horiz-adv-x="496" 
d="M201 733l-105 104l-109 -104l-38 39l148 141l142 -141zM435 0h-55v343q0 52 -28 81t-69.5 33.5t-84 -4.5t-76.5 -28v-425h-56v700h56v-226q42 30 111 35t117 -18q85 -39 85 -145v-346z" />
    <glyph glyph-name="Hbar" unicode="&#x126;" horiz-adv-x="619" 
d="M525 0h-56v358h-318v-358h-56v483h-49v55h49v162h56v-162h318v162h56v-162h48v-55h-48v-483zM469 413v70h-318v-70h318z" />
    <glyph glyph-name="hbar" unicode="&#x127;" horiz-adv-x="496" 
d="M435 0h-55v343q0 52 -28 81t-69.5 33.5t-84 -4.5t-76.5 -28v-425h-56v562h-62v55h62v83h56v-83h116v-55h-116v-88q42 30 111 35t117 -18q85 -39 85 -145v-346z" />
    <glyph glyph-name="Itilde" unicode="&#x128;" horiz-adv-x="240" 
d="M157 0h-56v649l-67 2v49h123v-700zM258 821l25 -39q-34 -40 -68 -49t-62.5 3t-56.5 25t-60 9.5t-62 -35.5l-25 39q35 39 70 48.5t64 -2t57.5 -24t59 -9.5t58.5 34z" />
    <glyph glyph-name="itilde" unicode="&#x129;" horiz-adv-x="188" 
d="M242 622l25 -39q-34 -40 -68 -49t-62.5 3t-56.5 25t-60 9.5t-62 -35.5l-25 39q35 39 70 48.5t64 -2t57.5 -24t59 -9.5t58.5 34zM122 0h-56v501h56v-501z" />
    <glyph glyph-name="Imacron" unicode="&#x12a;" horiz-adv-x="240" 
d="M157 0h-56v649l-67 2v49h123v-700zM206 730h-216v58h216v-58z" />
    <glyph glyph-name="imacron" unicode="&#x12b;" horiz-adv-x="188" 
d="M199 538h-217v58h217v-58zM122 0h-56v501h56v-501z" />
    <glyph glyph-name="Iogonek" unicode="&#x12e;" horiz-adv-x="240" 
d="M155 -125l37 -38q-32 -50 -97 -50q-17 0 -35 4.5t-37.5 24.5t-19.5 53q0 68 96 131h2v649l-67 2v49h123v-700q-100 -83 -104 -121q-2 -19 8.5 -32t30.5 -13q22 0 35.5 9.5t27.5 31.5z" />
    <glyph glyph-name="iogonek" unicode="&#x12f;" horiz-adv-x="188" 
d="M119 -125l37 -38q-32 -50 -97 -50q-17 0 -35 4.5t-37.5 24.5t-19.5 53q0 68 96 131h3v501h56v-501h-1q-100 -83 -104 -121q-2 -19 8.5 -32t30.5 -13q22 0 35.5 9.5t27.5 31.5zM95 643q-13 0 -23.5 10.5t-10.5 23.5t10 23t24 10q13 0 23 -10t10 -23q0 -14 -10 -24t-23 -10
z" />
    <glyph glyph-name="Idotaccent" unicode="&#x130;" horiz-adv-x="240" 
d="M157 0h-56v649l-67 2v49h123v-700zM130 730q-14 0 -24 10t-10 24q0 13 10 23t24 10t23.5 -9.5t9.5 -23.5t-10 -24t-23 -10z" />
    <glyph glyph-name="dotlessi" unicode="&#x131;" horiz-adv-x="188" 
d="M122 0h-56v501h56v-501z" />
    <glyph glyph-name="Jcircumflex" unicode="&#x134;" horiz-adv-x="248" 
d="M43 -37l-13 37q33 0 57.5 27t24.5 87v535l-67 2v49h124v-582q0 -74 -33.5 -114.5t-92.5 -40.5zM248 846v-5q0 -47 -33 -80t-80 -33t-80 33t-33 80v5h45v-5q0 -29 19.5 -48.5t48.5 -19.5t48.5 19.5t19.5 48.5v5h45z" />
    <glyph glyph-name="jcircumflex" unicode="&#x135;" horiz-adv-x="205" 
d="M219 541l-105 104l-109 -104l-38 39l148 141l142 -141zM83 -56v502l-45 3l-23 52h124v-576q-2 -58 -36 -96t-88 -38l-7 43q3 0 8 1.5t18 8t23 17.5t18 32.5t8 50.5z" />
    <glyph glyph-name="Kcommaaccent" unicode="&#x136;" horiz-adv-x="487" 
d="M480 0h-67l-226 345l-48 -76v-269h-56v701h56v-334l224 334h65l-205 -303zM234 -184l-40 28q21 12 37 25t21 21l5 7l-10 3q-18 13 -18 36q1 13 11 22t24 8q13 -1 23.5 -12.5t10.5 -24.5q1 -59 -64 -113z" />
    <glyph glyph-name="kcommaaccent" unicode="&#x137;" horiz-adv-x="437" 
d="M433 0h-67l-192 317l-52 -45v-272h-56v700h56v-365l200 185l40 -39l-148 -129q68 -113 219 -352zM205 -184l-40 28q21 12 37 25t21 21l5 7l-10 3q-18 13 -18 36q1 13 11 22t24 8q13 -1 23.5 -12.5t10.5 -24.5q1 -59 -64 -113z" />
    <glyph glyph-name="kgreenlandic" unicode="&#x138;" horiz-adv-x="449" 
d="M434 47l2 -48q-35 0 -65 18.5t-45.5 36.5t-43.5 56l-105 144l-55 -56v-198h-56v512l56 -13v-225l208 227h74l-188 -205l127 -179q51 -68 91 -70z" />
    <glyph glyph-name="Lacute" unicode="&#x139;" horiz-adv-x="455" 
d="M444 0h-361v700h56v-650h305v-50zM190 730h-44l51 118q14 30 45 21q16 -5 20.5 -21t-3.5 -26z" />
    <glyph glyph-name="lacute" unicode="&#x13a;" horiz-adv-x="188" 
d="M122 0h-56v700h56v-700zM120 734h-44l51 118q14 30 45 21q16 -5 20.5 -21t-3.5 -26z" />
    <glyph glyph-name="Lcommaaccent" unicode="&#x13b;" horiz-adv-x="455" 
d="M444 0h-361v700h56v-650h305v-50zM246 -184l-40 28q21 12 37 25t21 21l5 7l-10 3q-18 13 -18 36q1 13 11 22t24 8q13 -1 23.5 -12.5t10.5 -24.5q1 -59 -64 -113z" />
    <glyph glyph-name="lcommaaccent" unicode="&#x13c;" horiz-adv-x="188" 
d="M122 0h-56v700h56v-700zM65 -184l-40 28q21 12 37 25t21 21l5 7l-10 3q-18 13 -18 36q1 13 11 22t24 8q13 -1 23.5 -12.5t10.5 -24.5q1 -59 -64 -113z" />
    <glyph glyph-name="Lcaron" unicode="&#x13d;" horiz-adv-x="455" 
d="M444 0h-361v700h56v-650h305v-50zM258 875l-142 -141l-148 141l38 39l109 -104l105 104z" />
    <glyph glyph-name="lcaron" unicode="&#x13e;" horiz-adv-x="218" 
d="M122 0h-56v700h56v-700zM240 875l-142 -141l-148 141l38 39l109 -104l105 104z" />
    <glyph glyph-name="Lslash" unicode="&#x141;" horiz-adv-x="515" 
d="M500 0h-361v353l-101 -45l-22 50l123 55v287h56v-262l112 51l23 -50l-135 -61v-328h305v-50z" />
    <glyph glyph-name="lslash" unicode="&#x142;" horiz-adv-x="341" 
d="M206 0h-56v359l-114 -51l-22 50l136 61v230l-67 2v49h123v-256l99 45l23 -50l-122 -55v-384z" />
    <glyph glyph-name="Nacute" unicode="&#x143;" horiz-adv-x="658" 
d="M575 0h-56l-380 597v-597h-56v700h56l380 -597v597h56v-700zM327 730h-44l51 118q14 30 45 21q16 -5 20.5 -21t-3.5 -26z" />
    <glyph glyph-name="nacute" unicode="&#x144;" horiz-adv-x="496" 
d="M435 0h-55v343q0 52 -28 81t-69.5 33.5t-84 -4.5t-76.5 -28v-425h-56v501h56l-4 -34q42 35 113.5 41.5t118.5 -17.5q85 -39 85 -145v-346zM263 538h-44l51 118q14 30 45 21q16 -5 20.5 -21t-3.5 -26z" />
    <glyph glyph-name="Ncommaaccent" unicode="&#x145;" horiz-adv-x="658" 
d="M575 0h-56l-380 597v-597h-56v700h56l380 -597v597h56v-700zM319 -184l-40 28q21 12 37 25t21 21l5 7l-10 3q-18 13 -18 36q1 13 11 22t24 8q13 -1 23.5 -12.5t10.5 -24.5q1 -59 -64 -113z" />
    <glyph glyph-name="ncommaaccent" unicode="&#x146;" horiz-adv-x="496" 
d="M435 0h-55v343q0 52 -28 81t-69.5 33.5t-84 -4.5t-76.5 -28v-425h-56v501h56l-4 -34q42 35 113.5 41.5t118.5 -17.5q85 -39 85 -145v-346zM220 -184l-40 28q21 12 37 25t21 21l5 7l-10 3q-18 13 -18 36q1 13 11 22t24 8q13 -1 23.5 -12.5t10.5 -24.5q1 -59 -64 -113z" />
    <glyph glyph-name="Ncaron" unicode="&#x147;" horiz-adv-x="658" 
d="M575 0h-56l-380 597v-597h-56v700h56l380 -597v597h56v-700zM479 875l-142 -141l-148 141l38 39l109 -104l105 104z" />
    <glyph glyph-name="ncaron" unicode="&#x148;" horiz-adv-x="496" 
d="M435 0h-55v343q0 52 -28 81t-69.5 33.5t-84 -4.5t-76.5 -28v-425h-56v501h56l-4 -34q42 35 113.5 41.5t118.5 -17.5q85 -39 85 -145v-346zM409 733l-142 -141l-148 141l38 39l109 -104l105 104z" />
    <glyph glyph-name="Eng" unicode="&#x14a;" horiz-adv-x="655" 
d="M518 105v544l-67 2v49h125v-582q0 -74 -33.5 -114.5t-92.5 -40.5q-2 6 -6.5 18.5t-6.5 18.5q40 0 61 33q-60 94 -179.5 282t-179.5 282v-597h-56v700h56q357 -551 379 -595z" />
    <glyph glyph-name="eng" unicode="&#x14b;" horiz-adv-x="496" 
d="M380 -56v399q0 52 -28 81t-69.5 33.5t-84 -4.5t-76.5 -28v-425h-56v501h56l-4 -34q42 35 113.5 41.5t118.5 -17.5q85 -39 85 -145v-421q-2 -58 -36 -96t-88 -38l-7 43q3 0 8 1.5t18.5 8t23.5 17.5t18 32.5t8 50.5z" />
    <glyph glyph-name="Omacron" unicode="&#x14c;" horiz-adv-x="552" 
d="M486 506v-321q0 -101 -61.5 -148.5t-147.5 -47.5t-148.5 47.5t-62.5 148.5v322q0 103 56.5 156t155.5 53t153.5 -56t54.5 -154zM431 187v329q0 73 -42.5 110t-112.5 37t-112 -37t-42 -110v-330q0 -71 43.5 -107.5t110.5 -36.5q68 0 111.5 35.5t43.5 109.5zM380 730h-217
v58h217v-58z" />
    <glyph glyph-name="omacron" unicode="&#x14d;" horiz-adv-x="469" 
d="M421 316v-132q0 -84 -46 -139t-139 -55t-140.5 55.5t-47.5 138.5v132q0 95 48.5 145.5t139.5 50.5q87 0 136 -52.5t49 -143.5zM365 174v142q0 145 -129 145q-132 0 -132 -145v-142q0 -60 35.5 -97t96.5 -37q62 0 95.5 36.5t33.5 97.5zM342 538h-216v58h216v-58z" />
    <glyph glyph-name="Ohungarumlaut" unicode="&#x150;" horiz-adv-x="552" 
d="M486 506v-321q0 -101 -61.5 -148.5t-147.5 -47.5t-148.5 47.5t-62.5 148.5v322q0 103 56.5 156t155.5 53t153.5 -56t54.5 -154zM431 187v329q0 73 -42.5 110t-112.5 37t-112 -37t-42 -110v-330q0 -71 43.5 -107.5t110.5 -36.5q68 0 111.5 35.5t43.5 109.5zM348 731h-44
l51 118q14 30 45 21q16 -5 20.5 -21t-3.5 -26zM236 731h-44l51 118q14 30 45 21q16 -5 20.5 -21t-3.5 -26z" />
    <glyph glyph-name="ohungarumlaut" unicode="&#x151;" horiz-adv-x="469" 
d="M421 316v-132q0 -84 -46 -139t-139 -55t-140.5 55.5t-47.5 138.5v132q0 95 48.5 145.5t139.5 50.5q87 0 136 -52.5t49 -143.5zM365 174v142q0 145 -129 145q-132 0 -132 -145v-142q0 -60 35.5 -97t96.5 -37q62 0 95.5 36.5t33.5 97.5zM302 543h-44l51 118q14 30 45 21
q16 -5 20.5 -21t-3.5 -26zM190 543h-44l51 118q14 30 45 21q16 -5 20.5 -21t-3.5 -26z" />
    <glyph glyph-name="OE" unicode="&#x152;" horiz-adv-x="811" 
d="M761 0h-332v40q-57 -51 -152 -51q-86 0 -148.5 47.5t-62.5 148.5v322q0 103 56.5 156t155.5 53q97 0 151 -54v38h334v-52h-278v-114q1 -9 1 -28v-93h190l-19 -55h-171v-173q0 -4 -0.5 -11.5t-0.5 -10.5v-113h276v-50zM429 157v387q-9 59 -49.5 89t-103.5 30
q-70 0 -112 -37t-42 -110v-330q0 -71 43.5 -107.5t110.5 -36.5q60 0 102 28.5t51 86.5z" />
    <glyph glyph-name="oe" unicode="&#x153;" horiz-adv-x="769" 
d="M679 78l22 -43q-74 -45 -165 -47q-111 -3 -152 72q-52 -70 -148 -70q-93 0 -140.5 55.5t-47.5 138.5v132q0 95 48.5 145.5t139.5 50.5q105 0 155 -81q48 79 159 79q83 0 129.5 -44.5t46.5 -123.5v-130l-304 -17v-61q0 -54 39 -78t98 -17t120 39zM365 174v142
q0 145 -129 145q-132 0 -132 -145v-142q0 -60 35.5 -97t96.5 -37q62 0 95.5 36.5t33.5 97.5zM670 262v87q0 43 -23 70.5t-48 35t-50 7.5q-55 0 -91 -30t-36 -94v-88z" />
    <glyph glyph-name="Racute" unicode="&#x154;" horiz-adv-x="575" 
d="M518 0h-57l-85 248q-18 -3 -40 -3h-197v-245h-56v700h246q95 0 141.5 -58t46.5 -156q0 -47 -3.5 -80t-24.5 -76.5t-60 -64.5zM139 300h198q36 0 61 14.5t37 32.5t18.5 48.5t7 46.5t0.5 44q0 81 -34.5 121t-93.5 40h-194v-347zM276 730h-44l51 118q14 30 45 21
q16 -5 20.5 -21t-3.5 -26z" />
    <glyph glyph-name="racute" unicode="&#x155;" horiz-adv-x="319" 
d="M122 0h-56v501h56l-3 -35q67 62 197 35l-15 -51q-34 9 -74 10t-72.5 -17t-32.5 -51v-392zM170 538h-44l51 118q14 30 45 21q16 -5 20.5 -21t-3.5 -26z" />
    <glyph glyph-name="Rcommaaccent" unicode="&#x156;" horiz-adv-x="575" 
d="M518 0h-57l-85 248q-18 -3 -40 -3h-197v-245h-56v700h246q95 0 141.5 -58t46.5 -156q0 -47 -3.5 -80t-24.5 -76.5t-60 -64.5zM139 300h198q36 0 61 14.5t37 32.5t18.5 48.5t7 46.5t0.5 44q0 81 -34.5 121t-93.5 40h-194v-347zM256 -184l-40 28q21 12 37 25t21 21l5 7
l-10 3q-18 13 -18 36q1 13 11 22t24 8q13 -1 23.5 -12.5t10.5 -24.5q1 -59 -64 -113z" />
    <glyph glyph-name="rcommaaccent" unicode="&#x157;" horiz-adv-x="319" 
d="M122 0h-56v501h56l-3 -35q67 62 197 35l-15 -51q-34 9 -74 10t-72.5 -17t-32.5 -51v-392zM116 -184l-40 28q21 12 37 25t21 21l5 7l-10 3q-18 13 -18 36q1 13 11 22t24 8q13 -1 23.5 -12.5t10.5 -24.5q1 -59 -64 -113z" />
    <glyph glyph-name="Rcaron" unicode="&#x158;" horiz-adv-x="575" 
d="M518 0h-57l-85 248q-18 -3 -40 -3h-197v-245h-56v700h246q95 0 141.5 -58t46.5 -156q0 -47 -3.5 -80t-24.5 -76.5t-60 -64.5zM139 300h198q36 0 61 14.5t37 32.5t18.5 48.5t7 46.5t0.5 44q0 81 -34.5 121t-93.5 40h-194v-347zM432 875l-142 -141l-148 141l38 39l109 -104
l105 104z" />
    <glyph glyph-name="rcaron" unicode="&#x159;" horiz-adv-x="319" 
d="M122 0h-56v501h56l-3 -35q67 62 197 35l-15 -51q-34 9 -74 10t-72.5 -17t-32.5 -51v-392zM355 733l-142 -141l-148 141l38 39l109 -104l105 104z" />
    <glyph glyph-name="Sacute" unicode="&#x15a;" horiz-adv-x="551" 
d="M44 178h57q5 -53 53.5 -94t124.5 -41q77 0 128.5 34.5t51.5 109.5q0 46 -29.5 78.5t-73.5 49.5t-95.5 36.5t-95.5 38.5t-73.5 57t-29.5 91q0 70 58 121t167 51q83 0 146 -30q0 -2 -17 -53q-57 29 -127 29q-77 0 -123 -32t-46 -89q0 -34 22 -59t57 -41t77.5 -30t85.5 -31
t78 -38.5t57 -58.5t22 -85q0 -92 -58.5 -147.5t-180.5 -55.5q-109 0 -171.5 57.5t-64.5 131.5zM291 735h-44l51 118q14 30 45 21q16 -5 20.5 -21t-3.5 -26z" />
    <glyph glyph-name="sacute" unicode="&#x15b;" horiz-adv-x="424" 
d="M38 127h53q6 -45 45 -67.5t87 -22.5q45 0 82 20.5t37 66.5q0 37 -28.5 60t-69.5 36t-83 27.5t-74 43.5t-37 74q-6 55 37 101.5t134 46.5q32 0 60 -7.5t40 -14.5l12 -7l-19 -46q-36 26 -93 26q-51 0 -85.5 -24.5t-30.5 -69.5q3 -31 34.5 -51.5t74 -33t84.5 -28.5t71 -49
t29 -83q0 -60 -44.5 -100t-130.5 -40q-85 0 -134 41t-51 101zM228 538h-44l51 118q14 30 45 21q16 -5 20.5 -21t-3.5 -26z" />
    <glyph glyph-name="Scircumflex" unicode="&#x15c;" horiz-adv-x="551" 
d="M44 178h57q5 -53 53.5 -94t124.5 -41q77 0 128.5 34.5t51.5 109.5q0 46 -29.5 78.5t-73.5 49.5t-95.5 36.5t-95.5 38.5t-73.5 57t-29.5 91q0 70 58 121t167 51q83 0 146 -30q0 -2 -17 -53q-57 29 -127 29q-77 0 -123 -32t-46 -89q0 -34 22 -59t57 -41t77.5 -30t85.5 -31
t78 -38.5t57 -58.5t22 -85q0 -92 -58.5 -147.5t-180.5 -55.5q-109 0 -171.5 57.5t-64.5 131.5zM384 733l-105 104l-109 -104l-38 39l148 141l142 -141z" />
    <glyph glyph-name="scircumflex" unicode="&#x15d;" horiz-adv-x="424" 
d="M331 541l-105 104l-109 -104l-38 39l148 141l142 -141zM38 127h53q6 -45 45 -67.5t87 -22.5q45 0 82 20.5t37 66.5q0 37 -28.5 60t-69.5 36t-83 27.5t-74 43.5t-37 74q-6 55 37 101.5t134 46.5q32 0 60 -7.5t40 -14.5l12 -7l-19 -46q-36 26 -93 26q-51 0 -85.5 -24.5
t-30.5 -69.5q3 -31 34.5 -51.5t74 -33t84.5 -28.5t71 -49t29 -83q0 -60 -44.5 -100t-130.5 -40q-85 0 -134 41t-51 101z" />
    <glyph glyph-name="scedilla" unicode="&#x15f;" horiz-adv-x="424" 
d="M112 -191l24 53q37 -25 78 -25q24 0 43 10.5t19 31.5q0 22 -20.5 32t-56.5 -3l-34 -14l-17 28l50 64q-74 6 -116 46t-44 95h53q6 -45 45 -67.5t87 -22.5q45 0 82 20.5t37 66.5q0 37 -28.5 60t-69.5 36t-83 27.5t-74 43.5t-37 74q-6 55 37 101.5t134 46.5q32 0 60 -7.5
t40 -14.5l12 -7l-19 -46q-36 26 -93 26q-51 0 -85.5 -24.5t-30.5 -69.5q3 -31 34.5 -51.5t74 -33t84.5 -28.5t71 -49t29 -83q0 -57 -40 -96t-118 -43l-29 -39q9 6 36 6q34 0 57.5 -19.5t23.5 -54.5q0 -48 -37 -68.5t-87 -20.5q-40 0 -92 19z" />
    <glyph glyph-name="Scaron" unicode="&#x160;" horiz-adv-x="551" 
d="M44 178h57q5 -53 53.5 -94t124.5 -41q77 0 128.5 34.5t51.5 109.5q0 46 -29.5 78.5t-73.5 49.5t-95.5 36.5t-95.5 38.5t-73.5 57t-29.5 91q0 70 58 121t167 51q83 0 146 -30q0 -2 -17 -53q-57 29 -127 29q-77 0 -123 -32t-46 -89q0 -34 22 -59t57 -41t77.5 -30t85.5 -31
t78 -38.5t57 -58.5t22 -85q0 -92 -58.5 -147.5t-180.5 -55.5q-109 0 -171.5 57.5t-64.5 131.5zM451 925l-142 -141l-148 141l38 39l109 -104l105 104z" />
    <glyph glyph-name="scaron" unicode="&#x161;" horiz-adv-x="424" 
d="M38 127h53q6 -45 45 -67.5t87 -22.5q45 0 82 20.5t37 66.5q0 37 -28.5 60t-69.5 36t-83 27.5t-74 43.5t-37 74q-6 55 37 101.5t134 46.5q32 0 60 -7.5t40 -14.5l12 -7l-19 -46q-36 26 -93 26q-51 0 -85.5 -24.5t-30.5 -69.5q3 -31 34.5 -51.5t74 -33t84.5 -28.5t71 -49
t29 -83q0 -60 -44.5 -100t-130.5 -40q-85 0 -134 41t-51 101zM365 732l-142 -141l-148 141l38 39l109 -104l105 104z" />
    <glyph glyph-name="Tcommaaccent" unicode="&#x162;" horiz-adv-x="426" 
d="M241 0h-56v650h-170v50h402v-50h-176v-650zM186 -184l-40 28q21 12 37 25t21 21l5 7l-10 3q-18 13 -18 36q1 13 11 22t24 8q13 -1 23.5 -12.5t10.5 -24.5q1 -59 -64 -113z" />
    <glyph glyph-name="tcommaaccent" unicode="&#x163;" horiz-adv-x="244" 
d="M185 30l-16 -43q-56 16 -81 51t-25 94v568h56v-199h120l-24 -53h-96v-316q0 -80 66 -102zM83 -184l-40 28q21 12 37 25t21 21l5 7l-10 3q-18 13 -18 36q1 13 11 22t24 8q13 -1 23.5 -12.5t10.5 -24.5q1 -59 -64 -113z" />
    <glyph glyph-name="Tcaron" unicode="&#x164;" horiz-adv-x="426" 
d="M241 0h-56v650h-170v50h402v-50h-176v-650zM359 875l-142 -141l-148 141l38 39l109 -104l105 104z" />
    <glyph glyph-name="tcaron" unicode="&#x165;" horiz-adv-x="244" 
d="M185 30l-16 -43q-56 16 -81 51t-25 94v568h56v-199h120l-24 -53h-96v-316q0 -80 66 -102zM293 875l-142 -141l-148 141l38 39l109 -104l105 104z" />
    <glyph glyph-name="Tbar" unicode="&#x166;" horiz-adv-x="426" 
d="M241 0h-56v650h-170v50h402v-50h-176v-650zM322 730h-217v58h217v-58z" />
    <glyph glyph-name="tbar" unicode="&#x167;" horiz-adv-x="294" 
d="M217 30l-16 -43q-56 16 -81 51t-25 94v171h-70v55h70v342h56v-199h120l-24 -53h-96v-90h108v-55h-108v-171q0 -80 66 -102z" />
    <glyph glyph-name="Utilde" unicode="&#x168;" horiz-adv-x="579" 
d="M444 178v523h56v-515q0 -53 -18.5 -92t-50 -60t-66.5 -31t-75 -10t-75.5 10t-67 31t-50 60t-18.5 92v515h56v-523q0 -61 44.5 -98t109.5 -37t110 37t45 98zM434 821l25 -39q-34 -40 -68 -49t-62.5 3t-56.5 25t-60 9.5t-62 -35.5l-25 39q35 39 70 48.5t64 -2t57.5 -24
t59 -9.5t58.5 34z" />
    <glyph glyph-name="utilde" unicode="&#x169;" 
d="M434 0h-55l4 51q-24 -30 -60.5 -46t-73.5 -16q-188 0 -188 183v329h56v-336q0 -64 35.5 -95t96.5 -31q129 0 129 126v336h56v-501zM389 632l25 -39q-34 -40 -68 -49t-62.5 3t-56.5 25t-60 9.5t-62 -35.5l-25 39q35 39 70 48.5t64 -2t57.5 -24t59 -9.5t58.5 34z" />
    <glyph glyph-name="Umacron" unicode="&#x16a;" horiz-adv-x="579" 
d="M444 178v523h56v-515q0 -53 -18.5 -92t-50 -60t-66.5 -31t-75 -10t-75.5 10t-67 31t-50 60t-18.5 92v515h56v-523q0 -61 44.5 -98t109.5 -37t110 37t45 98zM396 730h-217v58h217v-58z" />
    <glyph glyph-name="umacron" unicode="&#x16b;" 
d="M434 0h-55l4 51q-24 -30 -60.5 -46t-73.5 -16q-188 0 -188 183v329h56v-336q0 -64 35.5 -95t96.5 -31q129 0 129 126v336h56v-501zM351 538h-217v58h217v-58z" />
    <glyph glyph-name="Ubreve" unicode="&#x16c;" horiz-adv-x="579" 
d="M444 178v523h56v-515q0 -53 -18.5 -92t-50 -60t-66.5 -31t-75 -10t-75.5 10t-67 31t-50 60t-18.5 92v515h56v-523q0 -61 44.5 -98t109.5 -37t110 37t45 98zM402 842v-5q0 -47 -33 -80t-80 -33t-80 33t-33 80v5h45v-5q0 -29 19.5 -48.5t48.5 -19.5t48.5 19.5t19.5 48.5v5
h45z" />
    <glyph glyph-name="ubreve" unicode="&#x16d;" 
d="M366 653v-5q0 -46 -33 -79.5t-80 -33.5t-80 33.5t-33 79.5v5h45v-5q0 -28 19.5 -48t48.5 -20t48.5 20t19.5 48v5h45zM434 0h-55l4 51q-24 -30 -60.5 -46t-73.5 -16q-188 0 -188 183v329h56v-336q0 -64 35.5 -95t96.5 -31q129 0 129 126v336h56v-501z" />
    <glyph glyph-name="Uring" unicode="&#x16e;" horiz-adv-x="579" 
d="M444 178v523h56v-515q0 -53 -18.5 -92t-50 -60t-66.5 -31t-75 -10t-75.5 10t-67 31t-50 60t-18.5 92v515h56v-523q0 -61 44.5 -98t109.5 -37t110 37t45 98zM357 770q0 28 -19.5 48t-48.5 20t-48.5 -20t-19.5 -48t19.5 -48t48.5 -20t48.5 20t19.5 48zM289 657
q-47 0 -80 33.5t-33 79.5t33 79.5t80 33.5t80 -33.5t33 -79.5t-33 -79.5t-80 -33.5z" />
    <glyph glyph-name="uring" unicode="&#x16f;" 
d="M434 0h-55l4 51q-24 -30 -60.5 -46t-73.5 -16q-188 0 -188 183v329h56v-336q0 -64 35.5 -95t96.5 -31q129 0 129 126v336h56v-501zM321 588q0 28 -19.5 48t-48.5 20t-48.5 -20t-19.5 -48t19.5 -48t48.5 -20t48.5 20t19.5 48zM253 475q-47 0 -80 33.5t-33 79.5t33 79.5
t80 33.5t80 -33.5t33 -79.5t-33 -79.5t-80 -33.5z" />
    <glyph glyph-name="Uhungarumlaut" unicode="&#x170;" horiz-adv-x="579" 
d="M444 178v523h56v-515q0 -53 -18.5 -92t-50 -60t-66.5 -31t-75 -10t-75.5 10t-67 31t-50 60t-18.5 92v515h56v-523q0 -61 44.5 -98t109.5 -37t110 37t45 98zM362 731h-44l51 118q14 30 45 21q16 -5 20.5 -21t-3.5 -26zM250 731h-44l51 118q14 30 45 21q16 -5 20.5 -21
t-3.5 -26z" />
    <glyph glyph-name="uhungarumlaut" unicode="&#x171;" 
d="M434 0h-55l4 51q-24 -30 -60.5 -46t-73.5 -16q-188 0 -188 183v329h56v-336q0 -64 35.5 -95t96.5 -31q129 0 129 126v336h56v-501zM315 543h-44l51 118q14 30 45 21q16 -5 20.5 -21t-3.5 -26zM203 543h-44l51 118q14 30 45 21q16 -5 20.5 -21t-3.5 -26z" />
    <glyph glyph-name="Uogonek" unicode="&#x172;" horiz-adv-x="579" 
d="M332 -125l37 -38q-32 -50 -97 -50q-17 0 -35 4.5t-37.5 24.5t-19.5 53q0 65 87 125q-80 6 -134 52t-54 140v515h56v-523q0 -61 44.5 -98t109.5 -37t110 37t45 98v523h56v-515q0 -89 -49 -135.5t-123 -54.5q-94 -78 -98 -117q-2 -19 8.5 -32t30.5 -13q22 0 35.5 9.5
t27.5 31.5z" />
    <glyph glyph-name="uogonek" unicode="&#x173;" 
d="M431 -125l37 -38q-32 -50 -97 -50q-17 0 -35 4.5t-37.5 24.5t-19.5 53q0 68 96 131h4l4 51q-24 -30 -60.5 -46t-73.5 -16q-188 0 -188 183v329h56v-336q0 -64 35.5 -95t96.5 -31q129 0 129 126v336h56v-501h-1q-100 -83 -104 -121q-2 -19 8.5 -32t30.5 -13q22 0 35.5 9.5
t27.5 31.5z" />
    <glyph glyph-name="Ydieresis" unicode="&#x178;" horiz-adv-x="569" 
d="M384 -7l-13 37q61 23 61 122v142q-27 -24 -72 -36.5t-86 -12.5q-106 0 -167.5 52.5t-61.5 155.5v247h56v-257q0 -70 48 -106.5t125 -36.5q59 0 103 25t55 75v300h57v-544q0 -73 -27.5 -114.5t-77.5 -48.5zM189 731q-13 0 -23 9.5t-10 23.5t10 23.5t23 9.5t23 -9.5
t10 -23.5t-10 -23.5t-23 -9.5zM345 731q-13 0 -23 9.5t-10 23.5t10 23.5t23 9.5t23 -9.5t10 -23.5t-10 -23.5t-23 -9.5z" />
    <glyph glyph-name="Zacute" unicode="&#x179;" horiz-adv-x="565" 
d="M524 0h-487v50l410 599h-397v51h468v-50l-410 -599h416v-51zM254 785h-44l51 118q14 30 45 21q16 -5 20.5 -21t-3.5 -26z" />
    <glyph glyph-name="zacute" unicode="&#x17a;" horiz-adv-x="434" 
d="M402 0h-367v50l275 400h-266v51h337v-50l-277 -400h298v-51zM225 538h-44l51 118q14 30 45 21q16 -5 20.5 -21t-3.5 -26z" />
    <glyph glyph-name="Zdotaccent" unicode="&#x17b;" horiz-adv-x="565" 
d="M524 0h-487v50l410 599h-397v51h468v-50l-410 -599h416v-51zM294 726q-14 0 -24 10t-10 24q0 13 10 23t24 10t23.5 -9.5t9.5 -23.5t-10 -24t-23 -10z" />
    <glyph glyph-name="zdotaccent" unicode="&#x17c;" horiz-adv-x="434" 
d="M402 0h-367v50l275 400h-266v51h337v-50l-277 -400h298v-51zM218 535q-14 0 -24 10.5t-10 23.5t10 23t24 10t23.5 -10t9.5 -23q0 -14 -10 -24t-23 -10z" />
    <glyph glyph-name="Zcaron" unicode="&#x17d;" horiz-adv-x="565" 
d="M524 0h-487v50l410 599h-397v51h468v-50l-410 -599h416v-51zM450 925l-142 -141l-148 141l38 39l109 -104l105 104z" />
    <glyph glyph-name="zcaron" unicode="&#x17e;" horiz-adv-x="434" 
d="M402 0h-367v50l275 400h-266v51h337v-50l-277 -400h298v-51zM389 732l-142 -141l-148 141l38 39l109 -104l105 104z" />
    <glyph glyph-name="florin" unicode="&#x192;" horiz-adv-x="249" 
 />
    <glyph glyph-name="Scommaaccent" unicode="&#x218;" horiz-adv-x="551" 
d="M44 178h57q5 -53 53.5 -94t124.5 -41q77 0 128.5 34.5t51.5 109.5q0 46 -29.5 78.5t-73.5 49.5t-95.5 36.5t-95.5 38.5t-73.5 57t-29.5 91q0 70 58 121t167 51q83 0 146 -30q0 -2 -17 -53q-57 29 -127 29q-77 0 -123 -32t-46 -89q0 -34 22 -59t57 -41t77.5 -30t85.5 -31
t78 -38.5t57 -58.5t22 -85q0 -92 -58.5 -147.5t-180.5 -55.5q-109 0 -171.5 57.5t-64.5 131.5zM252 -184l-40 28q21 12 37 25t21 21l5 7l-10 3q-18 13 -18 36q1 13 11 22t24 8q13 -1 23.5 -12.5t10.5 -24.5q1 -59 -64 -113z" />
    <glyph glyph-name="scommaaccent" unicode="&#x219;" horiz-adv-x="424" 
d="M38 127h53q6 -45 45 -67.5t87 -22.5q45 0 82 20.5t37 66.5q0 37 -28.5 60t-69.5 36t-83 27.5t-74 43.5t-37 74q-6 55 37 101.5t134 46.5q32 0 60 -7.5t40 -14.5l12 -7l-19 -46q-36 26 -93 26q-51 0 -85.5 -24.5t-30.5 -69.5q3 -31 34.5 -51.5t74 -33t84.5 -28.5t71 -49
t29 -83q0 -60 -44.5 -100t-130.5 -40q-85 0 -134 41t-51 101zM188 -184l-40 28q21 12 37 25t21 21l5 7l-10 3q-18 13 -18 36q1 13 11 22t24 8q13 -1 23.5 -12.5t10.5 -24.5q1 -59 -64 -113z" />
    <glyph glyph-name="circumflex" unicode="&#x2c6;" horiz-adv-x="514" 
d="M364 591l-105 104l-109 -104l-38 39l148 141l142 -141z" />
    <glyph glyph-name="caron" unicode="&#x2c7;" horiz-adv-x="514" 
d="M401 732l-142 -141l-148 141l38 39l109 -104l105 104z" />
    <glyph glyph-name="breve" unicode="&#x2d8;" horiz-adv-x="514" 
d="M370 700v-5q0 -47 -33 -80t-80 -33t-80 33t-33 80v5h45v-5q0 -29 19.5 -48.5t48.5 -19.5t48.5 19.5t19.5 48.5v5h45z" />
    <glyph glyph-name="dotaccent" unicode="&#x2d9;" horiz-adv-x="515" 
d="M258 643q-14 0 -24 10.5t-10 23.5t10 23t24 10t23.5 -10t9.5 -23q0 -14 -10 -24t-23 -10z" />
    <glyph glyph-name="ring" unicode="&#x2da;" horiz-adv-x="514" 
d="M325 662q0 28 -19.5 48t-48.5 20t-48.5 -20t-19.5 -48t19.5 -48t48.5 -20t48.5 20t19.5 48zM257 549q-47 0 -80 33.5t-33 79.5t33 79.5t80 33.5t80 -33.5t33 -79.5t-33 -79.5t-80 -33.5z" />
    <glyph glyph-name="ogonek" unicode="&#x2db;" horiz-adv-x="515" 
d="M315 -122l37 -38q-32 -50 -97 -50q-17 0 -35 4.5t-37.5 24.5t-19.5 53q0 68 96 131h58q-100 -83 -104 -121q-2 -19 8.5 -32t30.5 -13q22 0 35.5 9.5t27.5 31.5z" />
    <glyph glyph-name="tilde" unicode="&#x2dc;" horiz-adv-x="514" 
d="M400 697l25 -39q-34 -40 -68 -49t-62.5 3t-56.5 25t-60 9.5t-62 -35.5l-25 39q35 39 70 48.5t64 -2t57.5 -24t59 -9.5t58.5 34z" />
    <glyph glyph-name="hungarumlaut" unicode="&#x2dd;" horiz-adv-x="515" 
d="M303 568h-44l51 118q14 30 45 21q16 -5 20.5 -21t-3.5 -26zM191 568h-44l51 118q14 30 45 21q16 -5 20.5 -21t-3.5 -26z" />
    <glyph glyph-name="dieresistonos" unicode="&#x385;" horiz-adv-x="515" 
d="M180 664q-14 0 -23.5 10t-9.5 23t9.5 23t23.5 10t23.5 -10t9.5 -23t-9.5 -23t-23.5 -10zM336 664q-14 0 -23.5 10t-9.5 23t9.5 23t23.5 10t23.5 -10t9.5 -23t-9.5 -23t-23.5 -10zM279 731h-44l51 118q14 30 45 21q16 -5 20.5 -21t-3.5 -26z" />
    <glyph glyph-name="Alphatonos" unicode="&#x386;" horiz-adv-x="556" 
d="M546 0h-60l-80 245h-228l-78 -245h-59l224 700h53zM391 300l-100 313l-97 -313h197zM91 568h-44l51 118q14 30 45 21q16 -5 20.5 -21t-3.5 -26z" />
    <glyph glyph-name="Epsilontonos" unicode="&#x388;" horiz-adv-x="564" 
d="M59 568h-44l51 118q14 30 45 21q16 -5 20.5 -21t-3.5 -26zM514 0h-332v700h334v-52h-278v-235h191l-19 -55h-172v-308h276v-50z" />
    <glyph glyph-name="Etatonos" unicode="&#x389;" horiz-adv-x="697" 
d="M59 568h-44l51 118q14 30 45 21q16 -5 20.5 -21t-3.5 -26zM614 0h-56v358h-318v-358h-56v700h56v-287h318v287h56v-700z" />
    <glyph glyph-name="Iotatonos" unicode="&#x38a;" horiz-adv-x="375" 
d="M292 0h-56v649l-67 2v49h123v-700zM57 568h-44l51 118q14 30 45 21q16 -5 20.5 -21t-3.5 -26z" />
    <glyph glyph-name="Omicrontonos" unicode="&#x38c;" horiz-adv-x="621" 
d="M555 506v-321q0 -101 -61.5 -148.5t-147.5 -47.5t-148.5 47.5t-62.5 148.5v322q0 103 56.5 156t155.5 53t153.5 -56t54.5 -154zM500 187v329q0 73 -42.5 110t-112.5 37t-112 -37t-42 -110v-330q0 -71 43.5 -107.5t110.5 -36.5q68 0 111.5 35.5t43.5 109.5zM62 568h-44
l51 118q14 30 45 21q16 -5 20.5 -21t-3.5 -26z" />
    <glyph glyph-name="Upsilontonos" unicode="&#x38e;" horiz-adv-x="691" 
d="M52 568h-44l51 118q14 30 45 21q16 -5 20.5 -21t-3.5 -26zM506 -7l-13 37q61 23 61 122v142q-27 -24 -72 -36.5t-86 -12.5q-106 0 -167.5 52.5t-61.5 155.5v247h56v-257q0 -70 48 -106.5t125 -36.5q59 0 103 25t55 75v300h57v-544q0 -73 -27.5 -114.5t-77.5 -48.5z" />
    <glyph glyph-name="Omegatonos" unicode="&#x38f;" horiz-adv-x="687" 
d="M629 0h-228v51q76 15 103 31q56 33 56 114v317q0 67 -36.5 105t-95.5 38h-112q-59 0 -95.5 -38t-36.5 -105v-317q0 -33 10 -58t22 -38.5t37 -24t38 -14t42 -8.5q7 -1 10 -2v-51h-228l17 51h65q-69 43 -69 145v307q0 92 47 148t141 56h112q94 0 141 -56t47 -148v-307
q0 -100 -73 -145h69zM65 568h-44l51 118q14 30 45 21q16 -5 20.5 -21t-3.5 -26z" />
    <glyph glyph-name="iotadieresistonos" unicode="&#x390;" horiz-adv-x="188" 
d="M122 0h-56v501h56v-501zM117 579h-44l51 118q14 30 45 21q16 -5 20.5 -21t-3.5 -26zM15 541q-13 0 -23 9.5t-10 23.5t10 23.5t23 9.5t23 -9.5t10 -23.5t-10 -23.5t-23 -9.5zM171 541q-13 0 -23 9.5t-10 23.5t10 23.5t23 9.5t23 -9.5t10 -23.5t-10 -23.5t-23 -9.5z" />
    <glyph glyph-name="Alpha" unicode="&#x391;" horiz-adv-x="527" 
d="M517 0h-60l-80 245h-228l-78 -245h-59l224 700h53zM362 300l-100 313l-97 -313h197z" />
    <glyph glyph-name="Beta" unicode="&#x392;" horiz-adv-x="566" 
d="M313 0h-230v700h221q82 0 129 -42t47 -128q0 -91 -66 -136q-1 -1 -1 -2v-1q44 -20 73.5 -65t29.5 -117q0 -39 -9.5 -73.5t-31 -66t-63 -50.5t-99.5 -19zM139 413h163q56 0 88 30t32 87q0 117 -126 117h-157v-234zM139 53h172q145 0 145 160q0 70 -38 107.5t-90 37.5h-189
v-305z" />
    <glyph glyph-name="Gamma" unicode="&#x393;" horiz-adv-x="428" 
d="M139 0h-56v700h334v-53h-278v-647z" />
    <glyph glyph-name="uni0394" unicode="&#x394;" horiz-adv-x="530" 
d="M518 0h-505l224 700h53zM442 50l-179 563l-176 -563h355z" />
    <glyph glyph-name="Epsilon" unicode="&#x395;" horiz-adv-x="465" 
d="M415 0h-332v700h334v-52h-278v-235h191l-19 -55h-172v-308h276v-50z" />
    <glyph glyph-name="Zeta" unicode="&#x396;" horiz-adv-x="565" 
d="M524 0h-487v50l410 599h-397v51h468v-50l-410 -599h416v-51z" />
    <glyph glyph-name="Eta" unicode="&#x397;" horiz-adv-x="596" 
d="M513 0h-56v358h-318v-358h-56v700h56v-287h318v287h56v-700z" />
    <glyph glyph-name="Theta" unicode="&#x398;" horiz-adv-x="552" 
d="M486 506v-321q0 -101 -61.5 -148.5t-147.5 -47.5t-148.5 47.5t-62.5 148.5v322q0 103 56.5 156t155.5 53t153.5 -56t54.5 -154zM122 516v-158h309v158q0 73 -42.5 110t-112.5 37t-112 -37t-42 -110zM431 187v116h-309v-117q0 -71 43.5 -107.5t110.5 -36.5
q68 0 111.5 35.5t43.5 109.5z" />
    <glyph glyph-name="Iota" unicode="&#x399;" horiz-adv-x="240" 
d="M157 0h-56v649l-67 2v49h123v-700z" />
    <glyph glyph-name="Kappa" unicode="&#x39a;" horiz-adv-x="485" 
d="M480 0h-67l-226 345l-48 -76v-269h-56v701h56v-334l224 334h65l-205 -303z" />
    <glyph glyph-name="Lambda" unicode="&#x39b;" horiz-adv-x="529" 
d="M518 0h-60l-195 613l-191 -613h-59l224 700h53z" />
    <glyph glyph-name="Mu" unicode="&#x39c;" horiz-adv-x="702" 
d="M619 0h-56v535l-182 -535h-61l-181 535v-535h-56v700h56l211 -614l213 614h56v-700z" />
    <glyph glyph-name="Nu" unicode="&#x39d;" horiz-adv-x="658" 
d="M575 0h-56l-380 597v-597h-56v700h56l380 -597v597h56v-700z" />
    <glyph glyph-name="Xi" unicode="&#x39e;" horiz-adv-x="591" 
d="M432 358h-264v55h264v-55zM490 649h-304q-78 0 -102 -70l-43 16q16 56 51 81t94 25h325zM405 0h-325l21 52h304q78 0 102 70l43 -16q-16 -56 -51 -81t-94 -25z" />
    <glyph glyph-name="Omicron" unicode="&#x39f;" horiz-adv-x="552" 
d="M486 506v-321q0 -101 -61.5 -148.5t-147.5 -47.5t-148.5 47.5t-62.5 148.5v322q0 103 56.5 156t155.5 53t153.5 -56t54.5 -154zM431 187v329q0 73 -42.5 110t-112.5 37t-112 -37t-42 -110v-330q0 -71 43.5 -107.5t110.5 -36.5q68 0 111.5 35.5t43.5 109.5z" />
    <glyph glyph-name="Pi" unicode="&#x3a0;" horiz-adv-x="596" 
d="M513 0h-56v645h-318v-645h-56v700h430v-700z" />
    <glyph glyph-name="Rho" unicode="&#x3a1;" horiz-adv-x="554" 
d="M139 300h198q36 0 61 14.5t37 32.5t18.5 48.5t7 46.5t0.5 44q0 81 -34.5 121t-93.5 40h-194v-347zM139 0h-56v700h246q95 0 141.5 -58t46.5 -156q0 -35 -1.5 -59.5t-11.5 -62t-28 -61t-54 -41t-86 -17.5h-197v-245z" />
    <glyph glyph-name="Sigma" unicode="&#x3a3;" horiz-adv-x="519" 
d="M343 0h-323l226 384l-210 318h428l-18 -53h-309l176 -262l-200 -336h226q38 0 66 18.5t40 52.5l43 -16q-16 -56 -51 -81t-94 -25z" />
    <glyph glyph-name="Tau" unicode="&#x3a4;" horiz-adv-x="426" 
d="M241 0h-56v650h-170v50h402v-50h-176v-650z" />
    <glyph glyph-name="Upsilon" unicode="&#x3a5;" horiz-adv-x="569" 
d="M384 -7l-13 37q61 23 61 122v142q-27 -24 -72 -36.5t-86 -12.5q-106 0 -167.5 52.5t-61.5 155.5v247h56v-257q0 -70 48 -106.5t125 -36.5q59 0 103 25t55 75v300h57v-544q0 -73 -27.5 -114.5t-77.5 -48.5z" />
    <glyph glyph-name="Phi" unicode="&#x3a6;" horiz-adv-x="662" 
d="M358 -35l-58 13v52h-44q-95 0 -141.5 52t-46.5 143v292q0 152 116 189l30 -45q-90 -23 -90 -144v-302q0 -66 36 -100t96 -34h44v524q3 50 32 78t76 28q87 0 137 -54.5t50 -145.5v-286q0 -91 -46.5 -143t-141.5 -52h-49v-65zM539 215v306q0 68 -38.5 102.5t-84.5 34.5
q-58 0 -58 -62v-515h49q60 0 96 34t36 100z" />
    <glyph glyph-name="Chi" unicode="&#x3a7;" horiz-adv-x="546" 
d="M526 0h-69l-184 294l-185 -294h-69l221 352l-202 348h63l172 -294l174 294h63l-203 -348z" />
    <glyph glyph-name="Psi" unicode="&#x3a8;" horiz-adv-x="626" 
d="M341 0h-57l-1 212h-44q-95 0 -141.5 51.5t-46.5 142.5v294h56v-304q0 -66 36 -100t96 -34h44v438h58v-438h49q60 0 96 34t36 100v168q0 40 -7 66.5t-14 35.5t-24 27l45 16q27 -17 40 -46.5t14.5 -50.5t1.5 -63v-143q0 -91 -46.5 -142.5t-141.5 -51.5h-49v-212z" />
    <glyph glyph-name="uni03A9" unicode="&#x3a9;" horiz-adv-x="641" 
d="M575 0h-228v51q76 15 103 31q56 33 56 114v317q0 67 -36.5 105t-95.5 38h-112q-59 0 -95.5 -38t-36.5 -105v-317q0 -33 10 -58t22 -38.5t37 -24t38 -14t42 -8.5q7 -1 10 -2v-51h-228l17 51h65q-69 43 -69 145v307q0 92 47 148t141 56h112q94 0 141 -56t47 -148v-307
q0 -100 -73 -145h69z" />
    <glyph glyph-name="Iotadieresis" unicode="&#x3aa;" horiz-adv-x="240" 
d="M50 731q-14 0 -23.5 9.5t-9.5 23.5t9.5 23.5t23.5 9.5t23.5 -9.5t9.5 -23.5t-9.5 -23.5t-23.5 -9.5zM206 731q-14 0 -23.5 9.5t-9.5 23.5t9.5 23.5t23.5 9.5t23.5 -9.5t9.5 -23.5t-9.5 -23.5t-23.5 -9.5zM157 0h-56v649l-67 2v49h123v-700z" />
    <glyph glyph-name="Upsilondieresis.alt" unicode="&#x3ab;" horiz-adv-x="476" 
d="M154 729q-14 0 -23.5 9.5t-9.5 23.5t9.5 23.5t23.5 9.5t23.5 -9.5t9.5 -23.5t-9.5 -23.5t-23.5 -9.5zM310 729q-14 0 -23.5 9.5t-9.5 23.5t9.5 23.5t23.5 9.5t23.5 -9.5t9.5 -23.5t-9.5 -23.5t-23.5 -9.5zM266 0h-56v340l-208 360h63l172 -294l174 294h63l-208 -358v-342
z" />
    <glyph glyph-name="alphatonos" unicode="&#x3ac;" horiz-adv-x="485" 
d="M447 35l-27 -33q-6 0 -19.5 1.5t-20.5 0.5q-46 -4 -68 -6t-63.5 -2.5t-63.5 4.5t-51.5 16.5t-44.5 30.5t-26 50t-11 72v185q0 56 21.5 92t54.5 49t75.5 12.5t82 -11.5t75.5 -29l19 41l44 -22q-7 -65 -7 -97v-312q6 -28 30 -42zM361 54v361q-38 15 -67 24t-66.5 14.5
t-62 -1.5t-41.5 -32t-17 -69v-189q0 -59 31 -87t87.5 -29.5t135.5 8.5zM255 538h-44l51 118q14 30 45 21q16 -5 20.5 -21t-3.5 -26z" />
    <glyph glyph-name="epsilontonos" unicode="&#x3ad;" horiz-adv-x="406" 
d="M232 538h-44l51 118q14 30 45 21q16 -5 20.5 -21t-3.5 -26zM370 74l16 -51q-78 -34 -170 -34q-77 0 -123 41t-51 102q-8 113 74 147q-25 13 -42 49.5t-11 77.5q8 51 51.5 78.5t96.5 26.5t105 -15v-51q-29 9 -60.5 12t-63 0t-52 -20.5t-21.5 -47.5q-1 -33 19.5 -60.5
t57.5 -27.5h119l-19 -54h-100q-47 0 -73 -26t-26 -71q0 -52 31 -80.5t93 -28.5q35 0 72 8.5t57 16.5z" />
    <glyph glyph-name="etatonos" unicode="&#x3ae;" horiz-adv-x="496" 
d="M281 538h-44l51 118q14 30 45 21q16 -5 20.5 -21t-3.5 -26zM435 -210l-55 24v529q0 52 -28 81t-69.5 33.5t-84 -4.5t-76.5 -28v-425h-56v501h56l-4 -34q42 35 113.5 41.5t118.5 -17.5q85 -39 85 -145v-556z" />
    <glyph glyph-name="iotatonos" unicode="&#x3af;" horiz-adv-x="188" 
d="M120 538h-44l51 118q14 30 45 21q16 -5 20.5 -21t-3.5 -26zM122 0h-56v501h56v-501z" />
    <glyph glyph-name="upsilondieresistonos" unicode="&#x3b0;" 
d="M165 541q-13 0 -23 9.5t-10 23.5t10 23.5t23 9.5t23 -9.5t10 -23.5t-10 -23.5t-23 -9.5zM321 541q-13 0 -23 9.5t-10 23.5t10 23.5t23 9.5t23 -9.5t10 -23.5t-10 -23.5t-23 -9.5zM267 579h-44l51 118q14 30 45 21q16 -5 20.5 -21t-3.5 -26zM384 165v336h56v-329
q0 -182 -192 -182q-188 0 -188 182v329h56v-336q0 -64 35.5 -94.5t96.5 -30.5q136 0 136 125z" />
    <glyph glyph-name="alpha" unicode="&#x3b1;" horiz-adv-x="485" 
d="M447 35l-27 -33q-6 0 -19.5 1.5t-20.5 0.5q-46 -4 -68 -6t-63.5 -2.5t-63.5 4.5t-51.5 16.5t-44.5 30.5t-26 50t-11 72v185q0 56 21.5 92t54.5 49t75.5 12.5t82 -11.5t75.5 -29l19 41l44 -22q-7 -65 -7 -97v-312q6 -28 30 -42zM361 54v361q-38 15 -67 24t-66.5 14.5
t-62 -1.5t-41.5 -32t-17 -69v-189q0 -59 31 -87t87.5 -29.5t135.5 8.5z" />
    <glyph glyph-name="beta" unicode="&#x3b2;" horiz-adv-x="487" 
d="M122 -161h-56v698q0 77 34.5 120.5t105.5 43.5q43 0 74.5 -23t44 -55t7 -68.5t-30.5 -60.5q59 -11 97 -54t38 -110v-184q0 -63 -29.5 -101.5t-79.5 -51t-99 -12.5t-106 10v-152zM381 141v186q0 52 -28 81.5t-69.5 33.5t-84 -3.5t-76.5 -25.5v-373q258 -42 258 101z
M123 541v-78q50 26 112 45q31 9 38.5 43.5t-12 65t-55.5 30.5q-83 0 -83 -106z" />
    <glyph glyph-name="gamma" unicode="&#x3b3;" horiz-adv-x="481" 
d="M261 -168l-38 -30q-21 18 -27 50.5t7 69.5l22 73q-27 19 -37.5 28.5t-27 36t-30.5 69.5l-108 372h57l106 -361q8 -29 13 -42t16 -29t28 -25l104 344q16 54 37 83.5t65 39.5l37 -31q-4 -2 -15.5 -7t-15.5 -7.5t-13.5 -10.5t-15 -17t-13.5 -25t-15 -37l-125 -418
q-20 -58 -22 -83t11 -43z" />
    <glyph glyph-name="delta" unicode="&#x3b4;" horiz-adv-x="470" 
d="M423 288v-104q0 -194 -185 -194q-95 0 -141.5 51.5t-46.5 142.5v126q0 80 35 130.5t102 63.5q-35 33 -39.5 80.5t27 84t90.5 36.5h45l-21 -51h-33q-27 0 -41.5 -22.5t-5.5 -54t42 -53.5q35 -23 54.5 -37t45.5 -38t39 -45t23 -51t10 -65zM367 174v127q0 37 -30.5 85.5
t-93.5 77.5q-137 -12 -137 -154v-136q0 -66 36 -100t96 -34q129 0 129 134z" />
    <glyph glyph-name="epsilon" unicode="&#x3b5;" horiz-adv-x="406" 
d="M370 74l16 -51q-78 -34 -170 -34q-77 0 -123 41t-51 102q-8 113 74 147q-25 13 -42 49.5t-11 77.5q8 51 51.5 78.5t96.5 26.5t105 -15v-51q-29 9 -60.5 12t-63 0t-52 -20.5t-21.5 -47.5q-1 -33 19.5 -60.5t57.5 -27.5h119l-19 -54h-100q-47 0 -73 -26t-26 -71
q0 -52 31 -80.5t93 -28.5q35 0 72 8.5t57 16.5z" />
    <glyph glyph-name="zeta" unicode="&#x3b6;" horiz-adv-x="396" 
d="M363 -183l-56 -26v217q-113 -26 -185 13.5t-85 116.5q-7 44 2.5 99t30.5 99q76 158 242 317h-210v47h272l16 -49q-59 -46 -129 -127t-118 -167q-27 -49 -41.5 -100t-8.5 -100t37 -75q66 -54 233 -10v-255z" />
    <glyph glyph-name="eta" unicode="&#x3b7;" horiz-adv-x="496" 
d="M435 -210l-55 24v529q0 52 -28 81t-69.5 33.5t-84 -4.5t-76.5 -28v-425h-56v501h56l-4 -34q42 35 113.5 41.5t118.5 -17.5q85 -39 85 -145v-556z" />
    <glyph glyph-name="theta" unicode="&#x3b8;" horiz-adv-x="488" 
d="M430 505v-314q0 -89 -49.5 -143t-140.5 -54q-92 1 -141 54.5t-49 142.5v150q2 64 53 97q-36 70 -34 130.5t48 101t121 40.5q95 -2 143.5 -56t48.5 -149zM374 185v267q-47 4 -109 -8.5t-110.5 -40.5t-48.5 -62v-156q0 -52 27.5 -88t67 -44.5t79 0t67 44.5t27.5 88z
M153 463q107 52 221 43q0 81 -39 116t-96 35t-85 -31t-26 -74.5t25 -88.5z" />
    <glyph glyph-name="iota" unicode="&#x3b9;" horiz-adv-x="188" 
d="M122 0h-56v501h56v-501z" />
    <glyph glyph-name="kappa" unicode="&#x3ba;" horiz-adv-x="448" 
d="M434 47l2 -48q-35 0 -65 18.5t-45.5 36.5t-43.5 56l-105 144l-55 -56v-198h-56v512l56 -13v-225l208 227h74l-188 -205l127 -179q51 -68 91 -70z" />
    <glyph glyph-name="lambda" unicode="&#x3bb;" horiz-adv-x="477" 
d="M484 21l-37 -31q-44 10 -65 39.5t-37 83.5l-104 344q-17 -9 -28 -25t-16 -29t-13 -42l-106 -361h-57l108 372q14 43 30.5 69.5t27 36t37.5 28.5l-23 71q-26 76 -94 80v43q61 1 94 -23.5t53 -83.5l142 -468q7 -21 15 -37t13.5 -25t15 -17t13.5 -10.5t15.5 -7.5t15.5 -7z
" />
    <glyph glyph-name="uni03BC" unicode="&#x3bc;" horiz-adv-x="515" 
d="M473 27l-27 -33q-26 0 -44 31q-43 -43 -137 -36q-28 3 -54.5 11t-41.5 14.5t-29.5 14.5t-16.5 9v-248l-57 9v702h57v-396q8 -8 23 -19t52.5 -27.5t75.5 -18.5q115 -7 115 113v345l57 12v-441q3 -28 27 -42z" />
    <glyph glyph-name="nu" unicode="&#x3bd;" horiz-adv-x="408" 
d="M242 0h-77l-153 501h59l133 -443l134 443h59z" />
    <glyph glyph-name="xi" unicode="&#x3be;" horiz-adv-x="387" 
d="M354 -192l-54 -26v220q-67 -11 -121 -0.5t-90.5 52t-36.5 110.5v184q0 70 42.5 115t100.5 51q-32 27 -37 73t26 83.5t90 37.5h45l-21 -51h-33q-27 0 -41.5 -23.5t-5.5 -55.5t42 -54q21 -13 72 -30l-16 -44q-47 11 -93.5 11.5t-81 -29.5t-34.5 -87v-186q0 -43 22.5 -69.5
t59 -34t79 -4.5t86.5 17v-260z" />
    <glyph glyph-name="omicron" unicode="&#x3bf;" horiz-adv-x="469" 
d="M421 316v-132q0 -84 -46 -139t-139 -55t-140.5 55.5t-47.5 138.5v132q0 95 48.5 145.5t139.5 50.5q87 0 136 -52.5t49 -143.5zM365 174v142q0 145 -129 145q-132 0 -132 -145v-142q0 -60 35.5 -97t96.5 -37q62 0 95.5 36.5t33.5 97.5z" />
    <glyph glyph-name="pi" unicode="&#x3c0;" horiz-adv-x="515" 
d="M474 27l-27 -33q-2 1 -6 2t-14.5 7t-18 14.5t-14 25t-6.5 36.5l1 375h-267v-454h-56v501h379v-432q5 -28 29 -42z" />
    <glyph glyph-name="rho" unicode="&#x3c1;" horiz-adv-x="482" 
d="M113 -195l-54 -16v526q0 89 49 140.5t138 51.5q96 0 141 -53.5t45 -146.5v-135q0 -88 -47 -135t-138 -47q-90 0 -134 54v-239zM376 165v148q0 142 -131 142q-55 0 -92.5 -32t-37.5 -109v-149q0 -63 36 -94t96 -31t94.5 30.5t34.5 94.5z" />
    <glyph glyph-name="sigma1" unicode="&#x3c2;" horiz-adv-x="351" 
d="M322 -147l-43 27q16 21 7.5 55.5t-41.5 55.5q-8 5 -33 21t-34 22t-30 20.5t-29.5 23t-24 23t-22 27t-15 29t-11.5 34t-3 36.5v140q0 53 41.5 95.5t130.5 42.5q32 0 60 -6.5t40 -13.5l12 -7l-19 -46q-33 24 -90 24q-49 0 -84 -23.5t-35 -62.5v-124q0 -66 34 -106.5
t134 -102.5q37 -23 56 -57t18 -67.5t-19 -59.5z" />
    <glyph glyph-name="sigma" unicode="&#x3c3;" horiz-adv-x="492" 
d="M424 310v-135q0 -194 -185 -194q-95 0 -141.5 51.5t-46.5 142.5v179q0 48 18.5 81.5t48.5 48.5t67 21.5t74 -0.5q58 -9 97 -2t75 40l41 -15q-35 -61 -95 -76q20 -14 33.5 -53t13.5 -89zM368 165v145q0 43 -13 77t-25 48t-16 13q-57 9 -103 10t-75 -25.5t-29 -81.5v-186
q0 -66 36 -100t96 -34q129 0 129 134z" />
    <glyph glyph-name="tau" unicode="&#x3c4;" horiz-adv-x="334" 
d="M256 30l-16 -43q-56 16 -81 51t-25 94v315h-120v53h301v-53h-125v-315q0 -80 66 -102z" />
    <glyph glyph-name="upsilon" unicode="&#x3c5;" 
d="M384 165v336h56v-329q0 -182 -192 -182q-188 0 -188 182v329h56v-336q0 -64 35.5 -94.5t96.5 -30.5q136 0 136 125z" />
    <glyph glyph-name="phi" unicode="&#x3c6;" horiz-adv-x="625" 
d="M340 -216l-57 13l-1 198h-44q-95 0 -141.5 51.5t-46.5 142.5v125q0 152 116 189l30 -45q-90 -23 -90 -144v-135q0 -66 36 -100t96 -34h44v356q3 50 32 78t76 28q87 0 137 -54.5t50 -145.5v-118q0 -91 -46.5 -142.5t-141.5 -51.5h-49v-211zM521 179v138q0 68 -38.5 102.5
t-84.5 34.5q-58 0 -58 -62v-347h49q60 0 96 34t36 100z" />
    <glyph glyph-name="chi" unicode="&#x3c7;" horiz-adv-x="426" 
d="M471 -172l-28 -40q-82 -1 -132 96l-102 208l-151 -296l-53 20l173 339l-168 346h63l137 -284l145 284h63l-178 -348l121 -249q10 -21 21 -35.5t24 -21.5t21 -10t23.5 -5.5t20.5 -3.5z" />
    <glyph glyph-name="psi" unicode="&#x3c8;" horiz-adv-x="641" 
d="M349 -219l-58 13v201h-44q-95 0 -141.5 51.5t-46.5 142.5v311h56v-321q0 -66 36 -100t96 -34h44v455h58v-455h49q60 0 96 34t36 100v182q0 40 -7 66.5t-14 35.5t-24 27l45 16q27 -17 40 -46.5t14.5 -50.5t1.5 -63v-157q0 -91 -46.5 -142.5t-141.5 -51.5h-49v-214z" />
    <glyph glyph-name="omega" unicode="&#x3c9;" horiz-adv-x="632" 
d="M526 178v149q0 104 -83 129l32 44q107 -40 107 -183v-129q0 -200 -161 -200q-70 0 -105 53q-37 -53 -105 -53q-161 0 -161 200v129q0 143 107 183l32 -44q-83 -25 -83 -129v-149q0 -70 29.5 -103.5t72.5 -33.5q41 0 59 29t20 88v141h58v-141q1 -59 19 -88t60 -29
q43 0 72.5 33.5t29.5 103.5z" />
    <glyph glyph-name="iotadieresis" unicode="&#x3ca;" horiz-adv-x="188" 
d="M122 0h-56v501h56v-501zM15 539q-13 0 -23 9.5t-10 23.5t10 23.5t23 9.5t23 -9.5t10 -23.5t-10 -23.5t-23 -9.5zM171 539q-13 0 -23 9.5t-10 23.5t10 23.5t23 9.5t23 -9.5t10 -23.5t-10 -23.5t-23 -9.5z" />
    <glyph glyph-name="upsilondieresis" unicode="&#x3cb;" 
d="M173 539q-13 0 -23 9.5t-10 23.5t10 23.5t23 9.5t23 -9.5t10 -23.5t-10 -23.5t-23 -9.5zM329 539q-13 0 -23 9.5t-10 23.5t10 23.5t23 9.5t23 -9.5t10 -23.5t-10 -23.5t-23 -9.5zM384 165v336h56v-329q0 -182 -192 -182q-188 0 -188 182v329h56v-336q0 -64 35.5 -94.5
t96.5 -30.5q136 0 136 125z" />
    <glyph glyph-name="omicrontonos" unicode="&#x3cc;" horiz-adv-x="469" 
d="M253 538h-44l51 118q14 30 45 21q16 -5 20.5 -21t-3.5 -26zM421 316v-132q0 -84 -46 -139t-139 -55t-140.5 55.5t-47.5 138.5v132q0 95 48.5 145.5t139.5 50.5q87 0 136 -52.5t49 -143.5zM365 174v142q0 145 -129 145q-132 0 -132 -145v-142q0 -60 35.5 -97t96.5 -37
q62 0 95.5 36.5t33.5 97.5z" />
    <glyph glyph-name="upsilontonos" unicode="&#x3cd;" 
d="M275 538h-44l51 118q14 30 45 21q16 -5 20.5 -21t-3.5 -26zM384 165v336h56v-329q0 -182 -192 -182q-188 0 -188 182v329h56v-336q0 -64 35.5 -94.5t96.5 -30.5q136 0 136 125z" />
    <glyph glyph-name="omegatonos" unicode="&#x3ce;" horiz-adv-x="632" 
d="M339 538h-44l51 118q14 30 45 21q16 -5 20.5 -21t-3.5 -26zM526 178v149q0 104 -83 129l32 44q107 -40 107 -183v-129q0 -200 -161 -200q-70 0 -105 53q-37 -53 -105 -53q-161 0 -161 200v129q0 143 107 183l32 -44q-83 -25 -83 -129v-149q0 -70 29.5 -103.5t72.5 -33.5
q41 0 59 29t20 88v141h58v-141q1 -59 19 -88t60 -29q43 0 72.5 33.5t29.5 103.5z" />
    <glyph glyph-name="quoteleft" unicode="&#x2018;" horiz-adv-x="185" 
d="M90 631l10 -3q18 -13 18 -36q-1 -13 -11 -22t-24 -8q-13 1 -23.5 12.5t-10.5 24.5q-1 59 64 113l40 -28q-21 -12 -37 -25t-21 -21z" />
    <glyph glyph-name="quoteright" unicode="&#x2019;" horiz-adv-x="186" 
d="M78 560l-40 28q21 12 37 25t21 21l5 7l-10 3q-18 13 -18 36q1 13 11 22t24 8q13 -1 23.5 -12.5t10.5 -24.5q1 -59 -64 -113z" />
    <glyph glyph-name="quotesinglbase" unicode="&#x201a;" horiz-adv-x="204" 
d="M73 -84l-40 28q21 12 37 25t21 21l5 7l-10 3q-18 13 -18 36q1 13 11 22t24 8q13 -1 23.5 -12.5t10.5 -24.5q1 -59 -64 -113z" />
    <glyph glyph-name="quotedblleft" unicode="&#x201c;" horiz-adv-x="339" 
d="M90 635l10 -3q18 -13 18 -36q-1 -13 -11 -22t-24 -8q-13 1 -23.5 12.5t-10.5 24.5q-1 59 64 113l40 -28q-21 -12 -37 -25t-21 -21zM241 635l10 -3q18 -13 18 -36q-1 -13 -11 -22t-24 -8q-13 1 -23.5 12.5t-10.5 24.5q-1 59 64 113l40 -28q-21 -12 -37 -25t-21 -21z" />
    <glyph glyph-name="quotedblright" unicode="&#x201d;" horiz-adv-x="336" 
d="M78 560l-40 28q21 12 37 25t21 21l5 7l-10 3q-18 13 -18 36q1 13 11 22t24 8q13 -1 23.5 -12.5t10.5 -24.5q1 -59 -64 -113zM229 560l-40 28q21 12 37 25t21 21l5 7l-10 3q-18 13 -18 36q1 13 11 22t24 8q13 -1 23.5 -12.5t10.5 -24.5q1 -59 -64 -113z" />
    <glyph glyph-name="quotedblbase" unicode="&#x201e;" horiz-adv-x="352" 
d="M71 -82l-40 28q21 12 37 25.5t21 20.5l5 7l-10 3q-18 13 -18 36q1 13 11 22t24 8q13 -1 23.5 -12.5t10.5 -24.5q1 -59 -64 -113zM222 -82l-40 28q21 12 37 25.5t21 20.5l5 7l-10 3q-18 13 -18 36q1 13 11 22t24 8q13 -1 23.5 -12.5t10.5 -24.5q1 -59 -64 -113z" />
    <glyph glyph-name="bullet" unicode="&#x2022;" horiz-adv-x="483" 
d="M241 158q-74 0 -126 52.5t-52 126.5t52 126t126 52t126.5 -52t52.5 -126t-52.5 -126.5t-126.5 -52.5z" />
    <glyph glyph-name="ellipsis" unicode="&#x2026;" horiz-adv-x="558" 
d="M101 0q-13 0 -23 10t-10 23t10 23t23 10t23 -10t10 -23t-10 -23t-23 -10zM278 0q-14 0 -23.5 10t-9.5 23t9.5 23t23.5 10t23.5 -10t9.5 -23t-9.5 -23t-23.5 -10zM458 0q-14 0 -23.5 10t-9.5 23t9.5 23t23.5 10t23.5 -10t9.5 -23t-9.5 -23t-23.5 -10z" />
    <glyph glyph-name="perthousand" unicode="&#x2030;" horiz-adv-x="1034" 
d="M844 -11q-60 0 -102 42t-42 102t42 102t102 42t102 -42t42 -102t-42 -102t-102 -42zM938 133q0 37 -26 65.5t-68 28.5t-68 -28.5t-26 -65.5t26 -65.5t68 -28.5t68 28.5t26 65.5zM87 1l-35 40l567 699l40 -41zM513 -11q-60 0 -102 42t-42 102t42 102t102 42t102 -42
t42 -102t-42 -102t-102 -42zM607 133q0 37 -26 65.5t-68 28.5t-68 -28.5t-26 -65.5t26 -65.5t68 -28.5t68 28.5t26 65.5zM202 439q-60 0 -102 42t-42 102t42 102t102 42t102 -42t42 -102t-42 -102t-102 -42zM296 583q0 37 -26 65.5t-68 28.5t-68 -28.5t-26 -65.5t26 -65.5
t68 -28.5t68 28.5t26 65.5z" />
    <glyph glyph-name="guilsinglleft" unicode="&#x2039;" horiz-adv-x="333" 
d="M266 114l-35 -34l-187 187v1l187 187l37 -38l-150 -150z" />
    <glyph glyph-name="guilsinglright" unicode="&#x203a;" horiz-adv-x="333" 
d="M102 80l-35 34l148 153l-150 150l37 38l187 -187v-1z" />
    <glyph glyph-name="fraction" unicode="&#x2044;" horiz-adv-x="442" 
d="M91 -114h-61l324 931h57z" />
    <glyph glyph-name="Euro" unicode="&#x20ac;" horiz-adv-x="487" 
d="M444 70l12 -47q-49 -19 -98 -27.5t-97 -4t-84.5 24t-59 62t-22.5 105.5v70h-55v55h55v50h-55v55h55v91q0 76 21.5 115t65.5 66q50 28 120 25t129 -33l-16 -38q-57 21 -108 21q-156 0 -156 -147v-100h209v-55h-209v-50h209v-55h-209v-68q0 -64 31 -100.5t96 -43t166 28.5z
" />
    <glyph glyph-name="trademark" unicode="&#x2122;" horiz-adv-x="471" 
d="M409 512h-46v120l-40 -120h-31l-40 120v-120h-48v142h-56v-142h-48v142h-63v46h231l39 -108l38 108h64v-188z" />
    <glyph glyph-name="Omega" unicode="&#x2126;" horiz-adv-x="631" 
d="M573 0h-228v51q76 15 103 31q56 33 56 114v317q0 67 -36.5 105t-95.5 38h-112q-59 0 -95.5 -38t-36.5 -105v-317q0 -33 10 -58t22 -38.5t37 -24t38 -14t42 -8.5q7 -1 10 -2v-51h-228l17 51h65q-69 43 -69 145v307q0 92 47 148t141 56h112q94 0 141 -56t47 -148v-307
q0 -100 -73 -145h69z" />
    <glyph glyph-name="Delta" unicode="&#x2206;" horiz-adv-x="616" 
d="M583 0h-505l224 700h53zM507 50l-179 563l-176 -563h355z" />
    <glyph glyph-name="CR" horiz-adv-x="278" 
 />
    <glyph glyph-name="uni03BC.001" horiz-adv-x="556" 
 />
    <glyph glyph-name="Upsilondieresis" horiz-adv-x="569" 
d="M384 -7l-13 37q61 23 61 122v142q-27 -24 -72 -36.5t-86 -12.5q-106 0 -167.5 52.5t-61.5 155.5v247h56v-257q0 -70 48 -106.5t125 -36.5q59 0 103 25t55 75v300h57v-544q0 -73 -27.5 -114.5t-77.5 -48.5zM190 731q-14 0 -23.5 9.5t-9.5 23.5t9.5 23.5t23.5 9.5
t23.5 -9.5t9.5 -23.5t-9.5 -23.5t-23.5 -9.5zM346 731q-14 0 -23.5 9.5t-9.5 23.5t9.5 23.5t23.5 9.5t23.5 -9.5t9.5 -23.5t-9.5 -23.5t-23.5 -9.5z" />
    <glyph glyph-name="_210" 
 />
    <glyph glyph-name="_196" horiz-adv-x="616" 
d="M583 0h-505l224 700h53zM507 50l-179 563l-176 -563h355z" />
    <glyph glyph-name="Y.alt" horiz-adv-x="466" 
d="M261 0h-56v340l-208 360h63l172 -294l174 294h63l-208 -358v-342z" />
    <glyph glyph-name="y.alt" horiz-adv-x="475" 
d="M169 -198h-59l92 218l-198 481h63l164 -414l178 414h63z" />
    <glyph glyph-name="Ydieresis.alt" horiz-adv-x="466" 
d="M261 0h-56v340l-208 360h63l172 -294l174 294h63l-208 -358v-342zM153 731q-13 0 -23 9.5t-10 23.5t10 23.5t23 9.5t23 -9.5t10 -23.5t-10 -23.5t-23 -9.5zM309 731q-13 0 -23 9.5t-10 23.5t10 23.5t23 9.5t23 -9.5t10 -23.5t-10 -23.5t-23 -9.5z" />
    <glyph glyph-name="Yacute.alt" horiz-adv-x="466" 
d="M255 731h-44l51 118q14 30 45 21q16 -5 20.5 -21t-3.5 -26zM261 0h-56v340l-208 360h63l172 -294l174 294h63l-208 -358v-342z" />
    <glyph glyph-name="yacute.alt" horiz-adv-x="475" 
d="M169 -198h-59l92 218l-198 481h63l164 -414l178 414h63zM250 543h-44l51 118q14 30 45 21q16 -5 20.5 -21t-3.5 -26z" />
    <glyph glyph-name="ydieresis.alt" horiz-adv-x="475" 
d="M162 539q-14 0 -23.5 9.5t-9.5 23.5t9.5 23.5t23.5 9.5t23.5 -9.5t9.5 -23.5t-9.5 -23.5t-23.5 -9.5zM318 539q-14 0 -23.5 9.5t-9.5 23.5t9.5 23.5t23.5 9.5t23.5 -9.5t9.5 -23.5t-9.5 -23.5t-23.5 -9.5zM169 -198h-59l92 218l-198 481h63l164 -414l178 414h63z" />
    <glyph glyph-name="Upsilon.alt" horiz-adv-x="476" 
d="M266 0h-56v340l-208 360h63l172 -294l174 294h63l-208 -358v-342z" />
    <glyph glyph-name="dotlessj" horiz-adv-x="205" 
d="M83 -56v502l-45 3l-23 52h124v-576q-2 -58 -36 -96t-88 -38l-7 43q3 0 8 1.5t18 8t23 17.5t18 32.5t8 50.5z" />
    <glyph glyph-name="sigma_chi" horiz-adv-x="888" 
d="M933 -172l-28 -40q-82 -1 -132 96l-102 208l-151 -296l-53 20l173 339l-77 158q-33 68 -30 117t44 95l37 -35q-25 -37 -22 -75.5t32 -98.5l48 -99l145 284h63l-178 -348l121 -249q10 -21 21 -35.5t24 -21.5t21 -10t23.5 -5.5t20.5 -3.5zM424 310v-135q0 -194 -185 -194
q-95 0 -141.5 51.5t-46.5 142.5v179q0 48 18.5 81.5t48.5 48.5t67 21.5t74 -0.5q58 -9 97 -2t75 40l41 -15q-35 -61 -95 -76q20 -14 33.5 -53t13.5 -89zM368 165v145q0 43 -13 77t-25 48t-16 13q-57 9 -103 10t-75 -25.5t-29 -81.5v-186q0 -66 36 -100t96 -34q129 0 129 134
z" />
    <glyph glyph-name="sigma_tau" horiz-adv-x="781" 
d="M581 132v315h-94l-55 27q-20 -14 -55 -22q19 -14 33 -53.5t14 -88.5v-135q0 -194 -185 -194q-95 0 -141.5 51.5t-46.5 142.5v179q0 48 18.5 81.5t48.5 48.5t67 21.5t74 -0.5q58 -9 97 -2t75 40l4 -4q39 -37 59 -39h268v-53h-125v-315q0 -80 66 -102q-3 -7 -8.5 -21.5
t-7.5 -21.5q-56 16 -81 51t-25 94zM368 165v145q0 43 -13 77t-25 48t-16 13q-57 9 -103 10t-75 -25.5t-29 -81.5v-186q0 -66 36 -100t96 -34q129 0 129 134z" />
    <glyph glyph-name="lambda_lambda" horiz-adv-x="888" 
d="M595 361l-96 -338q-3 -2 -52 -35q-43 11 -64.5 41.5t-37.5 83.5q-17 57 -51.5 171.5t-52.5 172.5q-17 -9 -28 -25t-16 -29t-13 -42q-18 -60 -53.5 -180.5t-52.5 -180.5h-57l108 372q14 43 30.5 69.5t27 36t37.5 28.5l-6 18q-12 38 -19 55t-20 38t-30 29.5t-42 10.5v43
q61 1 94 -23.5t53 -83.5l154 -498q6 -19 15 -31t15 -15l6 -3q16 55 48 163t48 163q14 43 30.5 69.5t27 36t37.5 28.5l-6 18q-12 38 -19 55t-20 38t-30 29.5t-42 10.5v43q61 1 94 -23.5t53 -83.5q24 -78 71.5 -234t70.5 -234q7 -21 15 -37t13.5 -25t15 -17t13.5 -10.5
t15.5 -7.5t15.5 -7q-6 -5 -18.5 -15.5t-18.5 -15.5q-44 10 -65 39.5t-37 83.5q-18 58 -52.5 172t-51.5 172q-24 -13 -35 -34.5t-22 -61.5z" />
    <glyph glyph-name="gamma_gamma" horiz-adv-x="881" 
d="M130 129l-108 372h57q13 -43 38.5 -129t37.5 -129q4 -14 15 -56t17.5 -62.5t21.5 -45.5t33 -35q17 58 51.5 172t52.5 172q16 54 37 83.5t65 39.5v-1l39 -30q12 -41 34 -118t31 -109q4 -14 12.5 -47t14 -52.5t15 -44.5t21.5 -41t27 -24q17 58 52 172t52 172q16 54 37 83.5
t65 39.5q6 -5 18.5 -15.5t18.5 -15.5q-4 -2 -15.5 -7t-15.5 -7.5t-13.5 -10.5t-15 -17t-13.5 -25t-15 -37q-41 -140 -125 -418q-20 -58 -22 -83t11 -43q-7 -5 -19.5 -15t-18.5 -15q-22 18 -27 50.5t7 69.5q6 17 22 73q-27 19 -37.5 28.5t-27 36t-30.5 69.5
q-15 54 -46.5 161.5t-47.5 161.5q-22 -24 -39 -76q-21 -69 -62.5 -209t-62.5 -209q-20 -58 -22 -83t11 -43q-6 -5 -18.5 -15t-19.5 -15q-22 18 -27 50.5t7 69.5q6 17 22 73q-27 19 -37.5 28.5t-27 36t-30.5 69.5z" />
    <glyph glyph-name="gamma_kappa" horiz-adv-x="836" 
d="M671 110l-105 144q-9 -10 -27.5 -28t-27.5 -28v-198h-56v466q-35 -19 -58 -90q-21 -69 -62.5 -209t-62.5 -209q-20 -58 -22 -83t11 -43q-6 -5 -18.5 -15t-19.5 -15q-22 18 -27 50.5t7 69.5q6 17 22 73q-27 19 -37.5 28.5t-27 36t-30.5 69.5l-108 372h57q13 -43 38.5 -129
t37.5 -129q4 -14 15 -56t17.5 -62.5t21.5 -45.5t33 -35q17 58 51.5 172t52.5 172q16 54 37 83.5t65 39.5l63 -12v-225q34 38 103.5 113.5t104.5 113.5h74q-31 -34 -94 -102.5t-94 -102.5q84 -120 127 -179q49 -68 91 -70q1 -8 1 -24t1 -24q-35 0 -65 18.5t-45.5 36.5
t-43.5 56z" />
    <glyph glyph-name="Upsilontonos.alt" horiz-adv-x="656" 
d="M66 568h-44l51 118q14 30 45 21q16 -5 20.5 -21t-3.5 -26zM446 0h-56v340l-208 360h63l172 -294l174 294h63l-208 -358v-342z" />
    </font>
</defs>
</svg>
